<?xml version="1.0" encoding="utf-8"?>
<!-- Generator: Adobe Illustrator 16.0.0, SVG Export Plug-In . SVG Version: 6.00 Build 0)  -->
<!DOCTYPE svg PUBLIC "-//W3C//DTD SVG 1.1//EN" "http://www.w3.org/Graphics/SVG/1.1/DTD/svg11.dtd">
<svg version="1.1" id="Layer_4_xA0_Bild_1_" xmlns="http://www.w3.org/2000/svg" xmlns:xlink="http://www.w3.org/1999/xlink"
	 x="0px" y="0px" width="336px" height="778px" viewBox="0 0 336 778" enable-background="new 0 0 336 778" xml:space="preserve">
<g>
	<g>
		<path fill-rule="evenodd" clip-rule="evenodd" d="M137,779c-0.679-0.319-1.347-0.884-2.039-0.915
			c-2.494-0.113-4.999,0.018-7.496-0.059c-10.115-0.309-20.247-0.388-30.335-1.094c-6.353-0.444-12.583-2.054-18.507-4.595
			c-1.51-0.648-3.11-1.088-4.763-1.656c-2.278-1.718-2.473-4.4-1.703-6.709c1.659-4.979,3.386-10.057,7.808-13.491
			c0.646-0.502,1.275-1.328,1.976-1.402c3.303-0.352,5.152-2.749,7.246-4.822c2.487-2.462,4.822-5.094,7.452-7.391
			c6.127-5.349,9.845-12.367,13.069-19.525c4.419-9.812,8.678-19.772,11.926-30.012c2.817-8.883,6.132-17.553,9.266-26.303
			c4.301-12.009,8.572-24.026,13-36.443c-3.979-1.035-7.884-2.287-12.142-2.636c-5.209-0.427-10.38-1.432-15.536-2.36
			c-2.289-0.412-4.415-1.38-5.346-3.211c-0.98-4.431-0.548-8.401,0.118-12.33c0.684-4.03,1.609-8.02,2.389-11.832
			c-0.488-4.13-0.982-8.209-1.45-12.292c-1.131-9.881-1.633-19.914-6.52-28.931c-1.785-3.293-3.502-6.709-5.833-9.598
			c-3.234-4.009-4.65-8.723-5.346-13.468c-0.469-3.194-1.782-5.967-2.682-8.896c-2.12-6.899-4.742-13.65-7.325-20.399
			c-1.427-3.728-3.185-7.329-4.924-11.285c-1.217,0-2.783,0-4.874,0c-0.211,2.16-0.397,4.075-0.635,6.515
			c-1.347,1.097-3.025,2.464-4.01,3.265c-0.817,2.832-1.357,4.703-1.983,6.872c-2.789,0.883-5.559,1.759-9.104,2.88
			c-4.544,4.376-9.348,9.813-15.89,13.323c-10.322-2.556-17.657-8.675-22.462-18.248c2.564-7.088,7.835-12.361,14.438-16.833
			c-0.23-0.731-0.701-1.408-0.526-1.794c2.204-4.869-0.679-8.68-2.934-12.291c-4.679-7.494-10.084-14.536-14.716-22.057
			c-3.355-5.447-5.59-11.431-6.765-17.867c-0.93-5.096-1.924-10.286-4.983-14.801c-1.946-2.872-2.855-6.239-2.943-9.792
			C1.897,405.67,1.321,404.838,1,404c0-2.667,0-5.333,0-8c0.229-0.228,0.459-0.455,0.689-0.684C1.459,395.211,1.229,395.105,1,395
			c0-1,0-2,0-3c1.104-0.667,1.22-1.333,0-2c0-0.667,0-1.333,0-2c0.314-0.503,0.86-0.983,0.909-1.511
			c0.729-7.881,1.24-15.785,2.121-23.647c0.691-6.165,1.967-12.195,4.297-18.051c2.37-5.955,3.998-12.205,7.453-17.705
			c1.307-2.082,2.572-4.19,3.866-6.28c0.831-1.344,1.678-2.676,2.596-4.137c-4.716-3.273-10.612-4.364-12.748-9.938
			c5.8-8.186,11.45-16.532,17.493-24.585c6.101-8.131,10.817-17.304,18.481-24.287c2.005-1.828,3.08-4.638,4.907-6.71
			c4.156-4.715,8.45-9.313,12.808-13.845c3.909-4.063,7.738-8.252,12.851-10.921c0.715-0.373,1.306-1.231,2.021-1.319
			c3.5-0.428,5.338-3.1,7.528-5.218c0.382-1.512,1.083-2.956,1.048-4.383c-0.125-5.028-0.503-10.05-0.776-14.919
			c-7.702-3.631-15.119-7.108-22.517-10.624c-3.767-1.789-6.355-5.017-8.103-8.486c-3.394-6.735-7.568-12.881-12.108-18.845
			c-3.91-5.137-8.229-9.962-8.656-17.07c-0.135-2.24-2.398-4.511-4.043-6.467c-3.189-3.792-6.65-7.354-9.96-11.044
			c-2.41-2.686-3.354-5.938-3.481-9.479c-0.06-1.661-0.28-3.327-0.208-4.982c0.319-7.329,2.021-13.9,9.767-16.822
			c0.505-1.683,0.975-3.247,1.565-5.214c-1.648-3.852-3.413-7.976-5.149-12.036c3.548-6.642,4.348-13.35,1.078-20.974
			c1.241-1.955,2.777-4.376,4.58-7.215c1.71,1.066,2.901,1.811,3.829,2.389c-0.699,9.183-1.367,17.964-2.054,26.983
			c2.557,3.061,5.229,6.351,4.759,11.114c1.667,0,2.956,0,4.409,0c-0.738-0.671-1.387-1.261-2.133-1.94
			c0.778-2.509,1.658-4.818,3.876-6.53c1.06-0.817,2.17-1.919,1.097-3.846c-0.292-0.524,1.5-2.212,2.592-3.72
			c0-1.402,0-3.222,0-5.396c1.48-1.099,3.037-2.252,4.633-3.436c2.691,1.332,5.373,1.384,9.204,0.423
			c-4.341-1.664-7.359-3.599-8.724-7.256c2.809-3.766,3.325-3.927,7.179-2.043c1.028,0.503,2.241,0.92,2.947,1.74
			c4.833,5.617,12,7.288,18.056,10.822c1.515,0.884,3.217,1.447,4.955,2.212c1.182-0.563,2.498-1.189,3.775-1.798
			c1.466,0.907,2.849,1.764,4.465,2.764c1.028-0.908,2.098-1.854,3.03-2.678c3.521-0.533,5.679,1.454,7.841,3.12
			c1.685-1.342,3.507-2.794,5.318-4.236c1.016,0.383,1.919,0.724,3.215,1.212c1.887-1.287,3.895-2.657,6.51-4.44
			c5.61,2.479,11.788,4.774,15.571,11.514c0.721-0.945,1.416-1.717,1.928-2.595c0.221-0.379,0.046-0.98,0.077-1.479
			c0.167-2.672,1.436-4.821,3.687-6.089c2.006-1.13,4.103-0.363,6.192,0.844c3.105-1.497,5.998-3.048,8.383-6.186
			c2.645-3.478,6.975-4.864,11.613-3.402c0.761,0.24,1.529,0.452,2.489,0.735c0.806-2.277,1.553-4.389,2.361-6.674
			c2.292-0.492,4.5-1.192,6.753-1.396c2.927-0.265,5.325,0.546,6.94,3.527c1.19,2.198,3.249,3.925,5.244,6.235
			c0.023,1.661,0.023,1.661-1.609,3.414c-4.1,0.632-5.045-3.569-8.049-5.254c-0.621,0.553-1.31,1.167-1.908,1.7
			c0.682,4.083,1.342,7.935,1.964,11.793c0.986,6.12,1.963,12.241,2.902,18.369c0.123,0.808,0.285,1.802-0.056,2.458
			c-2.546,4.899-2.195,10.491-3.84,15.606c-0.64,1.991-1.084,4.206-0.917,6.262c0.346,4.261-0.455,8.417-2.302,11.966
			c-2.558,4.918-3.576,10.16-4.671,15.386c-1.152,5.501-2.513,10.755-5.993,15.348c-1.133,1.496-1.284,3.695-2.197,5.405
			c-4.622,8.659-10.651,16.13-18.787,21.779c-2.009,1.396-3.898,2.962-5.911,4.35c-2.954,2.036-5.969,3.981-8.393,5.591
			c-8.207,0.171-11.545,0.926-13.25,2.487c0.151,4.21,0.147,7.982,0.47,11.727c0.223,2.588,0.447,5.337,1.477,7.656
			c1.583,3.565,7.503,5.474,11.358,4.271c7.108,2.982,14.227,5.745,21.148,8.936c6.929,3.193,13.659,6.815,19.358,9.687
			c3.391,6.859,6.189,12.517,8.982,18.178c0.215,0.436,0.563,0.892,0.558,1.335c-0.033,3.251,1.984,5.822,2.812,8.694
			c1.827,6.349,5.798,11.26,9.244,16.568c0.429,0.659,0.782,1.367,1.317,2.313c-1.186,1.004-2.237,1.895-3.474,2.94
			c2.544,3.671,4.624,7.566,7.534,10.688c6.21,6.66,12.68,13.103,19.364,19.287c6.381,5.902,13.683,10.549,21.924,13.519
			c3.521,1.269,7.096,2.423,10.709,3.39c1.563,0.418,3.443,0.706,4.909,0.227c4.247-1.39,8.551-0.806,12.827-0.842
			c2.063-0.018,3.89-0.453,5.656-1.422c7.058-3.867,12.991-8.801,17.024-16.012c3.566-6.376,5.794-13.113,7.142-20.21
			c0.575-3.028,0.992-6.086,1.567-9.114c0.533-2.809-0.111-5.269-1.25-7.903c-1.941-4.487-3.312-9.222-5.222-14.715
			c-4.386-5.336-9.673-11.221-14.256-17.611c-1.863-2.598-3.685-5.931-2.469-9.979c1.063-0.633,2.302-1.37,3.47-2.064
			c4.526,2.42,9.209,4.362,12.666,8.028c3.324,3.525,6.286,7.394,10.179,12.029c0.948-10.628-0.1-20.266,2.561-29.676
			c2.918-1.355,5.769-3.054,9.298-2.15c2.771,3.959,2.499,8.721,3.47,13.123c0.632,2.861,0.897,5.854,0.906,8.788
			c0.008,2.758-0.618,5.513-0.802,8.28c-0.084,1.26,0.226,2.546,0.396,4.201c3.734,0,7.164,0,10.593,0
			c-0.04,0.34-0.079,0.679-0.119,1.019c2.635,0.639,5.27,1.278,8.206,1.99c0.51,0.934,1.181,2.158,1.851,3.383c0,1,0,2,0,3
			c-1.516,3.716-3.199,7.375-4.501,11.164c-1.449,4.216-3.811,7.538-7.763,9.686c-0.575,0.313-1.04,0.829-1.149,0.919
			c-1.413,5.562-1.771,10.866-4.995,15.26c-0.363,0.495-0.414,1.224-0.594,1.849c-1.566,5.46-3.65,10.754-6.066,15.857
			c-3.006,6.351-7.302,11.869-12.862,16.274c-2.938,2.326-5.972,4.53-8.976,6.771c-8.066,6.015-16.804,10.413-27.027,11.271
			c-3.279,0.275-6.606,1.2-9.815,0.875c-8.506-0.861-16.92-2.29-24.993-5.423c-7.693-2.985-15.002-6.565-21.811-11.265
			c-4.44-3.064-9.311-5.503-13.781-8.526c-4.189-2.832-8.107-6.066-12.481-9.379c0.793,3.96,1.557,7.777,2.32,11.596
			c0.052,0.001,0.103,0.003,0.153,0.005c0.461,2.535,0.847,5.088,1.401,7.603c0.666,3.021,1.263,6.083,2.263,8.999
			c2.846,8.301,5.777,16.576,8.903,24.774c0.979,2.565,2.622,4.891,4.073,7.258c1.436,2.343,3.321,4.459,4.44,6.932
			c1.124,2.48,1.977,5.246,2.187,7.945c0.447,5.733,2.732,10.887,4.46,16.215c1.314,4.057,2.808,8.04,2.674,12.399
			c-0.016,0.483,0.104,0.984,0.238,1.455c1.618,5.63,3.267,11.253,4.872,16.887c0.441,1.548,0.771,3.127,1.267,5.159
			c-1.949,1.171-3.705,2.225-5.878,3.529c-0.487,0.771-1.273,2.015-2.241,3.547c2.797,5.187,5.709,10.594,8.628,15.997
			c4.374,8.101,7.905,16.489,10.312,25.44c1.139,4.237,3.395,8.347,6.845,11.506c1.964,1.799,3.708,3.84,5.685,5.625
			c5.183,4.683,9.445,10.114,12.901,16.136c1.709,2.979,3.939,5.229,6.497,7.493c5.291,4.687,10.323,9.718,15.033,14.991
			c3.6,4.03,7.241,8.309,9.581,13.104c2.473,5.067,5.463,10.758,1.258,16.778c-1.672,0.209-3.284,0.41-5.079,0.634
			c-2.879,6.058-5.713,12.219-12.647,15.097c-0.426,5.292-1.089,10.688-1.232,16.097c-0.166,6.265-0.875,12.399-1.762,18.614
			c-1.184,8.299-3.189,16.328-5.328,24.359c-1.17,4.396-2.446,8.837-4.339,12.951c-3.7,8.043-5.951,16.548-8.798,24.869
			c-3.156,9.229-7.076,18.17-11.422,26.919c-1.009,2.03-1.564,4.281-2.445,6.381c-0.688,1.641-1.557,3.205-2.363,4.841
			c0.317,0.539,0.776,1.32,1.329,2.26c7.793,1.273,16.173,1.779,23.261,5.453c5.047,5.706,9.786,11.064,14.577,16.481
			c0,1.339,0,2.796,0,4.311c-5.079,2.811-10.322,2.49-15.532,1.571c-5.629-0.994-11.164-3-16.807-3.301
			c-6.72-0.358-13.566-1.103-20.305,0.625c-1.521,0.39-3.271-0.046-4.906-0.21c-0.965-0.097-1.938-0.674-2.856-0.571
			c-3.446,0.384-6.417-0.735-9.404-2.286c-3.878-2.012-5.316-4.506-3.529-8.397c2.361-5.144,4.187-10.618,7.839-15.078
			c1.022-1.248,2.51-2.115,3.748-3.127c1.832-3.783,3.76-7.528,5.465-11.372c1.041-2.35,1.678-4.874,2.604-7.279
			c2.83-7.353,5.445-14.763,7.308-22.439c2.003-8.257,4.438-16.411,6.318-24.693c1.146-5.043,0.894-10.489,2.565-15.305
			c1.722-4.96,1.713-10.044,2.367-14.994c1.274-9.641,1.937-19.429,1.06-29.419c-6.834,0.832-13.701,0.632-20.584,2.817
			c-2.389-0.571-5.625-0.299-7.688-2.766c-2.299-2.749-4.337-5.715-6.561-8.529c-0.888-1.125-1.966-2.099-2.958-3.141
			c-0.235-0.172-0.47-0.344-0.705-0.516c0.279,0.128,0.559,0.256,0.838,0.383c0.404,1.558,0.468,3.324,1.273,4.635
			c2.833,4.613,1.755,9.564,1.411,14.396c-0.082,1.154-1.527,2.544-2.696,3.211c-1.818,1.036-3.885,1.919-5.938,2.206
			c-4.784,0.671-9.516,3.122-14.389,0.557c-1.298,3.749-2.487,7.273-3.753,10.77c-0.269,0.741-0.728,1.459-1.249,2.057
			c-4.989,5.708-8.131,12.543-11.574,19.17c-1.101,2.118-1.555,4.624-2.03,7.007c-1.421,7.12-4.636,13.479-8.03,19.792
			c-5.328,9.91-11.016,19.661-15.731,29.858c-3.909,8.453-8.524,16.385-13.485,24.22c-3.182,5.026-6.946,9.497-10.801,13.868
			c0.449,2.372,2.511,2.621,4.093,3.177c5.516,1.938,11.136,3.577,16.648,5.522c3.673,1.295,6.453,3.912,9.318,7.486
			c-0.352,4.01-0.751,8.566-1.15,13.123C140.333,779,138.667,779,137,779z M144.944,180.916c1.477-0.622,1.365-1.26,0.02-1.909
			c0.177-3.385,2.267-3.313,4.742-2.547c-0.549-0.568-1.098-1.138-1.646-1.706c1.283-0.239,2.566-0.479,3.941-0.736
			c-0.214-1.055-0.421-2.082-0.708-3.501c1.32-0.101,2.304-0.175,3.914-0.297c2.427-5.111,5.084-10.708,7.971-16.786
			c-1.653-1.43-3.24-2.802-5.185-4.484c2.236-0.993,4.278-1.899,6.054-2.688c2.892-8.953,5.713-17.689,8.765-27.138
			c-2.512-5.689,0.503-11.673,2.188-18.332c-2.253,1.945-3.96,3.42-5.554,4.795c1.535,7.604,0.568,11.813-5.094,22.587
			c-0.623,0.355-1.443,0.648-2.038,1.189c-3.11,2.829-6.721,4.029-10.904,3.687c-4.747-0.39-9.521-0.52-14.244-1.092
			c-4.976-0.603-7.663-4.386-9.822-8.335c-1.364-2.495-1.996-5.391-2.929-8.029c-3.416-1.012-6.432-2.626-9.693-0.741
			c-0.498,4.688-4.104,11.742-7.6,16.063c-4.154,5.135-9.512,6.738-15.74,5.982c-2.756-0.335-5.438-1.251-8.172-1.816
			c-2.972-0.615-5.449-2.013-7.758-3.997c-3.04-2.612-5.081-5.879-7.237-9.172c-1.744-2.662-2.347-5.299-2.747-8.409
			c-0.299-2.323,0.448-5.501-2.296-7.212c-7.763,1.819-14.742-2.266-22.433-2.886c-1.273,0.963-2.714,2.054-3.994,3.021
			c-5.2-0.04-6.083-5.394-9.681-7.622c-0.813,1.045-1.322,2.153-2.186,2.732c-5.211,3.496-5.201,8.631-4.57,13.981
			c0.171,1.454,0.533,2.885,0.726,4.337c0.468,3.531,2.082,6.482,4.56,8.962c3.021,3.021,6.114,5.973,9.206,8.983
			c1.669,0.181,3.385,0.365,4.989,0.538c2.068-2.274,0.904-4.66,0.191-6.996c0.842-0.601,1.477-1.054,2.099-1.498
			c3.433,2.432,1.303,5.694,2.032,8.494c-0.909,0.862-1.625,1.87-2.601,2.377c-0.945,0.49-2.158,0.465-3.785,0.764
			c0.827,4.358,2.09,8.285,3.462,12.228c1.43,4.109,5.208,6.314,7.477,9.564c1.006-2.027,2.584-1.432,4.838-0.521
			c-1.352,1.281-2.348,2.226-3.533,3.349c1.837,2.471,3.693,4.968,5.564,7.484c3.541-3.239,3.541-3.239,6.523-0.786
			c-0.464,0.968-0.947,1.973-1.443,3.006c-1.452,0.171-2.823,0.332-4.677,0.55c1.767,2.557,3.323,4.657,4.712,6.863
			c1.313,2.086,3.04,3.4,5.37,4.318c5.157,2.03,10.363,4.056,15.212,6.701c3.126,1.706,5.963,3.616,9.785,2.931
			c2.442,4.133,0.019,7.03-1.91,9.659c0,3.35,0,6.341,0,9.381c0.812,0.511,1.611,1.014,1.828,1.15
			c-0.105,6.178-5.99,6.98-8.221,11.163c2.078,1.638,3.806,3.55,5.955,4.592c6.749,3.273,13.756,4.353,20.867,0.996
			c3.838-1.812,7.649-3.688,11.394-5.683c0.934-0.497,1.565-1.561,2.219-2.244c-2.828-1.926-5.444-3.516-7.836-5.392
			c-2.303-1.806-3.898-4.232-3.294-7.314c0.835-4.26,0.133-8.317-0.861-12.429c-0.243-1.005,0.154-2.255,0.521-3.299
			c1.123-3.198,3.792-3.985,6.761-3.752c7.781,0.61,13.9-2.776,19.294-7.447c-0.271-1.709-0.497-3.134-0.723-4.559l-0.129,0.095
			c0.798-0.082,1.597-0.164,2.819-0.29c-0.231-2.499,1.523-3.317,3.643-3.706c0.615,0.278,1.187,0.536,1.758,0.795
			c-0.008,0.722-0.016,1.443-0.024,2.165c-0.163,0.231-0.327,0.462-0.491,0.693C144.705,181.466,144.825,181.19,144.944,180.916z
			 M184.582,355.401c-0.737-1.283-1.453-2.335-1.975-3.476c-1.48-3.237-2.208-6.647-2.854-10.169
			c-1.037-5.657-2.902-11.157-4.25-16.765c-0.503-2.094-0.312-4.288-1.486-6.307c-1.14-1.955-2.244-4.104-2.597-6.293
			c-0.346-2.146-3.539-3.392-1.801-6.053c-2.777-4.32-2.398-9.424-3.511-14.158c-1.437-6.111-3.022-12.066-8.854-15.807
			c-2.001-1.284-3.542-3.285-5.133-4.806c0-2.612,0-4.921,0-7.663c1.137-0.331,2.243-0.653,3.604-1.051
			c0.305,6.224,3.228,10.557,7.343,14.219c1.426,1.269,2.796,2.261,3.385,4.463c0.853,3.183,2.712,6.096,4.024,8.875
			c2.928-0.814,5.724-1.754,8.592-2.344c2.792-0.574,5.826,0.501,8.934-0.796c-1.489-2.517-2.519-4.74-3.985-6.623
			c-2.331-2.992-4.67-5.843-5.38-9.782c-0.399-2.22-1.318-4.43-2.404-6.427c-2.731-5.026-4.951-10.27-7.135-15.54
			c-1.255-3.03-2.819-5.646-5.916-7.454c-3.694-2.158-7.453-4.08-11.333-5.867c-7.586-3.493-14.986-7.408-23.271-9.492
			c-5.092,5.093-11.674,7.942-18.147,10.555c-5.021,2.026-10.443,3.207-16.319,1.61c-6.309-1.715-12.087-3.719-15.798-9.388
			c-3.658,2.45-6.854,4.79-9.57,7.84c-5.003,5.617-10.33,10.943-15.359,16.538c-2.064,2.297-3.603,5.058-5.566,7.456
			c-2.241,2.738-4.891,5.157-7.006,7.981C35.307,276.03,29.9,283.461,24.64,290.99c-3.442,4.925-6.56,10.077-9.722,14.973
			c1.749,2.947,3.771,5.506,6.66,5.849c5.68,0.675,10.234,3.735,14.367,6.88c7.653,5.824,14.83,12.341,21.066,20.261
			c0.424-0.974,0.798-1.674,1.042-2.416c1.32-4.033,3.798-7.217,6.874-10.096c2.027-1.898,3.631-4.241,5.487-6.329
			c3.082-3.468,6.033-7.082,9.396-10.259c1.878-1.774,3.773-3.387,5.186-5.619c1.01-1.597,2.595-2.854,4.916-1.83
			c0.229,2.718-1.21,4.435-2.854,6.106c-3.672,3.734-7.822,7.014-11.086,11.126c-4.023,5.067-7.709,10.314-5.049,17.415
			c0.386,1.029,0.04,2.316,0.126,3.478c0.328,4.433,0.47,8.894,1.098,13.283c0.999,6.981,1.574,13.9,1.066,21
			c-0.291,4.066-1.255,7.357-3.875,9.595c0.337,3.891,0.627,7.233,0.935,10.791c3.518,5.368,5.585,11.161,2.448,17.748
			c-0.213,0.447,0.186,1.149,0.105,1.705c-0.133,0.919-0.147,2.076-0.705,2.672c-1.5,1.604-1.157,3.356-0.848,5.146
			c0.166,0.957,0.672,1.875,0.732,2.829c0.434,6.939,0.793,13.884,1.187,21.031c0.731,0.999,1.581,2.16,2.33,3.185
			c2.474-0.687,4.135-3.687,7.953-1.854c1.349,1.752,3.119,4.052,4.616,5.997c-0.744,2.03-1.243,3.394-1.79,4.885
			c-1.354,0.279-2.612,0.539-3.679,0.76c-2.789,4.257-5.476,8.359-8.296,12.665c0.992,0.204,1.743,0.358,2.663,0.548
			c0.495,3.657,0.995,7.363,1.526,11.291c1.648,0,3.358,0.333,4.879-0.062c4.883-1.268,9.966-2.236,14.471-4.376
			c5.992-2.847,12.317-4.316,18.578-6.149c10.992-3.218,22.302-4.785,33.617-6.145c4.95-0.595,9.659-1.525,14.123-3.72
			c1.745-0.858,3.508-1.713,5.333-2.373c12.821-4.639,26.027-7.643,39.595-8.975c1.849-0.182,3.496-0.406,4.464-1.698
			c-0.915-3.186-1.859-6.143-2.604-9.148c-0.906-3.66-1.572-7.38-2.475-11.042c-0.858-3.479-1.234-7.039-2.433-10.483
			c-1.539-4.421-2.425-9.07-3.58-13.625c-1.843-7.265-3.921-14.398-8.221-20.731c-1.525-2.246-2.419-4.963-3.362-7.551
			c-0.818-2.245-1.202-4.645-1.958-6.916c-0.747-2.247-1.904-4.368-2.541-6.641c-0.645-2.303-0.687-4.76-2.19-6.818
			C183.963,357.013,184.419,356.161,184.582,355.401z M279.915,569.004c-0.626-1.315-0.857-2.154-1.352-2.79
			c-5.651-7.269-11.377-14.45-18.355-20.566c-2.702-2.368-4.828-5.394-7.215-8.122c-3.686-4.211-5.796-9.59-10.198-13.313
			c-2.776-2.348-5.236-5.096-7.672-7.813c-2.958-3.301-6.289-6.456-7.72-10.761c-1.713-5.156-2.723-10.552-4.52-15.676
			c-1.148-3.276-3.12-6.274-4.819-9.343c-0.941-1.699-2.216-3.219-3.108-4.938c-3.464-6.673-6.909-13.35-11.486-19.81
			c-3.525,0.728-7.012,1.481-10.512,2.163c-8.357,1.627-16.72,3.504-24.341,7.273c-6.773,3.35-13.888,4.971-21.179,5.572
			c-5.423,0.448-10.77,0.944-16.09,2.11c-9.71,2.13-19.463,4.021-28.714,7.859c-3.147,1.307-6.49,2.144-9.746,3.187
			c-0.617,0.197-1.53,0.152-1.824,0.563c-1.47,2.058-3.672,2.574-6.605,2.904c1.284,2.259,2.529,3.961,3.281,5.858
			c3.182,8.027,6.223,16.11,9.301,24.179c0.694,1.82,1.643,3.616,1.934,5.507c1.164,7.568,4.049,14.366,8.261,20.732
			c2.326,3.514,4.611,7.182,6.109,11.089c2.53,6.6,3.056,13.719,3.568,20.696c0.389,5.302,1.188,10.396,3.055,15.44
			c-0.526,1.548-1.893,3.169-0.591,4.421c9.754-0.847,19.058-1.828,28.387-2.376c3.565-0.209,7.183,0.716,10.787,0.878
			c6.1,0.275,12.183-0.055,18.311,0.876c5.041,0.767,10.292,0.157,15.195,0.157c1.735-1.154,3.211-2.135,4.533-3.014
			c-0.192-1.542-0.348-2.815-0.51-4.088c-0.436-3.418-0.652-6.882-1.359-10.243c-1.205-5.731-2.544-11.426-2.681-17.315
			c-0.082-3.502-0.75-6.882-2.306-10.026c-1.743-3.521-3.697-6.938-5.377-10.486c-0.979-2.065-2.34-4.333-2.248-6.454
			c0.303-7-3.213-13.042-4.338-19.652c-0.154-0.905-0.889-1.752-1.477-2.535c-2.918-3.889-6.095-7.625-6.961-12.973
			c0.449-0.57,1.124-1.428,2.182-2.771c1.025,1.661,2.188,2.793,2.438,4.099c0.649,3.394,3.041,5.672,4.768,8.375
			c0.934,1.461,2.271,2.744,2.872,4.319c1.447,3.793,2.599,7.7,3.802,11.583c0.335,1.081,0.702,2.262,0.594,3.352
			c-0.43,4.304,0.806,8.088,2.984,11.732c1.428,2.389,2.731,4.891,3.738,7.479c1.293,3.327,2.568,6.728,3.232,10.215
			c0.733,3.854,0.543,7.875,1.157,11.761c0.884,5.603,2.131,11.147,3.287,17.046c1.157-0.678,1.736-0.977,2.274-1.337
			c7.61-5.102,16.137-7.683,25.078-9.108c4.517-0.721,9.078-1.217,13.55-2.148c4.836-1.008,9.655-1.858,14.612-1.816
			c4.498,0.039,9.015,0.254,13.49-0.07C272.884,570.632,276.324,569.673,279.915,569.004z M314.605,263.985
			c-0.662-0.707-1.879-2.004-2.427-2.589c0-4.538-0.583-7.954,0.156-11.054c0.81-3.392-1.408-6.728,0.349-9.383
			c-0.632-1.831-1.256-3.166-1.535-4.569c-0.326-1.644-0.086-3.436-0.598-4.997c-0.383-1.168-0.89-3.16-3.292-1.888
			c-0.381,1.569-1.06,3.283-1.174,5.033c-0.446,6.845-0.81,13.698-1.007,20.555c-0.094,3.254-1.347,5.283-4.841,5.982
			c-3.638-1.479-6.398-4.102-8.506-7.618c-3.133-5.228-7.77-8.692-14.158-11.438c0.599,1.939,0.717,3.295,1.381,4.282
			c1.552,2.307,3.389,4.418,5.067,6.641c3.251,4.304,6.138,8.953,9.854,12.804c1.73,1.793,2.645,3.424,3.223,5.677
			c0.889,3.466,1.663,6.967,3.696,10.09c0.857,1.316,1.49,3.533,0.97,4.841c-1.248,3.135-0.379,6.242-0.729,9.326
			c-0.166,1.465-0.371,2.926-0.519,4.393c-0.465,4.617-2.499,8.744-4.023,13.034c-2.83,7.965-7.326,14.746-14.038,19.975
			c-5.996,4.67-12.474,7.791-20.404,7.014c-2.96-0.29-6.143-0.482-8.938,0.301c-3.315,0.928-6.244,0.001-9.258-0.572
			c-2.556-0.486-4.991-1.599-7.484-2.42c-9.927-3.27-18.17-9.169-25.593-16.355c-0.703-0.682-1.432-1.337-2.132-2.022
			c-8.698-8.515-17.898-16.6-23.491-27.799c-5.395-0.721-10.121,0.738-14.901,2.858c1.054,4.66,1.718,9.165,3.123,13.426
			c1.807,5.477,5.116,10.163,9.062,14.397c6.369,6.837,14.321,11.448,22.326,15.972c3.129,1.768,6.46,3.039,9.321,5.433
			c2.442,2.043,5.744,3.022,8.521,4.709c4.67,2.836,9.955,4.006,15.021,5.734c3.076,1.05,6.339,1.947,9.558,2.107
			c7.753,0.385,15.542,0.516,23.028-2.248c3.822-1.411,8.088-2.052,11.466-4.148c7.314-4.539,14.164-9.688,19.919-16.36
			c4.647-5.388,7.902-11.204,9.904-17.914c0.745-2.498,1.975-4.851,2.758-7.341c1.81-5.76,5.057-11.109,4.835-17.412
			c5.025-2.719,9.281-5.899,10.119-11.965c0.106-0.772,0.794-1.446,1.064-2.219c1.008-2.883,1.954-5.788,2.791-8.29
			c-1.903-2.915-4.387-1.438-6.573-2.162c-0.723-0.514-1.65-1.173-2.559-1.819C321.174,263.985,318.514,263.985,314.605,263.985z
			 M47.771,459.615c-1.701-3.444-2.709-7.217-5.03-9.816c-4.571-5.122-7.104-11.235-10.074-17.192
			c-2.003-4.018-2.623-8.418-3.576-12.69c-0.896-4.02-0.972-8.218-1.499-12.326c-0.46-3.586-1.438-7.151-1.481-10.734
			c-0.06-5.026,0.467-10.065,0.885-15.087c0.162-1.938,0.428-3.955,1.136-5.741c2.943-7.424,7.1-14.273,10.292-21.611
			c2.835-6.516,6.929-12.484,10.628-18.978c-7.737-5.765-13.524-14.107-23.441-17.408c-2.205,3.396-4.545,6.719-6.593,10.213
			c-4.157,7.093-5.794,15.2-8.839,22.748c-0.891,2.208-0.87,4.808-1.125,7.242c-0.46,4.389-0.728,8.799-1.236,13.183
			c-0.488,4.217-1.285,8.399-1.747,12.619c-0.338,3.094,0.367,6.249-0.911,9.32c-0.466,1.12-0.104,2.631,0.036,3.947
			c0.207,1.943,0.848,3.884,0.774,5.806c-0.124,3.249,0.818,6.16,2.112,9.011c0.813,1.792,1.972,3.438,2.67,5.268
			c1.217,3.189,2.684,6.399,3.162,9.728c0.707,4.923,1.871,9.617,4.168,13.998c2.279,4.347,5.25,8.325,7.636,12.548
			c3.732,6.606,8.815,12.23,12.506,18.841c1.679,3.006,2.633,6.065,1.457,8.914c-2.044,4.952,0.886,8.146,3.53,10.959
			c3.676,3.911,8.191,7.034,12.135,10.317c2.076,0,3.856,0,6.011,0c0.429-5.398,4.396-7.73,8.855-9.896
			c-1.47-4.437,1.825-6.877,3.959-10.402c-0.424-2.115-0.918-4.583-1.417-7.074c-1.957,0.775-2.004,2.279-1.614,3.498
			c0.699,2.187,0.155,3.732-1.816,5.174c-3.763-0.161-7.392-1.213-10.01-4.217c-2.581-2.96-4.779-6.253-6.981-9.183
			c-0.678-3.913,1.108-6.008,5.1-7.212C53.89,461.998,51.035,460.886,47.771,459.615z M66.122,415.222
			c0.605-1.647,1.622-3.908,2.233-6.273c0.342-1.325,0.286-2.895-0.065-4.229c-0.954-3.626-2.295-7.151-3.221-10.782
			c-0.682-2.678-0.952-5.46-1.337-7.782c2.323-2.871,4.25-5.255,6.051-7.481c-1.097-2.152-0.521-3.754-0.026-5.571
			c0.427-1.569-0.284-3.432-0.396-5.17c-0.22-3.416-0.248-6.848-0.583-10.25c-0.5-5.075-1.291-10.122-1.781-15.198
			c-0.362-3.757-0.443-7.542-0.705-12.332c-3.672,5.737-5.478,11.362-7.879,16.69c-3.332-0.788-3.657-1.139-7.732-8.277
			c-6.782,13.562-13.612,27.219-20.473,40.938c2.173,2.438-0.11,4.71-0.227,7.066c-0.371,7.478,0.786,14.837,1.424,22.233
			c0.4,4.635,1.812,9.151,2.431,13.708c0.982,7.234,4.715,13.182,7.986,19.227c2.911,5.38,7.018,10.143,9.562,15.8
			c4.242,1.991,9.605,0.239,12.789,3.871c3.286-2.49,6.348-4.811,9.75-7.388c-5.233-2.973-5.265-8.117-5.572-13.136
			c-0.095-1.553-0.042-3.114-0.05-4.672c-0.007-1.262,0.401-2.715-0.083-3.751c-1.482-3.167-1.138-6.464-1.28-9.755
			C66.844,420.6,66.491,418.503,66.122,415.222z M241.088,598.971c0.684,6.531,1.882,12.582,1.808,18.617
			c-0.096,7.698-1.122,15.396-1.946,23.071c-0.329,3.06-1.26,6.049-1.795,9.092c-0.764,4.346-1.402,8.713-2.12,13.066
			c-0.689,4.185-0.953,8.513-2.252,12.503c-1.205,3.702-2.745,7.329-3.451,11.156c-1.544,8.372-4.328,16.36-7.257,24.293
			c-2.261,6.12-4.959,12.078-7.444,18.116c-0.983,2.387-1.918,4.793-3.087,7.722c4.598,0.902,8.676,1.703,12.882,2.529
			c1.443-2.562,2.542-4.947,4.033-7.056c2.206-3.12,3.195-6.703,4.59-10.163c1.759-4.363,4.304-8.419,5.952-12.816
			c3.062-8.171,6.244-16.287,8.44-24.797c1.704-6.606,4.668-12.889,7.074-19.313c1.924-5.137,3.02-10.452,3.949-15.857
			c1.192-6.938,3.373-13.688,3.748-20.795c0.276-5.218,1.151-10.362,1.365-15.632c0.29-7.131-0.043-14.219,0.491-21.614
			C257.199,593.89,248.83,596.529,241.088,598.971z M106.012,752.345c4.658-6.223,9.144-12.104,13.5-18.079
			c2.325-3.19,4.654-6.416,6.573-9.854c3.113-5.574,5.847-11.359,8.818-17.015c5.71-10.868,11.558-21.664,17.164-32.585
			c1.628-3.172,2.708-6.638,3.898-10.018c1.783-5.063,3.182-10.279,5.242-15.223c1.435-3.442,3.369-6.802,5.674-9.73
			c3.891-4.941,7.129-10.143,9.054-16.133c-9.537-4.433-13.946-6.415-26.332-2.007c-0.464,1.219-1.053,2.72-1.609,4.233
			c-2.302,6.254-4.575,12.518-6.893,18.765c-3.347,9.02-6.839,17.987-10.059,27.052c-3.868,10.891-7.246,21.962-11.356,32.757
			c-2.547,6.689-6.059,13.011-9.14,19.497c-3.972,8.36-10.427,14.702-17.027,20.926c-1.505,1.419-2.995,2.854-4.995,4.761
			C94.803,750.645,100.274,751.475,106.012,752.345z M100.529,81.194c-2.289,1.19-4.056,2.109-5.895,3.066
			c-3.22-1.721-6.231-3.331-9.154-4.893c-1.234,0.563-2.416,1.104-3.43,1.567c-1.306-0.684-2.449-1.785-3.583-1.776
			c-2.719,0.021-4.644-1.29-6.727-2.722c-3.76-2.585-7.689-4.925-11.571-7.33c-0.153-0.095-0.544,0.194-1.057,0.396
			c0.962,0.746,1.816,1.408,2.78,2.155c0,1.207,0,2.503,0,4.383c-2.004,0.239-3.938,0.471-5.873,0.701
			c-0.027-0.201-0.054-0.403-0.081-0.604c-1.949,1.146-3.897,2.292-5.754,3.384c-0.119,1.538-0.221,2.849-0.299,3.859
			c-2.605,2.978-4.999,5.713-7.444,8.507c0.45,0.332,0.821,0.838,1.236,0.877c4.75,0.44,9.506,0.819,14.263,1.194
			c4.594,0.362,9.196,0.635,13.782,1.075c2.599,0.25,5.309,0.374,7.728,1.233c4.632,1.644,9.344,1.922,14.128,1.67
			c6.224-0.328,12.106,0.67,17.044,3.854c4.992-1.281,9.509-1.234,14.018,0.128c0.316-0.076,0.643-0.123,0.947-0.232
			c6.779-2.436,13.521-5.014,20.92-4.753c0.794,0.028,1.599-0.399,2.402-0.414c2.42-0.046,4.904-0.327,7.245,0.113
			c2.559,0.48,4.865,0.429,7.162-0.757c2.191-1.131,4.397-2.234,6.594-3.354c2.317-1.182,4.631-2.369,7.298-3.734
			c-4.286-6.077-3.012-12.688-3.286-18.92c-0.816-1.236-1.542-2.335-2.328-3.526c-3.418-0.737-6.914-1.492-10.552-2.277
			c-1.062,0.526-2.227,1.103-3.566,1.767c-1.257,2.938-2.537,5.929-3.724,8.702c-3.19,2.088-6.272,3.487-9.865,1.576
			c-0.39-0.207-0.997-0.104-1.479-0.013c-0.44,0.085-0.846,0.35-1.262,0.533c0.354,1.191,0.673,2.267,1.016,3.423
			c-1.071,1.348-2.083,2.619-2.868,3.607c-2.118,0.435-3.871,0.795-5.574,1.146c-5.604-1.835-9.339-7.088-15.254-8.583
			c-0.367,1.372-0.689,2.575-1.133,4.232c-2.192-0.847-4.04-1.56-5.856-2.261c-0.977,1.986,0.468,4.487-2.185,5.667
			c-1.46,0-3.104,0-4.577,0C103.163,82.872,101.772,81.985,100.529,81.194z M193.983,599.338c-3.134-0.512-5.522-1.181-7.927-1.244
			c-8.44-0.224-16.861-0.253-25.313-0.883c-9.933-0.739-19.966-0.333-29.948-0.104c-4.697,0.108-9.352,1.054-13.729,3.462
			c0.289,5.112-1.107,10.252,1.356,15.337c6.498,1.021,12.924,2.079,19.366,3.028c4.376,0.646,8.381-1.218,12.536-2.062
			c3.354-0.682,6.827-2.108,10.063-1.708c4.791,0.592,9.657,1.175,14.353,2.92c3.584,1.332,7.73,1.965,11.526,1.661
			c3.185-0.255,6.998-0.204,8.628-2.111C198.135,610.321,195.927,604.672,193.983,599.338z M283.206,572.77
			c-1.548-1.756-3.601-1.052-5.542,0.04c-1.968,1.106-4.002,1.223-6.193,1.188c-5.807-0.092-11.616,0.006-17.425,0.048
			c-0.822,0.007-1.653,0.064-2.462,0.201c-3.377,0.573-6.725,1.438-10.124,1.732c-7.273,0.63-14.398,1.887-21.357,4.097
			c-1.234,0.392-2.538,0.578-3.756,1.011c-4.101,1.456-8.724,2.056-10.98,6.464c1.506,3.266,2.816,6.617,4.556,9.729
			c1.713,3.063,3.861,5.884,5.717,8.659c23.031-9.495,45.751-18.423,70.111-22.037C284.907,580.214,284.155,576.924,283.206,572.77z
			 M25.728,501.473c4.469,6.322,8.868,12.312,16.632,14.764c3.425-3.514,6.615-6.786,10.103-10.365
			c-7.227-3.882-12.191-9.488-16.757-15.613C31.101,492.916,28.918,497.5,25.728,501.473z M56.91,466.845
			c0.7,5.531,3.991,9.093,8.549,11.734c0.579-1.269,0.869-2.856,1.809-3.791c3.382-3.367,5.62-7.531,8.261-11.4
			c1.194-1.749,2.352-3.415,4.063-4.675c0.202-0.149,0.195-0.583,0.386-1.225c-1.044-0.771-2.185-1.613-3.593-2.652
			c-4.377,3.767-8.585,7.388-12.965,11.156c-0.964-0.316-2.19-0.721-3.412-1.122C58.964,465.535,58.023,466.135,56.91,466.845z
			 M154.752,111.458c-3.114,0.141-6.145,2.468-10.422,7.701c-1.077,1.317-2.099,2.636-0.78,4.377
			C148.595,121.69,152.768,117.28,154.752,111.458z M96.581,127.818c4.34-2.298,7.205-5.479,7.949-10.575
			c-3.775,0.165-5.276,1.335-8.459,6.202C95.208,124.762,94.474,126.042,96.581,127.818z M97.504,113.188
			c-2.393-0.506-3.197,1.382-4.332,2.659c-1.214,1.367-2.374,2.783-3.542,4.19c-1.142,1.375-2.438,2.734-0.912,4.784
			c3.804-0.86,5.22-4.122,7.166-6.686C96.885,116.817,98.454,115.403,97.504,113.188z M237.077,601.318
			c-5.873,2.183-11.203,4.163-16.533,6.144c0.046,0.188,0.092,0.375,0.138,0.563c5.28-0.527,10.561-1.054,16.128-1.609
			C236.907,604.568,236.981,603.154,237.077,601.318z M269.11,590.484c0.017,2.646-0.398,5.039,0.488,7.922
			c3.275-2.785,6.37-4.943,7.506-9.471C274.232,589.492,271.9,589.943,269.11,590.484z M160.048,116.267
			c-4.335,0.022-5.398,2.806-7.176,4.529c-1.393,1.351-2.591,2.902-1.893,5.577C155.773,124.675,157.974,121.206,160.048,116.267z
			 M80.107,449.997c-0.3,2.244,0.643,3.686,2.928,4.251C82.059,452.831,81.083,451.414,80.107,449.997z M95.285,134.478l0.27,0.178
			l0.035-0.287L95.285,134.478z M142.787,182.522c-0.089-0.104-0.178-0.208-0.267-0.313c-0.104,0.089-0.283,0.172-0.291,0.269
			s0.157,0.207,0.246,0.311C142.579,182.7,142.683,182.611,142.787,182.522z"/>
		<path fill-rule="evenodd" clip-rule="evenodd" d="M123,1c2.301,2.056,5.223,0.706,7.833,1.381c4.145,1.071,8.669-0.05,12.749,2.24
			c1.251,0.702,3.447,0.631,4.823,0.029c4.019-1.756,7.517-0.188,10.83,1.465c2.724,1.358,5.421,3.135,6.694,6.251
			c1.086,2.657,3.499,4.46,4.487,7.263c0.779,2.209,0.805,4.132-0.465,6.785c1.077,1.037,2.367,2.278,4,3.851
			c0.036,0.553,0.11,1.706,0.199,3.072c3.081,2.418,6.271,4.922,9.805,7.695c-0.128,0.491-0.354,1.399-0.604,2.3
			c-0.215,0.771-0.46,1.534-0.7,2.329c-2.972,0-5.872,0-7.934,0c-3.333-4.394-6.18-8.147-9.532-12.568
			c-0.154-3.191-1.817-7.162-0.665-11.561c-2.722-1.951-6.521-3.058-7.912-6.994c-0.201-0.569-1.585-0.882-2.467-1.019
			c-2.068-0.321-4.165-0.465-6.34-0.69c-1.553-2.556-4.148-2.634-6.828-2.937c-2.562-0.29-5.054-1.192-8.138-1.967
			c-1.418,1.207-3.084,2.626-4.927,4.194c-4.574-1.568-9.383-2.315-14.387-2.181c-2.033,0.055-4.095-0.947-6.777-1.63
			c-2.308,0.717-5.086,1.467-8.131-0.782c-1.746-1.29-4.539-0.967-6.61,0.455c-3.504,2.405-6.967,2.978-10.06,0.348
			c-5.438,2.001-10.553,3.707-15.517,5.775c-2.985,1.244-5.743,3.039-8.585,4.618c-0.424,0.235-0.774,0.956-1.117,0.929
			c-2.678-0.211-3.68,2.257-5.546,3.277c-1.885,1.03-3.593,1.95-4.863,3.869c-0.51,0.771-2.554,0.526-4.298,0.809
			c-2.08,1.776-2.114,4.588-1.964,7.947c-1.423,1.145-3.051,2.453-4.538,3.648c0.201,3.286,0.396,6.479,0.6,9.806
			c-1.721,0.431-2.945,0.737-4.229,1.059c-1.959-1.515-3.885-3.004-6.018-4.654c0.701-1.165,1.352-2.248,1.974-3.283
			c-0.762-1.385-1.506-2.739-2.28-4.146c2.355-1.499,4.264-2.714,6.33-4.029c-2.202-1.186-4.085-2.2-6.116-3.293
			c0.734-1.588,1.269-2.744,2.025-4.38c2.387-0.421,4.925-0.934,7.484-1.305c3.123-0.452,6.028-0.872,7.834-4.172
			c0.874-1.597,2.825-2.787,4.537-3.689c1.606-0.846,2.195-1.8,1.84-3.823c5.678-2.396,11.423-5.098,17.367-7.248
			c5.205-1.882,10.542-3.496,16.098-4.16C83.337,1.84,83.655,1.307,84,1c1.333,0,2.667,0,4,0c0.075,0.581,0.149,1.162,0.214,1.663
			c2.53,0.643,4.317,0,5.786-1.663c2.333,0,4.667,0,7,0c1.098,0.749,2.196,1.498,3.5,2.388c1.288-0.879,2.394-1.633,3.5-2.388
			c1,0,2,0,3,0c1.738,1.341,3.477,2.682,5.107,3.938C118.291,3.479,120.146,2.239,122,1C122.333,1,122.667,1,123,1z M41.838,25.479
			c-0.095-0.114-0.19-0.229-0.285-0.344c-0.108,0.102-0.295,0.198-0.302,0.307c-0.007,0.107,0.167,0.227,0.263,0.341
			C41.622,25.681,41.73,25.579,41.838,25.479z"/>
		<path fill-rule="evenodd" clip-rule="evenodd" fill="#FFFFFF" d="M122,1c-1.854,1.239-3.709,2.479-5.893,3.938
			C114.477,3.682,112.738,2.341,111,1C114.667,1,118.333,1,122,1z"/>
		<path fill-rule="evenodd" clip-rule="evenodd" fill="#FFFFFF" d="M108,1c-1.106,0.755-2.212,1.509-3.5,2.388
			c-1.304-0.89-2.402-1.639-3.5-2.388C103.333,1,105.667,1,108,1z"/>
		<path fill-rule="evenodd" clip-rule="evenodd" fill="#FFFFFF" d="M94,1c-1.469,1.663-3.256,2.306-5.786,1.663
			C88.149,2.162,88.075,1.581,88,1C90,1,92,1,94,1z"/>
		<path fill-rule="evenodd" clip-rule="evenodd" fill="#FFFFFF" d="M1,390c1.22,0.667,1.104,1.333,0,2C1,391.333,1,390.667,1,390z"
			/>
		<path fill-rule="evenodd" clip-rule="evenodd" d="M42.99,61.248c0.996-0.543,1.815-0.99,2.322-1.267
			c2.384,0.169,3.544,2.437,3.234,6.173c-1.723-0.375-3.375-0.734-4.999-1.088C43.365,63.812,43.214,62.78,42.99,61.248z"/>
		<path fill-rule="evenodd" clip-rule="evenodd" fill="#FFFFFF" d="M184.582,355.401c-0.163,0.76-0.619,1.611-0.372,1.95
			c1.504,2.059,1.546,4.516,2.19,6.818c0.637,2.272,1.794,4.394,2.541,6.641c0.756,2.271,1.14,4.671,1.958,6.916
			c0.943,2.588,1.837,5.305,3.362,7.551c4.3,6.333,6.378,13.467,8.221,20.731c1.155,4.555,2.041,9.204,3.58,13.625
			c1.198,3.444,1.574,7.004,2.433,10.483c0.902,3.662,1.568,7.382,2.475,11.042c0.744,3.006,1.688,5.963,2.604,9.148
			c-0.968,1.292-2.615,1.517-4.464,1.698c-13.567,1.332-26.773,4.336-39.595,8.975c-1.825,0.66-3.588,1.515-5.333,2.373
			c-4.464,2.194-9.173,3.125-14.123,3.72c-11.314,1.359-22.625,2.927-33.617,6.145c-6.261,1.833-12.585,3.303-18.578,6.149
			c-4.505,2.14-9.588,3.108-14.471,4.376c-1.521,0.395-3.231,0.062-4.879,0.062c-0.531-3.928-1.031-7.634-1.526-11.291
			c-0.92-0.189-1.671-0.344-2.663-0.548c2.82-4.306,5.508-8.408,8.296-12.665c1.067-0.221,2.326-0.48,3.679-0.76
			c0.546-1.491,1.046-2.854,1.79-4.885c-1.497-1.945-3.267-4.245-4.616-5.997c-3.818-1.832-5.479,1.168-7.953,1.854
			c-0.75-1.024-1.599-2.186-2.33-3.185c-0.394-7.147-0.753-14.092-1.187-21.031c-0.06-0.954-0.566-1.872-0.732-2.829
			c-0.309-1.79-0.652-3.543,0.848-5.146c0.558-0.596,0.571-1.753,0.705-2.672c0.081-0.556-0.319-1.258-0.105-1.705
			c3.137-6.587,1.069-12.38-2.448-17.748c-0.308-3.558-0.598-6.9-0.935-10.791c2.621-2.237,3.585-5.528,3.875-9.595
			c0.508-7.1-0.068-14.019-1.066-21c-0.628-4.39-0.77-8.851-1.098-13.283c-0.086-1.161,0.26-2.448-0.126-3.478
			c-2.66-7.101,1.025-12.348,5.049-17.415c3.264-4.112,7.414-7.392,11.086-11.126c1.644-1.672,3.083-3.389,2.854-6.106
			c-2.321-1.023-3.906,0.233-4.916,1.83c-1.413,2.232-3.308,3.845-5.186,5.619c-3.362,3.177-6.313,6.791-9.396,10.259
			c-1.856,2.088-3.46,4.431-5.487,6.329c-3.076,2.879-5.553,6.063-6.874,10.096c-0.243,0.742-0.617,1.442-1.042,2.416
			c-6.237-7.92-13.413-14.437-21.066-20.261c-4.132-3.145-8.687-6.205-14.367-6.88c-2.889-0.343-4.911-2.901-6.66-5.849
			c3.163-4.896,6.28-10.048,9.722-14.973c5.26-7.529,10.667-14.96,16.173-22.311c2.116-2.824,4.765-5.243,7.006-7.981
			c1.963-2.398,3.501-5.159,5.566-7.456c5.029-5.595,10.356-10.921,15.359-16.538c2.716-3.05,5.912-5.39,9.57-7.84
			c3.711,5.669,9.489,7.673,15.798,9.388c5.875,1.597,11.298,0.416,16.319-1.61c6.473-2.612,13.056-5.462,18.147-10.555
			c8.286,2.084,15.686,5.999,23.271,9.492c3.88,1.787,7.639,3.709,11.333,5.867c3.097,1.809,4.661,4.424,5.916,7.454
			c2.184,5.271,4.403,10.514,7.135,15.54c1.086,1.997,2.005,4.207,2.404,6.427c0.71,3.939,3.049,6.79,5.38,9.782
			c1.467,1.883,2.496,4.106,3.985,6.623c-3.107,1.297-6.142,0.222-8.934,0.796c-2.868,0.59-5.664,1.529-8.592,2.344
			c-1.313-2.779-3.172-5.692-4.024-8.875c-0.589-2.202-1.959-3.194-3.385-4.463c-4.115-3.662-7.038-7.995-7.343-14.219
			c-1.361,0.397-2.468,0.72-3.604,1.051c0,2.742,0,5.051,0,7.663c1.591,1.521,3.132,3.521,5.133,4.806
			c5.831,3.74,7.417,9.695,8.854,15.807c1.112,4.734,0.733,9.838,3.511,14.158c-1.738,2.661,1.455,3.906,1.801,6.053
			c0.353,2.188,1.457,4.338,2.597,6.293c1.175,2.019,0.983,4.213,1.486,6.307c1.348,5.607,3.213,11.107,4.25,16.765
			c0.646,3.521,1.374,6.932,2.854,10.169C183.129,353.066,183.845,354.118,184.582,355.401z"/>
		<path fill-rule="evenodd" clip-rule="evenodd" fill="#FFFFFF" d="M279.915,569.004c-3.591,0.669-7.031,1.628-10.521,1.88
			c-4.476,0.324-8.992,0.109-13.49,0.07c-4.957-0.042-9.776,0.809-14.612,1.816c-4.472,0.932-9.033,1.428-13.55,2.148
			c-8.941,1.426-17.468,4.007-25.078,9.108c-0.538,0.36-1.117,0.659-2.274,1.337c-1.156-5.898-2.403-11.443-3.287-17.046
			c-0.614-3.886-0.424-7.907-1.157-11.761c-0.664-3.487-1.939-6.888-3.232-10.215c-1.007-2.589-2.311-5.091-3.738-7.479
			c-2.179-3.645-3.414-7.429-2.984-11.732c0.108-1.09-0.259-2.271-0.594-3.352c-1.203-3.883-2.354-7.79-3.802-11.583
			c-0.602-1.575-1.938-2.858-2.872-4.319c-1.727-2.703-4.118-4.981-4.768-8.375c-0.249-1.306-1.412-2.438-2.438-4.099
			c-1.058,1.344-1.732,2.201-2.182,2.771c0.866,5.348,4.043,9.084,6.961,12.973c0.588,0.783,1.322,1.63,1.477,2.535
			c1.125,6.61,4.641,12.652,4.338,19.652c-0.092,2.121,1.27,4.389,2.248,6.454c1.68,3.549,3.634,6.966,5.377,10.486
			c1.556,3.145,2.224,6.524,2.306,10.026c0.137,5.89,1.476,11.584,2.681,17.315c0.707,3.361,0.924,6.825,1.359,10.243
			c0.162,1.272,0.317,2.546,0.51,4.088c-1.322,0.879-2.798,1.859-4.533,3.014c-4.903,0-10.154,0.609-15.195-0.157
			c-6.128-0.931-12.211-0.601-18.311-0.876c-3.604-0.162-7.222-1.087-10.787-0.878c-9.329,0.548-18.633,1.529-28.387,2.376
			c-1.302-1.252,0.065-2.873,0.591-4.421c-1.867-5.044-2.666-10.139-3.055-15.44c-0.512-6.978-1.038-14.097-3.568-20.696
			c-1.498-3.907-3.783-7.575-6.109-11.089c-4.212-6.366-7.097-13.164-8.261-20.732c-0.291-1.891-1.239-3.687-1.934-5.507
			c-3.078-8.068-6.119-16.151-9.301-24.179c-0.752-1.897-1.998-3.6-3.281-5.858c2.933-0.33,5.135-0.847,6.605-2.904
			c0.294-0.411,1.207-0.366,1.824-0.563c3.256-1.043,6.598-1.88,9.746-3.187c9.251-3.838,19.004-5.729,28.714-7.859
			c5.32-1.166,10.667-1.662,16.09-2.11c7.291-0.602,14.405-2.223,21.179-5.572c7.621-3.77,15.983-5.646,24.341-7.273
			c3.5-0.682,6.986-1.436,10.512-2.163c4.577,6.46,8.022,13.137,11.486,19.81c0.893,1.72,2.167,3.239,3.108,4.938
			c1.699,3.068,3.671,6.066,4.819,9.343c1.797,5.124,2.807,10.52,4.52,15.676c1.431,4.305,4.762,7.46,7.72,10.761
			c2.436,2.718,4.896,5.466,7.672,7.813c4.402,3.724,6.513,9.103,10.198,13.313c2.387,2.729,4.513,5.754,7.215,8.122
			c6.979,6.116,12.704,13.298,18.355,20.566C279.058,566.85,279.289,567.688,279.915,569.004z M99.154,513.434
			c4.937,0.983,8.842-0.506,12.581-4.601c5.636-6.171,8.53-13.76,11.222-21.455c0.118-0.335-0.306-0.86-0.56-1.506
			c-1.12,0.528-2.131,1.005-3.493,1.646c-1.056,2.63-2.108,5.53-3.394,8.323c-0.604,1.31-1.632,2.431-2.517,3.6
			c-1.084,1.433-2.157,2.883-3.348,4.225c-2.521,2.84-4.158,6.738-8.843,6.992C99.566,510.726,98.229,511.634,99.154,513.434z
			 M212.034,479.409c-4.768-3.884-9.331-7.601-13.522-11.016c-0.403-1.866-0.671-3.107-0.94-4.354
			c-3.654,0.859-3.654,0.859-3.303,5.796c4.734,4.522,9.279,9.543,16.365,11.239C211.049,480.582,211.366,480.204,212.034,479.409z"
			/>
		<path fill-rule="evenodd" clip-rule="evenodd" fill="#FFFFFF" d="M145.102,178.883c-0.571-0.259-1.143-0.517-1.758-0.795
			c-2.12,0.389-3.875,1.207-3.643,3.706c-1.222,0.126-2.021,0.208-2.819,0.29c0.396-0.684,0.792-1.367,1.129-1.951
			c-0.574-1.481-1.08-2.787-1.621-4.182c-0.731,0.107-1.457,0.032-1.956,0.333c-0.625,0.376-1.065,1.061-1.945,1.994
			c1.326,0.465,2.161,0.757,3.014,1.057c-0.61,1.453,0.133,2.229,1.508,2.654c0.226,1.425,0.452,2.85,0.723,4.559
			c-5.394,4.671-11.513,8.058-19.294,7.447c-2.97-0.233-5.638,0.554-6.761,3.752c-0.367,1.044-0.764,2.294-0.521,3.299
			c0.994,4.111,1.696,8.169,0.861,12.429c-0.604,3.082,0.991,5.509,3.294,7.314c2.392,1.876,5.008,3.466,7.836,5.392
			c-0.654,0.684-1.286,1.747-2.219,2.244c-3.745,1.994-7.556,3.871-11.394,5.683c-7.11,3.356-14.118,2.277-20.867-0.996
			c-2.149-1.042-3.877-2.954-5.955-4.592c2.231-4.183,8.116-4.985,8.221-11.163c-0.217-0.137-1.017-0.64-1.828-1.15
			c0-3.04,0-6.031,0-9.381c1.928-2.629,4.352-5.526,1.91-9.659c-3.821,0.686-6.658-1.225-9.785-2.931
			c-4.849-2.646-10.056-4.671-15.212-6.701c-2.33-0.918-4.057-2.232-5.37-4.318c-1.389-2.206-2.945-4.307-4.712-6.863
			c1.854-0.218,3.225-0.379,4.677-0.55c0.496-1.033,0.979-2.038,1.443-3.006c-2.983-2.453-2.983-2.453-6.523,0.786
			c-1.871-2.517-3.727-5.014-5.564-7.484c1.185-1.123,2.182-2.067,3.533-3.349c-2.254-0.91-3.833-1.506-4.838,0.521
			c-2.269-3.25-6.047-5.455-7.477-9.564c-1.372-3.942-2.635-7.869-3.462-12.228c1.627-0.299,2.839-0.273,3.785-0.764
			c0.976-0.507,1.692-1.515,2.601-2.377c-0.729-2.8,1.401-6.063-2.032-8.494c-0.622,0.444-1.257,0.897-2.099,1.498
			c0.712,2.336,1.877,4.722-0.191,6.996c-1.604-0.173-3.319-0.357-4.989-0.538c-3.092-3.011-6.184-5.962-9.206-8.983
			c-2.479-2.479-4.092-5.431-4.56-8.962c-0.192-1.452-0.554-2.883-0.726-4.337c-0.631-5.351-0.641-10.485,4.57-13.981
			c0.864-0.579,1.372-1.688,2.186-2.732c3.598,2.229,4.48,7.582,9.681,7.622c1.279-0.968,2.721-2.059,3.994-3.021
			c7.691,0.62,14.669,4.705,22.433,2.886c2.745,1.711,1.997,4.889,2.296,7.212c0.4,3.11,1.003,5.747,2.747,8.409
			c2.157,3.293,4.197,6.56,7.237,9.172c2.31,1.984,4.787,3.382,7.758,3.997c2.734,0.565,5.416,1.481,8.172,1.816
			c6.229,0.756,11.586-0.848,15.74-5.982c3.497-4.321,7.102-11.375,7.6-16.063c3.261-1.885,6.277-0.271,9.693,0.741
			c0.933,2.639,1.565,5.534,2.929,8.029c2.159,3.949,4.846,7.732,9.822,8.335c4.722,0.572,9.497,0.702,14.244,1.092
			c4.184,0.343,7.794-0.857,10.904-3.687c0.595-0.541,1.415-0.834,2.038-1.189c5.662-10.774,6.629-14.983,5.094-22.587
			c1.594-1.375,3.301-2.85,5.554-4.795c-1.686,6.659-4.7,12.643-2.188,18.332c-3.052,9.448-5.873,18.185-8.765,27.138
			c-1.775,0.789-3.817,1.695-6.054,2.688c1.944,1.683,3.531,3.055,5.185,4.484c-2.887,6.078-5.544,11.675-7.971,16.786
			c-1.61,0.122-2.594,0.196-3.914,0.297c0.287,1.419,0.494,2.446,0.708,3.501c-1.375,0.257-2.658,0.497-3.941,0.736
			c0.549,0.568,1.098,1.138,1.646,1.706c-2.476-0.767-4.565-0.838-4.742,2.547L145.102,178.883z M104.882,186.898
			c1.831,0.165,3.659,0.325,4.111-2.521c-1.782-0.506-3.4-0.94-4.708,0.929c0.252,0.572,0.504,1.145,0.756,1.717
			c-1.048,0.569-2.095,1.138-3.484,1.893c0.998,0.928,1.654,1.538,2.483,2.31c0.819-0.782,1.463-1.396,2.089-1.993
			C105.621,188.281,105.251,187.59,104.882,186.898z M102.027,193.953c1.052,0.772,2.104,1.545,3.717,2.729c0-1.724,0-2.596,0-3.674
			c-1.445,0.403-2.634,0.735-3.823,1.067c0-0.935,0-1.868,0-2.784c-3.852-0.144-3.852-0.144-3.763,2.661
			C99.439,193.953,100.733,193.953,102.027,193.953z M148.052,169.066c-1.932,0.165-4.202-2.823-5.849,0.63
			c1.843,2.681,3.839,0.37,5.733,0.715c0-0.8,0-1.13,0-1.46c0.271-0.124,0.541-0.248,0.211-0.097
			C148.297,168.523,148.175,168.795,148.052,169.066z M107.938,154.918c0.996-0.477,1.992-0.953,3.045-1.457
			c-0.044-0.748-0.082-1.367-0.146-2.448c-1.629,0.085-3.124,0.163-4.696,0.245c0.191,0.973,1.61,3.495,1.937,3.801
			c-0.272,0.118-0.544,0.237-0.247,0.107C107.703,155.464,107.82,155.191,107.938,154.918z M69.2,167.462
			c1.81,3.124,4.709,5.359,7.992,6.244c4.34,1.169,8.299,3.058,12.394,4.738c5.253,2.156,10.947,3.771,16.397,2.354
			c4.184-1.087,8.424-0.888,12.588-2.048c7.306-2.036,14.069-4.568,18.957-10.705c0.606-0.761,1.427-1.353,2.064-1.944
			c3.396,0.634,3.565,0.532,4.384-2.736c-3.947-0.18-4.053-3.928-5.674-6.344c-1.766,0-3.466-0.229-5.082,0.04
			c-6.833,1.141-13.709,1.718-20.623,1.888c-4.017,0.1-8.026-0.058-12.002,0.907c-1.362,0.33-2.944-0.074-4.396-0.316
			c-5.635-0.936-11.049-3.071-16.946-2.651c-2.668,0.189-4.755,1.028-6.581,2.872C70.68,161.773,68.311,163.567,69.2,167.462z
			 M113.066,146.597c3.151,3.435,6.895,3.709,10.715,3.343c2.414-0.23,4.785-0.91,7.558-1.465c0.61-1.396,1.309-2.996,2.164-4.952
			c-1.458-0.738-2.536-1.284-3.742-1.896c-1.696,2.018-3.135,3.729-4.455,5.299C121.105,146.612,117.355,143.18,113.066,146.597z
			 M34.624,123.538c-1.847-3.836-5.678-6.434-5.362-11.552c2.017,0.371,3.67,0.676,5.511,1.015c0.749-4.017-2.327-4.014-4.477-5.361
			c-1.776,1.172-3.5,2.311-4.974,3.284c0.41,1.939,0.707,3.345,0.961,4.547C29.645,117.788,30.294,122.65,34.624,123.538z
			 M143.063,148.816c-4.755,1.538-8.827,2.855-13.172,4.261c3.394,2.432,3.394,2.432,5.401,0.596c1.764,0,3.149,0,4.495,0
			c0.184-0.834,0.324-1.471,0.479-2.178c0.786,0.146,1.508,0.281,2.485,0.464C142.837,151.094,142.913,150.329,143.063,148.816z
			 M78.734,155.873c0.471-2.459,0.9-4.511,1.226-6.578c0.054-0.34-0.349-0.751-0.66-1.365c-1.187,0.875-2.203,1.624-3.271,2.412
			c0.655,0.538,1.106,0.908,1.666,1.367c-1.809,0.315-3.565,0.494-3.662,2.723c-0.019,0.436,0.224,0.883,0.379,1.441
			C75.805,155.873,77.086,155.873,78.734,155.873z M100.789,185.049c-1.72-0.303-3.479,0.799-5.153-0.867
			c-0.856-0.852-3.468,0.061-5.481,0.188c2.123,1.572,7.796,3.554,10.04,3.525c0.24-0.003,0.475-0.408,0.802-0.709
			C100.941,186.623,100.88,185.993,100.789,185.049z M125.993,152.503c-1.873-0.115-3.209-0.187-4.544-0.283
			c-1.698-0.124-3.262-0.078-3.339,2.631c1.266-0.086,2.425-0.164,3.258-0.221c1.432,0.594,2.673,1.109,4.368,1.813
			C125.849,154.709,125.918,153.64,125.993,152.503z M132.924,180.479c-1.551-0.536-2.9-1.002-4.258-1.472
			c-0.788,0.564-1.526,1.094-2.81,2.013c2.571,1.021,4.327,3.033,7.067,1.432C132.924,181.866,132.924,181.377,132.924,180.479z
			 M61.099,165.505c-0.264,1.946-0.458,3.867,2.344,4.346c2.128-2.919,2.121-4.463,0.018-5.614
			C62.729,164.63,62.015,165.013,61.099,165.505z M88.112,148.706c-0.27-0.324-0.54-0.648-0.81-0.973
			c-1.282,0.529-2.564,1.059-4.346,1.795c1.271,0.963,1.969,1.492,2.669,2.022c-0.455,0.331-0.902,0.656-1.473,1.071
			c0.932,0.383,1.669,0.685,2.528,1.037C87.162,151.995,87.637,150.351,88.112,148.706z M143.91,156.904
			c4.318,2.141,5.588-1.699,8.304-1.421c-0.269-1.082-0.409-1.648-0.576-2.319c-1.215,0.631-2.216,1.177-3.24,1.674
			C147.261,155.391,146.103,155.898,143.91,156.904z M62.593,149.323c-1.646,1.103-3.077,2.06-4.779,3.198
			C62.151,154.691,62.856,154.192,62.593,149.323z M88.083,187.803c-1.525,1.778-2.745,3.2-4.053,4.725
			c0.558,0.447,1.038,0.832,1.666,1.336c1.514-1.739,2.937-3.375,4.559-5.237C89.39,188.298,88.827,188.084,88.083,187.803z
			 M138.067,175.042c1.81-0.089,3.326-0.163,5.055-0.248c-0.224-1.231-0.358-1.975-0.474-2.611
			C140.164,171.601,139.175,173.019,138.067,175.042z M64.093,176.326c1.136,1.649,2.247,2.239,3.92,0.976
			c-0.098-1.037-0.199-2.107-0.367-3.879C66.149,174.646,65.11,175.495,64.093,176.326z M50.726,155.285
			c0.921,2.316,2.001,3.232,4.015,2.417c0.354-0.884,0.643-1.603,0.97-2.417C54.131,155.285,52.633,155.285,50.726,155.285z
			 M56.921,165.001c-2.187,0.043-3.902-0.486-4.691,1.786c0.527,0.396,0.995,0.945,1.577,1.127c0.567,0.178,1.252-0.021,1.763-0.049
			C56.025,166.9,56.37,166.17,56.921,165.001z M74.449,182.107c1.092-1.879,0.457-3.002-0.985-3.938
			c-0.827,0.553-1.672,1.117-2.922,1.952C72.208,180.969,73.303,181.525,74.449,182.107z M95.229,153.161
			c2.127,0.994,3.102,1.45,4.406,2.061c0.127-1.161,0.22-2.003,0.383-3.488C98.38,152.222,97.305,152.542,95.229,153.161z
			 M66.174,158.077c1.794-1.174,2.404-2.333,1.161-4.147C65.458,154.716,64.192,155.571,66.174,158.077z M78.842,179.895
			c-2.306,0.533-3.22,1.47-2.747,3.274c0.086,0.329,0.661,0.53,1.273,0.984C77.853,182.753,78.254,181.593,78.842,179.895z
			 M122.149,183.084c-0.405-1.419-0.651-2.282-1.031-3.615c-1.1,1.161-1.721,1.816-2.802,2.958
			C119.854,182.69,120.697,182.835,122.149,183.084z M118.398,189.597c-0.615-1.983-0.877-2.829-1.33-4.287
			c-1.085,0.955-1.625,1.431-2.443,2.151C115.9,188.183,116.576,188.565,118.398,189.597z M150.598,160.575
			c1.362,0.67,2.123,1.044,3.471,1.707c-0.206-1.509-0.322-2.36-0.506-3.704C152.521,159.28,151.892,159.703,150.598,160.575z
			 M58.845,155.621c-1.435,1.206-2.211,1.857-3.729,3.133c1.9,0,2.785,0,3.729,0C58.845,157.891,58.845,157.263,58.845,155.621z
			 M46.674,151.464c1.231,0.711,1.893,1.093,3.008,1.735c0-1.37,0-2.226,0-3.573C48.633,150.267,47.986,150.662,46.674,151.464z
			 M144.595,149.58c1.368,0.675,2.124,1.048,3.472,1.712c-0.206-1.518-0.321-2.369-0.503-3.717
			C146.52,148.28,145.89,148.705,144.595,149.58z M151.426,163.376c-0.844,0.526-1.687,1.052-3.09,1.927
			C150.799,166.291,151.362,165.233,151.426,163.376z M144.86,160.866c1.459,0.4,2.731,0.51,3.339-2.116
			C146.62,159.751,145.74,160.309,144.86,160.866z M97.351,156.293c-1.326-0.069-2.187-0.114-3.893-0.202
			c1.39,1.011,2.085,1.517,2.807,2.042C96.588,157.584,96.744,157.32,97.351,156.293z M112.297,190.184
			c-0.107,0.256-0.214,0.512-0.321,0.768c0.535,0.228,1.07,0.455,1.605,0.684c0.106-0.271,0.325-0.768,0.301-0.78
			C113.371,190.599,112.832,190.396,112.297,190.184z M156.036,154.12c-0.182-0.301-0.362-0.602-0.544-0.902
			c-0.678,0.427-1.355,0.854-2.033,1.28c0.112,0.197,0.224,0.395,0.336,0.592C154.542,154.767,155.289,154.443,156.036,154.12z
			 M73.189,151.197c-0.456-0.481-0.733-1.014-1.036-1.029c-0.336-0.017-0.696,0.438-1.045,0.688
			c0.251,0.348,0.447,0.896,0.769,0.982C72.174,151.919,72.605,151.506,73.189,151.197z M152.043,151.983
			c0.25-0.105,0.499-0.21,0.749-0.314c-0.206-0.524-0.396-1.058-0.653-1.556c-0.02-0.038-0.518,0.171-0.794,0.266
			C151.578,150.913,151.811,151.448,152.043,151.983z M82.497,183.854c0.146-0.223,0.293-0.445,0.439-0.668
			c-0.441-0.32-0.882-0.641-1.323-0.961c-0.156,0.224-0.311,0.446-0.467,0.669C81.597,183.215,82.047,183.534,82.497,183.854z
			 M79.976,187.918c-0.221-0.203-0.442-0.405-0.663-0.608c-0.366,0.398-0.733,0.797-1.099,1.195
			c0.138,0.158,0.276,0.316,0.414,0.475C79.077,188.626,79.526,188.271,79.976,187.918z M157.555,158.808
			c-0.014-0.271-0.027-0.542-0.04-0.813c-0.698,0.113-1.396,0.227-2.095,0.341c0.015,0.157,0.028,0.314,0.043,0.472
			C156.16,158.808,156.857,158.808,157.555,158.808z M116.218,183.857c-0.657-0.487-0.911-0.791-1.036-0.745
			c-0.275,0.102-0.486,0.38-0.723,0.587C114.852,183.734,115.245,183.77,116.218,183.857z M122.772,185.837
			c0.01-0.151,0.021-0.303,0.031-0.454c-0.363,0-0.726,0-1.088,0c0.001,0.106-0.014,0.304,0.006,0.308
			C122.069,185.753,122.421,185.792,122.772,185.837z M95.843,194.52c-0.108-0.12-0.212-0.33-0.326-0.335
			c-0.115-0.006-0.24,0.19-0.36,0.299c0.108,0.12,0.212,0.33,0.326,0.336S95.722,194.628,95.843,194.52z M64.843,160.52
			c-0.108-0.12-0.212-0.33-0.326-0.335c-0.115-0.006-0.24,0.19-0.36,0.299c0.108,0.12,0.212,0.33,0.326,0.336
			S64.722,160.628,64.843,160.52z M55.481,150.841c0.121-0.108,0.241-0.216,0.362-0.324c-0.108-0.12-0.212-0.33-0.326-0.336
			s-0.239,0.191-0.36,0.3C55.265,150.601,55.374,150.721,55.481,150.841z"/>
		<path fill-rule="evenodd" clip-rule="evenodd" fill="#FFFFFF" d="M314.605,263.985c3.908,0,6.568,0,9.332,0
			c0.908,0.646,1.836,1.306,2.559,1.819c2.187,0.725,4.67-0.753,6.573,2.162c-0.837,2.502-1.783,5.407-2.791,8.29
			c-0.271,0.772-0.958,1.446-1.064,2.219c-0.838,6.065-5.094,9.246-10.119,11.965c0.222,6.303-3.025,11.652-4.835,17.412
			c-0.783,2.49-2.013,4.843-2.758,7.341c-2.002,6.71-5.257,12.526-9.904,17.914c-5.755,6.673-12.604,11.821-19.919,16.36
			c-3.378,2.097-7.644,2.737-11.466,4.148c-7.486,2.764-15.275,2.633-23.028,2.248c-3.219-0.16-6.481-1.058-9.558-2.107
			c-5.065-1.729-10.351-2.898-15.021-5.734c-2.777-1.687-6.079-2.666-8.521-4.709c-2.861-2.394-6.192-3.665-9.321-5.433
			c-8.005-4.523-15.957-9.135-22.326-15.972c-3.945-4.234-7.255-8.921-9.062-14.397c-1.405-4.261-2.069-8.766-3.123-13.426
			c4.78-2.12,9.507-3.579,14.901-2.858c5.593,11.199,14.793,19.284,23.491,27.799c0.7,0.686,1.429,1.341,2.132,2.022
			c7.423,7.187,15.666,13.086,25.593,16.355c2.493,0.821,4.929,1.934,7.484,2.42c3.014,0.573,5.942,1.5,9.258,0.572
			c2.796-0.783,5.979-0.591,8.938-0.301c7.931,0.777,14.408-2.344,20.404-7.014c6.712-5.229,11.208-12.01,14.038-19.975
			c1.524-4.29,3.559-8.417,4.023-13.034c0.147-1.467,0.353-2.928,0.519-4.393c0.351-3.084-0.519-6.191,0.729-9.326
			c0.521-1.308-0.112-3.524-0.97-4.841c-2.033-3.123-2.808-6.624-3.696-10.09c-0.578-2.253-1.492-3.884-3.223-5.677
			c-3.717-3.851-6.604-8.5-9.854-12.804c-1.679-2.223-3.516-4.334-5.067-6.641c-0.664-0.987-0.782-2.343-1.381-4.282
			c6.389,2.745,11.025,6.21,14.158,11.438c2.107,3.517,4.868,6.14,8.506,7.618c3.494-0.699,4.747-2.729,4.841-5.982
			c0.197-6.856,0.561-13.71,1.007-20.555c0.114-1.75,0.793-3.464,1.174-5.033c2.402-1.272,2.909,0.72,3.292,1.888
			c0.512,1.562,0.271,3.354,0.598,4.997c0.279,1.403,0.903,2.738,1.535,4.569c-1.757,2.655,0.461,5.991-0.349,9.383
			c-0.739,3.1-0.156,6.516-0.156,11.054C312.727,261.981,313.943,263.278,314.605,263.985z M322.598,284.759
			c0.448-1.336,0.904-2.695,1.313-3.913c-1.681-4.634-3.063-9.274-6.299-12.829c-6.533-0.339-11.759,1.914-17.078,6.168
			c1.593,0.343,2.689,0.916,3.597,0.699c1.54-0.37,2.945-1.275,4.436-1.886c1.885-0.772,3.798-1.474,5.846-2.262
			c1.794,3.812,3.357,7.133,4.994,10.61c-3.366,1.333-5.553-0.349-7.87-1.369c-1.771-0.779-3.554-1.538-5.309-2.355
			c-1.525-0.711-2.268,0.316-3.292,1.348C308.622,284.06,315.05,286.01,322.598,284.759z"/>
		<path fill-rule="evenodd" clip-rule="evenodd" fill="#FFFFFF" d="M47.771,459.615c3.264,1.271,6.118,2.383,9.663,3.764
			c-3.992,1.204-5.778,3.299-5.1,7.212c2.202,2.93,4.4,6.223,6.981,9.183c2.619,3.004,6.247,4.056,10.01,4.217
			c1.971-1.441,2.515-2.987,1.816-5.174c-0.39-1.219-0.343-2.723,1.614-3.498c0.499,2.491,0.993,4.959,1.417,7.074
			c-2.134,3.525-5.43,5.966-3.959,10.402c-4.459,2.166-8.427,4.498-8.855,9.896c-2.154,0-3.935,0-6.011,0
			c-3.943-3.283-8.458-6.406-12.135-10.317c-2.644-2.813-5.574-6.007-3.53-10.959c1.176-2.849,0.222-5.908-1.457-8.914
			c-3.691-6.61-8.774-12.234-12.506-18.841c-2.386-4.223-5.357-8.201-7.636-12.548c-2.297-4.381-3.461-9.075-4.168-13.998
			c-0.478-3.328-1.945-6.538-3.162-9.728c-0.698-1.829-1.857-3.476-2.67-5.268c-1.294-2.851-2.236-5.762-2.112-9.011
			c0.074-1.922-0.567-3.862-0.774-5.806c-0.14-1.316-0.502-2.827-0.036-3.947c1.278-3.071,0.573-6.227,0.911-9.32
			c0.461-4.22,1.258-8.402,1.747-12.619c0.508-4.384,0.776-8.794,1.236-13.183c0.255-2.435,0.235-5.034,1.125-7.242
			c3.045-7.548,4.683-15.655,8.839-22.748c2.048-3.494,4.388-6.817,6.593-10.213c9.917,3.301,15.704,11.644,23.441,17.408
			c-3.699,6.493-7.793,12.462-10.628,18.978c-3.192,7.338-7.349,14.188-10.292,21.611c-0.708,1.786-0.975,3.804-1.136,5.741
			c-0.418,5.021-0.945,10.061-0.885,15.087c0.042,3.583,1.021,7.148,1.481,10.734c0.527,4.108,0.603,8.307,1.499,12.326
			c0.953,4.272,1.573,8.673,3.576,12.69c2.97,5.957,5.502,12.07,10.074,17.192C45.063,452.398,46.07,456.171,47.771,459.615z"/>
		<path fill-rule="evenodd" clip-rule="evenodd" fill="#FFFFFF" d="M66.122,415.222c0.369,3.281,0.722,5.378,0.813,7.485
			c0.143,3.291-0.202,6.588,1.28,9.755c0.485,1.036,0.077,2.489,0.083,3.751c0.008,1.558-0.045,3.119,0.05,4.672
			c0.307,5.019,0.338,10.163,5.572,13.136c-3.401,2.577-6.464,4.897-9.75,7.388c-3.184-3.632-8.547-1.88-12.789-3.871
			c-2.543-5.657-6.65-10.42-9.562-15.8c-3.271-6.045-7.003-11.992-7.986-19.227c-0.619-4.557-2.031-9.073-2.431-13.708
			c-0.638-7.396-1.794-14.756-1.424-22.233c0.117-2.356,2.4-4.629,0.227-7.066c6.861-13.719,13.691-27.376,20.473-40.938
			c4.075,7.139,4.4,7.489,7.732,8.277c2.401-5.328,4.207-10.953,7.879-16.69c0.262,4.79,0.343,8.575,0.705,12.332
			c0.49,5.076,1.281,10.123,1.781,15.198c0.336,3.402,0.364,6.834,0.583,10.25c0.112,1.738,0.823,3.601,0.396,5.17
			c-0.495,1.817-1.071,3.419,0.026,5.571c-1.801,2.227-3.729,4.61-6.051,7.481c0.385,2.322,0.655,5.104,1.337,7.782
			c0.926,3.631,2.268,7.156,3.221,10.782c0.351,1.334,0.408,2.903,0.065,4.229C67.744,411.313,66.728,413.574,66.122,415.222z"/>
		<path fill-rule="evenodd" clip-rule="evenodd" fill="#FFFFFF" d="M241.088,598.971c7.742-2.441,16.111-5.081,24.98-7.878
			c-0.534,7.396-0.201,14.483-0.491,21.614c-0.214,5.27-1.089,10.414-1.365,15.632c-0.375,7.107-2.556,13.857-3.748,20.795
			c-0.93,5.405-2.025,10.721-3.949,15.857c-2.406,6.425-5.37,12.707-7.074,19.313c-2.196,8.51-5.379,16.626-8.44,24.797
			c-1.648,4.397-4.193,8.453-5.952,12.816c-1.395,3.46-2.384,7.043-4.59,10.163c-1.491,2.108-2.59,4.494-4.033,7.056
			c-4.206-0.826-8.284-1.627-12.882-2.529c1.169-2.929,2.104-5.335,3.087-7.722c2.485-6.038,5.184-11.996,7.444-18.116
			c2.929-7.933,5.713-15.921,7.257-24.293c0.706-3.827,2.246-7.454,3.451-11.156c1.299-3.99,1.563-8.318,2.252-12.503
			c0.718-4.354,1.356-8.721,2.12-13.066c0.535-3.043,1.466-6.032,1.795-9.092c0.824-7.676,1.851-15.373,1.946-23.071
			C242.97,611.553,241.771,605.502,241.088,598.971z"/>
		<path fill-rule="evenodd" clip-rule="evenodd" fill="#FFFFFF" d="M106.012,752.345c-5.737-0.87-11.208-1.7-17.488-2.652
			c2-1.906,3.489-3.342,4.995-4.761c6.6-6.224,13.055-12.565,17.027-20.926c3.082-6.486,6.593-12.808,9.14-19.497
			c4.11-10.795,7.488-21.866,11.356-32.757c3.22-9.064,6.711-18.032,10.059-27.052c2.318-6.247,4.591-12.511,6.893-18.765
			c0.557-1.514,1.146-3.015,1.609-4.233c12.386-4.408,16.795-2.426,26.332,2.007c-1.925,5.99-5.163,11.191-9.054,16.133
			c-2.305,2.929-4.239,6.288-5.674,9.73c-2.061,4.943-3.459,10.159-5.242,15.223c-1.19,3.38-2.271,6.846-3.898,10.018
			c-5.606,10.921-11.454,21.717-17.164,32.585c-2.971,5.655-5.705,11.44-8.818,17.015c-1.919,3.438-4.248,6.663-6.573,9.854
			C115.156,740.241,110.669,746.122,106.012,752.345z"/>
		<path fill-rule="evenodd" clip-rule="evenodd" fill="#FFFFFF" d="M100.529,81.194c1.243,0.791,2.634,1.678,4.188,2.667
			c1.474,0,3.117,0,4.577,0c2.652-1.18,1.208-3.681,2.185-5.667c1.816,0.701,3.664,1.414,5.856,2.261
			c0.444-1.657,0.766-2.86,1.133-4.232c5.915,1.495,9.65,6.748,15.254,8.583c1.703-0.351,3.456-0.711,5.574-1.146
			c0.785-0.988,1.796-2.26,2.868-3.607c-0.343-1.156-0.663-2.231-1.016-3.423c0.417-0.184,0.822-0.448,1.262-0.533
			c0.481-0.092,1.089-0.194,1.479,0.013c3.593,1.911,6.675,0.512,9.865-1.576c1.187-2.773,2.467-5.765,3.724-8.702
			c1.34-0.664,2.505-1.24,3.566-1.767c3.638,0.785,7.134,1.54,10.552,2.277c0.786,1.191,1.512,2.29,2.328,3.526
			c0.274,6.232-1,12.843,3.286,18.92c-2.667,1.365-4.98,2.553-7.298,3.734c-2.196,1.12-4.402,2.224-6.594,3.354
			c-2.297,1.186-4.604,1.237-7.162,0.757c-2.341-0.44-4.825-0.159-7.245-0.113c-0.804,0.015-1.608,0.442-2.402,0.414
			c-7.399-0.261-14.141,2.317-20.92,4.753c-0.304,0.109-0.631,0.156-0.947,0.232c-4.509-1.362-9.025-1.409-14.018-0.128
			c-4.938-3.184-10.82-4.182-17.044-3.854c-4.785,0.252-9.496-0.026-14.128-1.67c-2.419-0.859-5.129-0.983-7.728-1.233
			c-4.586-0.44-9.188-0.713-13.782-1.075c-4.756-0.375-9.512-0.754-14.263-1.194c-0.415-0.039-0.787-0.545-1.236-0.877
			c2.445-2.794,4.838-5.529,7.444-8.507c0.078-1.011,0.18-2.321,0.299-3.859c1.857-1.092,3.806-2.238,5.754-3.384
			c0.027,0.201,0.054,0.403,0.081,0.604c1.935-0.23,3.869-0.462,5.873-0.701c0-1.88,0-3.176,0-4.383
			c-0.964-0.747-1.818-1.409-2.78-2.155c0.513-0.202,0.904-0.491,1.057-0.396c3.882,2.405,7.811,4.745,11.571,7.33
			c2.083,1.432,4.007,2.742,6.727,2.722c1.135-0.009,2.278,1.093,3.583,1.776c1.014-0.464,2.196-1.004,3.43-1.567
			c2.922,1.562,5.934,3.172,9.154,4.893C96.473,83.304,98.24,82.385,100.529,81.194z"/>
		<path fill-rule="evenodd" clip-rule="evenodd" fill="#FFFFFF" d="M193.983,599.338c1.943,5.334,4.151,10.983,0.912,18.297
			c-1.63,1.907-5.443,1.856-8.628,2.111c-3.796,0.304-7.942-0.329-11.526-1.661c-4.695-1.745-9.562-2.328-14.353-2.92
			c-3.235-0.4-6.709,1.026-10.063,1.708c-4.155,0.844-8.16,2.707-12.536,2.062c-6.442-0.949-12.868-2.007-19.366-3.028
			c-2.464-5.085-1.067-10.225-1.356-15.337c4.377-2.408,9.032-3.354,13.729-3.462c9.982-0.229,20.015-0.636,29.948,0.104
			c8.451,0.63,16.872,0.659,25.313,0.883C188.461,598.157,190.85,598.826,193.983,599.338z"/>
		<path fill-rule="evenodd" clip-rule="evenodd" fill="#FFFFFF" d="M283.206,572.77c0.949,4.154,1.701,7.444,2.544,11.133
			c-24.36,3.614-47.08,12.542-70.111,22.037c-1.855-2.775-4.004-5.596-5.717-8.659c-1.739-3.112-3.05-6.464-4.556-9.729
			c2.257-4.408,6.88-5.008,10.98-6.464c1.218-0.433,2.521-0.619,3.756-1.011c6.959-2.21,14.084-3.467,21.357-4.097
			c3.399-0.294,6.747-1.159,10.124-1.732c0.809-0.137,1.64-0.194,2.462-0.201c5.809-0.042,11.618-0.14,17.425-0.048
			c2.191,0.034,4.226-0.082,6.193-1.188C279.605,571.718,281.658,571.014,283.206,572.77z"/>
		<path fill-rule="evenodd" clip-rule="evenodd" fill="#FFFFFF" d="M25.728,501.473c3.191-3.973,5.374-8.557,9.978-11.215
			c4.566,6.125,9.53,11.731,16.757,15.613c-3.488,3.579-6.677,6.852-10.103,10.365C34.595,513.784,30.196,507.795,25.728,501.473z"
			/>
		<path fill-rule="evenodd" clip-rule="evenodd" fill="#FFFFFF" d="M56.91,466.845c1.113-0.71,2.054-1.31,3.098-1.975
			c1.222,0.401,2.448,0.806,3.412,1.122c4.38-3.769,8.588-7.39,12.965-11.156c1.408,1.039,2.549,1.882,3.593,2.652
			c-0.191,0.642-0.184,1.075-0.386,1.225c-1.711,1.26-2.87,2.926-4.063,4.675c-2.641,3.869-4.878,8.033-8.261,11.4
			c-0.939,0.935-1.229,2.522-1.809,3.791C60.901,475.938,57.61,472.376,56.91,466.845z"/>
		<path fill-rule="evenodd" clip-rule="evenodd" fill="#FFFFFF" d="M154.752,111.458c-1.984,5.822-6.157,10.232-11.202,12.078
			c-1.318-1.741-0.297-3.06,0.78-4.377C148.607,113.926,151.638,111.599,154.752,111.458z"/>
		<path fill-rule="evenodd" clip-rule="evenodd" fill="#FFFFFF" d="M96.581,127.818c-2.107-1.776-1.372-3.057-0.51-4.373
			c3.184-4.867,4.685-6.037,8.459-6.202C103.786,122.339,100.921,125.521,96.581,127.818z"/>
		<path fill-rule="evenodd" clip-rule="evenodd" fill="#FFFFFF" d="M97.504,113.188c0.95,2.216-0.619,3.63-1.62,4.948
			c-1.946,2.563-3.362,5.825-7.166,6.686c-1.526-2.05-0.23-3.409,0.912-4.784c1.169-1.407,2.329-2.823,3.542-4.19
			C94.307,114.569,95.111,112.682,97.504,113.188z"/>
		<path fill-rule="evenodd" clip-rule="evenodd" fill="#FFFFFF" d="M237.077,601.318c-0.096,1.836-0.17,3.25-0.268,5.097
			c-5.567,0.556-10.848,1.082-16.128,1.609c-0.046-0.188-0.092-0.375-0.138-0.563C225.874,605.481,231.204,603.501,237.077,601.318z
			"/>
		<path fill-rule="evenodd" clip-rule="evenodd" fill="#FFFFFF" d="M269.11,590.484c2.79-0.541,5.122-0.992,7.994-1.549
			c-1.136,4.527-4.23,6.686-7.506,9.471C268.712,595.523,269.127,593.131,269.11,590.484z"/>
		<path fill-rule="evenodd" clip-rule="evenodd" fill="#FFFFFF" d="M160.048,116.267c-2.074,4.939-4.274,8.408-9.068,10.106
			c-0.698-2.675,0.5-4.227,1.893-5.577C154.649,119.072,155.713,116.289,160.048,116.267z"/>
		<path fill-rule="evenodd" clip-rule="evenodd" fill="#FFFFFF" d="M80.107,449.997c0.976,1.417,1.952,2.834,2.928,4.251
			C80.75,453.683,79.807,452.241,80.107,449.997z"/>
		<path fill-rule="evenodd" clip-rule="evenodd" fill="#FFFFFF" d="M145.077,181.048c0.009-0.722,0.017-1.443,0.024-2.165
			l-0.138,0.124c1.346,0.649,1.457,1.287-0.02,1.909L145.077,181.048z"/>
		<polygon fill-rule="evenodd" clip-rule="evenodd" fill="#FFFFFF" points="95.285,134.478 95.59,134.368 95.555,134.655 		"/>
		<path fill-rule="evenodd" clip-rule="evenodd" fill="#FFFFFF" d="M142.787,182.522c-0.104,0.089-0.208,0.178-0.312,0.267
			c-0.089-0.104-0.254-0.214-0.246-0.311s0.187-0.18,0.291-0.269C142.609,182.314,142.698,182.418,142.787,182.522z"/>
		<path fill-rule="evenodd" clip-rule="evenodd" fill="#FFFFFF" d="M144.944,180.916c-0.119,0.274-0.239,0.55-0.358,0.825
			c0.164-0.231,0.328-0.462,0.491-0.693L144.944,180.916z"/>
		<path fill-rule="evenodd" clip-rule="evenodd" fill="#FFFFFF" d="M41.838,25.479c-0.108,0.101-0.216,0.202-0.325,0.304
			c-0.095-0.114-0.27-0.233-0.263-0.341c0.007-0.108,0.194-0.205,0.302-0.307C41.648,25.249,41.744,25.364,41.838,25.479z"/>
		<path fill-rule="evenodd" clip-rule="evenodd" d="M99.154,513.434c-0.925-1.8,0.413-2.708,1.648-2.775
			c4.686-0.254,6.323-4.152,8.843-6.992c1.191-1.342,2.264-2.792,3.348-4.225c0.885-1.169,1.914-2.29,2.517-3.6
			c1.286-2.793,2.338-5.693,3.394-8.323c1.362-0.642,2.373-1.118,3.493-1.646c0.254,0.646,0.678,1.171,0.56,1.506
			c-2.692,7.695-5.586,15.284-11.222,21.455C107.996,512.928,104.091,514.417,99.154,513.434z"/>
		<path fill-rule="evenodd" clip-rule="evenodd" d="M212.034,479.409c-0.668,0.795-0.985,1.173-1.4,1.666
			c-7.086-1.696-11.631-6.717-16.365-11.239c-0.352-4.937-0.352-4.937,3.303-5.796c0.27,1.246,0.537,2.487,0.94,4.354
			C202.703,471.809,207.267,475.525,212.034,479.409z"/>
		<path fill-rule="evenodd" clip-rule="evenodd" d="M69.2,167.462c-0.89-3.895,1.479-5.688,3.473-7.701
			c1.826-1.844,3.913-2.683,6.581-2.872c5.897-0.42,11.311,1.716,16.946,2.651c1.453,0.242,3.034,0.646,4.396,0.316
			c3.976-0.965,7.985-0.808,12.002-0.907c6.914-0.17,13.791-0.747,20.623-1.888c1.616-0.27,3.316-0.04,5.082-0.04
			c1.621,2.416,1.727,6.164,5.674,6.344c-0.818,3.269-0.988,3.37-4.384,2.736c-0.638,0.592-1.458,1.184-2.064,1.944
			c-4.888,6.137-11.651,8.669-18.957,10.705c-4.164,1.16-8.405,0.961-12.588,2.048c-5.45,1.416-11.144-0.198-16.397-2.354
			c-4.095-1.681-8.054-3.569-12.394-4.738C73.909,172.821,71.01,170.586,69.2,167.462z M86.894,161.105
			c-0.21-0.203-0.421-0.406-0.631-0.609c0.251,0.167,0.502,0.334,0.753,0.501c0.836,4.228,3.838,5.906,7.515,6.521
			c2.761-0.877,3.208-2.897,2.971-5.357C93.983,161.811,90.438,161.458,86.894,161.105z M120.271,161.943
			c-2.419,0.975-3.506,2.644-3.493,4.662c-4.102,3.027-8.36,2.658-12.49,2.168c-1.501-1.521-0.912-4.699-4.081-4.272
			c-1.187,1.509-2.379,3.025-3.254,4.138c-5.524,1.24-9.22-0.36-12.071-4.586c-1.375-2.038-3.442-3.609-5.073-5.268
			c-3.833,1.255-5.075,4.172-7.21,6.811c4.762,6.597,12.513,6.438,18.872,9.46c1.656-4.53,5.74-4.78,9.215-6.243
			c1.468,0.704,3.092,1.153,4.27,2.137c1.251,1.045,2.08,2.598,3.067,3.896c1.678,0,3.329,0,5.137,0
			c0.876-1.388,1.745-2.761,2.979-4.713c2.367-0.92,5.211-2.791,8.14-2.936c2.67-0.132,5.434,1.608,8.408,2.607
			c0.229-3.05,5.231-3.606,3.856-8.114C130.995,166.177,125.54,168.713,120.271,161.943z M94.388,176.566
			c2.249,0.468,4.444,1.112,6.683,1.337c2.303,0.231,4.646,0.056,6.972,0.053c2.101-0.003,4.201-0.014,6.301-0.021
			c-0.014-0.294-0.028-0.588-0.042-0.882c-2.959,0-5.919,0-8.95,0c-1.396-1.772-2.69-3.416-4.08-5.18
			c-1.804,0.555-3.487,1.073-4.758,1.464C95.638,174.667,95.011,175.62,94.388,176.566z M115.922,177.61
			c4.953-1.748,8.972-3.166,13.253-4.677C124.219,167.889,118.697,169.658,115.922,177.61z M105.769,166.703
			c2.705,0,4.949,0,7.081,0c1.044-1.567,1.938-2.907,3.104-4.657c-3.974,0-7.675,0-11.586,0
			C104.858,163.679,105.255,164.998,105.769,166.703z M127.353,163.575c1.541-0.354,2.946-0.678,4.414-1.015
			c0.284-0.75,0.566-1.498,0.797-2.108c-2.709,0.233-5.118,0.411-7.516,0.684c-0.353,0.04-0.653,0.534-1.311,1.108
			C125.246,162.8,126.402,163.226,127.353,163.575z"/>
		<path fill-rule="evenodd" clip-rule="evenodd" d="M113.066,146.597c4.289-3.417,8.04,0.016,12.24,0.329
			c1.32-1.569,2.759-3.281,4.455-5.299c1.206,0.611,2.284,1.157,3.742,1.896c-0.855,1.956-1.553,3.556-2.164,4.952
			c-2.773,0.555-5.145,1.234-7.558,1.465C119.961,150.306,116.217,150.031,113.066,146.597z"/>
		<path fill-rule="evenodd" clip-rule="evenodd" d="M34.624,123.538c-4.33-0.888-4.979-5.75-8.341-8.067
			c-0.254-1.202-0.551-2.607-0.961-4.547c1.474-0.974,3.198-2.112,4.974-3.284c2.149,1.348,5.225,1.345,4.477,5.361
			c-1.84-0.339-3.494-0.644-5.511-1.015C28.946,117.104,32.777,119.702,34.624,123.538z"/>
		<path fill-rule="evenodd" clip-rule="evenodd" d="M143.063,148.816c-0.15,1.513-0.227,2.277-0.313,3.143
			c-0.977-0.183-1.699-0.317-2.485-0.464c-0.155,0.707-0.295,1.344-0.479,2.178c-1.345,0-2.731,0-4.495,0
			c-2.008,1.836-2.008,1.836-5.401-0.596C134.236,151.672,138.308,150.354,143.063,148.816z"/>
		<path fill-rule="evenodd" clip-rule="evenodd" d="M78.734,155.873c-1.647,0-2.929,0-4.323,0c-0.155-0.559-0.398-1.006-0.379-1.441
			c0.097-2.229,1.853-2.407,3.662-2.723c-0.56-0.459-1.011-0.829-1.666-1.367c1.069-0.788,2.085-1.537,3.271-2.412
			c0.311,0.614,0.713,1.025,0.66,1.365C79.634,151.362,79.205,153.414,78.734,155.873z"/>
		<path fill-rule="evenodd" clip-rule="evenodd" d="M100.789,185.049c0.091,0.944,0.152,1.574,0.207,2.137
			c-0.327,0.301-0.562,0.706-0.802,0.709c-2.244,0.028-7.917-1.953-10.04-3.525c2.014-0.127,4.625-1.039,5.481-0.188
			C97.31,185.848,99.069,184.746,100.789,185.049z"/>
		<path fill-rule="evenodd" clip-rule="evenodd" d="M125.993,152.503c-0.074,1.137-0.144,2.206-0.256,3.939
			c-1.695-0.703-2.937-1.219-4.368-1.813c-0.833,0.057-1.992,0.135-3.258,0.221c0.077-2.709,1.641-2.755,3.339-2.631
			C122.783,152.316,124.12,152.388,125.993,152.503z"/>
		<path fill-rule="evenodd" clip-rule="evenodd" d="M132.924,180.479c0,0.898,0,1.388,0,1.973c-2.741,1.602-4.497-0.41-7.067-1.432
			c1.283-0.919,2.022-1.448,2.81-2.013C130.024,179.477,131.373,179.942,132.924,180.479z"/>
		<path fill-rule="evenodd" clip-rule="evenodd" d="M61.099,165.505c0.916-0.492,1.63-0.875,2.362-1.269
			c2.103,1.151,2.11,2.695-0.018,5.614C60.641,169.372,60.835,167.451,61.099,165.505z"/>
		<path fill-rule="evenodd" clip-rule="evenodd" d="M88.112,148.706c-0.475,1.645-0.951,3.289-1.432,4.953
			c-0.858-0.353-1.596-0.654-2.528-1.037c0.571-0.415,1.019-0.74,1.473-1.071c-0.701-0.53-1.398-1.06-2.669-2.022
			c1.782-0.736,3.064-1.266,4.346-1.795C87.572,148.058,87.842,148.382,88.112,148.706z"/>
		<path fill-rule="evenodd" clip-rule="evenodd" d="M137.011,181.989c-1.375-0.426-2.118-1.201-1.508-2.654
			c-0.853-0.3-1.688-0.592-3.014-1.057c0.88-0.934,1.32-1.618,1.945-1.994c0.499-0.301,1.225-0.226,1.956-0.333
			c0.541,1.395,1.047,2.7,1.621,4.182c-0.338,0.584-0.733,1.268-1.129,1.951L137.011,181.989z"/>
		<path fill-rule="evenodd" clip-rule="evenodd" d="M108.078,155.059c-0.327-0.306-1.745-2.828-1.937-3.801
			c1.572-0.082,3.067-0.16,4.696-0.245c0.064,1.081,0.102,1.7,0.146,2.448c-1.053,0.504-2.049,0.98-3.045,1.457L108.078,155.059z"/>
		<path fill-rule="evenodd" clip-rule="evenodd" d="M143.91,156.904c2.192-1.006,3.351-1.514,4.487-2.066
			c1.024-0.497,2.025-1.043,3.24-1.674c0.167,0.671,0.308,1.237,0.576,2.319C149.498,155.205,148.229,159.045,143.91,156.904z"/>
		<path fill-rule="evenodd" clip-rule="evenodd" d="M62.593,149.323c0.264,4.869-0.441,5.368-4.779,3.198
			C59.516,151.383,60.946,150.426,62.593,149.323z"/>
		<path fill-rule="evenodd" clip-rule="evenodd" d="M88.083,187.803c0.744,0.281,1.306,0.495,2.172,0.823
			c-1.622,1.862-3.045,3.498-4.559,5.237c-0.628-0.504-1.108-0.889-1.666-1.336C85.338,191.003,86.558,189.581,88.083,187.803z"/>
		<path fill-rule="evenodd" clip-rule="evenodd" d="M147.937,168.951c0,0.33,0,0.66,0,1.46c-1.895-0.345-3.891,1.966-5.733-0.715
			c1.646-3.453,3.917-0.465,5.849-0.63L147.937,168.951z"/>
		<path fill-rule="evenodd" clip-rule="evenodd" d="M102.027,193.953c-1.294,0-2.588,0-3.869,0
			c-0.089-2.805-0.089-2.805,3.763-2.661c0,0.916,0,1.85,0,2.784L102.027,193.953z"/>
		<path fill-rule="evenodd" clip-rule="evenodd" d="M105.042,187.023c-0.252-0.572-0.504-1.145-0.756-1.716
			c1.308-1.87,2.925-1.436,4.708-0.93c-0.453,2.846-2.28,2.686-4.111,2.521L105.042,187.023z"/>
		<path fill-rule="evenodd" clip-rule="evenodd" d="M138.067,175.042c1.107-2.023,2.097-3.441,4.581-2.859
			c0.115,0.637,0.25,1.38,0.474,2.611C141.394,174.879,139.877,174.953,138.067,175.042z"/>
		<path fill-rule="evenodd" clip-rule="evenodd" d="M64.093,176.326c1.017-0.831,2.056-1.681,3.553-2.903
			c0.167,1.771,0.269,2.842,0.367,3.879C66.34,178.565,65.229,177.976,64.093,176.326z"/>
		<path fill-rule="evenodd" clip-rule="evenodd" d="M50.726,155.285c1.907,0,3.405,0,4.985,0c-0.327,0.814-0.615,1.533-0.97,2.417
			C52.728,158.518,51.647,157.602,50.726,155.285z"/>
		<path fill-rule="evenodd" clip-rule="evenodd" d="M104.882,186.898c0.37,0.691,0.739,1.383,1.248,2.334
			c-0.626,0.598-1.27,1.211-2.089,1.993c-0.83-0.771-1.486-1.382-2.483-2.31c1.389-0.755,2.437-1.323,3.484-1.893L104.882,186.898z"
			/>
		<path fill-rule="evenodd" clip-rule="evenodd" d="M56.921,165.001c-0.551,1.169-0.896,1.899-1.352,2.864
			c-0.511,0.027-1.196,0.227-1.763,0.049c-0.583-0.182-1.05-0.73-1.577-1.127C53.02,164.515,54.735,165.044,56.921,165.001z"/>
		<path fill-rule="evenodd" clip-rule="evenodd" d="M74.449,182.107c-1.146-0.582-2.241-1.139-3.908-1.985
			c1.25-0.835,2.095-1.399,2.922-1.952C74.906,179.105,75.542,180.229,74.449,182.107z"/>
		<path fill-rule="evenodd" clip-rule="evenodd" d="M95.229,153.161c2.076-0.619,3.151-0.939,4.789-1.428
			c-0.163,1.485-0.255,2.327-0.383,3.488C98.331,154.611,97.356,154.155,95.229,153.161z"/>
		<path fill-rule="evenodd" clip-rule="evenodd" d="M66.174,158.077c-1.982-2.506-0.716-3.361,1.161-4.147
			C68.579,155.744,67.969,156.903,66.174,158.077z"/>
		<path fill-rule="evenodd" clip-rule="evenodd" d="M101.921,194.076c1.188-0.332,2.377-0.664,3.823-1.067c0,1.078,0,1.95,0,3.674
			c-1.613-1.185-2.665-1.957-3.717-2.729L101.921,194.076z"/>
		<path fill-rule="evenodd" clip-rule="evenodd" d="M78.842,179.895c-0.588,1.698-0.989,2.858-1.474,4.259
			c-0.612-0.454-1.187-0.655-1.273-0.984C75.623,181.364,76.537,180.428,78.842,179.895z"/>
		<path fill-rule="evenodd" clip-rule="evenodd" d="M122.149,183.084c-1.452-0.249-2.295-0.394-3.833-0.657
			c1.081-1.142,1.702-1.797,2.802-2.958C121.498,180.802,121.744,181.665,122.149,183.084z"/>
		<path fill-rule="evenodd" clip-rule="evenodd" d="M118.398,189.597c-1.822-1.031-2.498-1.414-3.773-2.136
			c0.818-0.721,1.358-1.196,2.443-2.151C117.521,186.768,117.783,187.613,118.398,189.597z"/>
		<path fill-rule="evenodd" clip-rule="evenodd" d="M150.598,160.575c1.294-0.872,1.923-1.295,2.965-1.997
			c0.184,1.344,0.3,2.195,0.506,3.704C152.721,161.619,151.96,161.245,150.598,160.575z"/>
		<path fill-rule="evenodd" clip-rule="evenodd" d="M58.845,155.621c0,1.642,0,2.27,0,3.133c-0.944,0-1.828,0-3.729,0
			C56.634,157.479,57.41,156.827,58.845,155.621z"/>
		<path fill-rule="evenodd" clip-rule="evenodd" d="M46.674,151.464c1.312-0.802,1.959-1.197,3.008-1.838c0,1.348,0,2.203,0,3.573
			C48.567,152.557,47.905,152.175,46.674,151.464z"/>
		<path fill-rule="evenodd" clip-rule="evenodd" d="M144.595,149.58c1.295-0.875,1.925-1.3,2.969-2.005
			c0.182,1.348,0.297,2.199,0.503,3.717C146.719,150.628,145.963,150.255,144.595,149.58z"/>
		<path fill-rule="evenodd" clip-rule="evenodd" d="M151.426,163.376c-0.063,1.857-0.627,2.915-3.09,1.927
			C149.739,164.428,150.582,163.902,151.426,163.376z"/>
		<path fill-rule="evenodd" clip-rule="evenodd" d="M144.86,160.866c0.88-0.558,1.76-1.115,3.339-2.116
			C147.592,161.376,146.319,161.267,144.86,160.866z"/>
		<path fill-rule="evenodd" clip-rule="evenodd" d="M97.351,156.293c-0.607,1.027-0.763,1.291-1.086,1.84
			c-0.722-0.525-1.417-1.031-2.807-2.042C95.164,156.179,96.024,156.224,97.351,156.293z"/>
		<path fill-rule="evenodd" clip-rule="evenodd" d="M112.297,190.184c0.534,0.213,1.073,0.415,1.585,0.671
			c0.024,0.013-0.195,0.509-0.301,0.78c-0.535-0.229-1.07-0.456-1.605-0.684C112.083,190.695,112.19,190.439,112.297,190.184z"/>
		<path fill-rule="evenodd" clip-rule="evenodd" d="M156.036,154.12c-0.747,0.323-1.494,0.646-2.241,0.97
			c-0.112-0.197-0.224-0.395-0.336-0.592c0.678-0.427,1.355-0.854,2.033-1.28C155.674,153.519,155.854,153.819,156.036,154.12z"/>
		<path fill-rule="evenodd" clip-rule="evenodd" d="M73.189,151.197c-0.584,0.309-1.015,0.722-1.313,0.642
			c-0.321-0.087-0.518-0.635-0.769-0.982c0.349-0.25,0.709-0.705,1.045-0.688C72.456,150.184,72.733,150.716,73.189,151.197z"/>
		<path fill-rule="evenodd" clip-rule="evenodd" d="M152.043,151.983c-0.232-0.535-0.465-1.07-0.698-1.604
			c0.276-0.095,0.774-0.304,0.794-0.266c0.258,0.498,0.447,1.031,0.653,1.556C152.542,151.773,152.293,151.878,152.043,151.983z"/>
		<path fill-rule="evenodd" clip-rule="evenodd" d="M82.497,183.854c-0.45-0.32-0.9-0.64-1.35-0.96
			c0.156-0.223,0.311-0.445,0.467-0.669c0.441,0.32,0.882,0.641,1.323,0.961C82.79,183.409,82.643,183.632,82.497,183.854z"/>
		<path fill-rule="evenodd" clip-rule="evenodd" d="M79.976,187.918c-0.45,0.354-0.899,0.708-1.349,1.062
			c-0.138-0.158-0.276-0.316-0.414-0.475c0.366-0.398,0.733-0.797,1.099-1.195C79.534,187.513,79.754,187.715,79.976,187.918z"/>
		<path fill-rule="evenodd" clip-rule="evenodd" d="M157.555,158.808c-0.697,0-1.395,0-2.092,0
			c-0.015-0.157-0.028-0.314-0.043-0.472c0.698-0.114,1.396-0.228,2.095-0.341C157.527,158.266,157.541,158.536,157.555,158.808z"/>
		<path fill-rule="evenodd" clip-rule="evenodd" d="M116.218,183.857c-0.973-0.088-1.366-0.123-1.759-0.158
			c0.237-0.207,0.448-0.485,0.723-0.587C115.307,183.066,115.562,183.37,116.218,183.857z"/>
		<path fill-rule="evenodd" clip-rule="evenodd" d="M122.772,185.837c-0.351-0.045-0.703-0.084-1.051-0.146
			c-0.02-0.004-0.005-0.201-0.006-0.308c0.363,0,0.726,0,1.088,0C122.793,185.534,122.783,185.686,122.772,185.837z"/>
		<path fill-rule="evenodd" clip-rule="evenodd" d="M95.843,194.52c-0.121,0.108-0.246,0.306-0.36,0.3s-0.218-0.216-0.326-0.336
			c0.121-0.108,0.245-0.305,0.36-0.299C95.631,194.189,95.735,194.399,95.843,194.52z"/>
		<path fill-rule="evenodd" clip-rule="evenodd" d="M64.843,160.52c-0.121,0.108-0.246,0.306-0.36,0.3s-0.218-0.216-0.326-0.336
			c0.121-0.108,0.245-0.305,0.36-0.299C64.631,160.189,64.735,160.399,64.843,160.52z"/>
		<path fill-rule="evenodd" clip-rule="evenodd" d="M107.938,154.918c-0.117,0.273-0.235,0.546-0.106,0.248
			c-0.298,0.13-0.025,0.011,0.247-0.107L107.938,154.918z"/>
		<path fill-rule="evenodd" clip-rule="evenodd" d="M148.052,169.066c0.123-0.271,0.245-0.543,0.096-0.212
			c0.33-0.151,0.06-0.027-0.211,0.097L148.052,169.066z"/>
		<path fill-rule="evenodd" clip-rule="evenodd" d="M55.481,150.841c-0.108-0.12-0.216-0.24-0.324-0.36
			c0.121-0.108,0.246-0.306,0.36-0.3s0.218,0.216,0.326,0.336C55.723,150.625,55.602,150.732,55.481,150.841z"/>
		<path fill-rule="evenodd" clip-rule="evenodd" d="M322.598,284.759c-7.548,1.251-13.976-0.699-19.662-5.789
			c1.024-1.031,1.767-2.059,3.292-1.348c1.755,0.817,3.537,1.576,5.309,2.355c2.317,1.021,4.504,2.702,7.87,1.369
			c-1.637-3.478-3.2-6.799-4.994-10.61c-2.048,0.788-3.961,1.489-5.846,2.262c-1.49,0.61-2.896,1.516-4.436,1.886
			c-0.907,0.217-2.004-0.356-3.597-0.699c5.319-4.254,10.545-6.507,17.078-6.168c3.235,3.555,4.618,8.195,6.299,12.829
			C323.502,282.063,323.046,283.423,322.598,284.759z"/>
		<path fill-rule="evenodd" clip-rule="evenodd" fill="#FFFFFF" d="M120.271,161.943c5.269,6.77,10.724,4.233,16.27-0.254
			c1.375,4.508-3.628,5.064-3.856,8.114c-2.974-0.999-5.737-2.739-8.408-2.607c-2.929,0.145-5.773,2.016-8.14,2.936
			c-1.234,1.952-2.102,3.325-2.979,4.713c-1.808,0-3.459,0-5.137,0c-0.987-1.298-1.815-2.851-3.067-3.896
			c-1.177-0.983-2.801-1.433-4.27-2.137c-3.475,1.463-7.559,1.713-9.215,6.243c-6.358-3.022-14.11-2.863-18.872-9.46
			c2.135-2.639,3.376-5.556,7.21-6.811c1.631,1.658,3.698,3.229,5.073,5.268c2.851,4.226,6.547,5.826,12.071,4.586
			c0.875-1.112,2.067-2.629,3.254-4.138c3.169-0.427,2.58,2.751,4.081,4.272c4.129,0.49,8.388,0.859,12.49-2.168
			C116.765,164.587,117.851,162.918,120.271,161.943z"/>
		<path fill-rule="evenodd" clip-rule="evenodd" fill="#FFFFFF" d="M94.388,176.566c0.623-0.946,1.25-1.899,2.125-3.229
			c1.271-0.391,2.954-0.909,4.758-1.464c1.389,1.764,2.684,3.407,4.08,5.18c3.031,0,5.991,0,8.95,0
			c0.014,0.294,0.028,0.588,0.042,0.882c-2.1,0.007-4.2,0.018-6.301,0.021c-2.325,0.003-4.669,0.179-6.972-0.053
			C98.832,177.679,96.636,177.034,94.388,176.566z"/>
		<path fill-rule="evenodd" clip-rule="evenodd" fill="#FFFFFF" d="M115.922,177.61c2.775-7.952,8.296-9.722,13.253-4.677
			C124.894,174.444,120.875,175.862,115.922,177.61z"/>
		<path fill-rule="evenodd" clip-rule="evenodd" fill="#FFFFFF" d="M86.894,161.105c3.544,0.353,7.089,0.705,10.608,1.055
			c0.237,2.46-0.21,4.48-2.971,5.357c-3.677-0.614-6.679-2.293-7.515-6.521L86.894,161.105z"/>
		<path fill-rule="evenodd" clip-rule="evenodd" fill="#FFFFFF" d="M105.769,166.703c-0.513-1.705-0.91-3.024-1.402-4.657
			c3.911,0,7.613,0,11.586,0c-1.166,1.75-2.059,3.09-3.104,4.657C110.717,166.703,108.473,166.703,105.769,166.703z"/>
		<path fill-rule="evenodd" clip-rule="evenodd" fill="#FFFFFF" d="M127.353,163.575c-0.95-0.35-2.107-0.775-3.615-1.331
			c0.657-0.574,0.958-1.068,1.311-1.108c2.398-0.272,4.807-0.45,7.516-0.684c-0.231,0.61-0.514,1.358-0.797,2.108
			C130.298,162.897,128.893,163.222,127.353,163.575z"/>
		<path fill-rule="evenodd" clip-rule="evenodd" fill="#FFFFFF" d="M87.016,160.997c-0.251-0.167-0.502-0.334-0.753-0.501
			c0.21,0.203,0.421,0.406,0.631,0.609L87.016,160.997z"/>
	</g>
</g>
</svg>
