<?xml version="1.0" encoding="utf-8"?>
<!-- Generator: Adobe Illustrator 16.0.0, SVG Export Plug-In . SVG Version: 6.00 Build 0)  -->
<!DOCTYPE svg PUBLIC "-//W3C//DTD SVG 1.1//EN" "http://www.w3.org/Graphics/SVG/1.1/DTD/svg11.dtd">
<svg version="1.1" id="Ebene_2" xmlns="http://www.w3.org/2000/svg" xmlns:xlink="http://www.w3.org/1999/xlink" x="0px" y="0px"
	 width="810.569px" height="495.557px" viewBox="0 0 810.569 495.557" enable-background="new 0 0 810.569 495.557"
	 xml:space="preserve">
<polygon fill="#9AC235" points="476.224,477.878 475.886,456.058 495.335,490.41 "/>
<polygon fill="#9FC41D" points="456.587,489.667 495.335,490.41 476.224,477.878 "/>
<polygon fill="#009039" points="475.886,456.058 476.224,477.878 456.587,489.667 "/>
<polygon fill="#73A6B8" points="295.673,287.591 297.372,265.835 313.528,301.855 "/>
<polygon fill="#B3DBCE" points="275.019,297.494 313.528,301.855 295.673,287.591 "/>
<polygon fill="#418ECC" points="297.372,265.835 295.673,287.591 275.019,297.494 "/>
<polygon fill="#83CDE6" points="265.507,116.143 253.31,91.888 289.657,105.335 "/>
<polygon fill="#D5CB0C" points="260.378,130.726 289.657,105.335 265.507,116.143 "/>
<polygon fill="#40B7CD" points="253.31,91.888 265.507,116.143 260.378,130.726 "/>
<polygon fill="#83CDE6" points="526.562,364.191 500.517,371.847 520.253,338.494 "/>
<polygon fill="#D5CB0C" points="539.991,371.847 520.253,338.494 526.562,364.191 "/>
<polygon fill="#40B7CD" points="500.517,371.847 526.562,364.191 539.991,371.847 "/>
<polygon fill="#FFDF06" points="662.729,28.534 673.653,61.862 653.917,28.509 "/>
<polygon fill="#D5CB0C" points="693.392,28.509 673.653,61.862 662.729,28.534 "/>
<polygon fill="#DDE277" points="594.849,289.187 583.433,322.351 587.839,283.845 "/>
<polygon fill="#9AC235" points="619.306,307.681 583.433,322.351 594.849,289.187 "/>
<polygon fill="#FFDF06" points="390.396,330.343 420.694,345.853 400.955,312.501 "/>
<polygon fill="#EF8278" points="381.218,345.853 420.694,345.853 390.396,330.343 "/>
<polygon fill="#FFDF06" points="671.187,397.726 665.372,364.191 650.581,400.013 "/>
<polygon fill="#EF8278" points="689.101,395.74 665.372,364.191 671.187,397.726 "/>
<polygon fill="#DF6543" points="488.116,24.05 479.737,57.104 505.06,26.82 "/>
<polygon fill="#69857F" points="466.813,20.566 488.116,24.05 479.737,57.104 "/>
<polygon fill="#9C9EA3" points="170.543,235.78 167.969,269.784 187.711,235.599 "/>
<polygon fill="#BEB8B1" points="148.958,236.01 170.543,235.78 167.969,269.784 "/>
<polygon fill="#283480" points="148.958,119.921 119.661,140.136 120.993,101.403 "/>
<polygon fill="#997EB7" points="154.304,121.211 119.661,140.136 148.958,119.921 "/>
<polygon fill="#C74A94" points="120.993,101.403 154.304,121.211 148.958,119.921 "/>
<polygon fill="#64B669" points="269.056,4.669 279.042,38.835 242.689,25.402 "/>
<polygon fill="#BDB7B0" points="271.961,0 279.042,38.835 269.056,4.669 "/>
<polygon fill="#828F5A" points="242.689,25.402 271.961,0 269.056,4.669 "/>
<polygon fill="#DCDEED" points="666.2,128.422 679.708,158.888 699.446,125.536 "/>
<polygon fill="#B3B2A5" points="659.972,125.536 666.2,128.422 699.446,125.536 "/>
<polygon fill="#B2DACD" points="679.708,158.888 659.972,125.536 666.2,128.422 "/>
<polygon fill="#006453" points="403.743,105.646 436.093,113.657 421.849,77.614 "/>
<polygon fill="#828F59" points="397.644,108.798 403.743,105.646 421.849,77.614 "/>
<polygon fill="#FDDD04" points="436.093,113.657 397.644,108.798 403.743,105.646 "/>
<polygon fill="#DCDEED" points="405.79,199.847 427.946,207.003 425.933,233.201 "/>
<polygon fill="#9AC234" points="427.946,207.003 445.673,199.847 405.79,199.847 "/>
<polygon fill="#FCE7E8" points="445.673,199.847 425.933,233.201 427.946,207.003 "/>
<polygon fill="#41B6CD" points="24.39,137.14 34.674,158.027 14.464,174.817 "/>
<polygon fill="#83CDE6" points="34.674,158.027 52.15,165.772 24.39,137.14 "/>
<polygon fill="#9C9FA4" points="52.15,165.772 14.464,174.817 34.674,158.027 "/>
<polygon fill="#3E2051" points="591.864,71.972 608.88,68.051 589.142,101.403 "/>
<polygon fill="#3776B5" points="591.864,71.972 569.403,68.051 608.88,68.051 "/>
<polygon fill="#E95465" points="569.403,68.051 589.142,101.403 591.864,71.972 "/>
<polygon fill="#3E2051" points="578.937,462.453 565.704,451.058 604.272,447.232 "/>
<polygon fill="#997EB7" points="578.937,462.453 589.067,482.88 565.704,451.058 "/>
<polygon fill="#283480" points="589.067,482.88 604.272,447.232 578.937,462.453 "/>
<polygon fill="#FCC531" points="250.074,204.568 238.746,185.917 272.899,205.715 "/>
<polygon fill="#C2C73E" points="239.095,224.669 272.899,205.715 250.074,204.568 "/>
<polygon fill="#FFE862" points="238.746,185.917 250.074,204.568 239.095,224.669 "/>
<polygon fill="#EF8278" points="279.761,414.746 263.208,400.525 301.816,408.759 "/>
<polygon fill="#B3DBCE" points="275.556,437.261 301.816,408.759 279.761,414.746 "/>
<polygon fill="#418ECC" points="263.208,400.525 279.761,414.746 275.556,437.261 "/>
<polygon fill="#83CDE6" points="627.112,197.8 607.315,179.226 646.069,179.341 "/>
<polygon fill="#D5CB0C" points="627.317,213.258 646.069,179.341 627.112,197.8 "/>
<polygon fill="#40B7CD" points="607.315,179.226 627.112,197.8 627.317,213.258 "/>
<polygon fill="#83CDE6" points="119.351,318.804 97.415,334.798 104.744,296.744 "/>
<polygon fill="#D5CB0C" points="134.577,321.482 104.744,296.744 119.351,318.804 "/>
<polygon fill="#40B7CD" points="97.415,334.798 119.351,318.804 134.577,321.482 "/>
<polygon fill="#99BED9" points="749.915,348.82 771.466,376.49 741.61,351.779 "/>
<polygon fill="#3977B4" points="778.761,338.427 771.466,376.49 749.915,348.82 "/>
<polygon fill="#FFDF06" points="103.65,29.499 116.083,62.294 94.845,29.876 "/>
<polygon fill="#EEDDA9" points="134.279,28.076 116.083,62.294 103.65,29.499 "/>
<polygon fill="#FFDF06" points="97.503,438.599 131.411,441.552 100.561,418.097 "/>
<polygon fill="#EF8278" points="94.845,456.427 131.411,441.552 97.503,438.599 "/>
<polygon fill="#FFDF06" points="513.589,197.708 485.479,178.516 500.874,214.083 "/>
<polygon fill="#EF8278" points="524.642,183.472 485.479,178.516 513.589,197.708 "/>
<polygon fill="#E5358B" points="584.989,142.212 595.286,174.72 600.849,135.638 "/>
<polygon fill="#EF8277" points="565.048,150.476 584.989,142.212 595.286,174.72 "/>
<polygon fill="#9C9EA3" points="354.919,448.605 365.682,480.96 370.684,441.804 "/>
<polygon fill="#68847E" points="335.099,457.156 354.919,448.605 365.682,480.96 "/>
<polygon fill="#41B6CD" points="470.505,277.134 450.235,306.396 437.802,269.689 "/>
<polygon fill="#DCDEED" points="475.962,276.453 450.235,306.396 470.505,277.134 "/>
<polygon fill="#3E2051" points="437.802,269.689 475.962,276.453 470.505,277.134 "/>
<polygon fill="#FCC531" points="19.04,280.964 39.46,310.121 0.719,309.058 "/>
<polygon fill="#EEDDAA" points="20.292,275.61 39.46,310.121 19.04,280.964 "/>
<polygon fill="#EF8278" points="0.719,309.058 20.292,275.61 19.04,280.964 "/>
<polygon fill="#B3DBCE" points="8.832,22.568 33.307,45.186 38.211,6.742 "/>
<polygon fill="#64B669" points="1.968,22.386 8.832,22.568 38.211,6.742 "/>
<polygon fill="#E95465" points="33.307,45.186 1.968,22.386 8.832,22.568 "/>
<polygon fill="#9FC41D" points="765.058,127.197 795.677,114.042 762.554,93.92 "/>
<polygon fill="#828F59" points="762.099,133.394 765.058,127.197 762.554,93.92 "/>
<polygon fill="#828F5A" points="795.677,114.042 762.099,133.394 765.058,127.197 "/>
<polygon fill="#41B6CD" points="774.198,456.876 791.468,472.49 778.888,495.558 "/>
<polygon fill="#9AC234" points="791.468,472.49 810.569,473.234 774.198,456.876 "/>
<polygon fill="#E95465" points="810.569,473.234 778.888,495.558 791.468,472.49 "/>
<polygon fill="#BEB8B1" points="737.354,228.252 756.716,241.182 747.63,265.835 "/>
<polygon fill="#68857F" points="756.716,241.182 775.724,239.135 737.354,228.252 "/>
<polygon fill="#FFE862" points="775.724,239.135 747.63,265.835 756.716,241.182 "/>
<polygon fill="#C84B94" points="199.117,459.271 216.45,461.382 186.526,486.011 "/>
<polygon fill="#DCDEED" points="199.117,459.271 179.338,447.927 216.45,461.382 "/>
<polygon fill="#997EB7" points="179.338,447.927 186.526,486.011 199.117,459.271 "/>
<polygon fill="#3E2051" points="16.964,430.49 0,426.357 32.608,405.414 "/>
<polygon fill="#DCDEED" points="16.964,430.49 35.276,444.076 0,426.357 "/>
<polygon fill="#69857F" points="35.276,444.076 32.608,405.414 16.964,430.49 "/>
</svg>
