<?xml version="1.0" encoding="utf-8"?>
<!-- Generator: Adobe Illustrator 16.0.0, SVG Export Plug-In . SVG Version: 6.00 Build 0)  -->
<!DOCTYPE svg PUBLIC "-//W3C//DTD SVG 1.1//EN" "http://www.w3.org/Graphics/SVG/1.1/DTD/svg11.dtd">
<svg version="1.1" xmlns="http://www.w3.org/2000/svg" xmlns:xlink="http://www.w3.org/1999/xlink" x="0px" y="0px" width="1280px"
	 height="800px" viewBox="0 0 1280 800" enable-background="new 0 0 1280 800" xml:space="preserve">
<g id="_x30_1">
	<polygon fill="#9ABFDA" points="813.382,58.609 797.765,85 782.146,58.609 	"/>
	<polygon fill="#B2E1D1" points="797.764,32.218 782.146,58.609 813.383,58.609 829,32.218 	"/>
</g>
<g id="_x30_2">
	<polygon fill="#FEC72E" points="778.303,138.391 786.952,167.811 757,161.236 	"/>
	<polygon fill="#FFE761" points="793.92,112 772.617,134.844 757,161.236 778.303,138.391 	"/>
	<polygon fill="#FFE000" points="793.92,112 802.57,141.42 786.952,167.811 778.303,138.391 	"/>
</g>
<g id="_x30_3">
	<polygon fill="#9ABFDA" points="485.553,224.27 499.657,251.5 469,250.76 	"/>
	<polygon fill="#3991DB" points="501.17,197.879 485.553,224.27 499.657,251.5 515.275,225.108 	"/>
	<polygon fill="#F8FBF4" points="484.618,224.369 469,250.76 485.553,224.27 501.17,197.879 	"/>
</g>
<g id="_x30_4">
	<polygon fill="#009139" points="688.508,56.925 705.381,82.532 674.814,85 	"/>
	<polygon fill="#7BD057" points="704.125,30.535 688.508,56.925 705.381,82.532 721,56.141 	"/>
</g>
<g id="_x30_5">
	<polygon fill="#9DA0A5" points="220.891,39.856 221.632,70.513 194.402,56.408 	"/>
	<polygon fill="#B2B2A6" points="236.509,13.465 210.02,30.018 194.402,56.408 220.891,39.856 	"/>
	<polygon fill="#BFB9B2" points="221.632,70.513 237.25,44.122 236.509,13.465 220.891,39.856 	"/>
</g>
<g id="_x30_6">
	<polygon fill="#421152" points="140.632,161.356 136.568,191.752 111.879,173.562 	"/>
	<polygon fill="#9D7EBA" points="156.25,134.966 127.497,147.17 111.879,173.562 140.632,161.356 	"/>
	<polygon fill="#DEE0EF" points="152.186,165.36 136.568,191.752 140.632,161.356 156.25,134.966 	"/>
</g>
<g id="_x30_7">
	<polygon fill="#FE4D19" points="59.609,187.891 79.882,210.898 49.957,217.599 	"/>
	<polygon fill="#F48478" points="75.227,161.5 59.519,188.348 79.882,210.898 95.5,184.508 	"/>
</g>
<g id="_x30_8">
	<polygon fill="#F95464" points="257.453,89.883 282.382,107.741 254.73,121 	"/>
	<polygon fill="#E06544" points="273.07,63.492 257.453,89.883 282.382,107.741 298,81.351 	"/>
</g>
<g id="_x30_9">
	<polygon fill="#006253" points="325,350.783 351.92,365.47 326.09,382 	"/>
	<polygon fill="#009136" points="340.618,324.393 325,350.783 351.92,365.47 367.538,339.079 	"/>
</g>
<g id="_x31_1">
	<polygon fill="#68867F" points="946,247.803 976.64,246.527 963.013,274 	"/>
	<polygon fill="#9ABFDA" points="961.619,221.412 946,247.803 976.64,246.527 992.258,220.137 	"/>
	<polygon fill="#EFDDAB" points="978.631,247.608 963.013,274 976.64,246.527 992.258,220.137 	"/>
</g>
<g id="_x31_2">
	<polygon fill="#67EBFF" points="109,280.49 138.833,273.392 130.698,302.959 	"/>
	<polygon fill="#83905A" points="154.451,247 138.833,273.392 130.698,302.959 146.316,276.568 	"/>
	<polygon fill="#FF009C" points="124.618,254.099 109,280.49 138.833,273.392 154.451,247 	"/>
</g>
<g id="_x31_3">
	<polygon fill="#9B7EB8" points="703.827,128.769 732.382,117.588 728.441,148 	"/>
	<polygon fill="#81BD59" points="748,91.197 732.382,117.588 728.441,148 744.06,121.609 	"/>
	<polygon fill="#D5CB05" points="719.445,102.378 703.827,128.769 732.382,117.588 748,91.197 	"/>
</g>
<g id="_x31_4">
	<polygon fill="#9DA0A5" points="703,240.84 724.915,219.391 733.171,248.925 	"/>
	<polygon fill="#B2B2A6" points="724.915,219.391 740.533,193 748.789,222.534 733.171,248.925 	"/>
	<polygon fill="#BEB8B1" points="718.617,214.449 740.533,193 724.915,219.391 703,240.84 	"/>
</g>
<g id="_x31_5">
	<polygon fill="#68867F" points="293.236,256.608 277.618,283 262,256.608 	"/>
	<polygon fill="#E06544" points="277.618,230.218 262,256.608 293.236,256.608 308.854,230.218 	"/>
	<polygon fill="#F08378" points="611.232,361.58 619.882,391 589.93,384.425 	"/>
	<polygon fill="#9B7EB8" points="626.85,335.189 605.547,358.033 589.93,384.425 611.232,361.58 	"/>
	<polygon fill="#FCE7E8" points="626.85,335.189 635.5,364.609 619.882,391 611.232,361.58 	"/>
	<polygon fill="#DDDFEE" points="532.803,280.986 546.907,308.216 516.25,307.476 	"/>
	<polygon fill="#2A3284" points="548.42,254.595 532.803,280.986 546.907,308.216 562.525,281.824 	"/>
	<polygon fill="#9B7EB8" points="531.868,281.084 516.25,307.476 532.803,280.986 548.42,254.595 	"/>
	<polygon fill="#E7338A" points="860.693,120.391 877.567,145.996 847,148.465 	"/>
	<polygon fill="#C84A94" points="876.312,94 860.693,120.391 877.567,145.996 893.186,119.605 	"/>
	<polygon fill="#C1C73D" points="378.488,66.391 379.229,97.047 352,82.942 	"/>
	<polygon fill="#81BD59" points="394.107,40 367.617,56.552 352,82.942 378.488,66.391 	"/>
	<polygon fill="#64B769" points="379.229,97.047 394.848,70.656 394.107,40 378.488,66.391 	"/>
	<polygon fill="#006353" points="1011.381,102.391 1007.317,132.786 982.629,114.596 	"/>
	<polygon fill="#83905A" points="1027,76 998.246,88.204 982.629,114.596 1011.381,102.391 	"/>
	<polygon fill="#DFE376" points="1022.936,106.395 1007.317,132.786 1011.381,102.391 1027,76 	"/>
	<polygon fill="#049239" points="1198.109,172.293 1218.383,195.301 1188.457,202 	"/>
	<polygon fill="#A1C518" points="1213.727,145.901 1198.02,172.75 1218.383,195.301 1234,168.91 	"/>
	<polygon fill="#A2C617" points="405.953,287.356 430.882,305.215 403.23,318.474 	"/>
	<polygon fill="#DFE376" points="421.57,260.965 405.953,287.356 430.882,305.215 446.5,278.824 	"/>
	<polygon fill="#E95128" points="25.962,358.891 52.882,373.577 27.052,390.107 	"/>
	<polygon fill="#EA5465" points="41.58,332.5 25.962,358.891 52.882,373.577 68.5,347.187 	"/>
	<polygon fill="#84CEE7" points="919,58.666 949.64,57.391 936.013,84.863 	"/>
	<polygon fill="#3875B4" points="934.619,32.275 919,58.666 949.64,57.391 965.258,31 	"/>
	<polygon fill="#B4DCCF" points="951.631,58.472 936.013,84.863 949.64,57.391 965.258,31 	"/>
	<polygon fill="#41B7CE" points="559,212.989 588.833,205.891 580.698,235.459 	"/>
	<polygon fill="#72A8B9" points="604.451,179.5 588.833,205.891 580.698,235.459 596.316,209.067 	"/>
	<polygon fill="#FDC730" points="574.618,186.599 559,212.989 588.833,205.891 604.451,179.5 	"/>
	<polygon fill="#9BBFDA" points="190.827,182.77 219.382,171.588 215.441,202 	"/>
	<polygon fill="#FFE005" points="235,145.197 219.382,171.588 215.441,202 231.06,175.609 	"/>
	<polygon fill="#FDC730" points="206.445,156.378 190.827,182.77 219.382,171.588 235,145.197 	"/>
	<polygon fill="#A1C518" points="481.711,371.34 503.626,349.891 511.882,379.425 	"/>
	<polygon fill="#D4CA06" points="503.626,349.891 519.244,323.5 527.5,353.033 511.882,379.425 	"/>
	<polygon fill="#FFE862" points="497.328,344.949 519.244,323.5 503.626,349.891 481.711,371.34 	"/>
</g>
<g id="_x31_6">
	<polygon fill="#9DA0A5" points="488.986,83.824 473.368,110.216 457.75,83.824 	"/>
	<polygon fill="#006353" points="473.368,57.434 457.75,83.824 488.986,83.824 504.604,57.434 	"/>
	<polygon fill="#FFE006" points="503.232,127.58 511.882,157 481.93,150.425 	"/>
	<polygon fill="#293284" points="518.85,101.189 497.547,124.033 481.93,150.425 503.232,127.58 	"/>
	<polygon fill="#DEE276" points="518.85,101.189 527.5,130.609 511.882,157 503.232,127.58 	"/>
	<polygon fill="#84CEE7" points="287.552,304.891 301.657,332.121 271,331.381 	"/>
	<polygon fill="#D5CB06" points="303.17,278.5 287.552,304.891 301.657,332.121 317.275,305.729 	"/>
	<polygon fill="#DDDFEE" points="286.618,304.99 271,331.381 287.552,304.891 303.17,278.5 	"/>
	<polygon fill="#9AC336" points="444.443,34.891 461.316,60.497 430.75,62.965 	"/>
	<polygon fill="#9CA0A5" points="460.061,8.5 444.443,34.891 461.316,60.497 476.936,34.106 	"/>
	<polygon fill="#EFDEAB" points="533.641,35.356 534.382,66.013 507.152,51.908 	"/>
	<polygon fill="#F08378" points="549.26,8.965 522.77,25.518 507.152,51.908 533.641,35.356 	"/>
	<polygon fill="#41B7CE" points="534.382,66.013 550,39.622 549.26,8.965 533.641,35.356 	"/>
	<polygon fill="#81BD59" points="615.382,498.391 611.318,528.786 586.629,510.596 	"/>
	<polygon fill="#293284" points="631,472 602.247,484.204 586.629,510.596 615.382,498.391 	"/>
	<polygon fill="#FDC730" points="626.936,502.395 611.318,528.786 615.382,498.391 631,472 	"/>
	<polygon fill="#69867F" points="289.652,154.293 309.926,177.301 280,184 	"/>
	<polygon fill="#9AC336" points="305.27,127.901 289.563,154.75 309.926,177.301 325.543,150.91 	"/>
	<polygon fill="#3E2051" points="381.723,179.883 406.652,197.741 379,211 	"/>
	<polygon fill="#72A7BA" points="397.34,153.492 381.723,179.883 406.652,197.741 422.27,171.35 	"/>
	<polygon fill="#DFE376" points="822.462,336.391 849.382,351.077 823.553,367.607 	"/>
	<polygon fill="#838F59" points="838.08,310 822.462,336.391 849.382,351.077 865,324.687 	"/>
	<polygon fill="#9B7EB8" points="596.799,44.996 626.632,37.897 618.497,67.465 	"/>
	<polygon fill="#006353" points="642.25,11.507 626.632,37.897 618.497,67.465 634.115,41.074 	"/>
	<polygon fill="#64B769" points="612.417,18.605 596.799,44.996 626.632,37.897 642.25,11.507 	"/>
	<polygon fill="#9DA0A5" points="1018,47.769 1046.555,36.588 1042.614,67 	"/>
	<polygon fill="#C84A95" points="1062.173,10.197 1046.555,36.588 1042.614,67 1058.232,40.609 	"/>
	<polygon fill="#C3C93F" points="1033.618,21.378 1018,47.769 1046.555,36.588 1062.173,10.197 	"/>
	<polygon fill="#81BD59" points="567.211,148.915 589.126,127.466 597.382,157 	"/>
	<polygon fill="#9ABFDA" points="589.126,127.466 604.744,101.075 613,130.608 597.382,157 	"/>
	<polygon fill="#EFDEAB" points="582.828,122.524 604.744,101.075 589.126,127.466 567.211,148.915 	"/>
	<polygon fill="#9ABFDA" points="842.632,558.109 827.015,584.5 811.396,558.109 	"/>
	<polygon fill="#B2E1D1" points="827.014,531.718 811.396,558.109 842.633,558.109 858.25,531.718 	"/>
	<polygon fill="#9DA0A5" points="890.232,528.106 898.882,557.526 868.93,550.951 	"/>
	<polygon fill="#FFE761" points="905.85,501.715 884.547,524.56 868.93,550.951 890.232,528.106 	"/>
	<polygon fill="#FFE000" points="905.85,501.715 914.5,531.136 898.882,557.526 890.232,528.106 	"/>
	<polygon fill="#3975B3" points="1088.553,66.77 1102.657,94 1072,93.26 	"/>
	<polygon fill="#3991DB" points="1104.17,40.379 1088.553,66.77 1102.657,94 1118.275,67.608 	"/>
	<polygon fill="#F8FBF4" points="1087.618,66.869 1072,93.26 1088.553,66.77 1104.17,40.379 	"/>
	<polygon fill="#68867F" points="966.443,498.391 983.316,523.997 952.75,526.465 	"/>
	<polygon fill="#7BD057" points="982.061,472 966.443,498.391 983.316,523.997 998.936,497.605 	"/>
	<polygon fill="#9B7EB8" points="848.641,435.856 849.382,466.513 822.152,452.408 	"/>
	<polygon fill="#DDDFEE" points="864.26,409.465 837.77,426.018 822.152,452.408 848.641,435.856 	"/>
	<polygon fill="#FCE7E8" points="849.382,466.513 865,440.122 864.26,409.465 848.641,435.856 	"/>
	<polygon fill="#421152" points="768.382,557.356 764.318,587.752 739.629,569.562 	"/>
	<polygon fill="#9D7EBA" points="784,530.966 755.247,543.17 739.629,569.562 768.382,557.356 	"/>
	<polygon fill="#DFE376" points="779.936,561.36 764.318,587.752 768.382,557.356 784,530.966 	"/>
	<polygon fill="#FE4D19" points="622.652,595.292 642.925,618.3 613,625 	"/>
	<polygon fill="#FFE006" points="638.27,568.901 622.563,595.749 642.925,618.3 658.543,591.909 	"/>
	<polygon fill="#C94B95" points="757.473,471.391 782.402,489.249 754.75,502.508 	"/>
	<polygon fill="#E06544" points="773.09,445 757.473,471.391 782.402,489.249 798.02,462.858 	"/>
	<polygon fill="#006253" points="127,80.783 153.92,95.47 128.09,112 	"/>
	<polygon fill="#E7338A" points="142.618,54.393 127,80.783 153.92,95.47 169.538,69.079 	"/>
	<polygon fill="#68867F" points="667.992,666.303 698.632,665.027 685.005,692.5 	"/>
	<polygon fill="#72A7B9" points="683.611,639.912 667.992,666.303 698.632,665.027 714.25,638.637 	"/>
	<polygon fill="#EFDDAB" points="700.623,666.108 685.005,692.5 698.632,665.027 714.25,638.637 	"/>
	<polygon fill="#67EBFF" points="786.25,674.531 816.083,667.433 807.948,697 	"/>
	<polygon fill="#83905A" points="831.701,641.041 816.083,667.433 807.948,697 823.566,670.609 	"/>
	<polygon fill="#EEDDAA" points="801.868,648.14 786.25,674.531 816.083,667.433 831.701,641.041 	"/>
	<polygon fill="#9B7EB8" points="676.827,479.77 705.382,468.589 701.441,499 	"/>
	<polygon fill="#81BD59" points="721,442.197 705.382,468.589 701.441,499 717.06,472.609 	"/>
	<polygon fill="#D5CB05" points="692.445,453.379 676.827,479.77 705.382,468.589 721,442.197 	"/>
	<polygon fill="#9DA0A5" points="1098.211,625.915 1120.126,604.466 1128.382,634 	"/>
	<polygon fill="#F08378" points="1120.126,604.466 1135.744,578.075 1144,607.609 1128.382,634 	"/>
	<polygon fill="#BEB8B1" points="1113.828,599.524 1135.744,578.075 1120.126,604.466 1098.211,625.915 	"/>
	<polygon fill="#68867F" points="968.236,607.608 952.618,634 937,607.608 	"/>
	<polygon fill="#A2C617" points="952.618,581.218 937,607.608 968.236,607.608 983.854,581.218 	"/>
	<polygon fill="#F08378" points="1119.732,136.58 1128.382,166 1098.43,159.425 	"/>
	<polygon fill="#3E2051" points="1135.35,110.189 1114.047,133.033 1098.43,159.425 1119.732,136.58 	"/>
	<polygon fill="#BEB8B1" points="1135.35,110.189 1144,139.609 1128.382,166 1119.732,136.58 	"/>
	<polygon fill="#DDDFEE" points="1160.553,676.986 1174.657,704.216 1144,703.476 	"/>
	<polygon fill="#FCE7E8" points="1176.17,650.595 1160.553,676.986 1174.657,704.216 1190.275,677.824 	"/>
	<polygon fill="#9B7EB8" points="1159.618,677.084 1144,703.476 1160.553,676.986 1176.17,650.595 	"/>
	<polygon fill="#E7338A" points="338.693,434.926 355.567,460.531 325,463 	"/>
	<polygon fill="#C84A94" points="354.312,408.535 338.693,434.926 355.567,460.531 371.186,434.141 	"/>
	<polygon fill="#C1C73D" points="1237.891,643.844 1238.632,674.5 1211.402,660.396 	"/>
	<polygon fill="#81BD59" points="1253.51,617.453 1227.02,634.005 1211.402,660.396 1237.891,643.844 	"/>
	<polygon fill="#64B769" points="1238.632,674.5 1254.25,648.109 1253.51,617.453 1237.891,643.844 	"/>
	<polygon fill="#EA5465" points="1109.752,741.391 1105.688,771.786 1081,753.596 	"/>
	<polygon fill="#83905A" points="1125.371,715 1096.617,727.204 1081,753.596 1109.752,741.391 	"/>
	<polygon fill="#DFE376" points="1121.307,745.395 1105.688,771.786 1109.752,741.391 1125.371,715 	"/>
	<polygon fill="#049239" points="1126.109,325.293 1146.383,348.301 1116.457,355 	"/>
	<polygon fill="#BFB9B2" points="1141.727,298.901 1126.02,325.75 1146.383,348.301 1162,321.91 	"/>
	<polygon fill="#A2C617" points="1033.703,683.356 1058.632,701.215 1030.98,714.474 	"/>
	<polygon fill="#9AC336" points="1049.32,656.965 1033.703,683.356 1058.632,701.215 1074.25,674.824 	"/>
	<polygon fill="#69867F" points="653.712,754.891 680.632,769.577 654.803,786.107 	"/>
	<polygon fill="#EA5465" points="669.33,728.5 653.712,754.891 680.632,769.577 696.25,743.187 	"/>
	<polygon fill="#84CEE7" points="982.992,675.769 1013.632,674.493 1000.005,701.966 	"/>
	<polygon fill="#72A7B9" points="998.611,649.378 982.992,675.769 1013.632,674.493 1029.25,648.103 	"/>
	<polygon fill="#B4DCCF" points="1015.623,675.574 1000.005,701.966 1013.632,674.493 1029.25,648.103 	"/>
	<polygon fill="#41B7CE" points="1186.75,608.989 1216.583,601.891 1208.448,631.459 	"/>
	<polygon fill="#72A8B9" points="1232.201,575.5 1216.583,601.891 1208.448,631.459 1224.066,605.067 	"/>
	<polygon fill="#408ECD" points="1202.368,582.599 1186.75,608.989 1216.583,601.891 1232.201,575.5 	"/>
	<polygon fill="#9BBFDA" points="1198.827,389.77 1227.382,378.588 1223.441,409 	"/>
	<polygon fill="#FFE005" points="1243,352.197 1227.382,378.588 1223.441,409 1239.06,382.609 	"/>
	<polygon fill="#FDC730" points="1214.445,363.379 1198.827,389.77 1227.382,378.588 1243,352.197 	"/>
	<polygon fill="#FFE006" points="1090,222.84 1111.915,201.391 1120.171,230.925 	"/>
	<polygon fill="#D4CA06" points="1111.915,201.391 1127.533,175 1135.789,204.533 1120.171,230.925 	"/>
	<polygon fill="#FFE862" points="1105.617,196.449 1127.533,175 1111.915,201.391 1090,222.84 	"/>
	<polygon fill="#E94F27" points="680.236,192.391 664.618,218.782 649,192.391 	"/>
	<polygon fill="#FDC730" points="664.618,166 649,192.391 680.236,192.391 695.854,166 	"/>
	<polygon fill="#FFE006" points="1130.982,523.58 1139.632,553 1109.68,546.425 	"/>
	<polygon fill="#293284" points="1146.6,497.189 1125.297,520.033 1109.68,546.425 1130.982,523.58 	"/>
	<polygon fill="#DEE276" points="1146.6,497.189 1155.25,526.609 1139.632,553 1130.982,523.58 	"/>
	<polygon fill="#84CEE7" points="915.303,700.891 929.407,728.121 898.75,727.381 	"/>
	<polygon fill="#D5CB06" points="930.92,674.5 915.303,700.891 929.407,728.121 945.025,701.729 	"/>
	<polygon fill="#DDDFEE" points="914.368,700.99 898.75,727.381 915.303,700.891 930.92,674.5 	"/>
	<polygon fill="#9AC336" points="1072.193,430.891 1089.066,456.497 1058.5,458.965 	"/>
	<polygon fill="#9CA0A5" points="1087.811,404.5 1072.193,430.891 1089.066,456.497 1104.686,430.105 	"/>
	<polygon fill="#EFDEAB" points="1161.391,431.356 1162.132,462.013 1134.902,447.908 	"/>
	<polygon fill="#F08378" points="1177.01,404.965 1150.52,421.518 1134.902,447.908 1161.391,431.356 	"/>
	<polygon fill="#3F2051" points="1162.132,462.013 1177.75,435.622 1177.01,404.965 1161.391,431.356 	"/>
	<polygon fill="#81BD59" points="770.632,723.391 766.568,753.786 741.879,735.596 	"/>
	<polygon fill="#293284" points="786.25,697 757.497,709.204 741.879,735.596 770.632,723.391 	"/>
	<polygon fill="#FDC730" points="782.186,727.395 766.568,753.786 770.632,723.391 786.25,697 	"/>
	<polygon fill="#69867F" points="1216.109,262.293 1236.383,285.301 1206.457,292 	"/>
	<polygon fill="#FCE7E8" points="1231.727,235.901 1216.02,262.75 1236.383,285.301 1252,258.91 	"/>
	<polygon fill="#3E2051" points="1018.473,508.383 1043.402,526.241 1015.75,539.5 	"/>
	<polygon fill="#72A7BA" points="1034.09,481.992 1018.473,508.383 1043.402,526.241 1059.02,499.85 	"/>
	<polygon fill="#DFE376" points="898.75,444.391 925.67,459.077 899.84,475.607 	"/>
	<polygon fill="#9B7FB9" points="914.368,418 898.75,444.391 925.67,459.077 941.288,432.687 	"/>
	<polygon fill="#9B7EB8" points="549.549,451.489 579.382,444.391 571.247,473.958 	"/>
	<polygon fill="#006353" points="595,418 579.382,444.391 571.247,473.958 586.865,447.567 	"/>
	<polygon fill="#64B769" points="565.167,425.099 549.549,451.489 579.382,444.391 595,418 	"/>
	<polygon fill="#9DA0A5" points="966.25,444.787 994.805,433.606 990.864,464.018 	"/>
	<polygon fill="#009139" points="1010.423,407.215 994.805,433.606 990.864,464.018 1006.482,437.627 	"/>
	<polygon fill="#C3C93F" points="981.868,418.396 966.25,444.787 994.805,433.606 1010.423,407.215 	"/>
	<polygon fill="#81BD59" points="1194.961,544.915 1216.876,523.466 1225.132,553 	"/>
	<polygon fill="#9ABFDA" points="1216.876,523.466 1232.494,497.075 1240.75,526.608 1225.132,553 	"/>
	<polygon fill="#EFDEAB" points="1210.578,518.524 1232.494,497.075 1216.876,523.466 1194.961,544.915 	"/>
	<polygon fill="#9ABFDA" points="212.236,616.609 196.619,643 181,616.609 	"/>
	<polygon fill="#B2E1D1" points="196.618,590.218 181,616.609 212.236,616.609 227.854,590.218 	"/>
	<polygon fill="#FEC72E" points="958.303,748.58 966.952,778 937,771.425 	"/>
	<polygon fill="#D6CC03" points="973.92,722.188 952.617,745.033 937,771.425 958.303,748.58 	"/>
	<polygon fill="#FFE000" points="973.92,722.188 982.57,751.609 966.952,778 958.303,748.58 	"/>
	<polygon fill="#84CEE7" points="431.553,710.27 445.657,737.5 415,736.76 	"/>
	<polygon fill="#BEB8B1" points="447.17,683.879 431.553,710.27 445.657,737.5 461.275,711.108 	"/>
	<polygon fill="#F8FBF4" points="430.618,710.369 415,736.76 431.553,710.27 447.17,683.879 	"/>
	<polygon fill="#59C669" points="284.693,588.391 301.566,613.997 271,616.465 	"/>
	<polygon fill="#7BD057" points="300.311,562 284.693,588.391 301.566,613.997 317.186,587.605 	"/>
	<polygon fill="#9DA0A5" points="166.891,525.856 167.632,556.513 140.402,542.408 	"/>
	<polygon fill="#B2B2A6" points="182.509,499.465 156.02,516.018 140.402,542.408 166.891,525.856 	"/>
	<polygon fill="#293284" points="167.632,556.513 183.25,530.122 182.509,499.465 166.891,525.856 	"/>
	<polygon fill="#A1C518" points="48.382,642.391 44.318,672.786 19.629,654.596 	"/>
	<polygon fill="#9D7EBA" points="64,616 35.247,628.204 19.629,654.596 48.382,642.391 	"/>
	<polygon fill="#DEE0EF" points="59.936,646.395 44.318,672.786 48.382,642.391 64,616 	"/>
	<polygon fill="#3875B4" points="919.652,352.292 939.925,375.3 910,382 	"/>
	<polygon fill="#F48478" points="935.27,325.901 919.563,352.749 939.925,375.3 955.543,348.909 	"/>
	<polygon fill="#F95464" points="75.723,561.391 100.652,579.249 73,592.508 	"/>
	<polygon fill="#DDDFEE" points="91.34,535 75.723,561.391 100.652,579.249 116.27,552.858 	"/>
	<polygon fill="#EA5465" points="1038.462,192.391 1065.382,207.077 1039.553,223.607 	"/>
	<polygon fill="#009136" points="1054.08,166 1038.462,192.391 1065.382,207.077 1081,180.687 	"/>
	<polygon fill="#68867F" points="62.743,418.666 93.382,417.391 79.755,444.863 	"/>
	<polygon fill="#3FB6CC" points="78.361,392.275 62.743,418.666 93.382,417.391 109,391 	"/>
	<polygon fill="#EFDDAB" points="95.373,418.472 79.755,444.863 93.382,417.391 109,391 	"/>
	<polygon fill="#F08378" points="104.5,764.531 134.333,757.433 126.198,787 	"/>
	<polygon fill="#83905A" points="149.951,731.041 134.333,757.433 126.198,787 141.816,760.609 	"/>
	<polygon fill="#FF009C" points="120.118,738.14 104.5,764.531 134.333,757.433 149.951,731.041 	"/>
	<polygon fill="#9B7EB8" points="604.827,275.572 633.382,264.392 629.441,294.803 	"/>
	<polygon fill="#81BD59" points="649,238 633.382,264.392 629.441,294.803 645.06,268.412 	"/>
	<polygon fill="#D5CB05" points="620.445,249.182 604.827,275.572 633.382,264.392 649,238 	"/>
	<polygon fill="#E16544" points="820,742.915 841.915,721.466 850.171,751 	"/>
	<polygon fill="#B2B2A6" points="841.915,721.466 857.533,695.075 865.789,724.609 850.171,751 	"/>
	<polygon fill="#BEB8B1" points="835.617,716.524 857.533,695.075 841.915,721.466 820,742.915 	"/>
	<polygon fill="#68867F" points="282.382,696.391 266.764,722.782 251.146,696.391 	"/>
	<polygon fill="#E06544" points="266.764,670 251.146,696.391 282.382,696.391 298,670 	"/>
	<polygon fill="#F08378" points="850.303,201.391 858.952,230.811 829,224.235 	"/>
	<polygon fill="#3E2051" points="865.92,175 844.617,197.844 829,224.235 850.303,201.391 	"/>
	<polygon fill="#FCE7E8" points="865.92,175 874.57,204.42 858.952,230.811 850.303,201.391 	"/>
	<polygon fill="#DDDFEE" points="539.553,552.771 553.657,580 523,579.26 	"/>
	<polygon fill="#69867F" points="555.17,526.379 539.553,552.771 553.657,580 569.275,553.608 	"/>
	<polygon fill="#9B7EB8" points="538.618,552.868 523,579.26 539.553,552.771 555.17,526.379 	"/>
	<polygon fill="#E7338A" points="886.508,263.926 903.382,289.531 872.814,292 	"/>
	<polygon fill="#64B769" points="902.126,237.535 886.508,263.926 903.382,289.531 919,263.141 	"/>
	<polygon fill="#C1C73D" points="556.141,733.844 556.882,764.5 529.652,750.396 	"/>
	<polygon fill="#81BD59" points="571.76,707.453 545.27,724.005 529.652,750.396 556.141,733.844 	"/>
	<polygon fill="#006353" points="556.882,764.5 572.5,738.109 571.76,707.453 556.141,733.844 	"/>
	<polygon fill="#006353" points="83.752,498.391 79.688,528.786 55,510.596 	"/>
	<polygon fill="#83905A" points="99.371,472 70.618,484.204 55,510.596 83.752,498.391 	"/>
	<polygon fill="#DFE376" points="95.306,502.395 79.688,528.786 83.752,498.391 99.371,472 	"/>
	<polygon fill="#049239" points="163.652,352.293 183.926,375.301 154,382 	"/>
	<polygon fill="#A1C518" points="179.27,325.901 163.563,352.75 183.926,375.301 199.543,348.91 	"/>
	<polygon fill="#DFE376" points="1220.453,39.392 1245.382,57.25 1217.73,70.509 	"/>
	<polygon fill="#9AC336" points="1236.07,13 1220.453,39.392 1245.382,57.25 1261,30.859 	"/>
	<polygon fill="#E95128" points="660.462,368.783 687.382,383.47 661.553,400 	"/>
	<polygon fill="#C0BAB3" points="676.08,342.393 660.462,368.783 687.382,383.47 703,357.079 	"/>
	<polygon fill="#84CEE7" points="298,742.666 328.64,741.391 315.013,768.863 	"/>
	<polygon fill="#3875B4" points="313.619,716.275 298,742.666 328.64,741.391 344.258,715 	"/>
	<polygon fill="#B4DCCF" points="330.631,742.472 315.013,768.863 328.64,741.391 344.258,715 	"/>
	<polygon fill="#41B7CE" points="505,698.989 534.833,691.891 526.698,721.459 	"/>
	<polygon fill="#2A3284" points="550.451,665.5 534.833,691.891 526.698,721.459 542.316,695.067 	"/>
	<polygon fill="#408ECD" points="520.618,672.599 505,698.989 534.833,691.891 550.451,665.5 	"/>
	<polygon fill="#9BBFDA" points="159.327,713.77 187.882,702.588 183.941,733 	"/>
	<polygon fill="#FFE005" points="203.5,676.197 187.882,702.588 183.941,733 199.56,706.609 	"/>
	<polygon fill="#FDC730" points="174.945,687.379 159.327,713.77 187.882,702.588 203.5,676.197 	"/>
	<polygon fill="#FFE006" points="999.211,348.84 1021.126,327.391 1029.382,356.925 	"/>
	<polygon fill="#EEDDAA" points="1021.126,327.391 1036.744,301 1045,330.533 1029.382,356.925 	"/>
	<polygon fill="#FFE862" points="1014.828,322.449 1036.744,301 1021.126,327.391 999.211,348.84 	"/>
	<polygon fill="#E94F27" points="489.383,624.391 473.765,650.782 458.146,624.391 	"/>
	<polygon fill="#006353" points="473.765,598 458.146,624.391 489.383,624.391 505,598 	"/>
	<polygon fill="#408ECC" points="480.732,453.391 489.382,482.811 459.43,476.235 	"/>
	<polygon fill="#293284" points="496.35,427 475.047,449.844 459.43,476.235 480.732,453.391 	"/>
	<polygon fill="#DEE0EF" points="496.35,427 505,456.42 489.382,482.811 480.732,453.391 	"/>
	<polygon fill="#84CEE7" points="206.552,444.77 220.657,472 190,471.26 	"/>
	<polygon fill="#D5CB06" points="222.17,418.379 206.552,444.77 220.657,472 236.275,445.608 	"/>
	<polygon fill="#DDDFEE" points="205.618,444.869 190,471.26 206.552,444.77 222.17,418.379 	"/>
	<polygon fill="#9AC336" points="390.443,520.891 407.316,546.497 376.75,548.965 	"/>
	<polygon fill="#9CA0A5" points="406.061,494.5 390.443,520.891 407.316,546.497 422.936,520.105 	"/>
	<polygon fill="#9DA0A5" points="767.641,336.392 768.382,367.048 741.152,352.943 	"/>
	<polygon fill="#F08378" points="783.26,310 756.77,326.553 741.152,352.943 767.641,336.392 	"/>
	<polygon fill="#41B7CE" points="768.382,367.048 784,340.657 783.26,310 767.641,336.392 	"/>
	<polygon fill="#81BD59" points="84.382,720.604 80.318,751 55.629,732.81 	"/>
	<polygon fill="#293284" points="100,694.214 71.247,706.418 55.629,732.81 84.382,720.604 	"/>
	<polygon fill="#FDC730" points="95.936,724.608 80.318,751 84.382,720.604 100,694.214 	"/>
	<polygon fill="#69867F" points="370.652,664.892 390.926,687.899 361,694.599 	"/>
	<polygon fill="#9AC336" points="386.27,638.5 370.563,665.349 390.926,687.899 406.543,661.509 	"/>
	<polygon fill="#3E2051" points="336.723,598.383 361.652,616.241 334,629.5 	"/>
	<polygon fill="#72A7BA" points="352.34,571.992 336.723,598.383 361.652,616.241 377.27,589.85 	"/>
	<polygon fill="#DFE376" points="1164.462,62.783 1191.382,77.47 1165.553,94 	"/>
	<polygon fill="#838F59" points="1180.08,36.393 1164.462,62.783 1191.382,77.47 1207,51.079 	"/>
	<polygon fill="#9B7EB8" points="694,316.489 723.833,309.391 715.698,338.958 	"/>
	<polygon fill="#006353" points="739.451,283 723.833,309.391 715.698,338.958 731.316,312.567 	"/>
	<polygon fill="#64B769" points="709.618,290.099 694,316.489 723.833,309.391 739.451,283 	"/>
	<polygon fill="#9DA0A5" points="253,524.77 281.555,513.589 277.614,544 	"/>
	<polygon fill="#C84A95" points="297.173,487.197 281.555,513.589 277.614,544 293.232,517.609 	"/>
	<polygon fill="#C3C93F" points="268.618,498.379 253,524.77 281.555,513.589 297.173,487.197 	"/>
	<polygon fill="#81BD59" points="28,69.84 49.915,48.391 58.171,77.925 	"/>
	<polygon fill="#9ABFDA" points="49.915,48.391 65.533,22 73.789,51.533 58.171,77.925 	"/>
	<polygon fill="#EFDEAB" points="43.617,43.449 65.533,22 49.915,48.391 28,69.84 	"/>
</g>
</svg>
