<?xml version="1.0" encoding="utf-8"?>
<!-- Generator: Adobe Illustrator 16.0.0, SVG Export Plug-In . SVG Version: 6.00 Build 0)  -->
<!DOCTYPE svg PUBLIC "-//W3C//DTD SVG 1.1//EN" "http://www.w3.org/Graphics/SVG/1.1/DTD/svg11.dtd">
<svg version="1.1" xmlns="http://www.w3.org/2000/svg" xmlns:xlink="http://www.w3.org/1999/xlink" x="0px" y="0px"
	 width="810.569px" height="495.557px" viewBox="0 0 810.569 495.557" enable-background="new 0 0 810.569 495.557"
	 xml:space="preserve">
<g id="Ebene_3">
	<polygon fill="#69857F" points="25.039,446.104 16.557,444.038 32.861,433.565 	"/>
	<polygon fill="#69857F" points="25.039,446.104 34.195,452.897 16.557,444.038 	"/>
	<polygon fill="#69857F" points="34.195,452.897 32.861,433.565 25.039,446.104 	"/>
	<polyline fill="#3E2051" points="32.861,433.565 24.013,447.782 16.557,444.038 	"/>
	<polygon fill="#997EB7" points="106.227,454.823 109.82,473.864 117.301,458.838 	"/>
	<polygon fill="#C84B94" points="116.571,458.573 124.782,461.549 109.82,473.864 	"/>
	<polyline fill="#418ECC" points="148.161,431.122 157.813,433.18 154.335,449.489 	"/>
	<polygon fill="#B3DBCE" points="154.335,449.489 167.465,435.239 157.813,433.18 	"/>
	<polygon fill="#009039" points="254.5,458.887 254.669,475.692 244.851,475.692 	"/>
	<polyline fill="#9AC235" points="264.225,476.063 254.669,475.692 254.5,458.887 	"/>
	<polygon fill="#3E2051" points="304.548,463.387 299.409,456.387 318.693,454.475 	"/>
	<polygon fill="#283480" points="311.091,472.299 318.693,454.475 304.066,462.731 	"/>
	<polygon fill="#41B6CD" points="403.656,459.297 421.842,467.475 406.001,478.637 	"/>
	<polygon fill="#E95465" points="421.842,467.475 406.001,478.637 413.922,463.915 	"/>
	<polygon fill="#83CDE6" points="281.618,416.782 266.815,416.782 276.684,400.106 	"/>
	<polygon fill="#D5CB0C" points="286.553,416.782 276.684,400.106 279.838,416.782 	"/>
	<polygon fill="#B3DBCE" points="154.066,379.606 173.321,381.786 165.243,363.776 	"/>
	<polygon fill="#418ECC" points="165.243,363.776 169.282,372.782 154.066,379.606 	"/>
	<polygon fill="#83CDE6" points="80.402,388.745 65.265,398.258 68.929,379.231 	"/>
	<polygon fill="#40B7CD" points="65.265,398.258 79.017,387.596 83.846,391.6 	"/>
	<polygon fill="#FCC531" points="27.366,369.856 36.287,385.918 16.917,385.387 	"/>
	<line fill="#EF8278" x1="16.917" y1="385.387" x2="26.703" y2="368.665"/>
	<line fill="#EF8278" x1="16.917" y1="385.387" x2="26.703" y2="368.665"/>
	<line fill="#EF8278" x1="16.917" y1="385.387" x2="26.703" y2="368.665"/>
	<polyline fill="#EF8278" points="26.703,368.665 28.19,371.34 16.917,385.387 	"/>
	<polygon fill="#41B6CD" points="254.538,369.084 241.675,384.057 235.458,365.704 	"/>
	<polygon fill="#DCDEED" points="254.538,369.084 241.675,384.057 251.81,369.426 	"/>
	<polygon fill="#3E2051" points="235.458,365.704 254.538,369.084 251.81,372.26 	"/>
	<polygon fill="#BEB8B1" points="385.234,344.985 394.915,351.45 390.372,363.776 	"/>
	<polygon fill="#68857F" points="394.915,351.45 404.419,350.426 385.234,344.985 	"/>
	<polygon fill="#FFE862" points="404.419,350.426 390.372,363.776 391.515,348.217 	"/>
	<polyline fill="#83CDE6" points="355.635,355.325 346.156,364.555 336.258,355.268 	"/>
	<polyline fill="#D5CB0C" points="355.635,355.325 336.258,355.268 346.259,372.284 355.635,355.325 	"/>
	<polyline fill="#40B7CD" points="336.258,355.268 355.635,355.325 346.259,372.284 336.258,355.268 	"/>
	<polygon fill="#DCDEED" points="219.452,330.783 230.53,334.361 229.523,347.459 	"/>
	<polygon fill="#9AC234" points="230.53,334.361 239.394,330.783 219.452,330.783 	"/>
	<polygon fill="#FCE7E8" points="239.394,330.783 229.523,347.459 219.452,330.783 	"/>
	<polygon fill="#FCC531" points="141.594,333.142 135.93,323.817 153.007,333.716 	"/>
	<polygon fill="#C2C73E" points="136.104,343.193 153.007,333.716 135.93,323.817 	"/>
	<polygon fill="#FFE862" points="135.93,323.817 153.007,333.716 136.104,343.193 	"/>
	<polygon fill="#41B6CD" points="28.752,299.429 33.894,309.873 23.789,318.267 	"/>
	<polygon fill="#83CDE6" points="23.789,318.267 42.632,313.745 28.752,299.429 	"/>
	<polygon fill="#9C9FA4" points="42.632,313.745 23.789,318.267 28.752,299.429 	"/>
	<polygon fill="#283480" points="91.036,290.82 76.388,300.927 77.054,281.56 	"/>
	<polygon fill="#997EB7" points="93.709,291.464 76.388,300.927 77.054,281.56 	"/>
	<polygon fill="#C74A94" points="77.054,281.56 93.709,291.464 80.863,298.482 	"/>
	<polygon fill="#83CDE6" points="149.311,288.929 143.212,276.802 161.386,283.527 	"/>
	<polygon fill="#D5CB0C" points="146.746,296.222 161.386,283.527 143.212,276.802 	"/>
	<polygon fill="#40B7CD" points="143.212,276.802 161.386,283.527 146.746,296.222 	"/>
	<polygon fill="#006453" points="218.429,283.681 234.604,287.687 227.481,269.666 	"/>
	<polygon fill="#828F59" points="215.379,285.257 234.604,287.687 227.481,269.666 	"/>
	<polygon fill="#FDDD04" points="234.604,287.687 215.379,285.257 227.481,269.666 	"/>
	<polyline fill="#83CDE6" points="355.635,355.325 346.156,364.555 336.258,355.268 	"/>
	<polyline fill="#D5CB0C" points="355.635,355.325 336.258,355.268 346.259,372.284 355.635,355.325 	"/>
	<polyline fill="#40B7CD" points="336.258,355.268 355.635,355.325 346.259,372.284 336.258,355.268 	"/>
	<polygon fill="#83CDE6" points="346.156,364.555 336.258,355.268 355.635,355.325 	"/>
	<polygon fill="#D5CB0C" points="346.259,372.284 355.635,355.325 336.258,355.268 	"/>
	<polygon fill="#40B7CD" points="336.258,355.268 355.635,355.325 346.259,372.284 	"/>
	<polygon fill="#DCDEED" points="349.657,295.07 356.411,310.302 366.28,293.626 	"/>
	<polygon fill="#B3B2A5" points="346.543,293.626 356.411,310.302 366.28,293.626 	"/>
	<polygon fill="#B2DACD" points="356.411,310.302 346.543,293.626 366.28,293.626 	"/>
	<polygon fill="#3E2051" points="280.239,235.989 288.747,234.028 278.878,250.704 	"/>
	<polygon fill="#3776B5" points="278.878,250.704 269.009,234.028 288.747,234.028 	"/>
	<polygon fill="#E95465" points="269.009,234.028 278.878,250.704 288.747,234.028 	"/>
	<polygon fill="#006453" points="218.429,283.681 234.604,287.687 227.481,269.666 	"/>
	<polygon fill="#828F59" points="215.379,285.257 234.604,287.687 227.481,269.666 	"/>
	<polygon fill="#FDDD04" points="234.604,287.687 215.379,285.257 227.481,269.666 	"/>
	<polygon fill="#006453" points="218.429,283.681 234.604,287.687 227.481,269.666 	"/>
	<polygon fill="#828F59" points="215.379,285.257 234.604,287.687 227.481,269.666 	"/>
	<polygon fill="#FDDD04" points="234.604,287.687 215.379,285.257 227.481,269.666 	"/>
	<polygon fill="#83CDE6" points="149.311,288.929 143.212,276.802 161.386,283.527 	"/>
	<polygon fill="#D5CB0C" points="146.746,296.222 161.386,283.527 143.212,276.802 	"/>
	<polygon fill="#40B7CD" points="143.212,276.802 161.386,283.527 146.746,296.222 	"/>
	<polygon fill="#83CDE6" points="149.311,288.929 143.212,276.802 161.386,283.527 	"/>
	<polygon fill="#D5CB0C" points="146.746,296.222 161.386,283.527 143.212,276.802 	"/>
	<polygon fill="#40B7CD" points="143.212,276.802 161.386,283.527 146.746,296.222 	"/>
	<polygon fill="#64B669" points="151.085,233.193 156.078,250.277 137.902,243.56 	"/>
	<polygon fill="#BDB7B0" points="152.537,230.858 156.078,250.277 137.902,243.56 	"/>
	<polygon fill="#828F5A" points="137.902,243.56 152.537,230.858 156.078,250.277 	"/>
	<polygon fill="#B3DBCE" points="20.973,242.142 33.211,253.452 35.663,234.229 	"/>
	<polygon fill="#64B669" points="17.541,242.052 33.211,253.452 35.663,234.229 	"/>
	<polygon fill="#E95465" points="33.211,253.452 17.541,242.052 35.663,234.229 	"/>
</g>
<g id="Ebene_2">
	<polygon fill="#9AC235" points="254.669,469.797 254.5,458.887 264.225,476.063 	"/>
	<polygon fill="#9FC41D" points="244.851,475.692 264.225,476.063 254.669,469.797 	"/>
	<polygon fill="#009039" points="254.5,458.887 254.669,469.797 244.851,475.692 	"/>
	<polygon fill="#73A6B8" points="164.394,374.655 165.243,363.776 173.321,381.786 	"/>
	<polygon fill="#B3DBCE" points="154.066,379.606 173.321,381.786 164.394,374.655 	"/>
	<polygon fill="#418ECC" points="165.243,363.776 164.394,374.655 154.066,379.606 	"/>
	<polygon fill="#83CDE6" points="149.311,288.929 143.212,276.802 161.386,283.527 	"/>
	<polygon fill="#D5CB0C" points="146.746,296.222 161.386,283.527 149.311,288.929 	"/>
	<polygon fill="#40B7CD" points="143.212,276.802 149.311,288.929 146.746,296.222 	"/>
	<polygon fill="#83CDE6" points="279.838,412.954 266.815,416.782 276.684,400.106 	"/>
	<polygon fill="#D5CB0C" points="286.553,416.782 276.684,400.106 279.838,412.954 	"/>
	<polygon fill="#40B7CD" points="266.815,416.782 279.838,412.954 286.553,416.782 	"/>
	<polygon fill="#FFDF06" points="354.975,245.121 353.384,261.79 343.516,245.113 	"/>
	<polygon fill="#D5CB0C" points="363.253,245.113 353.384,261.79 347.922,245.125 	"/>
	<polygon fill="#DDE277" points="319.474,379.606 308.273,392.034 310.477,372.782 	"/>
	<polygon fill="#9AC235" points="326.21,384.7 308.273,392.034 313.981,375.452 	"/>
	<polygon fill="#FFDF06" points="207.166,403.786 226.904,403.786 217.035,387.11 	"/>
	<polygon fill="#9AC235" points="207.166,403.786 226.904,403.786 211.756,396.03 	"/>
	<polygon fill="#FFDF06" points="357.613,429.116 349.243,412.954 341.848,430.866 	"/>
	<polygon fill="#EF8278" points="361.107,428.729 349.243,412.954 352.15,429.721 	"/>
	<polygon fill="#9C9EA3" points="91.036,348.864 100.541,365.75 110.413,348.659 	"/>
	<polygon fill="#BEB8B1" points="91.036,348.864 101.828,348.749 100.541,365.75 	"/>
	<polygon fill="#283480" points="91.036,290.82 76.388,300.927 77.054,281.56 	"/>
	<polygon fill="#997EB7" points="93.709,291.464 76.388,300.927 91.036,290.82 	"/>
	<polygon fill="#C74A94" points="77.054,281.56 93.709,291.464 91.036,290.82 	"/>
	<polygon fill="#64B669" points="151.085,233.193 156.078,250.277 137.902,243.56 	"/>
	<polygon fill="#BDB7B0" points="152.537,230.858 156.078,250.277 151.085,233.193 	"/>
	<polygon fill="#828F5A" points="137.902,243.56 152.537,230.858 151.085,233.193 	"/>
	<polygon fill="#DCDEED" points="349.657,295.07 356.411,310.302 366.28,293.626 	"/>
	<polygon fill="#B3B2A5" points="346.543,293.626 349.657,295.07 366.28,293.626 	"/>
	<polygon fill="#B2DACD" points="356.411,310.302 346.543,293.626 349.657,295.07 	"/>
	<polygon fill="#006453" points="218.429,283.681 234.604,287.687 227.481,269.666 	"/>
	<polygon fill="#828F59" points="215.379,285.257 218.429,283.681 227.481,269.666 	"/>
	<polygon fill="#FDDD04" points="234.604,287.687 215.379,285.257 218.429,283.681 	"/>
	<polygon fill="#DCDEED" points="219.452,330.783 239.394,330.783 229.523,347.459 	"/>
	<polygon fill="#9AC234" points="230.53,334.361 239.394,330.783 219.452,330.783 	"/>
	<polygon fill="#FCE7E8" points="239.394,330.783 229.523,347.459 230.53,334.361 	"/>
	<polygon fill="#41B6CD" points="28.752,299.429 33.894,309.873 23.789,318.267 	"/>
	<polygon fill="#83CDE6" points="33.894,309.873 42.632,313.745 28.752,299.429 	"/>
	<polygon fill="#9C9FA4" points="42.632,313.745 23.789,318.267 33.894,309.873 	"/>
	<polygon fill="#3E2051" points="280.239,235.989 288.747,234.028 278.878,250.704 	"/>
	<polygon fill="#3776B5" points="280.239,235.989 269.009,234.028 288.747,234.028 	"/>
	<polygon fill="#E95465" points="269.009,234.028 278.878,250.704 280.239,235.989 	"/>
	<polygon fill="#3E2051" points="306.025,462.084 299.409,456.387 318.693,454.475 	"/>
	<polygon fill="#997EB7" points="306.025,462.084 311.091,472.299 299.409,456.387 	"/>
	<polygon fill="#283480" points="311.091,472.299 318.693,454.475 306.025,462.084 	"/>
	<polygon fill="#FCC531" points="141.594,333.142 135.93,323.817 153.007,333.716 	"/>
	<polygon fill="#C2C73E" points="136.104,343.193 153.007,333.716 141.594,333.142 	"/>
	<polygon fill="#FFE862" points="135.93,323.817 141.594,333.142 136.104,343.193 	"/>
	<polygon fill="#EF8278" points="156.438,438.231 148.161,431.122 167.465,435.239 	"/>
	<polygon fill="#B3DBCE" points="154.335,449.489 167.465,435.239 156.438,438.231 	"/>
	<polygon fill="#418ECC" points="148.161,431.122 156.438,438.231 154.335,449.489 	"/>
	<polygon fill="#83CDE6" points="346.156,364.555 336.258,355.268 355.635,355.325 	"/>
	<polygon fill="#D5CB0C" points="346.259,372.284 355.635,355.325 346.156,364.555 	"/>
	<polygon fill="#40B7CD" points="336.258,355.268 346.156,364.555 346.259,372.284 	"/>
	<polygon fill="#83CDE6" points="76.232,390.26 65.265,398.258 68.929,379.231 	"/>
	<polygon fill="#D5CB0C" points="83.846,391.6 68.929,379.231 76.232,390.26 	"/>
	<polygon fill="#40B7CD" points="65.265,398.258 76.232,390.26 83.846,391.6 	"/>
	<polygon fill="#99BED9" points="405.938,400.073 402.29,419.104 387.362,406.749 	"/>
	<polygon fill="#3977B4" points="405.938,400.073 402.29,419.104 391.515,405.268 	"/>
	<polygon fill="#FFDF06" points="74.599,245.609 74.599,262.005 63.979,245.796 	"/>
	<polygon fill="#EEDDA9" points="83.696,244.896 74.599,262.005 68.382,245.609 	"/>
	<polygon fill="#FFDF06" points="63.979,459.073 82.263,451.635 66.837,439.907 	"/>
	<polygon fill="#EF8278" points="63.979,459.073 82.263,451.635 65.309,450.159 	"/>
	<polygon fill="#FFDF06" points="275.76,326.612 259.297,320.117 266.994,337.9 	"/>
	<polygon fill="#EF8278" points="278.878,322.595 259.297,320.117 273.352,329.712 	"/>
	<polygon fill="#E5358B" points="302.812,304.55 314.2,318.218 316.981,298.677 	"/>
	<polygon fill="#EF8277" points="299.081,306.097 309.052,301.964 314.2,318.218 	"/>
	<polygon fill="#9C9EA3" points="184.106,459.436 199.398,471.338 201.898,451.76 	"/>
	<polygon fill="#68847E" points="184.106,459.436 194.017,455.161 199.398,471.338 	"/>
	<polygon fill="#41B6CD" points="251.81,369.426 241.675,384.057 235.458,365.704 	"/>
	<polygon fill="#DCDEED" points="254.538,369.084 241.675,384.057 251.81,369.426 	"/>
	<polygon fill="#3E2051" points="235.458,365.704 254.538,369.084 251.81,369.426 	"/>
	<polygon fill="#FCC531" points="26.077,371.34 36.287,385.918 16.917,385.387 	"/>
	<polygon fill="#EEDDAA" points="26.703,368.665 36.287,385.918 26.077,371.34 	"/>
	<polygon fill="#EF8278" points="16.917,385.387 26.703,368.665 26.077,371.34 	"/>
	<polygon fill="#B3DBCE" points="20.973,242.142 33.211,253.452 35.663,234.229 	"/>
	<polygon fill="#64B669" points="17.541,242.052 20.973,242.142 35.663,234.229 	"/>
	<polygon fill="#E95465" points="33.211,253.452 17.541,242.052 20.973,242.142 	"/>
	<polygon fill="#41B6CD" points="403.656,459.297 412.291,467.104 406.001,478.637 	"/>
	<polygon fill="#9AC234" points="412.291,467.104 421.842,467.475 403.656,459.297 	"/>
	<polygon fill="#E95465" points="421.842,467.475 406.001,478.637 412.291,467.104 	"/>
	<polygon fill="#BEB8B1" points="385.234,344.985 404.419,350.426 390.372,363.776 	"/>
	<polygon fill="#68857F" points="394.915,351.45 404.419,350.426 385.234,344.985 	"/>
	<polygon fill="#FFE862" points="404.419,350.426 390.372,363.776 394.915,351.45 	"/>
	<polygon fill="#C84B94" points="116.115,460.495 124.782,461.549 109.82,473.864 	"/>
	<polygon fill="#DCDEED" points="116.115,460.495 106.227,454.823 124.782,461.549 	"/>
	<polygon fill="#997EB7" points="106.227,454.823 109.82,473.864 116.115,460.495 	"/>
	<polygon fill="#3E2051" points="24.013,447.782 16.557,444.038 32.861,433.565 	"/>
	<polygon fill="#DCDEED" points="25.039,446.104 34.195,452.897 16.557,444.038 	"/>
	<polygon fill="#69857F" points="34.195,452.897 32.861,433.565 25.039,446.104 	"/>
	<polygon fill="#9AC235" points="254.669,469.797 254.5,458.887 264.225,476.063 	"/>
	<polygon fill="#997EB7" points="695.145,32.601 690.488,13.791 683.862,29.212 	"/>
	<polygon fill="#C84B94" points="684.605,29.436 676.241,26.925 690.488,13.791 	"/>
	<polyline fill="#418ECC" points="654.605,58.617 644.854,57.103 647.411,40.625 	"/>
	<polygon fill="#B3DBCE" points="647.411,40.625 635.102,55.589 644.854,57.103 	"/>
	<polygon fill="#009039" points="546.877,36.86 545.766,20.091 555.568,19.541 	"/>
	<polyline fill="#9AC235" points="536.204,20.257 545.766,20.091 546.877,36.86 	"/>
	<polygon fill="#3E2051" points="496.655,35.175 502.179,41.876 483.032,44.867 	"/>
	<polygon fill="#283480" points="489.622,26.644 483.032,44.867 497.173,35.803 	"/>
	<polygon fill="#41B6CD" points="397.933,44.819 379.316,37.674 394.507,25.641 	"/>
	<polygon fill="#E95465" points="379.316,37.674 394.507,25.641 387.424,40.785 	"/>
	<polygon fill="#83CDE6" points="522.163,80.421 536.943,79.591 528.025,96.794 	"/>
	<polygon fill="#D5CB0C" points="517.236,80.698 528.025,96.794 523.941,80.321 	"/>
	<polygon fill="#B3DBCE" points="651.6,110.383 632.253,109.287 641.329,126.815 	"/>
	<polygon fill="#418ECC" points="641.329,126.815 636.791,118.05 651.6,110.383 	"/>
	<polygon fill="#83CDE6" points="724.636,97.125 739.216,86.778 736.624,105.981 	"/>
	<polygon fill="#40B7CD" points="739.216,86.778 726.083,98.195 721.037,94.468 	"/>
	<polygon fill="#FCC531" points="778.647,113.009 768.84,97.472 788.21,96.916 	"/>
	<line fill="#EF8278" x1="788.21" y1="96.916" x2="779.376" y2="114.162"/>
	<line fill="#EF8278" x1="788.21" y1="96.916" x2="779.376" y2="114.162"/>
	<line fill="#EF8278" x1="788.21" y1="96.916" x2="779.376" y2="114.162"/>
	<polyline fill="#EF8278" points="779.376,114.162 777.741,111.573 788.21,96.916 	"/>
	<polygon fill="#41B6CD" points="551.877,126.524 563.88,110.854 571.116,128.829 	"/>
	<polygon fill="#DCDEED" points="551.877,126.524 563.88,110.854 554.582,126.03 	"/>
	<polygon fill="#3E2051" points="571.116,128.829 551.877,126.524 554.423,123.2 	"/>
	<polygon fill="#BEB8B1" points="422.738,157.918 412.71,152.006 416.555,139.445 	"/>
	<polygon fill="#68857F" points="412.71,152.006 403.278,153.562 422.738,157.918 	"/>
	<polygon fill="#FFE862" points="403.278,153.562 416.555,139.445 416.287,155.043 	"/>
	<polyline fill="#83CDE6" points="469.681,179.775 478.627,170.027 489.03,178.745 	"/>
	<polyline fill="#D5CB0C" points="469.681,179.775 489.03,178.745 478.091,162.317 469.681,179.775 	"/>
	<polyline fill="#40B7CD" points="489.03,178.745 469.681,179.775 478.091,162.317 489.03,178.745 	"/>
	<polygon fill="#DCDEED" points="589.057,162.797 577.795,159.846 578.065,146.712 	"/>
	<polygon fill="#9AC234" points="577.795,159.846 569.146,163.916 589.057,162.797 	"/>
	<polygon fill="#FCE7E8" points="569.146,163.916 578.065,146.712 589.057,162.797 	"/>
	<polygon fill="#FCC531" points="666.66,156.074 672.838,165.066 655.232,156.141 	"/>
	<polygon fill="#C2C73E" points="671.576,145.73 655.232,156.141 672.838,165.066 	"/>
	<polygon fill="#FFE862" points="672.838,165.066 655.232,156.141 671.576,145.73 	"/>
	<polygon fill="#41B6CD" points="781.215,183.403 775.495,173.264 785.113,164.316 	"/>
	<polygon fill="#83CDE6" points="785.113,164.316 766.553,169.889 781.215,183.403 	"/>
	<polygon fill="#9C9FA4" points="766.553,169.889 785.113,164.316 781.215,183.403 	"/>
	<polygon fill="#283480" points="719.512,195.493 733.57,184.58 733.992,203.954 	"/>
	<polygon fill="#997EB7" points="716.808,194.999 733.57,184.58 733.992,203.954 	"/>
	<polygon fill="#C74A94" points="733.992,203.954 716.808,194.999 729.239,187.272 	"/>
	<polygon fill="#83CDE6" points="661.436,200.65 668.205,212.416 649.683,206.721 	"/>
	<polygon fill="#D5CB0C" points="663.587,193.225 649.683,206.721 668.205,212.416 	"/>
	<polygon fill="#40B7CD" points="668.205,212.416 649.683,206.721 663.587,193.225 	"/>
	<polygon fill="#006453" points="592.721,209.767 576.347,206.675 584.469,224.269 	"/>
	<polygon fill="#828F59" points="595.677,208.022 576.347,206.675 584.469,224.269 	"/>
	<polygon fill="#FDDD04" points="576.347,206.675 595.677,208.022 584.469,224.269 	"/>
	<polyline fill="#83CDE6" points="469.681,179.775 478.627,170.027 489.03,178.745 	"/>
	<polyline fill="#D5CB0C" points="469.681,179.775 489.03,178.745 478.091,162.317 469.681,179.775 	"/>
	<polyline fill="#40B7CD" points="489.03,178.745 469.681,179.775 478.091,162.317 489.03,178.745 	"/>
	<polygon fill="#83CDE6" points="478.627,170.027 489.03,178.745 469.681,179.775 	"/>
	<polygon fill="#D5CB0C" points="478.091,162.317 469.681,179.775 489.03,178.745 	"/>
	<polygon fill="#40B7CD" points="489.03,178.745 469.681,179.775 478.091,162.317 	"/>
	<polygon fill="#DCDEED" points="461.06,205.759 453.462,190.929 444.544,208.132 	"/>
	<polygon fill="#B3B2A5" points="464.25,207.025 453.462,190.929 444.544,208.132 	"/>
	<polygon fill="#B2DACD" points="453.462,190.929 464.25,207.025 444.544,208.132 	"/>
	<polygon fill="#9FC41D" points="411.743,209.144 396.827,216.57 413.927,225.685 	"/>
	<polygon fill="#828F59" points="413.047,205.966 396.827,216.57 413.927,225.685 	"/>
	<polygon fill="#828F5A" points="396.827,216.57 413.047,205.966 413.927,225.685 	"/>
	<polygon fill="#3E2051" points="499.753,231.854 491.368,234.289 500.286,217.085 	"/>
	<polygon fill="#3776B5" points="500.286,217.085 511.075,233.181 491.368,234.289 	"/>
	<polygon fill="#E95465" points="511.075,233.181 500.286,217.085 491.368,234.289 	"/>
	<polygon fill="#006453" points="592.721,209.767 576.347,206.675 584.469,224.269 	"/>
	<polygon fill="#828F59" points="595.677,208.022 576.347,206.675 584.469,224.269 	"/>
	<polygon fill="#FDDD04" points="576.347,206.675 595.677,208.022 584.469,224.269 	"/>
	<polygon fill="#006453" points="592.721,209.767 576.347,206.675 584.469,224.269 	"/>
	<polygon fill="#828F59" points="595.677,208.022 576.347,206.675 584.469,224.269 	"/>
	<polygon fill="#FDDD04" points="576.347,206.675 595.677,208.022 584.469,224.269 	"/>
	<polygon fill="#83CDE6" points="661.436,200.65 668.205,212.416 649.683,206.721 	"/>
	<polygon fill="#D5CB0C" points="663.587,193.225 649.683,206.721 668.205,212.416 	"/>
	<polygon fill="#40B7CD" points="668.205,212.416 649.683,206.721 663.587,193.225 	"/>
	<polygon fill="#83CDE6" points="661.436,200.65 668.205,212.416 649.683,206.721 	"/>
	<polygon fill="#D5CB0C" points="663.587,193.225 649.683,206.721 668.205,212.416 	"/>
	<polygon fill="#40B7CD" points="668.205,212.416 649.683,206.721 663.587,193.225 	"/>
	<polygon fill="#B3DBCE" points="792.196,240.164 779.343,229.558 777.973,248.887 	"/>
	<polygon fill="#64B669" points="795.627,240.06 779.343,229.558 777.973,248.887 	"/>
	<polygon fill="#E95465" points="779.343,229.558 795.627,240.06 777.973,248.887 	"/>
	<polygon fill="#9AC235" points="546.096,25.977 546.877,36.86 536.204,20.257 	"/>
	<polygon fill="#9FC41D" points="555.568,19.541 536.204,20.257 546.096,25.977 	"/>
	<polygon fill="#009039" points="546.877,36.86 546.096,25.977 555.568,19.541 	"/>
	<polygon fill="#73A6B8" points="641.567,115.905 641.329,126.815 632.253,109.287 	"/>
	<polygon fill="#B3DBCE" points="651.6,110.383 632.253,109.287 641.567,115.905 	"/>
	<polygon fill="#418ECC" points="641.329,126.815 641.567,115.905 651.6,110.383 	"/>
	<polygon fill="#83CDE6" points="661.436,200.65 668.205,212.416 649.683,206.721 	"/>
	<polygon fill="#D5CB0C" points="663.587,193.225 649.683,206.721 661.436,200.65 	"/>
	<polygon fill="#40B7CD" points="668.205,212.416 661.436,200.65 663.587,193.225 	"/>
	<polygon fill="#83CDE6" points="524.155,84.144 536.943,79.591 528.025,96.794 	"/>
	<polygon fill="#D5CB0C" points="517.236,80.698 528.025,96.794 524.155,84.144 	"/>
	<polygon fill="#40B7CD" points="536.943,79.591 524.155,84.144 517.236,80.698 	"/>
	<polygon fill="#FFDF06" points="458.553,255.927 459.206,239.196 469.994,255.292 	"/>
	<polygon fill="#D5CB0C" points="450.288,256.4 459.206,239.196 465.595,255.527 	"/>
	<polygon fill="#DDE277" points="486.453,119.662 496.938,106.625 495.819,125.971 	"/>
	<polygon fill="#9AC235" points="479.441,114.955 496.938,106.625 492.17,123.502 	"/>
	<polygon fill="#FFDF06" points="597.228,89.22 577.521,90.327 588.31,106.423 	"/>
	<polygon fill="#9AC235" points="597.228,89.22 577.521,90.327 593.08,97.221 	"/>
	<polygon fill="#FFDF06" points="445.596,72.37 454.859,88.037 461.238,69.738 	"/>
	<polygon fill="#EF8278" points="442.129,72.952 454.859,88.037 451.017,71.459 	"/>
	<polygon fill="#DF6543" points="558.256,253.437 556.146,236.132 544.354,251.959 	"/>
	<polygon fill="#69857F" points="563.622,254.008 552.89,252.867 556.146,236.132 	"/>
	<polygon fill="#9C9EA3" points="716.256,137.541 705.818,121.213 696.921,138.832 	"/>
	<polygon fill="#BEB8B1" points="716.256,137.541 705.487,138.261 705.818,121.213 	"/>
	<polygon fill="#283480" points="719.512,195.493 733.57,184.58 733.992,203.954 	"/>
	<polygon fill="#997EB7" points="716.808,194.999 733.57,184.58 719.512,195.493 	"/>
	<polygon fill="#C74A94" points="733.992,203.954 716.808,194.999 719.512,195.493 	"/>
	<polygon fill="#DCDEED" points="461.06,205.759 453.462,190.929 444.544,208.132 	"/>
	<polygon fill="#B3B2A5" points="464.25,207.025 461.06,205.759 444.544,208.132 	"/>
	<polygon fill="#B2DACD" points="453.462,190.929 464.25,207.025 461.06,205.759 	"/>
	<polygon fill="#006453" points="592.721,209.767 576.347,206.675 584.469,224.269 	"/>
	<polygon fill="#828F59" points="595.677,208.022 592.721,209.767 584.469,224.269 	"/>
	<polygon fill="#FDDD04" points="576.347,206.675 595.677,208.022 592.721,209.767 	"/>
	<polygon fill="#DCDEED" points="589.057,162.797 569.146,163.916 578.065,146.712 	"/>
	<polygon fill="#9AC234" points="577.795,159.846 569.146,163.916 589.057,162.797 	"/>
	<polygon fill="#FCE7E8" points="569.146,163.916 578.065,146.712 577.795,159.846 	"/>
	<polygon fill="#41B6CD" points="781.215,183.403 775.495,173.264 785.113,164.316 	"/>
	<polygon fill="#83CDE6" points="775.495,173.264 766.553,169.889 781.215,183.403 	"/>
	<polygon fill="#9C9FA4" points="766.553,169.889 785.113,164.316 775.495,173.264 	"/>
	<polygon fill="#3E2051" points="499.753,231.854 491.368,234.289 500.286,217.085 	"/>
	<polygon fill="#3776B5" points="499.753,231.854 511.075,233.181 491.368,234.289 	"/>
	<polygon fill="#E95465" points="511.075,233.181 500.286,217.085 499.753,231.854 	"/>
	<polygon fill="#3E2051" points="495.253,36.559 502.179,41.876 483.032,44.867 	"/>
	<polygon fill="#997EB7" points="495.253,36.559 489.622,26.644 502.179,41.876 	"/>
	<polygon fill="#283480" points="489.622,26.644 483.032,44.867 495.253,36.559 	"/>
	<polygon fill="#FCC531" points="666.66,156.074 672.838,165.066 655.232,156.141 	"/>
	<polygon fill="#C2C73E" points="671.576,145.73 655.232,156.141 666.66,156.074 	"/>
	<polygon fill="#FFE862" points="672.838,165.066 666.66,156.074 671.576,145.73 	"/>
	<polygon fill="#EF8278" points="645.943,51.983 654.605,58.617 635.102,55.589 	"/>
	<polygon fill="#B3DBCE" points="647.411,40.625 635.102,55.589 645.943,51.983 	"/>
	<polygon fill="#418ECC" points="654.605,58.617 645.943,51.983 647.411,40.625 	"/>
	<polygon fill="#83CDE6" points="478.627,170.027 489.03,178.745 469.681,179.775 	"/>
	<polygon fill="#D5CB0C" points="478.091,162.317 469.681,179.775 478.627,170.027 	"/>
	<polygon fill="#40B7CD" points="489.03,178.745 478.627,170.027 478.091,162.317 	"/>
	<polygon fill="#83CDE6" points="728.714,95.378 739.216,86.778 736.624,105.981 	"/>
	<polygon fill="#D5CB0C" points="721.037,94.468 736.624,105.981 728.714,95.378 	"/>
	<polygon fill="#40B7CD" points="739.216,86.778 728.714,95.378 721.037,94.468 	"/>
	<polygon fill="#99BED9" points="398.978,104.079 401.552,84.873 417.148,96.371 	"/>
	<polygon fill="#3977B4" points="398.978,104.079 401.552,84.873 413.086,98.082 	"/>
	<polygon fill="#FFDF06" points="738.46,239.71 737.54,223.34 749.052,238.927 	"/>
	<polygon fill="#EEDDA9" points="729.417,240.932 737.54,223.34 744.666,239.362 	"/>
	<polygon fill="#FFDF06" points="737.087,25.986 719.25,34.438 735.308,45.283 	"/>
	<polygon fill="#EF8278" points="737.087,25.986 719.25,34.438 736.26,34.961 	"/>
	<polygon fill="#FFDF06" points="533.071,170.121 549.873,175.682 541.189,158.358 	"/>
	<polygon fill="#EF8278" points="530.184,174.306 549.873,175.682 535.302,166.89 	"/>
	<polygon fill="#E5358B" points="507.3,193.665 495.162,180.658 493.481,200.324 	"/>
	<polygon fill="#EF8277" points="510.938,191.911 501.215,196.597 495.162,180.658 	"/>
	<polygon fill="#9C9EA3" points="617.129,32.363 601.193,21.337 599.795,41.025 	"/>
	<polygon fill="#68847E" points="617.129,32.363 607.474,37.188 601.193,21.337 	"/>
	<polygon fill="#41B6CD" points="554.582,126.03 563.88,110.854 571.116,128.829 	"/>
	<polygon fill="#DCDEED" points="551.877,126.524 563.88,110.854 554.582,126.03 	"/>
	<polygon fill="#3E2051" points="571.116,128.829 551.877,126.524 554.582,126.03 	"/>
	<polygon fill="#FCC531" points="779.852,111.455 768.84,97.472 788.21,96.916 	"/>
	<polygon fill="#EEDDAA" points="779.376,114.162 768.84,97.472 779.852,111.455 	"/>
	<polygon fill="#EF8278" points="788.21,96.916 779.376,114.162 779.852,111.455 	"/>
	<polygon fill="#B3DBCE" points="792.196,240.164 779.343,229.558 777.973,248.887 	"/>
	<polygon fill="#64B669" points="795.627,240.06 792.196,240.164 777.973,248.887 	"/>
	<polygon fill="#E95465" points="779.343,229.558 795.627,240.06 792.196,240.164 	"/>
	<polygon fill="#9FC41D" points="411.743,209.144 396.827,216.57 413.927,225.685 	"/>
	<polygon fill="#828F59" points="413.047,205.966 411.743,209.144 413.927,225.685 	"/>
	<polygon fill="#828F5A" points="396.827,216.57 413.047,205.966 411.743,209.144 	"/>
	<polygon fill="#41B6CD" points="397.933,44.819 388.873,37.509 394.507,25.641 	"/>
	<polygon fill="#9AC234" points="388.873,37.509 379.316,37.674 397.933,44.819 	"/>
	<polygon fill="#E95465" points="379.316,37.674 394.507,25.641 388.873,37.509 	"/>
	<polygon fill="#BEB8B1" points="422.738,157.918 403.278,153.562 416.555,139.445 	"/>
	<polygon fill="#68857F" points="412.71,152.006 403.278,153.562 422.738,157.918 	"/>
	<polygon fill="#FFE862" points="403.278,153.562 416.555,139.445 412.71,152.006 	"/>
	<polygon fill="#C84B94" points="684.953,27.492 676.241,26.925 690.488,13.791 	"/>
	<polygon fill="#DCDEED" points="684.953,27.492 695.145,32.601 676.241,26.925 	"/>
	<polygon fill="#997EB7" points="695.145,32.601 690.488,13.791 684.953,27.492 	"/>
	<polygon fill="#9AC235" points="546.096,25.977 546.877,36.86 536.204,20.257 	"/>
	<polygon fill="#69857F" points="13.372,221.598 4.89,219.531 21.194,209.059 	"/>
	<polygon fill="#69857F" points="13.372,221.598 22.528,228.391 4.89,219.531 	"/>
	<polygon fill="#69857F" points="22.528,228.391 21.194,209.059 13.372,221.598 	"/>
	<polyline fill="#3E2051" points="21.194,209.059 12.345,223.275 4.89,219.531 	"/>
	<polygon fill="#997EB7" points="94.559,230.316 98.153,249.357 105.633,234.332 	"/>
	<polygon fill="#C84B94" points="104.904,234.066 113.115,237.043 98.153,249.357 	"/>
	<polyline fill="#418ECC" points="163.669,93.221 173.322,95.279 169.843,111.588 	"/>
	<polygon fill="#B3DBCE" points="169.843,111.588 182.973,97.338 173.322,95.279 	"/>
	<polygon fill="#009039" points="773.847,28.921 774.015,45.725 764.196,45.725 	"/>
	<polyline fill="#9AC235" points="783.571,46.096 774.015,45.725 773.847,28.921 	"/>
	<polygon fill="#3E2051" points="612.625,165.753 607.486,158.754 626.771,156.842 	"/>
	<polygon fill="#283480" points="619.168,174.666 626.771,156.842 612.145,165.097 	"/>
	<polygon fill="#41B6CD" points="391.989,234.791 410.175,242.968 394.333,254.13 	"/>
	<polygon fill="#E95465" points="410.175,242.968 394.333,254.13 402.255,239.408 	"/>
	<polygon fill="#83CDE6" points="269.95,192.275 255.148,192.275 265.017,175.6 	"/>
	<polygon fill="#D5CB0C" points="274.886,192.275 265.017,175.6 268.171,192.275 	"/>
	<polygon fill="#B3DBCE" points="142.399,155.1 161.654,157.279 153.576,139.27 	"/>
	<polygon fill="#418ECC" points="153.576,139.27 157.615,148.275 142.399,155.1 	"/>
	<polygon fill="#83CDE6" points="68.735,164.238 53.597,173.752 57.262,154.725 	"/>
	<polygon fill="#40B7CD" points="53.597,173.752 67.349,163.09 72.178,167.094 	"/>
	<polygon fill="#FCC531" points="15.699,145.35 24.62,161.412 5.249,160.881 	"/>
	<line fill="#EF8278" x1="5.249" y1="160.881" x2="15.036" y2="144.158"/>
	<line fill="#EF8278" x1="5.249" y1="160.881" x2="15.036" y2="144.158"/>
	<line fill="#EF8278" x1="5.249" y1="160.881" x2="15.036" y2="144.158"/>
	<polyline fill="#EF8278" points="15.036,144.158 16.523,146.834 5.249,160.881 	"/>
	<polygon fill="#41B6CD" points="242.871,144.578 230.007,159.551 223.791,141.197 	"/>
	<polygon fill="#DCDEED" points="242.871,144.578 230.007,159.551 240.142,144.92 	"/>
	<polygon fill="#3E2051" points="223.791,141.197 242.871,144.578 240.142,147.754 	"/>
	<polygon fill="#BEB8B1" points="373.567,120.479 383.247,126.943 378.704,139.27 	"/>
	<polygon fill="#68857F" points="383.247,126.943 392.751,125.92 373.567,120.479 	"/>
	<polygon fill="#FFE862" points="392.751,125.92 378.704,139.27 379.847,123.711 	"/>
	<polyline fill="#83CDE6" points="339.868,124.292 330.39,133.522 320.491,124.235 	"/>
	<polyline fill="#D5CB0C" points="339.868,124.292 320.491,124.235 330.491,141.251 339.868,124.292 	"/>
	<polyline fill="#40B7CD" points="320.491,124.235 339.868,124.292 330.491,141.251 320.491,124.235 	"/>
	<polygon fill="#DCDEED" points="207.785,106.276 218.863,109.854 217.856,122.953 	"/>
	<polygon fill="#9AC234" points="218.863,109.854 227.726,106.276 207.785,106.276 	"/>
	<polygon fill="#FCE7E8" points="227.726,106.276 217.856,122.953 207.785,106.276 	"/>
	<polygon fill="#FCC531" points="129.926,108.636 124.262,99.311 141.339,109.21 	"/>
	<polygon fill="#C2C73E" points="124.437,118.687 141.339,109.21 124.262,99.311 	"/>
	<polygon fill="#FFE862" points="124.262,99.311 141.339,109.21 124.437,118.687 	"/>
	<polygon fill="#41B6CD" points="17.084,74.923 22.227,85.366 12.122,93.761 	"/>
	<polygon fill="#83CDE6" points="12.122,93.761 30.965,89.238 17.084,74.923 	"/>
	<polygon fill="#9C9FA4" points="30.965,89.238 12.122,93.761 17.084,74.923 	"/>
	<polygon fill="#283480" points="79.369,66.313 64.72,76.421 65.386,57.054 	"/>
	<polygon fill="#997EB7" points="82.042,66.958 64.72,76.421 65.386,57.054 	"/>
	<polygon fill="#C74A94" points="65.386,57.054 82.042,66.958 69.196,73.976 	"/>
	<polygon fill="#83CDE6" points="137.643,64.423 131.544,52.296 149.718,59.021 	"/>
	<polygon fill="#D5CB0C" points="135.079,71.716 149.718,59.021 131.544,52.296 	"/>
	<polygon fill="#40B7CD" points="131.544,52.296 149.718,59.021 135.079,71.716 	"/>
	<polygon fill="#006453" points="206.761,59.175 222.936,63.181 215.814,45.159 	"/>
	<polygon fill="#828F59" points="203.711,60.751 222.936,63.181 215.814,45.159 	"/>
	<polygon fill="#FDDD04" points="222.936,63.181 203.711,60.751 215.814,45.159 	"/>
	<polyline fill="#83CDE6" points="339.868,124.292 330.39,133.522 320.491,124.235 	"/>
	<polyline fill="#D5CB0C" points="339.868,124.292 320.491,124.235 330.491,141.251 339.868,124.292 	"/>
	<polyline fill="#40B7CD" points="320.491,124.235 339.868,124.292 330.491,141.251 320.491,124.235 	"/>
	<polygon fill="#83CDE6" points="330.39,133.522 320.491,124.235 339.868,124.292 	"/>
	<polygon fill="#D5CB0C" points="330.491,141.251 339.868,124.292 320.491,124.235 	"/>
	<polygon fill="#40B7CD" points="320.491,124.235 339.868,124.292 330.491,141.251 	"/>
	<polygon fill="#DCDEED" points="337.989,70.563 344.743,85.796 354.612,69.12 	"/>
	<polygon fill="#B3B2A5" points="334.876,69.12 344.743,85.796 354.612,69.12 	"/>
	<polygon fill="#B2DACD" points="344.743,85.796 334.876,69.12 354.612,69.12 	"/>
	<polygon fill="#9FC41D" points="387.419,69.95 402.728,63.373 386.167,53.313 	"/>
	<polygon fill="#828F59" points="385.938,73.05 402.728,63.373 386.167,53.313 	"/>
	<polygon fill="#828F5A" points="402.728,63.373 385.938,73.05 386.167,53.313 	"/>
	<polygon fill="#3E2051" points="300.821,42.339 309.329,40.378 299.46,57.054 	"/>
	<polygon fill="#3776B5" points="299.46,57.054 289.591,40.378 309.329,40.378 	"/>
	<polygon fill="#E95465" points="289.591,40.378 299.46,57.054 309.329,40.378 	"/>
	<polygon fill="#006453" points="206.761,59.175 222.936,63.181 215.814,45.159 	"/>
	<polygon fill="#828F59" points="203.711,60.751 222.936,63.181 215.814,45.159 	"/>
	<polygon fill="#FDDD04" points="222.936,63.181 203.711,60.751 215.814,45.159 	"/>
	<polygon fill="#006453" points="206.761,59.175 222.936,63.181 215.814,45.159 	"/>
	<polygon fill="#828F59" points="203.711,60.751 222.936,63.181 215.814,45.159 	"/>
	<polygon fill="#FDDD04" points="222.936,63.181 203.711,60.751 215.814,45.159 	"/>
	<polygon fill="#83CDE6" points="137.643,64.423 131.544,52.296 149.718,59.021 	"/>
	<polygon fill="#D5CB0C" points="135.079,71.716 149.718,59.021 131.544,52.296 	"/>
	<polygon fill="#40B7CD" points="131.544,52.296 149.718,59.021 135.079,71.716 	"/>
	<polygon fill="#83CDE6" points="137.643,64.423 131.544,52.296 149.718,59.021 	"/>
	<polygon fill="#D5CB0C" points="135.079,71.716 149.718,59.021 131.544,52.296 	"/>
	<polygon fill="#40B7CD" points="131.544,52.296 149.718,59.021 135.079,71.716 	"/>
	<polygon fill="#64B669" points="139.417,8.687 144.411,25.771 126.235,19.054 	"/>
	<polygon fill="#BDB7B0" points="140.87,6.352 144.411,25.771 126.235,19.054 	"/>
	<polygon fill="#828F5A" points="126.235,19.054 140.87,6.352 144.411,25.771 	"/>
	<polygon fill="#B3DBCE" points="9.305,17.636 21.543,28.945 23.996,9.723 	"/>
	<polygon fill="#64B669" points="5.874,17.546 21.543,28.945 23.996,9.723 	"/>
	<polygon fill="#E95465" points="21.543,28.945 5.874,17.546 23.996,9.723 	"/>
	<polygon fill="#9AC235" points="774.015,39.831 773.847,28.921 783.571,46.096 	"/>
	<polygon fill="#9FC41D" points="764.196,45.725 783.571,46.096 774.015,39.831 	"/>
	<polygon fill="#009039" points="773.847,28.921 774.015,39.831 764.196,45.725 	"/>
	<polygon fill="#73A6B8" points="152.726,150.148 153.576,139.27 161.654,157.279 	"/>
	<polygon fill="#B3DBCE" points="142.399,155.1 161.654,157.279 152.726,150.148 	"/>
	<polygon fill="#418ECC" points="153.576,139.27 152.726,150.148 142.399,155.1 	"/>
	<polygon fill="#83CDE6" points="137.643,64.423 131.544,52.296 149.718,59.021 	"/>
	<polygon fill="#D5CB0C" points="135.079,71.716 149.718,59.021 137.643,64.423 	"/>
	<polygon fill="#40B7CD" points="131.544,52.296 137.643,64.423 135.079,71.716 	"/>
	<polygon fill="#83CDE6" points="268.171,188.447 255.148,192.275 265.017,175.6 	"/>
	<polygon fill="#D5CB0C" points="274.886,192.275 265.017,175.6 268.171,188.447 	"/>
	<polygon fill="#40B7CD" points="255.148,192.275 268.171,188.447 274.886,192.275 	"/>
	<polygon fill="#FFDF06" points="343.308,20.614 341.716,37.283 331.849,20.606 	"/>
	<polygon fill="#D5CB0C" points="351.585,20.606 341.716,37.283 336.255,20.619 	"/>
	<polygon fill="#DDE277" points="307.806,155.1 296.606,167.527 298.81,148.275 	"/>
	<polygon fill="#9AC235" points="314.542,160.193 296.606,167.527 302.313,150.945 	"/>
	<polygon fill="#FFDF06" points="195.499,179.279 215.237,179.279 205.368,162.604 	"/>
	<polygon fill="#9AC235" points="195.499,179.279 215.237,179.279 200.088,171.523 	"/>
	<polygon fill="#FFDF06" points="345.946,204.609 337.575,188.447 330.181,206.359 	"/>
	<polygon fill="#EF8278" points="349.44,204.223 337.575,188.447 340.483,205.215 	"/>
	<polygon fill="#DF6543" points="243.622,17.507 244.758,34.903 257.419,19.763 	"/>
	<polygon fill="#69857F" points="238.296,16.636 248.948,18.378 244.758,34.903 	"/>
	<polygon fill="#9C9EA3" points="79.369,124.357 88.874,141.244 98.746,124.152 	"/>
	<polygon fill="#BEB8B1" points="79.369,124.357 90.161,124.242 88.874,141.244 	"/>
	<polygon fill="#283480" points="79.369,66.313 64.72,76.421 65.386,57.054 	"/>
	<polygon fill="#997EB7" points="82.042,66.958 64.72,76.421 79.369,66.313 	"/>
	<polygon fill="#C74A94" points="65.386,57.054 82.042,66.958 79.369,66.313 	"/>
	<polygon fill="#64B669" points="139.417,8.687 144.411,25.771 126.235,19.054 	"/>
	<polygon fill="#BDB7B0" points="140.87,6.352 144.411,25.771 139.417,8.687 	"/>
	<polygon fill="#828F5A" points="126.235,19.054 140.87,6.352 139.417,8.687 	"/>
	<polygon fill="#DCDEED" points="337.989,70.563 344.743,85.796 354.612,69.12 	"/>
	<polygon fill="#B3B2A5" points="334.876,69.12 337.989,70.563 354.612,69.12 	"/>
	<polygon fill="#B2DACD" points="344.743,85.796 334.876,69.12 337.989,70.563 	"/>
	<polygon fill="#006453" points="206.761,59.175 222.936,63.181 215.814,45.159 	"/>
	<polygon fill="#828F59" points="203.711,60.751 206.761,59.175 215.814,45.159 	"/>
	<polygon fill="#FDDD04" points="222.936,63.181 203.711,60.751 206.761,59.175 	"/>
	<polygon fill="#DCDEED" points="207.785,106.276 227.726,106.276 217.856,122.953 	"/>
	<polygon fill="#9AC234" points="218.863,109.854 227.726,106.276 207.785,106.276 	"/>
	<polygon fill="#FCE7E8" points="227.726,106.276 217.856,122.953 218.863,109.854 	"/>
	<polygon fill="#41B6CD" points="17.084,74.923 22.227,85.366 12.122,93.761 	"/>
	<polygon fill="#83CDE6" points="22.227,85.366 30.965,89.238 17.084,74.923 	"/>
	<polygon fill="#9C9FA4" points="30.965,89.238 12.122,93.761 22.227,85.366 	"/>
	<polygon fill="#3E2051" points="300.821,42.339 309.329,40.378 299.46,57.054 	"/>
	<polygon fill="#3776B5" points="300.821,42.339 289.591,40.378 309.329,40.378 	"/>
	<polygon fill="#E95465" points="289.591,40.378 299.46,57.054 300.821,42.339 	"/>
	<polygon fill="#3E2051" points="614.104,164.451 607.486,158.754 626.771,156.842 	"/>
	<polygon fill="#997EB7" points="614.104,164.451 619.168,174.666 607.486,158.754 	"/>
	<polygon fill="#283480" points="619.168,174.666 626.771,156.842 614.104,164.451 	"/>
	<polygon fill="#FCC531" points="129.926,108.636 124.262,99.311 141.339,109.21 	"/>
	<polygon fill="#C2C73E" points="124.437,118.687 141.339,109.21 129.926,108.636 	"/>
	<polygon fill="#FFE862" points="124.262,99.311 129.926,108.636 124.437,118.687 	"/>
	<polygon fill="#EF8278" points="171.946,100.33 163.669,93.221 182.973,97.338 	"/>
	<polygon fill="#B3DBCE" points="169.843,111.588 182.973,97.338 171.946,100.33 	"/>
	<polygon fill="#418ECC" points="163.669,93.221 171.946,100.33 169.843,111.588 	"/>
	<polygon fill="#83CDE6" points="330.39,133.522 320.491,124.235 339.868,124.292 	"/>
	<polygon fill="#D5CB0C" points="330.491,141.251 339.868,124.292 330.39,133.522 	"/>
	<polygon fill="#40B7CD" points="320.491,124.235 330.39,133.522 330.491,141.251 	"/>
	<polygon fill="#83CDE6" points="64.565,165.754 53.597,173.752 57.262,154.725 	"/>
	<polygon fill="#D5CB0C" points="72.178,167.094 57.262,154.725 64.565,165.754 	"/>
	<polygon fill="#40B7CD" points="53.597,173.752 64.565,165.754 72.178,167.094 	"/>
	<polygon fill="#99BED9" points="394.271,175.566 390.622,194.598 375.694,182.242 	"/>
	<polygon fill="#3977B4" points="394.271,175.566 390.622,194.598 379.847,180.762 	"/>
	<polygon fill="#FFDF06" points="62.931,21.103 62.931,37.499 52.312,21.29 	"/>
	<polygon fill="#EEDDA9" points="72.029,20.39 62.931,37.499 56.715,21.103 	"/>
	<polygon fill="#FFDF06" points="108.16,204.582 126.443,197.145 111.018,185.416 	"/>
	<polygon fill="#EF8278" points="108.16,204.582 126.443,197.145 109.489,195.668 	"/>
	<polygon fill="#FFDF06" points="264.093,102.105 247.629,95.61 255.327,113.394 	"/>
	<polygon fill="#EF8278" points="267.21,98.089 247.629,95.61 261.685,105.206 	"/>
	<polygon fill="#E5358B" points="291.144,80.044 302.532,93.712 305.313,74.171 	"/>
	<polygon fill="#EF8277" points="287.413,81.591 297.384,77.458 302.532,93.712 	"/>
	<polygon fill="#9C9EA3" points="172.439,234.93 187.731,246.832 190.231,227.254 	"/>
	<polygon fill="#68847E" points="172.439,234.93 182.349,230.654 187.731,246.832 	"/>
	<polygon fill="#41B6CD" points="240.142,144.92 230.007,159.551 223.791,141.197 	"/>
	<polygon fill="#DCDEED" points="242.871,144.578 230.007,159.551 240.142,144.92 	"/>
	<polygon fill="#3E2051" points="223.791,141.197 242.871,144.578 240.142,144.92 	"/>
	<polygon fill="#FCC531" points="14.41,146.834 24.62,161.412 5.249,160.881 	"/>
	<polygon fill="#EEDDAA" points="15.036,144.158 24.62,161.412 14.41,146.834 	"/>
	<polygon fill="#EF8278" points="5.249,160.881 15.036,144.158 14.41,146.834 	"/>
	<polygon fill="#B3DBCE" points="9.305,17.636 21.543,28.945 23.996,9.723 	"/>
	<polygon fill="#64B669" points="5.874,17.546 9.305,17.636 23.996,9.723 	"/>
	<polygon fill="#E95465" points="21.543,28.945 5.874,17.546 9.305,17.636 	"/>
	<polygon fill="#9FC41D" points="387.419,69.95 402.728,63.373 386.167,53.313 	"/>
	<polygon fill="#828F59" points="385.938,73.05 387.419,69.95 386.167,53.313 	"/>
	<polygon fill="#828F5A" points="402.728,63.373 385.938,73.05 387.419,69.95 	"/>
	<polygon fill="#41B6CD" points="391.989,234.791 400.624,242.597 394.333,254.13 	"/>
	<polygon fill="#9AC234" points="400.624,242.597 410.175,242.968 391.989,234.791 	"/>
	<polygon fill="#E95465" points="410.175,242.968 394.333,254.13 400.624,242.597 	"/>
	<polygon fill="#BEB8B1" points="373.567,120.479 392.751,125.92 378.704,139.27 	"/>
	<polygon fill="#68857F" points="383.247,126.943 392.751,125.92 373.567,120.479 	"/>
	<polygon fill="#FFE862" points="392.751,125.92 378.704,139.27 383.247,126.943 	"/>
	<polygon fill="#C84B94" points="104.448,235.988 113.115,237.043 98.153,249.357 	"/>
	<polygon fill="#DCDEED" points="104.448,235.988 94.559,230.316 113.115,237.043 	"/>
	<polygon fill="#997EB7" points="94.559,230.316 98.153,249.357 104.448,235.988 	"/>
	<polygon fill="#3E2051" points="12.345,223.275 4.89,219.531 21.194,209.059 	"/>
	<polygon fill="#DCDEED" points="13.372,221.598 22.528,228.391 4.89,219.531 	"/>
	<polygon fill="#69857F" points="22.528,228.391 21.194,209.059 13.372,221.598 	"/>
	<polygon fill="#9AC235" points="774.015,39.831 773.847,28.921 783.571,46.096 	"/>
	<polygon fill="#69857F" points="786.883,263.441 795.364,265.507 779.061,275.98 	"/>
	<polygon fill="#69857F" points="786.883,263.441 777.727,256.648 795.364,265.507 	"/>
	<polygon fill="#69857F" points="777.727,256.648 779.061,275.98 786.883,263.441 	"/>
	<polyline fill="#3E2051" points="779.061,275.98 787.909,261.763 795.364,265.507 	"/>
	<polygon fill="#997EB7" points="705.695,254.722 702.102,235.681 694.621,250.707 	"/>
	<polygon fill="#C84B94" points="695.351,250.972 687.14,247.996 702.102,235.681 	"/>
	<polyline fill="#418ECC" points="663.761,278.423 654.108,276.365 657.587,260.056 	"/>
	<polygon fill="#B3DBCE" points="657.587,260.056 644.457,274.306 654.108,276.365 	"/>
	<polygon fill="#3E2051" points="449.048,348.659 454.187,355.659 434.902,357.571 	"/>
	<polygon fill="#283480" points="442.505,339.747 434.902,357.571 449.529,349.315 	"/>
	<polygon fill="#83CDE6" points="530.304,292.763 545.106,292.763 535.238,309.439 	"/>
	<polygon fill="#D5CB0C" points="525.369,292.763 535.238,309.439 532.084,292.763 	"/>
	<polygon fill="#B3DBCE" points="657.855,329.939 638.601,327.759 646.679,345.769 	"/>
	<polygon fill="#418ECC" points="646.679,345.769 642.64,336.763 657.855,329.939 	"/>
	<polygon fill="#83CDE6" points="731.52,320.8 746.657,311.287 742.993,330.314 	"/>
	<polygon fill="#40B7CD" points="746.657,311.287 732.905,321.949 728.076,317.945 	"/>
	<polygon fill="#FCC531" points="784.556,339.689 775.635,323.626 795.005,324.158 	"/>
	<line fill="#EF8278" x1="795.005" y1="324.158" x2="785.219" y2="340.88"/>
	<line fill="#EF8278" x1="795.005" y1="324.158" x2="785.219" y2="340.88"/>
	<line fill="#EF8278" x1="795.005" y1="324.158" x2="785.219" y2="340.88"/>
	<polyline fill="#EF8278" points="785.219,340.88 783.731,338.205 795.005,324.158 	"/>
	<polygon fill="#41B6CD" points="557.384,340.46 570.247,325.488 576.464,343.841 	"/>
	<polygon fill="#DCDEED" points="557.384,340.46 570.247,325.488 560.112,340.119 	"/>
	<polygon fill="#3E2051" points="576.464,343.841 557.384,340.46 560.112,337.285 	"/>
	<polyline fill="#83CDE6" points="472.33,389.016 481.809,379.786 491.707,389.073 	"/>
	<polyline fill="#D5CB0C" points="472.33,389.016 491.707,389.073 481.706,372.057 472.33,389.016 	"/>
	<polyline fill="#40B7CD" points="491.707,389.073 472.33,389.016 481.706,372.057 491.707,389.073 	"/>
	<polygon fill="#DCDEED" points="592.47,378.762 581.392,375.184 582.398,362.085 	"/>
	<polygon fill="#9AC234" points="581.392,375.184 572.528,378.762 592.47,378.762 	"/>
	<polygon fill="#FCE7E8" points="572.528,378.762 582.398,362.085 592.47,378.762 	"/>
	<polygon fill="#FCC531" points="670.328,376.403 675.992,385.728 658.915,375.829 	"/>
	<polygon fill="#C2C73E" points="675.817,366.352 658.915,375.829 675.992,385.728 	"/>
	<polygon fill="#FFE862" points="675.992,385.728 658.915,375.829 675.817,366.352 	"/>
	<polygon fill="#41B6CD" points="783.17,410.116 778.028,399.672 788.133,391.278 	"/>
	<polygon fill="#83CDE6" points="788.133,391.278 769.29,395.8 783.17,410.116 	"/>
	<polygon fill="#9C9FA4" points="769.29,395.8 788.133,391.278 783.17,410.116 	"/>
	<polygon fill="#283480" points="720.886,418.725 735.534,408.618 734.868,427.985 	"/>
	<polygon fill="#997EB7" points="718.213,418.081 735.534,408.618 734.868,427.985 	"/>
	<polygon fill="#C74A94" points="734.868,427.985 718.213,418.081 731.059,411.063 	"/>
	<polygon fill="#83CDE6" points="662.611,420.616 668.71,432.743 650.536,426.018 	"/>
	<polygon fill="#D5CB0C" points="665.176,413.323 650.536,426.018 668.71,432.743 	"/>
	<polygon fill="#40B7CD" points="668.71,432.743 650.536,426.018 665.176,413.323 	"/>
	<polygon fill="#006453" points="593.493,425.864 577.318,421.858 584.44,439.879 	"/>
	<polygon fill="#828F59" points="596.543,424.288 577.318,421.858 584.44,439.879 	"/>
	<polygon fill="#FDDD04" points="577.318,421.858 596.543,424.288 584.44,439.879 	"/>
	<polyline fill="#83CDE6" points="472.33,389.016 481.809,379.786 491.707,389.073 	"/>
	<polyline fill="#D5CB0C" points="472.33,389.016 491.707,389.073 481.706,372.057 472.33,389.016 	"/>
	<polyline fill="#40B7CD" points="491.707,389.073 472.33,389.016 481.706,372.057 491.707,389.073 	"/>
	<polygon fill="#83CDE6" points="481.809,379.786 491.707,389.073 472.33,389.016 	"/>
	<polygon fill="#D5CB0C" points="481.706,372.057 472.33,389.016 491.707,389.073 	"/>
	<polygon fill="#40B7CD" points="491.707,389.073 472.33,389.016 481.706,372.057 	"/>
	<polygon fill="#DCDEED" points="462.265,414.475 455.511,399.243 445.642,415.918 	"/>
	<polygon fill="#B3B2A5" points="465.379,415.918 455.511,399.243 445.642,415.918 	"/>
	<polygon fill="#B2DACD" points="455.511,399.243 465.379,415.918 445.642,415.918 	"/>
	<polygon fill="#3E2051" points="499.433,442.7 490.925,444.661 500.794,427.985 	"/>
	<polygon fill="#3776B5" points="500.794,427.985 510.663,444.661 490.925,444.661 	"/>
	<polygon fill="#E95465" points="510.663,444.661 500.794,427.985 490.925,444.661 	"/>
	<polygon fill="#006453" points="593.493,425.864 577.318,421.858 584.44,439.879 	"/>
	<polygon fill="#828F59" points="596.543,424.288 577.318,421.858 584.44,439.879 	"/>
	<polygon fill="#FDDD04" points="577.318,421.858 596.543,424.288 584.44,439.879 	"/>
	<polygon fill="#006453" points="593.493,425.864 577.318,421.858 584.44,439.879 	"/>
	<polygon fill="#828F59" points="596.543,424.288 577.318,421.858 584.44,439.879 	"/>
	<polygon fill="#FDDD04" points="577.318,421.858 596.543,424.288 584.44,439.879 	"/>
	<polygon fill="#83CDE6" points="662.611,420.616 668.71,432.743 650.536,426.018 	"/>
	<polygon fill="#D5CB0C" points="665.176,413.323 650.536,426.018 668.71,432.743 	"/>
	<polygon fill="#40B7CD" points="668.71,432.743 650.536,426.018 665.176,413.323 	"/>
	<polygon fill="#83CDE6" points="662.611,420.616 668.71,432.743 650.536,426.018 	"/>
	<polygon fill="#D5CB0C" points="665.176,413.323 650.536,426.018 668.71,432.743 	"/>
	<polygon fill="#40B7CD" points="668.71,432.743 650.536,426.018 665.176,413.323 	"/>
	<polygon fill="#64B669" points="660.837,476.351 655.844,459.268 674.02,465.985 	"/>
	<polygon fill="#BDB7B0" points="659.385,478.687 655.844,459.268 674.02,465.985 	"/>
	<polygon fill="#828F5A" points="674.02,465.985 659.385,478.687 655.844,459.268 	"/>
	<polygon fill="#B3DBCE" points="790.949,467.403 778.711,456.093 776.259,475.316 	"/>
	<polygon fill="#64B669" points="794.381,467.493 778.711,456.093 776.259,475.316 	"/>
	<polygon fill="#E95465" points="778.711,456.093 794.381,467.493 776.259,475.316 	"/>
	<polygon fill="#73A6B8" points="647.528,334.89 646.679,345.769 638.601,327.759 	"/>
	<polygon fill="#B3DBCE" points="657.855,329.939 638.601,327.759 647.528,334.89 	"/>
	<polygon fill="#418ECC" points="646.679,345.769 647.528,334.89 657.855,329.939 	"/>
	<polygon fill="#83CDE6" points="662.611,420.616 668.71,432.743 650.536,426.018 	"/>
	<polygon fill="#D5CB0C" points="665.176,413.323 650.536,426.018 662.611,420.616 	"/>
	<polygon fill="#40B7CD" points="668.71,432.743 662.611,420.616 665.176,413.323 	"/>
	<polygon fill="#83CDE6" points="532.084,296.591 545.106,292.763 535.238,309.439 	"/>
	<polygon fill="#D5CB0C" points="525.369,292.763 535.238,309.439 532.084,296.591 	"/>
	<polygon fill="#40B7CD" points="545.106,292.763 532.084,296.591 525.369,292.763 	"/>
	<polygon fill="#FFDF06" points="456.947,464.424 458.538,447.755 468.406,464.432 	"/>
	<polygon fill="#D5CB0C" points="448.669,464.432 458.538,447.755 464,464.419 	"/>
	<polygon fill="#DDE277" points="492.448,329.939 503.648,317.511 501.445,336.763 	"/>
	<polygon fill="#9AC235" points="485.712,324.845 503.648,317.511 497.94,334.093 	"/>
	<polygon fill="#FFDF06" points="604.756,305.759 585.018,305.759 594.887,322.435 	"/>
	<polygon fill="#9AC235" points="604.756,305.759 585.018,305.759 600.166,313.515 	"/>
	<polygon fill="#FFDF06" points="454.309,280.429 462.679,296.591 470.074,278.679 	"/>
	<polygon fill="#EF8278" points="450.814,280.816 462.679,296.591 459.771,279.824 	"/>
	<polygon fill="#DF6543" points="556.633,467.532 555.496,450.135 542.835,465.276 	"/>
	<polygon fill="#69857F" points="561.958,468.403 551.307,466.661 555.496,450.135 	"/>
	<polygon fill="#9C9EA3" points="720.886,360.681 711.381,343.794 701.509,360.886 	"/>
	<polygon fill="#BEB8B1" points="720.886,360.681 710.094,360.796 711.381,343.794 	"/>
	<polygon fill="#283480" points="720.886,418.725 735.534,408.618 734.868,427.985 	"/>
	<polygon fill="#997EB7" points="718.213,418.081 735.534,408.618 720.886,418.725 	"/>
	<polygon fill="#C74A94" points="734.868,427.985 718.213,418.081 720.886,418.725 	"/>
	<polygon fill="#64B669" points="660.837,476.351 655.844,459.268 674.02,465.985 	"/>
	<polygon fill="#BDB7B0" points="659.385,478.687 655.844,459.268 660.837,476.351 	"/>
	<polygon fill="#828F5A" points="674.02,465.985 659.385,478.687 660.837,476.351 	"/>
	<polygon fill="#DCDEED" points="462.265,414.475 455.511,399.243 445.642,415.918 	"/>
	<polygon fill="#B3B2A5" points="465.379,415.918 462.265,414.475 445.642,415.918 	"/>
	<polygon fill="#B2DACD" points="455.511,399.243 465.379,415.918 462.265,414.475 	"/>
	<polygon fill="#006453" points="593.493,425.864 577.318,421.858 584.44,439.879 	"/>
	<polygon fill="#828F59" points="596.543,424.288 593.493,425.864 584.44,439.879 	"/>
	<polygon fill="#FDDD04" points="577.318,421.858 596.543,424.288 593.493,425.864 	"/>
	<polygon fill="#DCDEED" points="592.47,378.762 572.528,378.762 582.398,362.085 	"/>
	<polygon fill="#9AC234" points="581.392,375.184 572.528,378.762 592.47,378.762 	"/>
	<polygon fill="#FCE7E8" points="572.528,378.762 582.398,362.085 581.392,375.184 	"/>
	<polygon fill="#41B6CD" points="783.17,410.116 778.028,399.672 788.133,391.278 	"/>
	<polygon fill="#83CDE6" points="778.028,399.672 769.29,395.8 783.17,410.116 	"/>
	<polygon fill="#9C9FA4" points="769.29,395.8 788.133,391.278 778.028,399.672 	"/>
	<polygon fill="#3E2051" points="499.433,442.7 490.925,444.661 500.794,427.985 	"/>
	<polygon fill="#3776B5" points="499.433,442.7 510.663,444.661 490.925,444.661 	"/>
	<polygon fill="#E95465" points="510.663,444.661 500.794,427.985 499.433,442.7 	"/>
	<polygon fill="#3E2051" points="447.57,349.961 454.187,355.659 434.902,357.571 	"/>
	<polygon fill="#997EB7" points="447.57,349.961 442.505,339.747 454.187,355.659 	"/>
	<polygon fill="#283480" points="442.505,339.747 434.902,357.571 447.57,349.961 	"/>
	<polygon fill="#FCC531" points="670.328,376.403 675.992,385.728 658.915,375.829 	"/>
	<polygon fill="#C2C73E" points="675.817,366.352 658.915,375.829 670.328,376.403 	"/>
	<polygon fill="#FFE862" points="675.992,385.728 670.328,376.403 675.817,366.352 	"/>
	<polygon fill="#EF8278" points="655.484,271.314 663.761,278.423 644.457,274.306 	"/>
	<polygon fill="#B3DBCE" points="657.587,260.056 644.457,274.306 655.484,271.314 	"/>
	<polygon fill="#418ECC" points="663.761,278.423 655.484,271.314 657.587,260.056 	"/>
	<polygon fill="#83CDE6" points="481.809,379.786 491.707,389.073 472.33,389.016 	"/>
	<polygon fill="#D5CB0C" points="481.706,372.057 472.33,389.016 481.809,379.786 	"/>
	<polygon fill="#40B7CD" points="491.707,389.073 481.809,379.786 481.706,372.057 	"/>
	<polygon fill="#83CDE6" points="735.689,319.285 746.657,311.287 742.993,330.314 	"/>
	<polygon fill="#D5CB0C" points="728.076,317.945 742.993,330.314 735.689,319.285 	"/>
	<polygon fill="#40B7CD" points="746.657,311.287 735.689,319.285 728.076,317.945 	"/>
	<polygon fill="#99BED9" points="405.984,309.472 409.632,290.441 424.56,302.796 	"/>
	<polygon fill="#3977B4" points="405.984,309.472 409.632,290.441 420.407,304.277 	"/>
	<polygon fill="#FFDF06" points="737.323,463.936 737.323,447.54 747.942,463.749 	"/>
	<polygon fill="#EEDDA9" points="728.226,464.649 737.323,447.54 743.54,463.936 	"/>
	<polygon fill="#FFDF06" points="747.942,250.472 729.659,257.91 745.085,269.638 	"/>
	<polygon fill="#EF8278" points="747.942,250.472 729.659,257.91 746.613,259.386 	"/>
	<polygon fill="#FFDF06" points="536.162,382.933 552.625,389.428 544.928,371.645 	"/>
	<polygon fill="#EF8278" points="533.044,386.95 552.625,389.428 538.57,379.833 	"/>
	<polygon fill="#E5358B" points="509.11,404.995 497.722,391.327 494.94,410.868 	"/>
	<polygon fill="#EF8277" points="512.841,403.448 502.87,407.581 497.722,391.327 	"/>
	<polygon fill="#9C9EA3" points="627.815,250.109 612.523,238.207 610.023,257.785 	"/>
	<polygon fill="#68847E" points="627.815,250.109 617.905,254.384 612.523,238.207 	"/>
	<polygon fill="#41B6CD" points="560.112,340.119 570.247,325.488 576.464,343.841 	"/>
	<polygon fill="#DCDEED" points="557.384,340.46 570.247,325.488 560.112,340.119 	"/>
	<polygon fill="#3E2051" points="576.464,343.841 557.384,340.46 560.112,340.119 	"/>
	<polygon fill="#FCC531" points="785.845,338.205 775.635,323.626 795.005,324.158 	"/>
	<polygon fill="#EEDDAA" points="785.219,340.88 775.635,323.626 785.845,338.205 	"/>
	<polygon fill="#EF8278" points="795.005,324.158 785.219,340.88 785.845,338.205 	"/>
	<polygon fill="#B3DBCE" points="790.949,467.403 778.711,456.093 776.259,475.316 	"/>
	<polygon fill="#64B669" points="794.381,467.493 790.949,467.403 776.259,475.316 	"/>
	<polygon fill="#E95465" points="778.711,456.093 794.381,467.493 790.949,467.403 	"/>
	<polygon fill="#C84B94" points="695.807,249.05 687.14,247.996 702.102,235.681 	"/>
	<polygon fill="#DCDEED" points="695.807,249.05 705.695,254.722 687.14,247.996 	"/>
	<polygon fill="#997EB7" points="705.695,254.722 702.102,235.681 695.807,249.05 	"/>
	<polygon fill="#3E2051" points="787.909,261.763 795.364,265.507 779.061,275.98 	"/>
	<polygon fill="#DCDEED" points="786.883,263.441 777.727,256.648 795.364,265.507 	"/>
	<polygon fill="#69857F" points="777.727,256.648 779.061,275.98 786.883,263.441 	"/>
</g>
</svg>
