<?xml version="1.0" encoding="UTF-8" standalone="no"?><!DOCTYPE svg PUBLIC "-//W3C//DTD SVG 1.1//EN" "http://www.w3.org/Graphics/SVG/1.1/DTD/svg11.dtd"><svg width="100%" height="100%" viewBox="0 0 400 250" version="1.1" xmlns="http://www.w3.org/2000/svg" xmlns:xlink="http://www.w3.org/1999/xlink" xml:space="preserve" style="fill-rule:evenodd;clip-rule:evenodd;stroke-linejoin:round;stroke-miterlimit:1.41421;"><g id="__x30_2"><path d="M278.313,70.741l2.703,9.193l-9.36,-2.054l6.657,-7.139Z" style="fill:#fec72e;fill-rule:nonzero;"/><path d="M283.193,62.493l-6.657,7.139l-4.88,8.248l6.657,-7.139l4.88,-8.248Z" style="fill:#ffe761;fill-rule:nonzero;"/><path d="M283.193,62.493l2.703,9.194l-4.88,8.247l-2.703,-9.193l4.88,-8.248Z" style="fill:#ffe000;fill-rule:nonzero;"/></g><g id="__x30_4"><path d="M218.832,29.527l5.273,8.002l-9.552,0.771l4.279,-8.773Z" style="fill:#009139;fill-rule:nonzero;"/><path d="M223.713,21.28l-4.881,8.247l5.273,8.002l4.881,-8.247l-5.273,-8.002Z" style="fill:#7bd057;fill-rule:nonzero;"/></g><g id="__x30_6"><path d="M21.829,81.761l-1.27,9.499l-7.715,-5.684l8.985,-3.815Z" style="fill:#421152;fill-rule:nonzero;"/><path d="M26.71,73.514l-8.985,3.814l-4.881,8.248l8.985,-3.815l4.881,-8.247Z" style="fill:#9d7eba;fill-rule:nonzero;"/><path d="M25.44,83.012l-4.881,8.248l1.27,-9.499l4.881,-8.247l-1.27,9.498Z" style="fill:#dee0ef;fill-rule:nonzero;"/></g><g id="__x31_5"><path d="M191.01,120.994l2.703,9.194l-9.36,-2.055l6.657,-7.139Z" style="fill:#f08378;fill-rule:nonzero;"/><path d="M195.891,112.747l-6.658,7.138l-4.88,8.248l6.657,-7.139l4.881,-8.247Z" style="fill:#9b7eb8;fill-rule:nonzero;"/><path d="M195.891,112.747l2.703,9.193l-4.881,8.248l-2.703,-9.194l4.881,-8.247Z" style="fill:#fce7e8;fill-rule:nonzero;"/><path d="M99.284,104.237l4.408,8.51l-9.58,-0.232l5.172,-8.278Z" style="fill:#dddfee;fill-rule:nonzero;"/><path d="M104.165,95.99l-4.881,8.247l4.408,8.51l4.88,-8.248l-4.407,-8.509Z" style="fill:#2a3284;fill-rule:nonzero;"/><path d="M98.992,104.268l-4.88,8.247l5.172,-8.278l4.881,-8.247l-5.173,8.278Z" style="fill:#9b7eb8;fill-rule:nonzero;"/><path d="M59.633,57.116l8.924,-3.495l-1.232,9.504l-7.692,-6.009Z" style="fill:#9bbfda;fill-rule:nonzero;"/><path d="M73.438,45.374l-4.881,8.247l-1.232,9.504l4.881,-8.247l1.231,-9.504Z" style="fill:#ffe005;fill-rule:nonzero;"/><path d="M64.514,48.868l-4.881,8.248l8.924,-3.495l4.881,-8.247l-8.924,3.494Z" style="fill:#fdc730;fill-rule:nonzero;"/></g><g id="__x31_6"><path d="M166.763,11.049l0.231,9.58l-8.509,-4.408l8.278,-5.172Z" style="fill:#efdeab;fill-rule:nonzero;"/><path d="M171.644,2.802l-8.278,5.172l-4.881,8.247l8.278,-5.172l4.881,-8.247Z" style="fill:#f08378;fill-rule:nonzero;"/><path d="M166.994,20.629l4.881,-8.247l-0.231,-9.58l-4.881,8.247l0.231,9.58Z" style="fill:#41b7ce;fill-rule:nonzero;"/><path d="M179.784,223.543l-1.27,9.498l-7.715,-5.684l8.985,-3.814Z" style="fill:#81bd59;fill-rule:nonzero;"/><path d="M184.665,215.295l-8.986,3.814l-4.88,8.248l8.985,-3.814l4.881,-8.248Z" style="fill:#293284;fill-rule:nonzero;"/><path d="M183.395,224.794l-4.881,8.247l1.27,-9.498l4.881,-8.248l-1.27,9.499Z" style="fill:#fdc730;fill-rule:nonzero;"/><path d="M340.173,20.866l4.407,8.509l-9.58,-0.231l5.173,-8.278Z" style="fill:#3975b3;fill-rule:nonzero;"/><path d="M345.053,12.618l-4.88,8.248l4.407,8.509l4.881,-8.247l-4.408,-8.51Z" style="fill:#3991db;fill-rule:nonzero;"/><path d="M339.881,20.897l-4.881,8.247l5.173,-8.278l4.88,-8.248l-5.172,8.279Z" style="fill:#f8fbf4;fill-rule:nonzero;"/><path d="M322.995,165.412l5.273,8.002l-9.552,0.772l4.279,-8.774Z" style="fill:#68867f;fill-rule:nonzero;"/><path d="M327.876,157.165l-4.881,8.247l5.273,8.002l4.881,-8.247l-5.273,-8.002Z" style="fill:#7bd057;fill-rule:nonzero;"/><path d="M265.2,136.205l0.232,9.58l-8.51,-4.408l8.278,-5.172Z" style="fill:#9b7eb8;fill-rule:nonzero;"/><path d="M270.081,127.958l-8.278,5.173l-4.88,8.246l8.277,-5.172l4.881,-8.247Z" style="fill:#dddfee;fill-rule:nonzero;"/><path d="M265.432,145.785l4.88,-8.247l-0.231,-9.58l-4.881,8.247l0.232,9.58Z" style="fill:#fce7e8;fill-rule:nonzero;"/><path d="M130.246,180.255l9.323,-2.218l-2.542,9.239l-6.781,-7.021Z" style="fill:#67ebff;fill-rule:nonzero;"/><path d="M144.45,169.789l-4.881,8.248l-2.542,9.239l4.881,-8.247l2.542,-9.24Z" style="fill:#83905a;fill-rule:nonzero;"/><path d="M135.127,172.008l-4.881,8.247l9.323,-2.218l4.881,-8.248l-9.323,2.218Z" style="fill:#eda;fill-rule:nonzero;"/><path d="M346.798,231.685l-1.27,9.498l-7.716,-5.684l8.986,-3.814Z" style="fill:#ea5465;fill-rule:nonzero;"/><path d="M351.678,223.438l-8.985,3.813l-4.88,8.248l8.985,-3.814l4.88,-8.248Z" style="fill:#83905a;fill-rule:nonzero;"/><path d="M350.408,232.936l-4.88,8.247l1.269,-9.498l4.881,-8.248l-1.27,9.499Z" style="fill:#dfe376;fill-rule:nonzero;"/><path d="M263.032,215.982l9.575,-0.399l-4.259,8.585l-5.316,-8.186Z" style="fill:#84cee7;fill-rule:nonzero;"/><path d="M267.913,207.734l-4.881,8.248l9.575,-0.399l4.881,-8.247l-9.575,0.398Z" style="fill:#72a7b9;fill-rule:nonzero;"/><path d="M273.229,215.921l-4.881,8.247l4.259,-8.585l4.881,-8.247l-4.259,8.585Z" style="fill:#b4dccf;fill-rule:nonzero;"/><path d="M374.633,121.803l8.924,-3.494l-1.232,9.504l-7.692,-6.01Z" style="fill:#9bbfda;fill-rule:nonzero;"/><path d="M388.438,110.062l-4.881,8.247l-1.232,9.504l4.881,-8.248l1.231,-9.503Z" style="fill:#ffe005;fill-rule:nonzero;"/><path d="M379.514,113.556l-4.881,8.247l8.924,-3.494l4.88,-8.247l-8.923,3.494Z" style="fill:#fdc730;fill-rule:nonzero;"/><path d="M23.663,175.435l7.791,5.58l-8.642,4.144l0.851,-9.724Z" style="fill:#f95464;fill-rule:nonzero;"/><path d="M28.544,167.188l-4.881,8.247l7.791,5.58l4.88,-8.247l-7.79,-5.581Z" style="fill:#dddfee;fill-rule:nonzero;"/><path d="M381.392,12.31l7.79,5.581l-8.641,4.143l0.851,-9.724Z" style="fill:#dfe376;fill-rule:nonzero;"/><path d="M386.272,4.063l-4.88,8.247l7.79,5.581l4.88,-8.248l-7.79,-5.58Z" style="fill:#9ac336;fill-rule:nonzero;"/><path d="M37.744,241.813l9.575,-0.398l-4.259,8.585l-5.316,-8.187Z" style="fill:#84cee7;fill-rule:nonzero;"/><path d="M42.624,233.566l-4.88,8.247l9.575,-0.398l4.88,-8.247l-9.575,0.398Z" style="fill:#3875b4;fill-rule:nonzero;"/><path d="M47.941,241.753l-4.881,8.247l4.259,-8.585l4.88,-8.247l-4.258,8.585Z" style="fill:#b4dccf;fill-rule:nonzero;"/><path d="M8.75,21.825l6.848,-6.703l2.58,9.23l-9.428,-2.527Z" style="fill:#81bd59;fill-rule:nonzero;"/><path d="M15.598,15.122l4.881,-8.247l2.58,9.229l-4.881,8.248l-2.58,-9.23Z" style="fill:#9abfda;fill-rule:nonzero;"/><path d="M13.63,13.578l6.849,-6.703l-4.881,8.247l-6.848,6.703l4.88,-8.247Z" style="fill:#efdeab;fill-rule:nonzero;"/></g></svg>