<?xml version="1.0" encoding="utf-8"?>
<!-- Generator: Adobe Illustrator 16.0.0, SVG Export Plug-In . SVG Version: 6.00 Build 0)  -->
<!DOCTYPE svg PUBLIC "-//W3C//DTD SVG 1.1//EN" "http://www.w3.org/Graphics/SVG/1.1/DTD/svg11.dtd">
<svg version="1.1" id="Ebene_4_Kopie_xA0_Bild_1_" xmlns="http://www.w3.org/2000/svg" xmlns:xlink="http://www.w3.org/1999/xlink"
	 x="0px" y="0px" width="153.84px" height="190.32px" viewBox="0 0 153.84 190.32" enable-background="new 0 0 153.84 190.32"
	 xml:space="preserve">
<g>
	<g>
		<path fill-rule="evenodd" clip-rule="evenodd" d="M1.107,112.496c1.497-0.68,3.273-0.736,4.994-0.509
			c1.688,0.222,3.454,0.415,4.911,1.715c0.583-1.699,1.898-2.031,3.3-2.278c0.309-0.055,0.605-0.349,0.845-0.594
			c1.016-1.041,2.263-1.268,3.679-1.129c0.367-0.317,0.772-0.674,1.184-1.022c1.193-1.01,2.733-0.95,4.134-1.26
			c0.835-0.186,1.732,0.059,2.394,0.76c0.156,0.165,0.366,0.277,0.582,0.437c0.904-0.935,1.553-2.079,3.101-1.986
			c1.352,0.081,2.214,0.872,3.086,1.837c0.856-0.873,1.77-1.355,2.83-1.638c1.02-0.271,1.992-0.723,3.028-1.112
			c-0.009-1.183-0.574-2.112-1.529-2.768c-1.199-0.823-2.5-1.5-3.678-2.35c-1.313-0.948-2.706-1.874-3.753-3.079
			c-1.017-1.17-1.69-2.652-2.042-4.227c-0.516-2.305,0.277-4.164,2.073-5.744c1.182-1.039,2.54-1.573,3.931-2.128
			c0.213-0.085,0.479-0.155,0.693-0.108c1.652,0.354,3.365,0.539,4.688,1.79c0.563,0.533,1.389,0.825,1.491,1.747
			c0.098,0.894,0.419,1.84,0.229,2.668c-0.212,0.928-0.88,1.766-1.744,2.318c-0.595,0.381-1.23,0.695-1.885,1.061
			c-0.153,0.549,0.111,1.011,0.501,1.346c0.717,0.616,1.429,1.296,2.261,1.714c2.723,1.365,5.5,2.622,8.252,3.93
			c0.283,0.135,0.576,0.286,0.804,0.496c0.874,0.808,1.842,1.553,2.546,2.493c0.697,0.932,1.141,2.059,1.651,3.121
			c0.421,0.874,0.55,1.814,0.483,2.785c-0.028,0.427-0.004,0.857-0.004,1.449c0.961-0.429,1.734-0.772,2.558-1.14
			c-0.103-0.849,0.446-1.223,1.095-1.518c0.9-0.408,1.803-0.814,2.702-1.224c0.976-0.443,1.313-0.376,2.137,0.496
			c0.485-0.261,0.995-0.535,1.499-0.806c0-1.321,0-2.553,0-3.873c-1.586-0.707-3.187-1.377-4.748-2.128
			c-1.959-0.943-3.895-1.936-5.822-2.941c-1.041-0.543-2.084-1.102-3.06-1.753c-1.804-1.202-3.716-2.279-5.122-3.999
			c-0.151-0.184-0.309-0.404-0.514-0.496c-1.094-0.496-1.277-1.552-1.549-2.524c-0.593-2.12-1.133-4.254-1.736-6.54
			c-0.224-0.03-0.565-0.121-0.903-0.114c-2.106,0.048-3.82-0.849-5.35-2.191c-0.174-0.152-0.329-0.349-0.436-0.554
			c-0.98-1.881-2.182-3.658-2.659-5.775c-0.138-0.611-0.444-1.187-0.571-1.799c-0.241-1.156-0.483-2.32-0.589-3.494
			c-0.199-2.206,0.787-4.034,1.892-5.867c0.905-1.501,2.396-1.874,3.818-2.386c0.59-0.213,1.32-0.036,2.139-0.036
			c0.014-0.294,0.051-0.715,0.051-1.136c0.005-3.159-0.046-6.319,0.023-9.477c0.036-1.617,0.288-3.229,0.433-4.843
			c0.029-0.318,0.032-0.64,0.023-0.959c-0.03-1.077,0.072-2.123,0.378-3.174c0.24-0.824,0.221-1.722,0.343-2.583
			c0.154-1.095,0.216-2.222,0.534-3.269c0.386-1.271,0.012-2.43-0.221-3.618c-0.33-1.689-1.156-3.099-2.517-4.188
			c-0.475-0.38-0.903-0.827-0.56-1.573c0.723-0.736,1.715-0.596,2.569-0.449c1.653,0.284,3.344,0.513,4.689,1.762
			c0.482,0.447,1.25,0.661,1.925,0.805c0.691,0.147,1.134-0.26,1.251-0.952c0.352-2.088-0.584-3.607-2.431-4.277
			c-0.52-0.188-1.039-0.388-1.535-0.63c-1.129-0.554-2.281-0.294-3.38-0.017c-1.59,0.402-2.986,1.192-3.983,2.566
			c-0.21,0.289-0.478,0.536-0.813,0.906c-0.086,0.745-0.177,1.606-0.288,2.464c-0.102,0.792,0.272,1.659-0.305,2.383
			c-0.763-0.025-1.103-0.46-1.393-1.026c-0.586-1.144-0.812-2.358-1.03-3.618c-0.286-1.653-0.204-3.226,0.261-4.809
			c0.022-0.075,0.667-2.548,1.521-3.542c1.609-1.872,3.771-2.855,5.841-4.006c0.27-0.15,0.6-0.253,0.907-0.267
			c2.226-0.102,4.462-0.341,6.676-0.213c2.306,0.133,4.475,0.935,6.38,2.323c0.281,0.205,0.605,0.35,0.973,0.559
			c0.833-1.167,1.624-2.289,2.429-3.4c0.995-1.375,1.975-2.764,3.011-4.108c2.088-2.707,4.725-4.768,7.639-6.527
			c1.299-0.785,2.598-1.456,4.113-1.722c0.422-0.074,3.412-0.124,3.688,0.408c0.305,0.625-0.186,1.078-0.527,1.324
			c-1.333,0.965-2.112,2.351-3.015,3.649c-0.406,0.585-0.853,1.143-1.236,1.741c-0.242,0.378-0.403,0.808-0.601,1.214
			c0.064,0.061,0.129,0.121,0.192,0.182c0.815-0.425,1.696-0.761,2.434-1.295c1.305-0.946,2.81-1.433,4.255-2.058
			c0.757-0.328,1.533-0.669,2.336-0.82c1.511-0.284,3.043-0.565,4.572-0.601c1.289-0.03,2.588,0.271,3.878,0.459
			c0.903,0.132,1.31,0.874,1.663,1.575c0.243,0.481-0.158,0.83-0.562,1.048c-0.759,0.408-1.532,0.788-2.304,1.171
			c-2.387,1.184-4.509,2.775-6.652,4.332c-0.084,0.062-0.112,0.201-0.229,0.42c0.302-0.044,0.512-0.068,0.72-0.106
			c2.094-0.388,4.131-1.048,6.305-1.049c1.335,0,2.667-0.3,4.005-0.428c1.787-0.172,3.489,0.041,4.936,1.252
			c0.016,0.033,0.045,0.068,0.048,0.105c0.107,1.551-0.231,2.081-1.768,2.234c-1.541,0.153-2.9,0.73-4.247,1.404
			c-0.911,0.457-1.819,0.917-2.984,1.505c0.496,0.1,0.706,0.195,0.903,0.174c1.296-0.14,2.606-0.22,3.879-0.482
			c1.628-0.336,3.262-0.1,4.885-0.227c1.62-0.126,2.915,0.646,4.224,1.39c0.612,0.349,1.161,0.808,1.748,1.223
			c-0.034,0.367-0.065,0.708-0.108,1.182c1.174,0.263,2.327,0.494,3.466,0.787c0.562,0.145,1.117,0.358,1.634,0.621
			c1.125,0.57,2.221,1.197,3.332,1.792c0.68,0.364,0.763,0.637,0.393,1.69c-0.74,0-1.573,0.165-2.309-0.034
			c-1.594-0.431-3.045-0.106-4.649,0.503c0.214,0.188,0.337,0.374,0.501,0.422c0.222,0.067,0.476,0.037,0.715,0.034
			c2.694-0.036,5.231,0.706,7.742,1.571c0.896,0.309,1.77,0.684,2.672,0.974c1.531,0.493,2.796,1.463,4.16,2.255
			c0.581,0.337,1.167,0.668,1.72,1.047c0.308,0.211,0.553,0.515,0.808,0.758c-0.627,0.968-0.703,1.007-1.56,0.751
			c-1.558-0.467-3.106-0.958-4.771-0.835c-0.784,0.058-1.145,0.15-2.021,0.729c2.045,0.671,4.197,0.771,6.11,1.703
			c1.912,0.933,3.831,1.853,5.754,2.781c0.017,0.271,0.049,0.468,0.032,0.661c-0.013,0.149-0.086,0.294-0.178,0.585
			c-0.381-0.041-0.764-0.029-1.115-0.129c-0.913-0.259-1.831-0.52-2.712-0.868c-0.711-0.282-1.375-0.125-2.299-0.152
			c1.097,0.819,1.969,1.473,2.843,2.124c0.739,0.55,0.791,0.814,0.291,1.928c-0.998-0.081-2.038-0.166-3.079-0.25
			c-0.021,0.087-0.043,0.173-0.064,0.26c0.322,0.124,0.637,0.315,0.97,0.359c1.402,0.188,2.452,1.098,3.58,1.792
			c1.03,0.636,1.906,1.526,2.835,2.321c0.581,0.498,0.513,0.805-0.136,1.361c-1.576-0.027-3.05-0.292-4.416-0.019
			c-2.101,0.419-4.237,0.891-5.904,2.499c-1.25,1.205-2.107,2.489-2.148,4.297c-0.026,1.137-0.295,2.27-0.468,3.401
			c-0.227,1.482-0.468,2.961-0.698,4.443c-0.174,1.119-0.34,2.238-0.515,3.39c1.471-0.204,2.415,0.797,3.266,1.809
			c1.303,1.55,1.58,3.514,1.764,5.434c0.1,1.042-0.156,2.124-0.299,3.182c-0.153,1.148-0.624,2.195-1.104,3.239
			c-0.229,0.497-0.272,1.101-0.569,1.542c-0.526,0.783-1.158,1.504-1.79,2.211c-1.375,1.539-3.098,2.357-5.176,2.42
			c-0.539,0.018-1.075,0.111-1.797,0.189c-0.077,0.33-0.185,0.787-0.318,1.352c0.459-0.086,0.762-0.069,0.983-0.195
			c1.14-0.65,2.301-0.328,3.476-0.164c1.837,0.257,2.987,1.411,4.016,2.828c1.253,1.727,1.929,3.643,1.866,5.746
			c-0.039,1.315-0.259,2.595-0.905,3.865c-0.691,1.358-1.655,2.292-2.882,3.006c-0.689,0.401-1.523,0.556-2.39,0.854
			c1.226,0.784,2.382,1.524,3.558,2.278c0.675-0.443,1.395-0.915,2.222-1.458c0.604,0.527,1.192,0.988,1.717,1.514
			c0.514,0.516,0.988,0.626,1.701,0.335c1.084-0.442,2.224-0.529,3.324,0.066c0.165,0.09,0.388,0.144,0.571,0.119
			c1.53-0.21,2.746,0.565,4.012,1.224c0.8,0.416,1.609,0.88,2.471,1.097c0.967,0.242,1.779,0.64,2.467,1.338
			c0.078,0.08,0.199,0.116,0.288,0.166c0.836-0.556,1.659-1.087,2.466-1.641c1.098-0.756,2.389-0.854,3.632-0.94
			c1.711-0.118,3.437-0.029,5.256-0.029c0.179,0.427,0.452,0.841,0.518,1.286c0.183,1.249,0.682,2.443,0.588,3.746
			c-0.039,0.539,0.243,1.102,0.2,1.639c-0.178,2.206-0.272,4.426-0.745,6.596c-0.099,0.45-0.395,0.863-0.634,1.273
			c-0.258,0.442-0.511,0.903-0.849,1.284c-0.846,0.955-1.118,1.966-0.51,3.147c0.086,0.168,0.096,0.383,0.111,0.578
			c0.086,1.106,0.178,2.213,0.233,3.321c0.02,0.388-0.062,0.78-0.102,1.237c2.777,3.261,2.853,7.111,2.135,11.094
			c2.877,2.232,4.014,5.144,3.365,8.81c1.433,0.473,3.018-0.279,4.462,0.521c-0.031,0.415-0.061,0.794-0.092,1.209
			c-0.325,0.06-0.552,0.133-0.779,0.136c-5.547,0.087-11.094,0.178-16.641,0.235c-0.866,0.009-1.733-0.152-2.603-0.206
			c-0.518-0.032-1.04-0.033-1.559-0.003c-0.948,0.056-1.895,0.208-2.842,0.21c-8.16,0.018-16.319,0.006-24.479,0.02
			c-0.627,0.001-1.254,0.146-1.884,0.195c-0.437,0.034-0.896,0.105-1.314,0.013c-2.059-0.453-4.143-0.229-6.202-0.156
			c-0.876,0.031-1.733,0.691-2.592,1.082c-2.55,1.161-5.175,2.089-8.022,1.705c-2.332-0.314-4.538-1.076-6.388-2.635
			c-0.111-0.094-0.264-0.139-0.463-0.239c-0.588,1.098-0.767,2.423-1.994,2.982c-0.765,2.004-0.817,4.095-0.579,6.137
			c0.234,2.016,0.465,4.028,1.189,6.013c0.7,1.919,1.522,3.658,2.74,5.289c1.236,1.657,2.365,3.383,4.134,4.577
			c0.071,1.128,0.177,2.23-0.467,3.252c-0.464,0.739-0.511,1.579-0.442,2.422c0.046,0.572,0.258,1.158,0.177,1.705
			c-0.096,0.644-0.428,1.251-0.576,1.656c-1.185,0.922-2.358,0.794-3.508,0.793c-2.36-0.001-4.721-0.025-7.08,0.012
			c-1.028,0.016-2.054,0.15-3.079,0.25c-0.549,0.054-1.099,0.127-1.639,0.235c-0.189,0.038-4.684,0.016-4.871-0.046
			c-1.813-0.599-2.549-1.649-2.524-3.774c0.009-0.758,0.044-1.528-0.074-2.27c-0.194-1.216-0.128-1.49,0.87-2.177
			c0.585-0.402,1.12-0.806,1.438-1.52c0.349-0.785,0.928-1.467,1.387-2.205c0.958-1.543,1.945-3.069,2.828-4.655
			c0.247-0.442,0.282-1.083,0.207-1.604c-0.087-0.609-0.343-1.215-0.627-1.771c-0.789-1.545-1.609-3.074-2.457-4.588
			c-1.004-1.792-2.051-3.562-3.08-5.341c-0.152-0.263-0.313-0.521-0.425-0.708c-0.901,0.301-1.71,0.57-2.341,0.781
			c-0.746,0.604-1.379,1.117-2.057,1.666c-1.28-0.636-2.549-1.121-3.66-1.848c-1.889-1.236-2.85-3.247-3.816-5.284
			c-1.104-0.068-2.128-0.125-3.151-0.197c-1.415-0.1-2.823,0.09-4.243,0.024c-3.182-0.147-6.369-0.195-9.554-0.257
			c-1.638-0.032-3.277-0.005-4.917-0.007c-0.279,0-0.567,0.027-0.837-0.026c-2.415-0.478-4.841-0.075-7.269-0.223
			c-0.248,1.106-1.082,1.201-1.866,1.194c-3.063-0.024-6.125-0.106-9.136-0.166c-0.225-0.38-0.383-0.647-0.553-0.934
			c-1.627-0.282-3.205-0.664-4.268-2.08c-0.023-0.031-0.058-0.061-0.093-0.073c-0.555-0.204-0.695-0.694-0.884-1.187
			c-0.172-0.446-0.794-2.912-0.794-3.765c0-0.748,0.639-2.999,0.796-3.448c0.303-0.867,0.677-1.685,1.152-2.437
			c0.522-0.825,1.166-1.572,1.973-2.22c-0.019-0.2-0.011-0.401-0.061-0.587c-0.586-2.188-1.006-4.396-0.886-6.679
			c0.025-0.479,0.014-0.959,0.001-1.438c-0.041-1.543,0.467-2.94,1.136-4.342c-0.115-0.134-0.242-0.285-0.373-0.432
			c-1.382-1.554-2.34-3.335-3.003-5.306c-0.639-1.236-0.505-0.9-0.735-1.755C0.25,117.876,0.242,113.142,1.107,112.496z
			 M40.79,77.742l0.031,0.032c0.024-0.237,0.081-0.476,0.066-0.711c-0.068-1.106-0.152-2.212-0.24-3.317
			c-0.015-0.189-0.08-0.374-0.119-0.549c-1.584-0.334-3.218-0.385-4.452-1.535c-0.573-0.535-1.214-1.123-1.133-1.975
			c0.133-1.408,0.629-2.555,2.237-2.976c0.83-0.217,1.46,0.144,2.175,0.273c0.253,0.046,0.494,0.16,0.838,0.276
			c0.205-1.511-0.676-2.609-0.977-3.976c-0.873,0-1.722-0.117-2.524,0.028c-1.093,0.197-2.041,0.663-2.672,1.743
			c-0.548,0.937-0.815,1.957-1.232,2.928c-0.409,0.953-0.403,1.998-0.163,2.938c0.544,2.135,1.236,4.235,1.935,6.327
			c0.168,0.502,0.599,0.916,0.909,1.37c0.052,0.11,0.104,0.221,0.156,0.33c0.539,2.12,3.653,3.639,5.943,3.026
			c-0.167-1.35-0.33-2.705-0.511-4.059C41.048,77.847,40.882,77.8,40.79,77.742z M107.906,58.579
			c-0.313-1.739-0.605-3.692-1.025-5.617c-0.459-2.105-0.65-4.308-1.969-6.147c-0.41-0.573-0.639-1.395-1.181-1.734
			c-1.769-1.107-3.446-2.358-5.369-3.235c-4.211-1.92-8.469-3.662-13.025-4.612c-2.373-0.495-4.73-0.953-7.173-0.869
			c-0.943,0.032-1.894-0.135-2.841-0.203c-0.238-0.017-0.482-0.025-0.717,0.007c-2.148,0.291-4.293,0.616-6.446,0.859
			c-0.318,0.036-0.765-0.233-0.999-0.496c-0.277-0.311-0.047-0.679,0.248-0.931c0.209-0.179,0.422-0.369,0.665-0.49
			c0.983-0.488,1.979-0.947,2.966-1.428c0.244-0.119,0.469-0.279,0.702-0.421c-0.714-0.208-1.354-0.277-1.975-0.194
			c-1.366,0.183-2.717,0.563-4.087,0.641c-2.229,0.126-4.336,0.844-6.525,1.142c-2.132,0.29-4.084,1.207-6.138,1.773
			c-0.942,0.26-1.586,0.862-2.167,1.578c-0.324,0.398-0.625,0.816-0.879,1.151c-1.208,4.414-2.245,8.787-2.867,13.355
			c-0.861,0.63-1.783,1.305-2.746,2.01c-0.739,3.271-2.063,6.484-1.265,10.039c-0.092,0.125-0.185,0.309-0.327,0.437
			c-0.779,0.7-0.938,1.583-0.874,2.581c0.113,1.745,0.161,3.493,0.251,5.239c0.072,1.387,0.162,2.773,0.253,4.159
			c0.01,0.154,0.097,0.302,0.119,0.458c0.199,1.406,0.377,2.816,0.589,4.223c0.251,1.676,0.481,3.357,0.813,5.019
			c0.223,1.114,0.587,2.203,0.924,3.292c0.246,0.795,0.486,1.605,1.374,1.979c0.207,0.086,0.367,0.306,0.524,0.486
			c1.004,1.148,2.244,2.012,3.518,2.817c1.102,0.696,2.246,1.327,3.391,1.952c2.006,1.093,3.984,2.249,6.051,3.216
			c3.111,1.456,6.283,2.789,9.443,4.144c2.654,1.14,5.377,1.431,8.166,0.493c0.3-0.102,0.604-0.194,0.912-0.263
			c3.156-0.695,6.323-1.338,9.384-2.412c2.604-0.915,5.306-1.57,7.724-2.975c0.61-0.354,1.25-0.668,1.897-0.952
			c2.003-0.881,3.804-2.103,5.525-3.417c1.208-0.922,2.089-2.179,2.446-3.689c0.572-2.417,1.068-4.852,1.606-7.275
			c0.35-1.578,0.736-3.149,1.07-4.731c0.27-1.272,0.282-2.643,0.777-3.813c0.63-1.489,0.122-2.783-0.135-4.163
			c-0.108-0.579-0.232-1.193-0.148-1.763c0.24-1.637,0.647-3.249,0.865-4.888c0.203-1.527,0.248-3.075,0.354-4.495
			C108.981,59.751,108.498,59.224,107.906,58.579z M111.275,35.366c1.667-1.945,3.9-2.514,6.352-2.729
			c-0.127-0.157-0.178-0.283-0.265-0.317c-1.835-0.726-3.649-1.517-5.522-2.132c-1.305-0.428-2.68-0.671-4.041-0.885
			c-1.249-0.197-2.521-0.254-3.785-0.348c-0.227-0.017-0.463,0.084-0.693,0.134c-0.92,0.197-1.84,0.396-2.834,0.609
			c-0.21-0.372-0.396-0.703-0.597-1.057c2.056-2.505,4.925-3.164,7.846-3.826c-0.337-0.228-0.674-0.434-1.036-0.499
			c-1.745-0.318-3.488-0.742-5.249-0.852c-1.695-0.105-3.412,0.124-5.118,0.216c-0.153,0.008-0.305,0.081-0.454,0.131
			c-1.233,0.416-2.461,0.85-3.702,1.242c-0.425,0.134-0.905,0.381-1.305-0.133c0-0.334,0-0.684,0-1.073
			c1.414-0.835,2.73-1.865,4.224-2.424c1.471-0.551,3.12-0.626,4.882-0.944c-0.389-0.247-0.649-0.515-0.955-0.584
			c-0.691-0.156-1.406-0.302-2.11-0.293c-1.388,0.017-2.774,0.132-4.161,0.224c-1.027,0.068-2.058,0.127-3.079,0.253
			c-0.938,0.115-1.922,0.171-2.781,0.514c-1.013,0.404-1.926,1.07-2.858,1.66c-0.56,0.354-1.103,0.618-1.735,0.341
			c-0.356-0.703,0.18-1.084,0.472-1.523c0.213-0.32,0.497-0.599,0.775-0.868c1.196-1.154,2.231-2.459,3.825-3.191
			c1.137-0.522,2.219-1.173,3.364-1.707c0.799-0.373,1.549-0.745,2.435-0.844c0.377-0.042,0.735-0.25,1.102-0.383
			c-2.67-0.438-5.282-0.189-7.882,0.095c-1.602,0.175-3.179,0.575-4.771,0.848c-1.149,0.197-2.216,0.578-3.158,1.273
			c-1.209,0.892-2.422,1.779-3.612,2.695c-0.377,0.289-0.723,0.486-1.243,0.206c0-0.321,0-0.667,0-0.976
			c1.256-1.37,2.448-2.753,3.734-4.043c0.779-0.781,1.702-1.418,2.563-2.119c2.335-1.902,4.838-3.545,7.531-4.897
			c0.202-0.101,0.337-0.333,0.72-0.728c-1.143-0.021-1.974,0.012-2.797-0.061c-2.157-0.19-4.252,0.171-6.287,0.794
			c-2.428,0.743-4.701,1.879-6.777,3.338c-1.357,0.955-2.61,2.062-3.875,3.142c-0.488,0.416-0.922,0.597-1.594,0.104
			c0.056-0.324,0.041-0.733,0.199-1.059c0.516-1.058,1.032-2.123,1.662-3.113c1.103-1.731,2.291-3.408,3.439-5.11
			c0.447-0.662,0.886-1.33,1.328-1.995c-1.111,0.072-2.158,0.198-3.04,0.647c-1.403,0.715-2.805,1.516-4.011,2.517
			c-1.677,1.389-3.393,2.769-4.672,4.586c-1.706,2.424-3.471,4.807-5.166,7.238c-0.711,1.019-1.188,1.128-2.221,0.487
			c-1.625-1.009-3.164-2.232-5.189-2.381c-1.226-0.09-2.448-0.24-3.674-0.284c-0.583-0.021-1.182,0.245-1.759,0.2
			c-1.565-0.121-2.99,0.201-4.319,1.031c-0.436,0.271-0.926,0.453-1.378,0.699c-1.292,0.702-2.134,1.9-3.159,2.896
			c-0.099,0.097-0.124,0.286-0.151,0.438c-0.243,1.358-0.49,2.716-0.709,4.079c-0.058,0.365,0.021,0.719,0.562,0.82
			c0.37-0.36,0.774-0.741,1.165-1.134c1.521-1.532,3.063-3.021,5.469-2.869c0.039,0.002,0.083,0.003,0.119-0.01
			c1.116-0.431,2.153-0.125,3.241,0.215c1.357,0.425,2.506,1.133,3.57,2.037c0.981,0.834,1.338,2,1.403,3.173
			c0.049,0.868-0.322,1.76-0.494,2.575c-0.785,0.453-1.467,0.846-2.113,1.218c-1.175-0.345-2.303-0.593-3.153-1.457
			c-0.731-0.744-1.754-0.853-2.673-1.169c-0.29-0.1-0.654,0.018-1.092,0.042c0.432,0.623,0.863,1.065,1.083,1.595
			c0.728,1.746,1.489,3.509,1.286,5.467c-0.134,1.293-0.365,2.578-0.567,3.864c-0.197,1.247-0.457,2.485-0.608,3.738
			c-0.142,1.18-0.181,2.373-0.262,3.56c-0.159,2.334-0.374,4.667-0.455,7.003c-0.078,2.237-0.073,4.481,0.005,6.718
			c0.043,1.257,0.292,2.509,0.486,3.757c0.032,0.202,0.259,0.374,0.543,0.762c0.049-0.472,0.128-0.68,0.08-0.851
			c-0.434-1.501-0.223-2.995,0.045-4.482c0.146-0.814,0.365-1.616,0.55-2.423c0.403-1.763,0.866-3.463,2.763-4.296
			c0.446-0.196,0.708-0.677,0.786-1.259c0.191-1.406,0.433-2.81,0.737-4.196c0.507-2.312,1.065-4.612,1.634-6.909
			c0.142-0.569,0.304-1.182,0.64-1.643c0.602-0.827,1.334-1.561,2.028-2.318c0.185-0.201,0.404-0.417,0.651-0.505
			c1.672-0.596,3.326-1.272,5.039-1.711c3.402-0.872,6.84-1.573,10.345-1.955c1.854-0.202,3.692-0.502,5.565-0.448
			c0.319,0.01,0.67,0.078,0.955-0.024c1.588-0.563,3.153,0.037,4.727,0.058c0.324,0.004,0.645,0.258,0.956,0.392
			c0,0.458,0,0.833,0,1.197c-2.538,0.344-5.655,1.159-6.315,1.713c0.433,0,0.744,0.022,1.051-0.004
			c0.628-0.056,1.256-0.209,1.881-0.194c1.309,0.031,2.615,0.138,3.922,0.227c1.027,0.069,2.074,0.057,3.076,0.258
			c2.435,0.489,4.914,0.797,7.261,1.671c0.889,0.331,1.773,0.673,2.676,0.964c4.125,1.332,7.943,3.293,11.542,5.683
			c0.605,0.402,1.216,0.96,1.539,1.592c0.751,1.466,1.838,2.791,2.059,4.505c0.061,0.467,0.21,0.921,0.315,1.382
			c0.511,2.232,1.186,4.438,1.099,6.808c0.524,0.538,1.098,1.043,1.562,1.635c0.274,0.35,0.54,0.845,0.52,1.26
			c-0.051,1.059-0.347,2.105-0.396,3.164c-0.091,1.987-0.479,3.917-0.914,5.846c-0.068,0.305-0.08,0.639-0.04,0.949
			c0.022,0.178,0.203,0.336,0.385,0.611c0.604-1.711,1.163-3.263,1.696-4.823c0.126-0.37,0.186-0.765,0.243-1.154
			c0.191-1.29,0.356-2.583,0.555-3.872c0.283-1.832,0.722-3.652,0.849-5.494c0.151-2.187,1.181-3.823,2.784-5.124
			c1.026-0.832,2.02-1.773,3.419-2.049c1.076-0.213,2.123-0.576,3.195-0.816c0.523-0.117,1.075-0.107,1.613-0.155
			c0.028-0.118,0.057-0.235,0.084-0.353c-2.308-1.804-4.973-2.671-8.068-2.644c-0.038-0.46-0.068-0.828-0.098-1.181
			c0.759-0.399,1.407-0.769,2.081-1.087c0.672-0.318,1.369-0.584,2.181-0.926c-0.239-0.072-0.397-0.083-0.515-0.16
			c-2.339-1.517-4.89-1.646-7.546-1.206c-0.715,0.119-1.469,0.325-2.211-0.184c0.02-0.332,0.04-0.679,0.062-1.031
			c0.194-0.092,0.329-0.199,0.476-0.219c0.782-0.11,1.567-0.19,2.351-0.296c1.643-0.224,3.284-0.455,4.925-0.692
			c0.148-0.022,0.287-0.11,0.644-0.252c-2.18-0.446-4.067-1.044-6.085-0.914c-0.515,0.033-1.049-0.233-1.595-0.367
			C111.275,35.844,111.275,35.573,111.275,35.366z M99.73,140.288c0.81,0.853,1.566,1.827,2.495,2.594
			c2.015,1.66,4.116,3.214,6.185,4.81c0.437,0.337,0.841,0.747,1.328,0.984c1.809,0.878,3.637,1.716,5.475,2.53
			c0.571,0.253,1.186,0.461,1.8,0.552c0.978,0.146,1.971,0.199,2.959,0.249c1.946,0.1,3.893,0.213,5.84,0.234
			c1.146,0.012,2.295-0.217,3.44-0.201c1.002,0.013,1.608-0.323,2.041-1.254c0.412-0.888,0.891-1.831,1.592-2.476
			c0.918-0.842,2.06-1.456,3.149-2.092c1.188-0.694,2.428-1.302,3.647-1.949c0.063-0.285,0.042-0.616,0.194-0.813
			c0.906-1.177,1.094-2.608,1.48-3.971c0.649-2.286,0.981-4.634,1.269-6.983c0.095-0.766-0.2-1.571-0.188-2.356
			c0.021-1.41-0.312-2.744-0.658-4.088c-0.094-0.363-0.015-0.771-0.015-1.194c1.036-0.242,1.406-1.11,1.927-1.838
			c0.554-0.773,0.648-1.689,0.803-2.575c0.23-1.321,0.458-2.652,0.547-3.988c0.137-2.071-0.469-4.056-0.833-6.152
			c-1.494,0-2.931-0.052-4.36,0.022c-0.735,0.038-1.476,0.249-2.185,0.474c-1.436,0.456-2.47,1.506-3.462,2.41
			c-0.298,2.184-0.733,4.125-3.115,4.619c-0.259,0.416-0.466,0.748-0.648,1.041c-1.683,0.036-2.735-0.26-3.889-1.084
			c-0.446,0.471-0.985,0.875-1.667,0.63c-1.099-0.394-2.352-0.514-3.049-1.639c-0.572,0-1.093-0.031-1.609,0.005
			c-2.197,0.152-3.833-1.151-4.226-3.746c-0.104-0.688-0.358-1.369-0.64-2.011c-0.366-0.831-0.806-1.632-1.259-2.42
			c-0.229-0.399-0.484-0.868-0.856-1.089c-1.494-0.89-3.013-1.747-4.573-2.512c-0.946-0.463-1.965-0.846-3.096-0.646
			c-0.938,1.476-1.534,3.012-1.816,4.739c-0.31,1.901-0.165,3.456,1.754,4.402c0.324,0.16,0.487,0.654,1.078,0.481
			c-0.155-0.435-0.296-0.826-0.398-1.111c0.186-0.725,0.26-1.374,0.518-1.938c0.335-0.731,0.343-1.798,1.407-1.835
			c2.165,0.71,3.661,2.21,5.319,3.551c-0.028,0.387-0.057,0.771-0.083,1.136c-0.617,0.185-1.133,0.208-1.479-0.308
			c-0.59-0.88-1.481-1.404-2.306-2.002c-0.332-0.241-0.759-0.351-1.32-0.598c-0.138,0.639-0.285,1.116-0.332,1.604
			c-0.052,0.547-0.012,1.102-0.012,1.614c-0.374,0.199-0.632,0.337-0.974,0.519c0.235,0.281,0.397,0.491,0.576,0.686
			c0.187,0.203,0.454,0.359,0.574,0.594c0.499,0.979,0.662,2.032,0.531,3.12c-0.198,1.659-1.433,2.805-3.077,2.79
			c-0.804-0.008-1.315,0.299-1.779,0.938c-0.728,1-1.295,2.068-1.771,3.202c-0.396,0.943-0.936,1.833-1.267,2.796
			c-0.48,1.4-0.998,2.835-0.255,4.326c0.068,0.138,0.101,0.302,0.119,0.457c0.138,1.155,0.583,2.261,0.022,3.482
			C100.153,137.995,100.025,139.128,99.73,140.288z M6.936,123.613c0.185,0.407,0.226,0.713-0.124,1.15
			c-1.238,1.553-1.951,3.38-2.082,5.34c-0.197,2.943,0.174,5.814,1.082,8.672c0.645,2.028,1.772,3.697,2.973,5.341
			c0.617,0.846,1.621,1.43,2.707,1.552c1.216,0.137,2.269,0.548,3.218,1.297c0.245,0.192,0.528,0.368,0.823,0.46
			c1.885,0.586,3.797,1.089,5.662,1.73c2.146,0.738,4.363,1.084,6.59,1.404c0.465,0.066,0.976,0.06,1.427-0.06
			c1.525-0.402,3.064-0.773,4.446-1.594c0.612-0.363,1.279-0.633,1.909-0.969c1.217-0.647,2.481-1.204,3.544-2.126
			c1.015-0.879,2.133-1.642,3.142-2.527c1.036-0.91,2.228-1.667,3.044-2.805c1.308-1.824,2.764-3.53,3.938-5.468
			c0.578-0.951,0.586-1.682,0.195-2.523c-0.764-1.639-1.562-3.263-2.414-4.856c-0.632-1.184-1.377-2.306-2.064-3.46
			c-1.342-2.256-2.789-4.415-5.206-5.642c-0.097-0.508-0.061-0.895,0.479-1.103c1.015-0.392,1.456,0.549,2.19,0.956
			c0.142-0.219,0.342-0.395,0.369-0.594c0.118-0.862,0.212-1.729,0.267-2.599c0.133-2.12-0.178-4.2-0.755-6.228
			c-0.207-0.724-0.695-1.367-1.053-2.044c-2.975,0.771-5.991,1.113-7.979,3.612c0.125,2.189-0.827,3.792-2.205,5.28
			c-1.583,1.709-3.54,1.468-5.467,1.405c-0.255-0.43-0.458-0.772-0.639-1.076c-0.893,0.799-1.66,1.527-2.471,2.201
			c-0.961,0.8-1.77,0.83-2.837,0.168c-0.255-0.158-0.485-0.356-0.75-0.555c-0.776,0.558-1.141,1.644-2.33,1.479
			c-0.964-0.134-1.951-0.143-2.213-1.453c-0.62,0.43-1.168,0.811-1.709,1.186c-0.254,0-0.501,0.038-0.732-0.006
			c-1.252-0.238-1.488-0.539-1.492-1.843c-0.002-0.756,0-1.512,0-2.223c-0.958-0.662-1.838-1.256-2.951-1.342
			c-0.316-0.024-0.632-0.085-0.948-0.087c-1.47-0.01-2.941-0.005-4.504-0.005c-0.49,2.41-0.247,4.668,0.591,6.754
			c0.572,1.423,1.168,2.977,2.507,4.109C5.581,123.736,6.024,123.173,6.936,123.613z M89.216,110.356
			c-0.38,1.048-0.669,1.9-0.996,2.736c-0.457,1.166-0.779,2.397-1.538,3.424c-1.035,1.398-2.066,2.797-3.405,3.941
			c-0.995,0.852-1.969,1.692-3.285,2.028c-0.957,0.244-1.901,0.467-2.894,0.595c-1.775,0.229-3.512,0.33-5.272-0.056
			c-1.356-0.297-2.673-0.649-3.79-1.536c-0.619-0.492-1.289-0.919-1.913-1.405c-0.843-0.656-1.669-1.334-2.491-2.017
			c-1.207-1.001-2.1-2.278-2.99-3.543c-0.733-1.041-0.926-2.241-0.701-3.503c0.037-0.209,0.033-0.425,0.064-0.847
			c-0.609,0.306-1.054,0.528-1.542,0.773c0,1.162,0,2.277,0,3.394c0,1.159,0,2.318,0,3.478c0,1.119,0,2.238,0,3.357s0,2.238,0,3.357
			c0,1.159,0,2.319,0,3.479c0,1.119,0,2.238,0,3.357c0,1.159-0.073,2.324,0.021,3.476c0.088,1.066-0.329,2.129-0.102,3.431
			c1.515-1.166,3.022-1.811,4.62-2.268c1.736-0.496,3.526-0.38,5.293-0.507c0.58-0.041,1.174,0.127,1.762,0.195
			c0.627,0.073,1.254,0.201,1.881,0.198c0.621-0.004,1.302-0.002,1.852-0.242c3.184-1.39,6.345-2.829,9.491-4.3
			c1.027-0.48,1.976-1.126,2.978-1.664c0.867-0.465,1.727-0.979,2.65-1.297c0.877-0.302,1.831-0.377,2.81-0.563
			c0-5.614,0-11.235,0-16.945C90.839,110.693,90.045,110.21,89.216,110.356z M59.926,156.055c0.166-0.15,0.35-0.258,0.452-0.417
			c0.856-1.328,1.747-2.637,2.53-4.007c1.023-1.79,2.533-3.024,4.338-3.892c1.854-0.891,3.85-1.392,5.844-1.883
			c2.127-0.524,4.273-0.815,6.464-0.802c1.438,0.009,2.885,0.08,4.316-0.027c2.126-0.16,4.241-0.457,6.363-0.688
			c1.412-0.153,2.86-0.2,4.179-0.754c0.797-0.334,1.674-0.505,2.276-1.344c1.229-1.708,1.979-3.608,2.454-5.604
			c0.225-0.946,0.19-2.014,0.02-2.981c-0.26-1.465-1.318-2.36-2.651-2.941c-1.198-0.521-2.425-0.888-3.731-1.089
			c-1.762-0.271-3.375-0.008-4.908,0.863c-1.341,0.761-2.637,1.618-4.028,2.271c-2.645,1.244-5.341,2.379-8.021,3.548
			c-2.924,1.275-5.441,3.209-8.068,4.963c-1.548,1.034-3.193,1.71-5.038,1.929c-0.74,0.088-1.474,0.234-2.2,0.353
			c-0.791,2.149-0.814,2.71-2.934,4.143c-0.084,0.66-0.168,1.321-0.271,2.14c1.563,0.609,1.208,1.916,0.924,3.106
			c0.44,0.621,0.827,1.167,1.199,1.69c-0.084,0.211-0.17,0.353-0.193,0.503c-0.029,0.188-0.007,0.383-0.007,0.592
			C59.481,155.844,59.69,155.944,59.926,156.055z M65.078,178.327c0.144,0,0.302,0.037,0.433-0.006
			c1.926-0.63,3.859-1.157,5.908-0.622c0.838,0.22,1.681,0.424,2.52,0.645c0.449,0.117,0.85,0.104,1.213-0.25
			c0.64-0.624,1.436-0.955,2.292-1.17c0.355-0.09,0.697-0.233,1.104-0.373c-0.166-0.225-0.262-0.347-0.35-0.475
			c-0.735-1.076-1.601-2.089-2.167-3.247c-0.578-1.188-0.956-2.496-1.25-3.79c-0.305-1.342-0.697-2.691-0.531-4.106
			c0.037-0.311,0.007-0.644-0.063-0.95c-0.438-1.946-0.18-3.89,0.248-5.77c0.434-1.901,0.854-3.782,0.776-5.738
			c-0.043-1.107-0.136-2.213-0.239-3.316c-0.059-0.613-0.183-1.219-0.289-1.909c-0.535,0.052-0.929,0.054-1.306,0.134
			c-0.886,0.188-1.778,0.363-2.641,0.635c-1.849,0.581-3.683,1.209-5.133,2.59c-0.577,0.549-1.134,1.096-1.453,1.863
			c-0.209,0.503-0.561,0.949-0.864,1.41c-0.887,1.347-1.781,2.688-2.736,4.127c1.205,2.166,2.396,4.343,3.623,6.5
			c1.148,2.019,2.445,3.95,3.282,6.146c0.483,1.268,0.594,2.454-0.073,3.651C66.639,175.637,65.865,176.955,65.078,178.327z
			 M50.231,114.244c0.341-0.143,0.658-0.293,0.987-0.407c0.789-0.272,1.333-0.82,1.367-1.633c0.044-1.02,0.021-2.068-0.171-3.065
			c-0.313-1.624-1.131-3.07-2.279-4.227c-0.786-0.791-1.629-1.62-2.79-1.947c-0.491-0.138-0.965-0.354-1.425-0.58
			c-1.778-0.873-3.571-1.721-5.314-2.661c-1.282-0.692-2.657-1.29-3.576-2.504c-0.421-0.557-0.781-1.158-1.153-1.716
			c-0.816,0.055-1.627,0.108-2.538,0.17c0-0.57,0-0.965,0-1.367c0.605-0.139,1.104-0.351,1.601-0.348
			c1.382,0.011,2.53-0.607,3.633-1.295c0.917-0.57,1.53-1.37,1.12-2.578c-0.151-0.443-0.243-0.908-0.376-1.417
			c-0.767-0.457-1.493-1.093-2.335-1.351c-1.958-0.598-3.725-0.206-5.482,1.012c-1.51,1.047-2.408,3.421-1.73,5.216
			c0.619,1.639,1.376,3.267,2.949,4.307c1.808,1.194,3.592,2.422,5.385,3.64c1.203,0.816,2.286,1.722,2.523,3.286
			c0.033,0.22,0.161,0.425,0.239,0.624c0.439-0.065,0.818-0.121,1.197-0.178c1.339,2.193,2.246,4.457,2.341,7.024
			c1.122,0.144,2.126,0.277,3.132,0.4C48.681,112.788,49.301,113.807,50.231,114.244z M43.917,120.071
			c0.643,0.887,1.165,1.531,1.604,2.228c0.95,1.503,1.869,3.026,2.775,4.557c0.273,0.461,0.576,0.771,1.113,0.98
			c0.75,0.294,1.429,0.715,2.07,1.298c1.791,1.627,3.202,3.492,4.26,5.648c0.049,0.1,0.041,0.228,0.068,0.396
			c-0.225,0.191-0.457,0.392-0.809,0.692c-0.397-0.442-0.852-0.787-1.092-1.244c-0.908-1.737-2.086-3.254-3.521-4.576
			c-0.112-0.103-0.293-0.13-0.638-0.273c0.488,1.016,0.854,1.83,1.268,2.621c0.491,0.939,0.604,1.853-0.038,2.769
			c-0.976,1.391-1.92,2.804-2.932,4.169c-0.791,1.066-1.662,2.072-2.56,3.184c1.665,0.41,3.187,0.816,4.376,2.111
			c1.127-3.049,3.154-4.232,6.125-3.431c0.789-0.891,0.763-1.874,0.758-2.874c-0.019-3.397-0.008-6.796-0.007-10.193
			c0-0.319-0.011-0.641,0.013-0.959c0.103-1.382,0.215-2.764,0.33-4.232c-0.698-0.555-1.316-1.104-1.992-1.568
			c-1.18-0.81-2.557-1.229-3.826-1.852c-1.814-0.888-3.561-0.315-5.331-0.143C45.297,119.44,44.691,119.794,43.917,120.071z
			 M102.097,111.919c0-0.772-0.018-1.443,0.006-2.113c0.016-0.432,0.051-0.871,0.145-1.292c0.381-1.707,0.923-3.338,1.988-4.776
			c0.662-0.894,1.192-1.25,2.246-0.932c1.835,0.554,3.645,0.613,5.484,0.045c0.476-0.146,0.963-0.071,1.461-0.386
			c0.898-0.568,1.565-1.244,2.064-2.185c0.664-1.253,0.644-2.628,0.669-3.934c0.033-1.779-0.846-3.375-1.889-4.773
			c-0.482-0.646-1.143-1.247-2.068-1.475c-1.282-0.315-2.517-0.232-3.763,0.072c-0.225,0.055-0.507,0.146-0.626,0.316
			c-0.695,0.991-1.581,1.923-1.274,3.386c0.994,0.987,2.256,1.665,3.578,2.18c0.83,0.324,1.19,0.974,1.338,1.662
			c0.171,0.796,0.04,1.657,0.04,2.576c-0.354,0.053-0.736,0.216-0.844,0.107c-0.355-0.361-0.612-0.82-0.931-1.275
			c-0.504,0.437-0.945,1.032-1.533,1.282c-1.375,0.585-2.795,1.109-4.244,1.466c-2.034,0.5-3.831,1.449-5.567,2.556
			c-0.221,0.141-0.399,0.394-0.521,0.633c-0.234,0.456-0.452,0.928-0.608,1.415c-0.432,1.352-0.784,2.719-0.561,4.094
			C98.486,111.018,100.165,111.437,102.097,111.919z M65.663,104.894c0,1.782,0.099,3.299-0.029,4.796
			c-0.117,1.379,0.537,2.308,1.496,3.03c1.572,1.186,3.17,2.392,5.1,2.942c1.006,0.288,2.105,0.586,3.11,0.459
			c1.361-0.172,2.65-0.777,3.526-1.978c0.187-0.254,0.424-0.485,0.676-0.676c0.953-0.724,1.042-1.722,0.939-2.793
			c-0.079-0.825-0.155-1.651-0.222-2.478c-0.035-0.436-0.017-0.878-0.078-1.309c-0.083-0.576-0.337-0.737-0.896-0.608
			c-0.269,0.062-0.521,0.188-0.789,0.253c-1.222,0.302-2.433,0.704-3.673,0.861c-1.885,0.24-3.695-0.254-5.44-0.948
			C68.223,105.986,67.081,105.488,65.663,104.894z M95.137,110.187c0-0.831-0.096-1.524,0.02-2.182
			c0.28-1.598,1.116-2.979,1.899-4.372c0.037-0.066,0.109-0.116,0.173-0.164c2.183-1.631,4.608-2.712,7.267-3.313
			c0.919-0.207,1.829-0.518,2.688-0.902c0.839-0.376,1.438-1.068,1.975-2.014c-1.38-0.817-2.981-1.172-3.944-2.548
			c-0.479,0.617-0.793,1.271-1.31,1.644c-1.336,0.964-2.7,1.926-4.164,2.668c-3.022,1.531-5.943,3.282-9.259,4.206
			c-2.352,0.656-4.601,1.661-7.007,2.158c-0.563,0.116-1.115,0.289-1.678,0.437c0,0.717,0,1.305,0,1.961
			c1.614,0.589,3.195,1.194,4.803,1.723c0.271,0.089,0.678-0.104,0.974-0.26c0.271-0.144,0.479-0.412,0.815-0.719
			c1.655,0.47,3.546,0.324,4.923,1.677C93.887,110.187,94.435,110.187,95.137,110.187z M55.688,143.089
			c-0.117-0.131-0.16-0.229-0.225-0.244c-0.267-0.064-0.539-0.104-0.809-0.154c-1.645-0.307-3.014,0.589-3.125,2.19
			c-0.131,1.87,0.021,3.728,0.939,5.432c0.188,0.348,0.416,0.673,0.607,1.019c0.245,0.439,0.029,0.761-0.307,1.032
			s-0.678,0.241-0.961-0.06c-0.186-0.198-0.355-0.437-0.454-0.688c-0.651-1.647-1.43-3.264-1.364-5.086
			c-0.346-0.197-0.646-0.378-0.955-0.543c-0.543-0.291-1.089-0.229-1.576,0.101c-0.489,0.332-0.533,0.779-0.326,1.349
			c0.186,0.511,0.179,1.088,0.296,1.628c0.374,1.734,0.691,3.488,1.548,5.074c0.3,0.557,0.661,1.082,0.931,1.651
			c0.554,1.17,1.324,2.171,2.299,3.005c0.91,0.779,2,1.158,3.407,1.411c-0.155-0.478-0.193-0.777-0.341-1.008
			c-0.381-0.601-0.805-1.175-1.221-1.751c-0.45-0.621-0.581-1.276-0.315-1.976c0.663-0.237,1.047,0.041,1.337,0.546
			c0.31,0.541,0.67,1.059,0.931,1.623c0.37,0.803,1.009,0.916,1.778,0.858c0.392-0.029,0.727-0.112,0.829-0.53
			c0.1-0.406-0.089-0.681-0.475-0.847c-0.613-0.265-0.78-0.873-0.603-1.363c0.328-0.906,0.05-1.397-0.719-1.86
			c-0.681-0.41-0.676-0.672-0.277-1.372c0.171-0.301,0.316-0.616,0.411-0.805c-0.315-1.072-1.794-0.866-1.798-2.057
			c0.355-0.407,0.714-0.817,1.164-1.332c-0.443-0.229-0.805-0.375-1.117-0.592c-0.325-0.225-0.603-0.52-0.988-0.86
			C55.661,145.825,56.038,144.539,55.688,143.089z M147.792,153.042c0.253-1.149,0.219-2.184,0.2-3.245
			c-0.018-1.083-0.495-1.906-0.957-2.746c-0.63-1.143-0.768-1.104-2.419-1.683c-1.362-0.478-2.684-0.208-3.937,0.212
			c-2.446,0.82-4.606,2.223-6.72,3.68c-0.302,0.208-0.679,0.442-0.484,1.049c0.492-0.257,0.927-0.483,1.44-0.751
			c0.226,0.202,0.427,0.382,0.525,0.47c-0.067,0.886-0.554,1.227-1.059,1.541c-0.582,0.361-1.094,0.764-1.148,1.559
			c0.191,0.032,0.346,0.081,0.5,0.081c4.395,0.006,8.79,0.01,13.185,0C147.215,153.208,147.513,153.097,147.792,153.042z
			 M98.502,130.125c0.688-1.539,1.468-3.034,2.028-4.607c0.578-1.625,1.609-2.953,2.577-4.315c-0.684-0.981-1.305-1.873-1.976-2.836
			c-1.056,0.444-2.007,0.918-3.005,1.25c-2.019,0.671-3.426,1.986-4.472,3.804c-0.277,0.482-0.402,0.918-0.396,1.442
			c0.012,1.022,0.003,2.045,0.003,3.156c0.782,0.218,1.699,0.393,2.549,0.732C96.711,129.112,97.548,129.63,98.502,130.125z
			 M77.895,146.61c0.22,1.653,0.836,2.939,2.082,3.92c0.944,0.744,2.046,1.137,3.142,1.584c1.419,0.578,2.694,0.476,4.095-0.154
			c0.985-0.443,1.695-1.13,2.47-1.793c0.952-0.813,1.12-1.401,0.596-2.46c-0.19-0.385-0.479-0.722-0.733-1.073
			c-0.367-0.508-0.871-0.615-1.473-0.558c-1.807,0.173-3.614,0.349-5.426,0.454c-1.151,0.067-2.311,0.008-3.467,0.016
			C78.792,146.548,78.405,146.583,77.895,146.61z M77.275,121.543c1.553-0.214,2.986-0.538,4.181-1.494
			c1.367-1.095,2.506-2.393,3.537-3.827c1.06-1.475,1.58-3.128,2.284-4.797c-1.365-0.559-2.546-1.181-3.943-1.355
			c-0.103,0.358-0.104,0.724-0.285,0.941c-1.035,1.247-1.561,2.867-2.878,3.908c-0.343,0.271-0.636,0.606-0.936,0.928
			c-0.692,0.741-1.453,1.341-2.518,1.458c-0.232,0.025-0.443,0.247-0.685,0.39C76.959,118.791,77.088,120.054,77.275,121.543z
			 M45.487,147.376c-2.309-0.521-4.523,0.16-6.678,0.886c-2.129,0.716-3.335,2.359-3.727,4.589
			c2.815,0.453,10.647,0.533,11.648,0.157C46.323,151.16,45.917,149.323,45.487,147.376z M9.319,146.257
			c-1.315-0.561-2.081-1.545-2.724-2.648c-0.316-0.543-0.653-1.074-0.984-1.608c-0.295-0.477-0.596-0.95-0.946-1.509
			c-1.899,2.316-3.006,4.707-2.857,7.603c0.07,1.382,0.594,2.526,1.516,3.485c0.702,0.731,1.617,1.063,2.653,0.981
			C6.201,149.786,7.72,148.023,9.319,146.257z M78.44,153.06c0.132,0.149,0.246,0.317,0.396,0.444
			c2.946,2.502,6.328,3.298,10.067,2.432c1.694-0.394,3.296-1.089,4.842-1.915c1.439-0.769,1.92-2.323,1.813-3.464
			c-0.047-0.51-0.129-1.017-0.18-1.526c-0.122-1.253-0.312-2.487-0.846-3.627c-0.32,0-0.555-0.01-0.788,0.007
			c-0.061,0.005-0.114,0.097-0.154,0.133c0.597,2.409,0.679,4.771-0.257,7.161c-0.428,0-0.804,0-1.332,0
			c0.219-2.216,1.016-4.393,0.059-6.625c-0.273,0.034-0.551,0.069-0.894,0.112c0.203,0.384,0.398,0.646,0.486,0.938
			c0.282,0.938,0.753,1.912,0.138,2.858c-0.695,1.068-1.598,2.038-2.674,2.655c-1.208,0.691-2.511,1.322-3.933,1.524
			c-0.377,0.054-0.805,0.018-1.161-0.11c-1.595-0.572-3.211-1.104-4.594-2.143c-0.266-0.199-0.597-0.313-0.989-0.512
			C78.44,151.993,78.44,152.464,78.44,153.06z M61.262,111.468c0.23,0.84,0.28,1.602,0.632,2.181
			c0.569,0.938,1.31,1.779,2.025,2.621c1.431,1.683,3.319,2.8,5.095,4.057c0.891,0.631,1.857,1.002,2.896,1.057
			c0.256-1.318,0.51-2.621,0.779-4.007c-0.357-0.121-0.81-0.244-1.238-0.426c-0.865-0.366-1.766-0.687-2.566-1.168
			c-0.977-0.589-1.926-1.257-2.773-2.017c-0.729-0.654-1.35-1.45-1.916-2.255c-0.27-0.382-0.303-0.93-0.499-1.588
			C62.842,110.465,62.094,110.941,61.262,111.468z M93.268,121.17c1.295-0.956,2.099-2.145,3.449-2.616
			c1.295-0.451,2.542-1.041,3.925-1.617c-0.064-0.521-0.259-1.15-0.185-1.747c0.078-0.627,0.413-1.223,0.651-1.877
			c-2.604-0.921-5.212-1.389-7.841-1.552C93.268,114.876,93.268,117.888,93.268,121.17z M110.76,79.701
			c0.362,0.158,0.703,0.37,1.074,0.457c1.056,0.249,1.379,0.973,1.345,1.948c-0.024,0.697-0.077,1.394-0.117,2.095
			c0.108-0.008,0.219,0.016,0.251-0.023c0.79-0.973,1.83-1.764,2.157-3.069c0.104-0.418,0.315-0.809,0.472-1.214
			c0.791-2.045,0.938-4.184,0.759-6.33c-0.097-1.164-0.374-2.307-1.14-3.311c-0.734-0.965-1.547-1.441-2.853-1.117
			c-0.145,0.297-0.329,0.641-0.479,0.998c-0.149,0.354-0.265,0.723-0.396,1.088c1.94,0.549,2.984,1.99,2.715,3.526
			c-0.37,2.106-2.099,3.317-4.588,2.739c-0.237,1.025-0.654,2.02-0.522,3.316C109.974,80.357,110.332,80.058,110.76,79.701z
			 M61.137,186.65c0.338,1.603,0.42,1.713,1.738,2.117c0.373,0.114,0.773,0.211,1.156,0.195c0.828-0.033,1.653-0.146,2.48-0.225
			c0.984-0.095,1.998-0.074,2.947-0.31c1.328-0.329,2.652-0.44,4.008-0.415c1.119,0.021,2.238-0.016,3.356,0.013
			c0.51,0.013,1.016,0.162,1.525,0.173c0.962,0.021,1.986,0.363,2.774-0.354c0-0.596,0-1.097,0-1.655
			c-1.306-0.101-2.526-0.192-3.746-0.289c-0.315-0.025-0.628-0.08-0.943-0.1c-0.751-0.047-1.523-0.206-2.25-0.091
			c-1.125,0.179-2.219,0.347-3.371,0.216c-0.946-0.106-1.939-0.146-2.869,0.024c-1.648,0.304-3.291,0.461-4.964,0.446
			C62.402,186.391,61.823,186.55,61.137,186.65z M70.469,137.24c-0.512-0.031-1.049,0.025-1.533-0.109
			c-1.758-0.492-3.49-0.117-5.178,0.226c-1.743,0.354-3.352,1.157-4.811,2.228c-0.689,0.505-1.025,1.143-1.139,1.922
			C62.95,142.807,66.881,140.563,70.469,137.24z M99.337,150.161c0.439,0.783,0.437,0.783,0.292,1.437
			c-0.051,0.23-0.115,0.466-0.116,0.698c-0.004,0.655,0.179,0.898,0.828,0.906c2.156,0.025,4.314,0.027,6.472-0.001
			c0.646-0.009,1.066-0.44,1.022-1.068c-0.059-0.821-0.136-1.665-0.379-2.444c-0.473-1.515-1.768-2.172-3.145-2.647
			c-0.894-0.309-1.799-0.043-2.645,0.24c-1.447,0.483-2.572,1.438-3.666,2.694C98.579,150.055,98.963,150.109,99.337,150.161z
			 M25.934,109.722c-0.295-0.439-0.797-0.649-1.383-0.611c-0.905,0.06-1.845,0.04-2.7,0.291c-0.72,0.211-1.478,0.612-1.616,1.554
			c-0.12,0.815-0.353,1.622-0.389,2.438c-0.032,0.74,0.206,1.489,0.196,2.232c-0.017,1.308-0.058,1.308,1.247,1.853
			c1.454-0.969,2.553-2.324,3.261-3.98C25.053,112.321,25.437,111.092,25.934,109.722z M64.729,181.928
			c-0.346,0.806-0.617,1.437-0.861,2.007c-0.453,0-0.766,0-1.037,0c-0.338-0.405-0.639-0.765-0.979-1.174
			c-0.381,0.249-0.695,0.456-0.975,0.64c0.133,0.619,0.24,1.114,0.322,1.496c0.816,0,1.568,0.007,2.318-0.002
			c0.559-0.007,1.145,0.069,1.668-0.074c1.244-0.34,2.494-0.441,3.771-0.408c0.799,0.021,1.599,0.001,2.398-0.007
			c0.117-0.001,0.234-0.038,0.463-0.078c0.127-0.188,0.303-0.449,0.486-0.721c0.817,0.416,1.486,0.402,2.059-0.203
			c0.689-1.288,0.131-2.343-0.598-3.348c-1.584-0.56-1.795-0.493-2.81,0.876c0.001,0.792,0.021,1.618-1.103,1.839
			c-0.777-0.392-0.729-1.999-2.129-1.584c-0.75,0.496-0.742,1.831-1.938,1.838C65.434,182.66,65.125,182.339,64.729,181.928z
			 M26.349,115.558c1.189,0.399,2.292,0.327,3.193-0.38c1.499-1.177,2.35-2.734,2.244-4.721c-0.022-0.423,0.065-0.852,0.102-1.277
			c-1.298-1.396-2.198-1.379-3.412,0.077c-0.227,0.271-0.386,0.605-0.637,0.849C26.273,111.619,26.287,113.529,26.349,115.558z
			 M56.893,120.636c0-2.732,0-5.262,0-7.862c-2.209,0.556-3.877,1.866-5.49,2.961c0,0.806,0,1.459,0,2.083
			C53.183,118.732,54.952,119.64,56.893,120.636z M15.645,153.891c0.581-0.051,0.923-0.338,0.977-0.8
			c0.178-1.534-0.077-2.941-1.389-3.966c-0.374-0.293-0.759-0.573-1.118-0.884c-1.264-1.096-3.734-1.045-4.623-0.01
			c-0.76,0.885-1.357,1.961-1.802,3.046c-0.281,0.687-0.282,1.556,0.169,2.326c0.605,0,1.179,0,1.74,0
			c0.339-1.119-1.258-1.28-0.967-2.315c0.311-0.325,0.655-0.403,1.143-0.263c1.338,0.386,1.166,1.708,1.77,2.92
			c0.145-0.498,0.299-0.736,0.253-0.925c-0.142-0.571-0.401-1.115-0.534-1.688c-0.074-0.319-0.104-0.765,0.064-0.991
			c0.153-0.205,0.601-0.19,0.863-0.258c0.319,0.478,0.551,0.825,0.864,1.295c0.212-0.53,0.351-0.876,0.489-1.22
			c0.375,0,0.682,0,1.075,0c0.245,0.596,0.543,1.16,0.707,1.762C15.498,152.548,15.541,153.212,15.645,153.891z M76.296,179.757
			c-0.718,1.604-0.138,3.457,1.386,4.612c1.124,0,2.232,0,3.445,0c0.382-1.157,0.761-2.301,1.16-3.507
			c-0.549-0.516-1.034-0.973-1.57-1.476C79.238,179.511,77.75,179.635,76.296,179.757z M102.556,113.917
			c-0.154,0.462-0.351,0.84-0.4,1.237c-0.197,1.589,0.482,2.868,1.377,4.135c0.627,0.888,1.415,1.104,2.348,1.013
			c0.331-0.032,0.779-0.323,0.917-0.617c0.391-0.834,0.566-1.738,0.098-2.624C106.014,115.395,104.634,114.385,102.556,113.917z
			 M97.062,148.727c1.748-1.553,3.378-3.006,5.754-3.296c-1.342-1.3-2.553-2.474-3.885-3.764c-0.442,0.634-0.771,1.272-1.257,1.755
			c-0.485,0.483-1.127,0.81-1.701,1.206C96.318,145.928,96.669,147.25,97.062,148.727z M123.07,108.567
			c-0.638,0.142-1.288,0.286-1.958,0.434c0.197,0.557,0.406,0.946,0.47,1.358c0.191,1.247,0.36,2.5,0.474,3.756
			c0.136,1.488,1.595,2.676,3.082,2.502c0-1.072,0.039-2.138-0.015-3.199c-0.032-0.623-0.1-1.291-0.355-1.845
			C124.31,110.581,123.699,109.66,123.07,108.567z M120.663,115.123c-0.165-1.343-0.31-2.626-0.486-3.904
			c-0.085-0.615-0.077-1.277-0.61-1.74c-0.77-0.669-1.54-1.335-2.304-1.996c-1.284,0.64-1.532,1.418-0.768,2.545
			c0.449,0.662,0.824,1.29,0.808,2.154c-0.01,0.562,0.234,1.154,0.469,1.688C118.326,115.131,118.958,115.416,120.663,115.123z
			 M129.697,117.071c0-0.937,0.011-1.809-0.002-2.681c-0.032-2.238-0.645-4.117-3.055-4.87c-0.187-0.058-0.348-0.201-0.535-0.25
			c-0.193-0.051-0.405-0.035-0.719-0.056c0.143,0.381,0.188,0.67,0.341,0.878c0.736,0.998,1.031,2.098,0.902,3.33
			c-0.045,0.434-0.037,0.879,0.004,1.313C126.779,116.293,128.046,117.314,129.697,117.071z M33.917,150.682
			c-1.483,0.436-2.776,0.96-4.117,1.165c-1.269,0.194-2.619,0.229-3.879,0.016c-1.856-0.314-3.665-0.91-5.493-1.389
			c-0.889-0.232-1.775-0.472-2.708-0.72c0.217,0.963,0.403,1.792,0.596,2.65c5.068,0.551,10.15,0.274,15.281,0.321
			C33.714,151.979,33.813,151.353,33.917,150.682z M49.932,117.41c0.123-0.71-0.047-1.25-0.416-1.654
			c-1.299-1.422-2.875-2.128-4.89-1.752c-0.096,1.4-0.188,2.741-0.303,4.4c1.374-0.979,2.666-0.619,3.911-0.716
			C48.809,117.644,49.375,117.504,49.932,117.41z M18.368,111.39c-1.545-0.282-2.296,0.182-2.689,1.729
			c-0.086,0.34-0.18,0.696-0.163,1.04c0.044,0.905,0.162,1.806,0.225,2.71c0.065,0.931,0.115,0.986,1.203,1.012
			c0.125-0.165,0.247-0.369,0.409-0.534c0.732-0.741,1.084-1.588,1.004-2.665C18.278,113.624,18.357,112.555,18.368,111.39z
			 M144.653,143.75c0.753-3.264,0.335-7.275-0.916-8.137c-0.485,2.78-1.041,5.51-2.2,8.303c0.632-0.107,1.118-0.238,1.608-0.262
			C143.646,143.631,144.151,143.714,144.653,143.75z M115.869,153.366c0.018-0.105,0.036-0.21,0.055-0.315
			c-0.419-0.153-0.851-0.278-1.254-0.465c-1.505-0.695-2.998-1.416-4.502-2.113c-0.289-0.135-0.607-0.207-0.977-0.329
			c0.092,1.107,0.168,2.034,0.25,3.017c1.102-0.017,2.088,0.289,3.167,0.124C113.667,153.124,114.78,153.324,115.869,153.366z
			 M40.345,71.281c0.028-0.311,0.036-0.544,0.072-0.773c0.143-0.905-0.242-1.471-1.033-1.917c-0.806-0.454-1.673-0.458-2.383-0.128
			c-0.729,0.339-0.294,1.196-0.33,1.875C37.762,71.072,38.878,71.578,40.345,71.281z M12.002,117.563
			c1.997-0.632,2.309-1.583,1.861-4.254c-0.869-0.035-1.007,0.025-1.342,0.596C11.845,115.052,11.766,116.277,12.002,117.563z
			 M110.446,75.865c0.621,0,1.238,0,1.838,0c0.996-1.317,1.065-1.854,0.356-2.613c-0.534-0.572-0.953-0.537-2.011,0.198
			C110.718,74.219,110.047,74.956,110.446,75.865z M73.657,121.662c0.629,0,1.271,0,2.039,0c-0.107-0.826-0.209-1.595-0.316-2.408
			c-0.348-0.326-0.711-0.666-1.128-1.057C73.632,119.345,73.477,120.417,73.657,121.662z M46.814,144.542
			c-2.514-0.854-3.302-0.784-5.003,1.105c1.317,0,2.626,0,4.044,0C46.104,145.362,46.43,144.986,46.814,144.542z M131.305,115.975
			c0.657-0.025,0.84-0.438,0.924-0.782c0.175-0.718,0.311-1.461,0.329-2.197c0.024-0.989-0.573-1.422-1.621-1.363
			C131.059,113.06,131.179,114.486,131.305,115.975z M111.583,85.05c-1.377-0.105-2.119-0.988-2.848-2.245
			c-0.237,1.089-0.422,1.94-0.625,2.876C109.427,85.792,110.583,86.007,111.583,85.05z M57.163,145.817
			c0.834,0.102,0.932-0.028,1.617-2.283c-0.441-0.516-0.934-0.396-1.264-0.258C57.381,144.242,57.272,145.031,57.163,145.817z
			 M96.766,153.114c0.509,0,0.826,0,1.148,0c0-0.922,0-1.756,0-2.589C97.118,151.221,97.387,152.246,96.766,153.114z
			 M111.082,81.515c-0.735,0.396-0.537,0.955-0.459,1.49c0.178,0.09,0.315,0.169,0.46,0.229c0.067,0.028,0.148,0.021,0.223,0.028
			C111.889,82.441,111.861,82.16,111.082,81.515z M66.987,179.631c-0.061-0.072-0.121-0.145-0.182-0.217
			c-0.595,0.284-1.345,0.227-1.852,1.042c0.422,0.146,0.789,0.273,1.142,0.396C66.444,180.375,66.715,180.003,66.987,179.631z
			 M67.741,179.271c0.01,0.079,0.02,0.158,0.029,0.238c0.332,0.075,0.672,0.125,0.992,0.234c0.311,0.106,0.6,0.274,0.96,0.445
			c0.153-0.368,0.253-0.605,0.383-0.918C69.26,179.271,68.5,179.271,67.741,179.271z M13.472,151.906
			c-0.126,0.715-0.312,1.363,0.162,2.032C14.17,153.105,14.159,152.988,13.472,151.906z"/>
		<path fill-rule="evenodd" clip-rule="evenodd" fill="none" d="M107.906,58.579c0.592,0.646,1.075,1.172,1.684,1.835
			c-0.105,1.419-0.15,2.968-0.354,4.495c-0.218,1.639-0.625,3.251-0.865,4.888c-0.084,0.569,0.04,1.184,0.148,1.763
			c0.257,1.38,0.765,2.674,0.135,4.163c-0.495,1.171-0.508,2.541-0.777,3.813c-0.334,1.582-0.721,3.153-1.07,4.731
			c-0.538,2.424-1.034,4.858-1.606,7.275c-0.357,1.511-1.238,2.768-2.446,3.689c-1.722,1.314-3.522,2.536-5.525,3.417
			c-0.647,0.284-1.287,0.598-1.897,0.952c-2.418,1.404-5.119,2.06-7.724,2.975c-3.061,1.074-6.228,1.717-9.384,2.412
			c-0.309,0.068-0.612,0.161-0.912,0.263c-2.789,0.938-5.512,0.646-8.166-0.493c-3.16-1.354-6.332-2.688-9.443-4.144
			c-2.066-0.967-4.045-2.123-6.051-3.216c-1.145-0.625-2.289-1.256-3.391-1.952c-1.274-0.806-2.514-1.669-3.518-2.817
			c-0.157-0.181-0.317-0.4-0.524-0.486c-0.888-0.373-1.128-1.184-1.374-1.979c-0.337-1.089-0.702-2.178-0.924-3.292
			c-0.332-1.661-0.562-3.343-0.813-5.019c-0.211-1.406-0.39-2.816-0.589-4.223c-0.021-0.156-0.108-0.304-0.119-0.458
			c-0.091-1.386-0.182-2.772-0.253-4.159c-0.09-1.746-0.139-3.494-0.251-5.239c-0.064-0.999,0.095-1.881,0.874-2.581
			c0.142-0.128,0.234-0.311,0.327-0.437c-0.799-3.555,0.525-6.768,1.265-10.039c0.963-0.705,1.884-1.38,2.746-2.01
			c0.622-4.568,1.659-8.941,2.867-13.355c0.254-0.334,0.555-0.752,0.879-1.151c0.581-0.715,1.225-1.317,2.167-1.578
			c2.054-0.566,4.006-1.484,6.138-1.773c2.189-0.297,4.297-1.016,6.525-1.142c1.37-0.078,2.721-0.458,4.087-0.641
			c0.62-0.083,1.261-0.014,1.975,0.194c-0.233,0.142-0.458,0.302-0.702,0.421c-0.986,0.481-1.982,0.94-2.966,1.428
			c-0.243,0.121-0.456,0.311-0.665,0.49c-0.295,0.252-0.525,0.62-0.248,0.931c0.234,0.263,0.681,0.532,0.999,0.496
			c2.153-0.243,4.298-0.568,6.446-0.859c0.234-0.032,0.479-0.024,0.717-0.007c0.947,0.067,1.897,0.235,2.841,0.203
			c2.442-0.084,4.8,0.374,7.173,0.869c4.557,0.95,8.814,2.691,13.025,4.612c1.923,0.876,3.601,2.128,5.369,3.235
			c0.542,0.339,0.771,1.161,1.181,1.734c1.318,1.839,1.51,4.042,1.969,6.147C107.3,54.887,107.593,56.839,107.906,58.579z
			 M83.273,64.411c0.157,0.019,0.282,0.063,0.393,0.041c0.269-0.056,0.527-0.158,0.796-0.214c2.312-0.486,4.613-1.035,6.941-1.426
			c1.672-0.28,3.38-0.343,5.07-0.511c0.668-0.067,1.33-0.184,1.998-0.232c1.384-0.1,2.77-0.171,4.155-0.248
			c0.569-0.032,0.902-0.343,0.942-0.885c0.105-1.463,0.205-2.928,0.241-4.394c0.025-0.996-0.28-1.265-1.305-1.233
			c-0.508,0.016-1.011,0.17-1.52,0.221c-1.73,0.17-3.461,0.354-5.195,0.475c-2.604,0.181-5.167,0.596-7.697,1.22
			c-0.88,0.217-1.751,0.467-2.623,0.717c-1.62,0.465-3.238,0.94-4.908,1.426c0,0.407,0,0.793,0,1.004
			C81.527,61.809,82.405,63.117,83.273,64.411z M49.084,51.186c-0.098,0.519-0.285,0.976-0.246,1.412
			c0.129,1.408,0.342,2.809,0.531,4.296c0.911,0.353,1.777,0.733,2.672,1.026c3.826,1.253,7.691,2.396,11.478,3.76
			c1.601,0.577,3.144,0.996,4.845,0.879c0.766-0.053,1.407-0.204,1.818-0.865c0.111-2.308-0.957-3.884-3.111-4.628
			c-1.489-0.514-2.978-1.034-4.469-1.543c-4.107-1.404-8.215-2.809-12.328-4.196C49.952,51.218,49.583,51.241,49.084,51.186z
			 M53.194,65.132c0.122,0.279,0.27,0.639,0.436,0.991c0.768,1.629,1.553,3.265,3.629,3.517c1.166,0.142,2.372,0.402,3.443-0.369
			c0.756-0.544,1.555-1.06,1.724-2.214c0.806,0.072,1.546,0.139,2.286,0.203c0.355,0.031,0.711,0.082,1.066,0.079
			c1.3-0.01,2.066-0.82,2.048-2.104c-0.009-0.56-0.259-0.906-0.788-1.042c-1.256-0.322-2.512-0.652-3.776-0.942
			c-0.882-0.202-1.772-0.37-2.665-0.508c-1.753-0.271-3.514-0.492-5.266-0.771c-1.748-0.278-3.487-0.624-5.238-0.892
			c-0.443-0.068-0.916,0.044-1.51,0.082c0,0.875-0.016,1.623,0.004,2.37c0.017,0.563,0.354,0.841,0.898,0.934
			C50.649,64.66,51.809,64.88,53.194,65.132z M87.407,68.951c0.296,0.363,0.574,0.757,0.906,1.098
			c0.658,0.675,1.287,1.398,2.034,1.959c1.188,0.894,3.037,0.869,4.204-0.088c0.99-0.813,2.218-1.439,2.599-2.929
			c1.071-0.067,2.103-0.241,3.11-0.151c0.572,0.053,1.064,0.09,1.683-0.252c0.138-0.716,0.292-1.517,0.458-2.377
			c-0.269-0.29-0.535-0.579-0.652-0.705c-1.38-0.138-2.521-0.272-3.665-0.361c-1.319-0.103-2.643-0.241-3.964-0.228
			c-2.265,0.022-4.53,0.138-6.794,0.24c-0.589,0.027-1.179,0.121-1.759,0.232c-0.722,0.139-1.435,0.327-2.232,0.513
			c0.111,1.535,1.007,2.44,1.763,3.285C85.89,69.105,86.515,69.042,87.407,68.951z M64.94,82.875
			c1.189,1.111,2.314,2.146,3.421,3.202c1.354,1.29,3.095,1.882,4.825,2.068c1.941,0.207,3.938,0.262,5.91-0.337
			c2.222-0.675,4.134-1.912,6.113-3.022c0.591-0.33,1.116-1.041,0.74-1.885c-0.959-0.684-1.99-0.836-3.079-0.723
			c-0.667,0.069-1.33,0.203-1.998,0.229c-1.662,0.063-3.261,0.714-4.948,0.522c-0.037-0.005-0.077,0.015-0.116,0.022
			c-1.335,0.298-2.673,0.311-4.003-0.004c-1.15-0.271-2.281-0.635-3.441-0.85c-0.986-0.182-1.968-0.627-3.05-0.277
			C65.194,82.161,65.077,82.49,64.94,82.875z M59.875,94.658c0.233,0.843,0.718,1.387,1.428,1.436
			c1.188,0.082,2.39,0.031,3.581-0.047c1.102-0.071,2.192-0.309,3.293-0.369c1.236-0.066,2.478-0.021,3.717-0.011
			c0.356,0.003,0.715,0.04,1.068,0.082c1.059,0.126,2.111,0.288,3.172,0.387c1.223,0.114,2.453,0.153,3.677,0.267
			c0.784,0.073,1.568,0.19,2.342,0.344c1.738,0.345,3.479,0.69,5.201,1.109c0.588,0.144,0.987,0.006,1.373-0.385
			c0.418-0.421,0.948-0.795,0.569-1.552c-1.554-0.883-3.31-1.186-5.057-1.493c-1.281-0.227-2.573-0.392-3.862-0.578
			c-0.936-0.135-1.87-0.288-2.811-0.384c-1.143-0.116-2.292-0.171-3.437-0.271c-1.614-0.142-3.225-0.362-4.842-0.433
			c-0.98-0.041-1.973,0.121-2.957,0.221c-2.038,0.207-4.074,0.434-6.049,0.645C60.102,94.082,59.987,94.373,59.875,94.658z"/>
		<path fill-rule="evenodd" clip-rule="evenodd" fill="none" d="M111.275,35.366c0,0.208,0,0.478,0,0.864
			c0.546,0.134,1.08,0.4,1.595,0.367c2.018-0.13,3.905,0.467,6.085,0.914c-0.356,0.142-0.495,0.23-0.644,0.252
			c-1.641,0.237-3.282,0.468-4.925,0.692c-0.783,0.106-1.568,0.187-2.351,0.296c-0.146,0.02-0.281,0.126-0.476,0.219
			c-0.021,0.352-0.042,0.7-0.062,1.031c0.742,0.509,1.496,0.303,2.211,0.184c2.656-0.44,5.207-0.311,7.546,1.206
			c0.117,0.076,0.275,0.088,0.515,0.16c-0.812,0.342-1.509,0.608-2.181,0.926c-0.674,0.318-1.322,0.688-2.081,1.087
			c0.029,0.354,0.06,0.721,0.098,1.181c3.096-0.028,5.761,0.839,8.068,2.644c-0.027,0.118-0.056,0.235-0.084,0.353
			c-0.538,0.048-1.09,0.038-1.613,0.155c-1.072,0.24-2.119,0.603-3.195,0.816c-1.399,0.276-2.393,1.217-3.419,2.049
			c-1.604,1.301-2.633,2.937-2.784,5.124c-0.127,1.842-0.565,3.662-0.849,5.494c-0.198,1.289-0.363,2.582-0.555,3.872
			c-0.058,0.389-0.117,0.784-0.243,1.154c-0.533,1.561-1.093,3.112-1.696,4.823c-0.182-0.275-0.362-0.434-0.385-0.611
			c-0.04-0.311-0.028-0.645,0.04-0.949c0.435-1.93,0.823-3.859,0.914-5.846c0.049-1.059,0.345-2.105,0.396-3.164
			c0.021-0.416-0.245-0.91-0.52-1.26c-0.464-0.592-1.037-1.097-1.562-1.635c0.087-2.37-0.588-4.575-1.099-6.808
			c-0.105-0.461-0.255-0.916-0.315-1.382c-0.221-1.715-1.308-3.039-2.059-4.505c-0.323-0.632-0.934-1.19-1.539-1.592
			c-3.599-2.39-7.417-4.351-11.542-5.683c-0.902-0.291-1.787-0.633-2.676-0.964c-2.347-0.874-4.826-1.182-7.261-1.671
			c-1.002-0.201-2.049-0.188-3.076-0.258c-1.307-0.089-2.613-0.196-3.922-0.227c-0.625-0.015-1.253,0.138-1.881,0.194
			c-0.307,0.027-0.618,0.004-1.051,0.004c0.66-0.554,3.777-1.37,6.315-1.713c0-0.363,0-0.739,0-1.197
			c-0.312-0.134-0.632-0.387-0.956-0.392c-1.573-0.021-3.139-0.621-4.727-0.058c-0.285,0.102-0.636,0.034-0.955,0.024
			c-1.873-0.054-3.711,0.246-5.565,0.448c-3.505,0.382-6.942,1.083-10.345,1.955c-1.713,0.439-3.367,1.115-5.039,1.711
			c-0.247,0.088-0.467,0.304-0.651,0.505c-0.694,0.757-1.427,1.491-2.028,2.318c-0.336,0.46-0.498,1.074-0.64,1.643
			c-0.569,2.297-1.126,4.598-1.634,6.909c-0.304,1.386-0.546,2.79-0.737,4.196c-0.079,0.582-0.34,1.063-0.786,1.259
			c-1.897,0.833-2.36,2.533-2.763,4.296c-0.185,0.808-0.403,1.609-0.55,2.423c-0.269,1.488-0.479,2.981-0.045,4.482
			c0.049,0.171-0.03,0.378-0.08,0.851c-0.285-0.388-0.512-0.56-0.543-0.762c-0.194-1.249-0.443-2.5-0.486-3.757
			c-0.078-2.237-0.083-4.481-0.005-6.718c0.082-2.337,0.296-4.669,0.455-7.003c0.081-1.187,0.12-2.38,0.262-3.56
			c0.151-1.252,0.411-2.491,0.608-3.738c0.203-1.286,0.433-2.571,0.567-3.864c0.203-1.958-0.558-3.721-1.286-5.467
			c-0.22-0.529-0.651-0.972-1.083-1.595c0.438-0.024,0.802-0.142,1.092-0.042c0.919,0.317,1.941,0.426,2.673,1.169
			c1.131,0.792,3.153,1.457,3.153,1.457s1.395-0.456,2.113-1.218c0.198,0.096,0.543-1.707,0.494-2.575
			c-0.065-1.173-0.422-2.339-1.403-3.173c-1.064-0.904-2.213-1.612-3.57-2.037c-1.088-0.341-2.125-0.646-3.241-0.215
			c-0.036,0.014-0.08,0.013-0.119,0.01c-2.405-0.152-3.947,1.337-5.469,2.869c-0.391,0.393-0.794,0.774-1.165,1.134
			c-0.541-0.101-0.62-0.456-0.562-0.82c0.219-1.363,0.709-4.079,0.709-4.079s1.523-2.518,3.31-3.334
			c0.453-0.246,0.943-0.427,1.378-0.699c1.329-0.83,2.754-1.152,4.319-1.031c0.577,0.044,1.176-0.221,1.759-0.2
			c1.226,0.044,2.449,0.194,3.674,0.284c2.025,0.149,3.564,1.372,5.189,2.381c1.033,0.641,1.51,0.531,2.221-0.487
			c1.695-2.432,3.46-4.814,5.166-7.238c1.279-1.817,2.995-3.197,4.672-4.586c1.206-1,2.607-1.802,4.011-2.517
			c0.882-0.449,1.929-0.575,3.04-0.647c-0.442,0.666-0.881,1.333-1.328,1.995c-1.148,1.702-2.337,3.378-3.439,5.11
			c-0.63,0.99-1.146,2.055-1.662,3.113c-0.158,0.325-0.144,0.735-0.199,1.059c0.672,0.493,1.105,0.313,1.594-0.104
			c1.265-1.08,2.518-2.187,3.875-3.142c2.076-1.459,4.35-2.595,6.777-3.338c2.035-0.623,4.13-0.985,6.287-0.794
			c0.823,0.073,1.654,0.04,2.797,0.061c-0.383,0.395-0.518,0.627-0.72,0.728c-2.693,1.352-5.196,2.995-7.531,4.897
			c-0.86,0.7-1.783,1.337-2.563,2.119c-1.286,1.29-2.479,2.673-3.734,4.043c0,0.308,0,0.654,0,0.976
			c0.521,0.281,0.866,0.083,1.243-0.206c1.19-0.916,2.403-1.803,3.612-2.695c0.942-0.695,2.009-1.076,3.158-1.273
			c1.593-0.273,3.17-0.673,4.771-0.848c2.6-0.284,5.212-0.533,7.882-0.095c-0.366,0.132-0.725,0.341-1.102,0.383
			c-0.886,0.099-1.636,0.471-2.435,0.844c-1.146,0.534-2.228,1.185-3.364,1.707c-1.594,0.732-2.629,2.038-3.825,3.191
			c-0.278,0.27-0.563,0.548-0.775,0.868c-0.292,0.439-0.828,0.82-0.472,1.523c0.633,0.277,1.176,0.013,1.735-0.341
			c0.933-0.589,1.846-1.255,2.858-1.66c0.859-0.343,1.844-0.398,2.781-0.514c1.021-0.126,2.052-0.186,3.079-0.253
			c1.387-0.091,2.773-0.207,4.161-0.224c0.704-0.008,1.419,0.137,2.11,0.293c0.306,0.069,0.566,0.337,0.955,0.584
			c-1.762,0.318-3.411,0.393-4.882,0.944c-1.493,0.56-2.81,1.589-4.224,2.424c0,0.389,0,0.739,0,1.073
			c0.399,0.514,0.88,0.267,1.305,0.133c1.241-0.392,2.469-0.826,3.702-1.242c0.149-0.05,0.301-0.123,0.454-0.131
			c1.706-0.092,3.423-0.321,5.118-0.216c1.761,0.11,3.504,0.533,5.249,0.852c0.362,0.065,0.699,0.271,1.036,0.499
			c-2.921,0.662-5.79,1.321-7.846,3.826c0.2,0.354,0.387,0.685,0.597,1.057c0.994-0.214,1.914-0.412,2.834-0.609
			c0.23-0.05,0.467-0.15,0.693-0.134c1.264,0.094,2.536,0.151,3.785,0.348c1.361,0.214,2.736,0.457,4.041,0.885
			c1.873,0.615,3.688,1.406,5.522,2.132c0.087,0.034,0.138,0.16,0.265,0.317C115.175,32.852,112.942,33.421,111.275,35.366z"/>
		<path fill-rule="evenodd" clip-rule="evenodd" fill="none" d="M99.73,140.288c0.295-1.159,0.423-2.293,0.874-3.278
			c0.561-1.222,0.115-2.327-0.022-3.482c-0.019-0.155-0.051-0.319-0.119-0.457c-0.743-1.491-0.226-2.926,0.255-4.326
			c0.331-0.963,0.871-1.853,1.267-2.796c0.476-1.134,1.043-2.202,1.771-3.202c0.464-0.639,0.976-0.945,1.779-0.938
			c1.645,0.015,2.879-1.131,3.077-2.79c0.131-1.088-0.032-2.142-0.531-3.12c-0.12-0.234-0.388-0.391-0.574-0.594
			c-0.179-0.194-0.341-0.404-0.576-0.686c0.342-0.182,0.6-0.319,0.974-0.519c0-0.513-0.04-1.067,0.012-1.614
			c0.047-0.487,0.194-0.965,0.332-1.604c0.562,0.247,0.988,0.356,1.32,0.598c0.824,0.598,1.716,1.122,2.306,2.002
			c0.346,0.516,0.861,0.492,1.479,0.308c0.026-0.364,0.055-0.749,0.083-1.136c-1.658-1.341-3.154-2.841-5.319-3.551
			c-1.064,0.037-1.072,1.104-1.407,1.835c-0.258,0.563-0.332,1.213-0.518,1.938c0.103,0.285,0.243,0.677,0.398,1.111
			c-0.591,0.173-0.754-0.321-1.078-0.481c-1.919-0.946-2.063-2.501-1.754-4.402c0.282-1.728,0.878-3.264,1.816-4.739
			c1.131-0.199,2.149,0.184,3.096,0.646c1.561,0.765,3.079,1.622,4.573,2.512c0.372,0.221,0.627,0.689,0.856,1.089
			c0.453,0.788,0.893,1.589,1.259,2.42c0.281,0.642,0.535,1.322,0.64,2.011c0.393,2.595,2.028,3.898,4.226,3.746
			c0.517-0.036,1.037-0.005,1.609-0.005c0.697,1.125,1.95,1.245,3.049,1.639c0.682,0.245,1.221-0.159,1.667-0.63
			c1.153,0.824,2.206,1.12,3.889,1.084c0.183-0.293,0.39-0.625,0.648-1.041c2.382-0.494,2.817-2.436,3.115-4.619
			c0.992-0.904,2.026-1.954,3.462-2.41c0.709-0.225,1.449-0.436,2.185-0.474c1.43-0.074,2.866-0.022,4.36-0.022
			c0.364,2.097,0.97,4.081,0.833,6.152c-0.089,1.336-0.316,2.667-0.547,3.988c-0.154,0.886-0.249,1.802-0.803,2.575
			c-0.521,0.728-0.891,1.596-1.927,1.838c0,0.423-0.079,0.831,0.015,1.194c0.347,1.344,0.679,2.678,0.658,4.088
			c-0.012,0.785,0.283,1.591,0.188,2.356c-0.287,2.35-0.619,4.697-1.269,6.983c-0.387,1.362-0.574,2.794-1.48,3.971
			c-0.152,0.197-0.132,0.528-0.194,0.813c-1.22,0.647-2.459,1.255-3.647,1.949c-1.09,0.636-2.231,1.25-3.149,2.092
			c-0.701,0.645-1.18,1.588-1.592,2.476c-0.433,0.931-1.039,1.267-2.041,1.254c-1.146-0.016-2.294,0.213-3.44,0.201
			c-1.947-0.021-3.894-0.135-5.84-0.234c-0.988-0.05-1.981-0.104-2.959-0.249c-0.614-0.091-1.229-0.299-1.8-0.552
			c-1.838-0.814-3.666-1.652-5.475-2.53c-0.487-0.237-0.892-0.647-1.328-0.984c-2.068-1.596-4.17-3.149-6.185-4.81
			C101.296,142.115,100.54,141.14,99.73,140.288z M125.176,131.4c0.705,0.25,1.4,0.504,2.101,0.742
			c1.226,0.417,2.467,0.793,3.68,1.244c1.031,0.383,2.023,0.873,3.052,1.268c0.633,0.242,1.296,0.344,1.924-0.165
			c0.147-0.893-0.01-1.62-0.905-2.09c-0.413-0.217-0.734-0.604-1.14-0.842c-0.948-0.553-1.869-1.258-2.899-1.539
			c-1.353-0.369-2.796-0.461-4.207-0.54C125.441,129.403,125.162,129.773,125.176,131.4z M121.551,142.01
			c-1.669-0.239-2.431-1.343-2.651-2.964c-0.054-0.395-0.107-0.727-0.002-1.131c0.175-0.667,0.224-1.367,0.329-2.075
			c-0.727-0.223-1.242-0.188-1.722,0.283c-0.015,0.122-0.021,0.28-0.052,0.433c-0.222,1.123-0.674,2.033-1.982,2.167
			c-1.038,0.106-2.051,0.485-3.113-0.066c-0.56-0.291-1.051,0.201-0.87,0.823c0.088,0.302,0.369,0.685,0.642,0.767
			c0.594,0.179,1.252,0.301,1.856,0.227c0.453-0.056,0.763-0.016,1.038,0.302c1.039,1.196,2.238,1.962,3.846,1.461
			c0.852,0.564,1.519,1.415,2.682,1.052C121.551,142.866,121.551,142.51,121.551,142.01z M114.633,127.589
			c-0.323-0.257-0.65-0.581-1.034-0.812c-1.241-0.746-2.646-0.979-4.049-1.148c-1.664-0.201-3.201,0.34-4.69,1.004
			c-0.629,0.28-0.731,0.76-0.348,1.354c0.125,0.194,0.294,0.361,0.479,0.586c0.346-0.055,0.69-0.126,1.039-0.161
			c1.178-0.12,2.365-0.364,3.534-0.299c1.125,0.063,2.245,0.405,3.341,0.716c0.553,0.156,1.059,0.255,1.665,0.086
			C114.59,128.488,114.609,128.098,114.633,127.589z M141.066,114.337c-0.655,0-1.347,0.027-2.037-0.007
			c-1.026-0.051-1.94,0.327-2.838,0.726c-0.745,0.33-0.788,0.556-0.556,1.552c0.353,0.224,0.694,0.272,1.065-0.033
			c0.92-0.76,2.021-0.717,3.119-0.733c0.655,0.908,0.415,1.846,0.339,2.785c-0.058,0.704-0.62,1.387-0.158,2.16
			c0.415,0,0.791,0,1.163,0C141.903,118.636,142.022,116.558,141.066,114.337z"/>
		<path fill-rule="evenodd" clip-rule="evenodd" fill="none" d="M6.936,123.613c-0.912-0.439-1.354,0.123-1.822,0.913
			c-1.339-1.133-1.935-2.687-2.507-4.109c-0.838-2.086-1.081-4.344-0.591-6.754c1.563,0,3.034-0.005,4.504,0.005
			c0.316,0.002,0.632,0.063,0.948,0.087c1.112,0.086,1.993,0.68,2.951,1.342c0,0.711-0.002,1.467,0,2.223
			c0.004,1.304,0.24,1.604,1.492,1.843c0.231,0.044,0.478,0.006,0.732,0.006c0.541-0.375,1.09-0.756,1.709-1.186
			c0.262,1.311,1.249,1.319,2.213,1.453c1.189,0.164,1.554-0.922,2.33-1.479c0.265,0.198,0.495,0.396,0.75,0.555
			c1.068,0.662,1.876,0.632,2.837-0.168c0.811-0.674,1.578-1.402,2.471-2.201c0.181,0.304,0.384,0.646,0.639,1.076
			c1.927,0.063,3.884,0.304,5.467-1.405c1.378-1.488,2.331-3.091,2.205-5.28c1.988-2.499,5.004-2.841,7.979-3.612
			c0.357,0.677,0.846,1.32,1.053,2.044c0.577,2.027,0.888,4.107,0.755,6.228c-0.055,0.869-0.148,1.736-0.267,2.599
			c-0.027,0.199-0.228,0.375-0.369,0.594c-0.735-0.407-1.176-1.348-2.19-0.956c-0.54,0.208-0.575,0.595-0.479,1.103
			c2.417,1.227,3.863,3.386,5.206,5.642c0.687,1.154,1.432,2.276,2.064,3.46c0.853,1.594,1.65,3.218,2.414,4.856
			c0.391,0.842,0.383,1.572-0.195,2.523c-1.174,1.938-2.63,3.644-3.938,5.468c-0.816,1.138-2.008,1.895-3.044,2.805
			c-1.009,0.886-2.126,1.648-3.142,2.527c-1.063,0.922-2.328,1.479-3.544,2.126c-0.63,0.336-1.296,0.605-1.909,0.969
			c-1.382,0.82-2.921,1.191-4.446,1.594c-0.451,0.119-0.962,0.126-1.427,0.06c-2.227-0.32-4.444-0.666-6.59-1.404
			c-1.865-0.642-3.777-1.145-5.662-1.73c-0.295-0.092-0.579-0.268-0.823-0.46c-0.949-0.749-2.001-1.16-3.218-1.297
			c-1.086-0.122-2.09-0.706-2.707-1.552c-1.201-1.644-2.328-3.313-2.973-5.341c-0.908-2.857-1.279-5.729-1.082-8.672
			c0.131-1.96,0.844-3.787,2.082-5.34C7.162,124.326,7.121,124.02,6.936,123.613z M10.65,133.842
			c0.179-0.091,0.257-0.116,0.318-0.163c1.901-1.506,3.991-2.442,6.479-2.54c1.012-0.04,2.128-0.02,3.067-0.631
			c0-0.396,0-0.749,0-1.138c-1.826-1.267-3.689-2.277-6.011-1.363c-0.326,0.129-0.703,0.127-1.025,0.262
			c-0.428,0.178-0.86,0.383-1.226,0.662c-0.408,0.312-0.722,0.742-1.112,1.081c-1.066,0.928-1.216,2.138-1.184,3.427
			C10.219,133.591,10.421,133.708,10.65,133.842z M40.164,126.559c-0.631-0.443-1.231-0.988-1.931-1.329
			c-1.329-0.647-2.762-0.93-4.25-0.796c-0.469,0.043-0.93,0.202-1.397,0.216c-1.837,0.052-2.852,1.384-3.963,2.541
			c-0.157,0.163-0.155,0.623-0.04,0.853c0.082,0.164,0.494,0.271,0.726,0.229c0.46-0.085,0.896-0.301,1.347-0.445
			c0.297-0.096,0.604-0.226,0.908-0.231c2.264-0.045,4.527-0.09,6.733,0.6c0.595,0.186,1.242,0.27,1.869-0.168
			C40.164,127.601,40.164,127.17,40.164,126.559z M22.07,140.645c0.767-0.201,1.438-0.376,1.829-0.479
			c0.98,0.175,1.703,0.303,2.424,0.434c1.229,0.221,3.631-0.334,3.964-2.099c0.559-0.173,1.117-0.346,1.706-0.528
			c0-0.456,0-0.835,0-1.329c-0.478,0-0.894-0.036-1.301,0.006c-1.299,0.134-2.504-0.003-3.266-1.224
			c-0.284-0.455-0.417-1.004-0.645-1.575c-0.369,0-0.749,0-1.156,0c-0.43,1.486-0.854,2.951-1.248,4.307
			c-0.393,0.155-0.614,0.236-0.831,0.33c-0.218,0.095-0.427,0.213-0.646,0.303C21.902,139.202,21.901,139.201,22.07,140.645z
			 M5.255,116.021c-0.701,1.025-0.75,1.135-0.439,2.039c0.405,1.177,0.862,2.336,1.251,3.38c0.624,0.214,1.071,0.455,1.519-0.102
			c0.023-1.214-1.433-2.093-1.077-3.458c1.152,0.055,1.767,1.154,2.792,1.328c0.333-0.57,0.537-1.11,0.073-1.493
			C8.17,116.725,6.785,116.129,5.255,116.021z M39.643,110.707c-0.541,0.049-1.013-0.044-1.31,0.143
			c-0.969,0.608-1.884,1.306-2.801,1.994c-0.337,0.253-0.549,0.604-0.273,1.036c0.207,0.323,0.762,0.361,1.185,0.088
			c0.132-0.085,0.229-0.227,0.359-0.316c0.57-0.393,1.147-0.776,1.929-1.303c0,1.249,0,2.233,0,3.115
			c0.645,0.594,1.049,0.261,1.533-0.124C40.562,113.789,40.302,112.281,39.643,110.707z"/>
		<path fill-rule="evenodd" clip-rule="evenodd" fill="none" d="M89.216,110.356c0.829-0.146,1.623,0.337,2.502,0.528
			c0,5.71,0,11.331,0,16.945c-0.979,0.186-1.933,0.261-2.81,0.563c-0.924,0.318-1.783,0.832-2.65,1.297
			c-1.002,0.538-1.95,1.184-2.978,1.664c-3.146,1.471-6.308,2.91-9.491,4.3c-0.55,0.24-1.23,0.238-1.852,0.242
			c-0.627,0.003-1.254-0.125-1.881-0.198c-0.588-0.068-1.182-0.236-1.762-0.195c-1.767,0.127-3.557,0.011-5.293,0.507
			c-1.598,0.457-3.105,1.102-4.62,2.268c-0.228-1.302,0.189-2.364,0.102-3.431c-0.095-1.151-0.021-2.316-0.021-3.476
			c0-1.119,0-2.238,0-3.357c0-1.159,0-2.319,0-3.479c0-1.119,0-2.238,0-3.357s0-2.238,0-3.357c0-1.159,0-2.318,0-3.478
			c0-1.116,0-2.231,0-3.394c0.488-0.245,0.933-0.468,1.542-0.773c-0.031,0.422-0.027,0.638-0.064,0.847
			c-0.225,1.262-0.032,2.462,0.701,3.503c0.891,1.265,1.783,2.542,2.99,3.543c0.822,0.683,1.648,1.36,2.491,2.017
			c0.624,0.486,1.294,0.913,1.913,1.405c1.117,0.887,2.434,1.239,3.79,1.536c1.761,0.386,3.497,0.285,5.272,0.056
			c0.992-0.128,1.937-0.351,2.894-0.595c1.316-0.336,2.29-1.177,3.285-2.028c1.339-1.145,2.37-2.543,3.405-3.941
			c0.759-1.026,1.081-2.258,1.538-3.424C88.547,112.256,88.836,111.404,89.216,110.356z"/>
		<path fill-rule="evenodd" clip-rule="evenodd" fill="none" d="M59.926,156.055c-0.236-0.111-0.445-0.211-0.692-0.328
			c0-0.209-0.022-0.404,0.007-0.592c0.023-0.15,0.109-0.292,0.193-0.503c-0.372-0.523-0.759-1.069-1.199-1.69
			c0.284-1.19,0.639-2.497-0.924-3.106c0.104-0.818,0.188-1.479,0.271-2.14c2.119-1.433,2.143-1.993,2.934-4.143
			c0.727-0.118,1.46-0.265,2.2-0.353c1.845-0.219,3.49-0.895,5.038-1.929c2.627-1.754,5.145-3.688,8.068-4.963
			c2.68-1.169,5.376-2.304,8.021-3.548c1.392-0.653,2.688-1.511,4.028-2.271c1.533-0.871,3.146-1.134,4.908-0.863
			c1.307,0.201,2.533,0.567,3.731,1.089c1.333,0.581,2.392,1.477,2.651,2.941c0.171,0.968,0.205,2.035-0.02,2.981
			c-0.475,1.996-1.225,3.896-2.454,5.604c-0.603,0.839-1.479,1.01-2.276,1.344c-1.318,0.554-2.767,0.601-4.179,0.754
			c-2.122,0.23-4.237,0.527-6.363,0.688c-1.432,0.107-2.878,0.036-4.316,0.027c-2.19-0.014-4.337,0.277-6.464,0.802
			c-1.994,0.491-3.99,0.992-5.844,1.883c-1.805,0.867-3.314,2.102-4.338,3.892c-0.783,1.37-1.674,2.679-2.53,4.007
			C60.276,155.797,60.092,155.905,59.926,156.055z"/>
		<path fill-rule="evenodd" clip-rule="evenodd" fill="none" d="M65.078,178.327c0.787-1.372,1.562-2.689,2.304-4.022
			c0.667-1.197,0.557-2.384,0.073-3.651c-0.837-2.195-2.134-4.127-3.282-6.146c-1.228-2.157-2.418-4.334-3.623-6.5
			c0.955-1.438,1.85-2.78,2.736-4.127c0.304-0.461,0.655-0.907,0.864-1.41c0.319-0.768,0.876-1.314,1.453-1.863
			c1.45-1.381,3.284-2.009,5.133-2.59c0.862-0.271,1.755-0.446,2.641-0.635c0.377-0.08,0.771-0.082,1.306-0.134
			c0.106,0.69,0.23,1.296,0.289,1.909c0.104,1.104,0.196,2.209,0.239,3.316c0.077,1.956-0.343,3.837-0.776,5.738
			c-0.428,1.88-0.686,3.823-0.248,5.77c0.069,0.307,0.1,0.64,0.063,0.95c-0.166,1.415,0.227,2.765,0.531,4.106
			c0.294,1.294,0.672,2.603,1.25,3.79c0.566,1.158,1.432,2.171,2.167,3.247c0.088,0.128,0.184,0.25,0.35,0.475
			c-0.406,0.14-0.748,0.283-1.104,0.373c-0.856,0.215-1.652,0.546-2.292,1.17c-0.363,0.354-0.764,0.367-1.213,0.25
			c-0.839-0.221-1.682-0.425-2.52-0.645c-2.049-0.535-3.982-0.008-5.908,0.622C65.379,178.364,65.221,178.327,65.078,178.327z"/>
		<path fill-rule="evenodd" clip-rule="evenodd" fill="none" d="M50.231,114.244c-0.93-0.437-1.55-1.456-2.694-1.595
			c-1.006-0.123-2.01-0.257-3.132-0.4c-0.096-2.567-1.002-4.831-2.341-7.024c-0.379,0.057-0.758,0.112-1.197,0.178
			c-0.079-0.199-0.206-0.404-0.239-0.624c-0.237-1.564-1.321-2.47-2.523-3.286c-1.792-1.218-3.577-2.445-5.385-3.64
			c-1.573-1.04-2.33-2.668-2.949-4.307c-0.678-1.795,0.221-4.169,1.73-5.216c1.757-1.218,3.524-1.609,5.482-1.012
			c0.842,0.258,1.568,0.894,2.335,1.351c0.133,0.509,0.225,0.974,0.376,1.417c0.41,1.208-0.203,2.008-1.12,2.578
			c-1.103,0.688-2.251,1.306-3.633,1.295c-0.497-0.003-0.996,0.209-1.601,0.348c0,0.402,0,0.797,0,1.367
			c0.911-0.062,1.722-0.115,2.538-0.17c0.372,0.558,0.732,1.159,1.153,1.716c0.918,1.214,2.293,1.812,3.576,2.504
			c1.743,0.94,3.536,1.788,5.314,2.661c0.46,0.226,0.934,0.442,1.425,0.58c1.161,0.327,2.004,1.156,2.79,1.947
			c1.148,1.156,1.967,2.603,2.279,4.227c0.192,0.997,0.215,2.046,0.171,3.065c-0.034,0.813-0.578,1.36-1.367,1.633
			C50.889,113.951,50.572,114.101,50.231,114.244z"/>
		<path fill-rule="evenodd" clip-rule="evenodd" fill="none" d="M43.917,120.071c0.774-0.276,1.381-0.631,2.015-0.692
			c1.77-0.173,3.516-0.745,5.331,0.143c1.27,0.622,2.646,1.042,3.826,1.852c0.676,0.465,1.294,1.014,1.992,1.568
			c-0.115,1.469-0.228,2.851-0.33,4.232c-0.023,0.318-0.013,0.64-0.013,0.959c-0.001,3.397-0.012,6.796,0.007,10.193
			c0.005,1,0.031,1.983-0.758,2.874c-2.971-0.802-4.998,0.382-6.125,3.431c-1.189-1.295-2.711-1.701-4.376-2.111
			c0.898-1.111,1.77-2.117,2.56-3.184c1.012-1.365,1.956-2.778,2.932-4.169c0.643-0.916,0.529-1.829,0.038-2.769
			c-0.413-0.791-0.779-1.605-1.268-2.621c0.345,0.144,0.525,0.171,0.638,0.273c1.436,1.322,2.613,2.839,3.521,4.576
			c0.24,0.457,0.694,0.802,1.092,1.244c0.352-0.301,0.584-0.501,0.809-0.692c-0.027-0.169-0.02-0.297-0.068-0.396
			c-1.058-2.156-2.469-4.021-4.26-5.648c-0.642-0.583-1.32-1.004-2.07-1.298c-0.537-0.21-0.84-0.52-1.113-0.98
			c-0.906-1.53-1.825-3.054-2.775-4.557C45.081,121.602,44.56,120.958,43.917,120.071z"/>
		<path fill-rule="evenodd" clip-rule="evenodd" fill="none" d="M102.097,111.919c-1.933-0.482-3.611-0.901-5.41-1.351
			c-0.224-1.375,0.129-2.742,0.561-4.094c0.156-0.487,0.374-0.959,0.608-1.415c0.122-0.239,0.301-0.492,0.521-0.633
			c1.736-1.106,3.533-2.056,5.567-2.556c1.449-0.356,2.869-0.881,4.244-1.466c0.588-0.25,1.029-0.846,1.533-1.282
			c0.318,0.455,0.575,0.914,0.931,1.275c0.107,0.108,0.489-0.055,0.844-0.107c0-0.919,0.131-1.78-0.04-2.576
			c-0.147-0.688-0.508-1.338-1.338-1.662c-1.322-0.515-2.584-1.192-3.578-2.18c-0.307-1.463,0.579-2.395,1.274-3.386
			c0.119-0.17,0.401-0.262,0.626-0.316c1.246-0.305,2.48-0.388,3.763-0.072c0.926,0.228,1.586,0.828,2.068,1.475
			c1.043,1.398,1.922,2.994,1.889,4.773c-0.025,1.306-0.005,2.681-0.669,3.934c-0.499,0.94-1.166,1.616-2.064,2.185
			c-0.498,0.314-0.985,0.239-1.461,0.386c-1.84,0.568-3.649,0.509-5.484-0.045c-1.054-0.318-1.584,0.038-2.246,0.932
			c-1.065,1.438-1.607,3.069-1.988,4.776c-0.094,0.421-0.129,0.86-0.145,1.292C102.08,110.476,102.097,111.147,102.097,111.919z"/>
		<path fill-rule="evenodd" clip-rule="evenodd" fill="none" d="M65.663,104.894c1.418,0.594,2.561,1.092,3.72,1.553
			c1.745,0.694,3.556,1.188,5.44,0.948c1.24-0.157,2.451-0.56,3.673-0.861c0.268-0.065,0.521-0.191,0.789-0.253
			c0.56-0.129,0.813,0.032,0.896,0.608c0.062,0.431,0.043,0.873,0.078,1.309c0.066,0.826,0.143,1.652,0.222,2.478
			c0.103,1.071,0.014,2.069-0.939,2.793c-0.252,0.19-0.489,0.422-0.676,0.676c-0.876,1.2-2.165,1.806-3.526,1.978
			c-1.005,0.127-2.104-0.171-3.11-0.459c-1.93-0.551-3.527-1.757-5.1-2.942c-0.959-0.723-1.613-1.651-1.496-3.03
			C65.761,108.193,65.663,106.676,65.663,104.894z"/>
		<path fill-rule="evenodd" clip-rule="evenodd" fill="none" d="M95.137,110.187c-0.702,0-1.25,0-1.826,0
			c-1.377-1.353-3.268-1.207-4.923-1.677c-0.337,0.307-0.544,0.575-0.815,0.719c-0.296,0.155-0.703,0.349-0.974,0.26
			c-1.607-0.528-3.188-1.134-4.803-1.723c0-0.656,0-1.244,0-1.961c0.563-0.147,1.114-0.32,1.678-0.437
			c2.406-0.497,4.655-1.502,7.007-2.158c3.315-0.924,6.236-2.675,9.259-4.206c1.464-0.742,2.828-1.704,4.164-2.668
			c0.517-0.373,0.831-1.026,1.31-1.644c0.963,1.376,2.564,1.73,3.944,2.548c-0.537,0.945-1.136,1.638-1.975,2.014
			c-0.858,0.385-1.769,0.695-2.688,0.902c-2.658,0.601-5.084,1.682-7.267,3.313c-0.063,0.048-0.136,0.098-0.173,0.164
			c-0.783,1.394-1.619,2.774-1.899,4.372C95.042,108.663,95.137,109.356,95.137,110.187z"/>
		<path fill-rule="evenodd" clip-rule="evenodd" fill="none" d="M55.688,143.089c0.35,1.449-0.027,2.735-1.477,3.792
			c0.386,0.341,0.663,0.636,0.988,0.86c0.313,0.217,0.674,0.362,1.117,0.592c-0.45,0.515-0.809,0.925-1.164,1.332
			c0.004,1.19,1.482,0.984,1.798,2.057c-0.095,0.188-0.24,0.504-0.411,0.805c-0.398,0.7-0.403,0.962,0.277,1.372
			c0.769,0.463,1.047,0.954,0.719,1.86c-0.178,0.49-0.011,1.099,0.603,1.363c0.386,0.166,0.574,0.44,0.475,0.847
			c-0.103,0.418-0.438,0.501-0.829,0.53c-0.77,0.058-1.408-0.056-1.778-0.858c-0.261-0.564-0.621-1.082-0.931-1.623
			c-0.29-0.505-0.674-0.783-1.337-0.546c-0.266,0.699-0.135,1.354,0.315,1.976c0.416,0.576,0.84,1.15,1.221,1.751
			c0.147,0.23,0.186,0.53,0.341,1.008c-1.407-0.253-2.497-0.632-3.407-1.411c-0.975-0.834-1.745-1.835-2.299-3.005
			c-0.27-0.569-0.631-1.095-0.931-1.651c-0.856-1.586-1.174-3.34-1.548-5.074c-0.117-0.54-0.11-1.117-0.296-1.628
			c-0.208-0.569-0.163-1.017,0.326-1.349c0.487-0.33,1.033-0.392,1.576-0.101c0.309,0.165,0.609,0.346,0.955,0.543
			c-0.065,1.822,0.713,3.438,1.364,5.086c0.099,0.251,0.269,0.489,0.454,0.688c0.283,0.301,0.625,0.331,0.961,0.06
			s0.552-0.593,0.307-1.032c-0.191-0.346-0.42-0.671-0.607-1.019c-0.918-1.704-1.07-3.562-0.939-5.432
			c0.111-1.602,1.48-2.497,3.125-2.19c0.27,0.05,0.542,0.09,0.809,0.154C55.528,142.861,55.571,142.958,55.688,143.089z"/>
		<path fill-rule="evenodd" clip-rule="evenodd" fill="none" d="M147.792,153.042c-0.278,0.056-0.576,0.166-0.873,0.166
			c-4.395,0.01-8.79,0.006-13.185,0c-0.154,0-0.309-0.049-0.5-0.081c0.055-0.795,0.566-1.197,1.148-1.559
			c0.505-0.314,0.991-0.655,1.059-1.541c-0.099-0.088-0.3-0.268-0.525-0.47c-0.514,0.268-0.948,0.494-1.44,0.751
			c-0.194-0.606,0.183-0.841,0.484-1.049c2.113-1.457,4.273-2.859,6.72-3.68c1.253-0.42,2.574-0.689,3.937-0.212
			c1.651,0.578,1.789,0.54,2.419,1.683c0.462,0.84,0.939,1.663,0.957,2.746C148.01,150.858,148.044,151.892,147.792,153.042z"/>
		<path fill-rule="evenodd" clip-rule="evenodd" fill="none" d="M98.502,130.125c-0.954-0.495-1.791-1.014-2.691-1.374
			c-0.85-0.34-1.767-0.515-2.549-0.732c0-1.111,0.009-2.134-0.003-3.156c-0.006-0.524,0.119-0.96,0.396-1.442
			c1.046-1.817,2.453-3.133,4.472-3.804c0.998-0.332,1.949-0.806,3.005-1.25c0.671,0.963,1.292,1.854,1.976,2.836
			c-0.968,1.362-1.999,2.69-2.577,4.315C99.97,127.091,99.191,128.586,98.502,130.125z"/>
		<path fill-rule="evenodd" clip-rule="evenodd" fill="none" d="M77.895,146.61c0.51-0.027,0.897-0.062,1.285-0.064
			c1.156-0.008,2.315,0.052,3.467-0.016c1.812-0.105,3.619-0.281,5.426-0.454c0.602-0.058,1.105,0.05,1.473,0.558
			c0.254,0.352,0.543,0.688,0.733,1.073c0.524,1.059,0.356,1.646-0.596,2.46c-0.774,0.663-1.484,1.35-2.47,1.793
			c-1.4,0.63-2.676,0.732-4.095,0.154c-1.096-0.447-2.197-0.84-3.142-1.584C78.731,149.549,78.115,148.263,77.895,146.61z"/>
		<path fill-rule="evenodd" clip-rule="evenodd" fill="none" d="M35.469,78.619c-0.31-0.454-0.741-0.868-0.909-1.37
			c-0.699-2.092-1.391-4.192-1.935-6.327c-0.24-0.939-0.246-1.984,0.163-2.938c0.417-0.972,0.684-1.991,1.232-2.928
			c0.631-1.08,1.579-1.546,2.672-1.743c0.802-0.145,1.651-0.028,2.524-0.028c0.301,1.367,1.182,2.465,0.977,3.976
			c-0.344-0.116-0.584-0.23-0.838-0.276c-0.715-0.13-1.345-0.491-2.175-0.273c-1.608,0.421-2.104,1.568-2.237,2.976
			c-0.081,0.852,0.56,1.439,1.133,1.975c1.234,1.15,2.868,1.201,4.452,1.535c0.039,0.175,0.104,0.359,0.119,0.549
			c0.088,1.105,0.172,2.211,0.24,3.317c0.015,0.235-0.042,0.474-0.066,0.711c-0.098-0.048-0.281-0.095-0.281-0.144
			c-0.01-0.842-0.707-1.29-1.113-1.885c-0.525-0.769-1.548-0.852-2.226-0.659c-1.142,0.324-1.967,0.939-1.826,2.237
			C35.422,77.753,35.438,78.187,35.469,78.619z"/>
		<path fill-rule="evenodd" clip-rule="evenodd" fill="none" d="M77.275,121.543c-0.187-1.489-0.315-2.753-1.242-3.849
			c0.241-0.143,0.452-0.364,0.685-0.39c1.064-0.117,1.825-0.717,2.518-1.458c0.3-0.321,0.593-0.657,0.936-0.928
			c1.317-1.041,1.843-2.661,2.878-3.908c0.181-0.218,0.183-0.583,0.285-0.941c1.397,0.175,2.578,0.797,3.943,1.355
			c-0.704,1.669-1.225,3.322-2.284,4.797c-1.031,1.435-2.17,2.732-3.537,3.827C80.261,121.005,78.828,121.33,77.275,121.543z"/>
		<path fill-rule="evenodd" clip-rule="evenodd" fill="none" d="M45.487,147.376c0.43,1.946,0.835,3.783,1.243,5.632
			c-1.001,0.376-8.833,0.296-11.648-0.157c0.392-2.229,1.598-3.873,3.727-4.589C40.964,147.537,43.179,146.856,45.487,147.376z"/>
		<path fill-rule="evenodd" clip-rule="evenodd" fill="none" d="M9.319,146.257c-1.599,1.766-3.118,3.528-3.343,6.304
			c-1.036,0.082-1.951-0.25-2.653-0.981c-0.921-0.959-1.445-2.104-1.516-3.485c-0.148-2.896,0.958-5.286,2.857-7.603
			c0.351,0.559,0.651,1.032,0.946,1.509c0.331,0.534,0.667,1.065,0.984,1.608C7.238,144.712,8.004,145.697,9.319,146.257z"/>
		<path fill-rule="evenodd" clip-rule="evenodd" fill="none" d="M78.44,153.06c0-0.596,0-1.067,0-1.656
			c0.393,0.199,0.724,0.313,0.989,0.512c1.383,1.038,2.999,1.57,4.594,2.143c0.356,0.128,0.784,0.164,1.161,0.11
			c1.422-0.202,2.725-0.833,3.933-1.524c1.076-0.617,1.979-1.587,2.674-2.655c0.615-0.946,0.145-1.92-0.138-2.858
			c-0.088-0.293-0.283-0.555-0.486-0.938c0.343-0.043,0.62-0.078,0.894-0.112c0.957,2.232,0.16,4.409-0.059,6.625
			c0.528,0,0.904,0,1.332,0c0.936-2.391,0.854-4.752,0.257-7.161c0.04-0.036,0.094-0.128,0.154-0.133
			c0.233-0.017,0.468-0.007,0.788-0.007c0.534,1.14,0.724,2.374,0.846,3.627c0.051,0.51,0.133,1.017,0.18,1.526
			c0.106,1.141-0.374,2.695-1.813,3.464c-1.546,0.826-3.147,1.521-4.842,1.915c-3.739,0.866-7.121,0.07-10.067-2.432
			C78.686,153.377,78.572,153.209,78.44,153.06z"/>
		<path fill-rule="evenodd" clip-rule="evenodd" fill="none" d="M61.262,111.468c0.832-0.527,1.58-1.003,2.435-1.545
			c0.196,0.658,0.229,1.206,0.499,1.588c0.566,0.805,1.187,1.601,1.916,2.255c0.848,0.76,1.797,1.428,2.773,2.017
			c0.801,0.481,1.701,0.802,2.566,1.168c0.429,0.182,0.881,0.305,1.238,0.426c-0.27,1.386-0.523,2.688-0.779,4.007
			c-1.039-0.055-2.006-0.426-2.896-1.057c-1.775-1.257-3.664-2.374-5.095-4.057c-0.716-0.842-1.456-1.683-2.025-2.621
			C61.542,113.07,61.493,112.308,61.262,111.468z"/>
		<path fill-rule="evenodd" clip-rule="evenodd" fill="none" d="M93.268,121.17c0-3.282,0-6.294,0-9.409
			c2.629,0.163,5.237,0.631,7.841,1.552c-0.238,0.654-0.573,1.25-0.651,1.877c-0.074,0.597,0.12,1.226,0.185,1.747
			c-1.383,0.576-2.63,1.166-3.925,1.617C95.367,119.026,94.563,120.214,93.268,121.17z"/>
		<path fill-rule="evenodd" clip-rule="evenodd" fill="none" d="M110.76,79.701c-0.429,0.357-0.786,0.656-1.323,1.104
			c-0.132-1.297,0.285-2.291,0.522-3.316c2.489,0.578,4.218-0.633,4.588-2.739c0.27-1.536-0.774-2.978-2.715-3.526
			c0.132-0.365,0.247-0.734,0.396-1.088c0.15-0.357,0.335-0.701,0.479-0.998c1.306-0.324,2.118,0.152,2.853,1.117
			c0.766,1.004,1.043,2.146,1.14,3.311c0.179,2.146,0.032,4.285-0.759,6.33c-0.156,0.405-0.367,0.796-0.472,1.214
			c-0.327,1.306-1.367,2.097-2.157,3.069c-0.032,0.039-0.143,0.016-0.251,0.023c0.04-0.701,0.093-1.397,0.117-2.095
			c0.034-0.976-0.289-1.699-1.345-1.948C111.463,80.071,111.123,79.859,110.76,79.701z"/>
		<path fill-rule="evenodd" clip-rule="evenodd" fill="none" d="M61.137,186.65c0.686-0.1,1.265-0.259,1.843-0.253
			c1.673,0.015,3.315-0.143,4.964-0.446c0.93-0.171,1.923-0.131,2.869-0.024c1.152,0.131,2.246-0.037,3.371-0.216
			c0.727-0.115,1.499,0.044,2.25,0.091c0.315,0.02,0.628,0.074,0.943,0.1c1.22,0.097,2.44,0.188,3.746,0.289c0,0.559,0,1.06,0,1.655
			c-0.788,0.717-1.813,0.374-2.774,0.354c-0.51-0.011-1.016-0.16-1.525-0.173c-1.118-0.028-2.237,0.008-3.356-0.013
			c-1.355-0.025-2.68,0.086-4.008,0.415c-0.949,0.235-1.963,0.215-2.947,0.31c-0.827,0.079-1.652,0.191-2.48,0.225
			c-0.383,0.016-0.783-0.081-1.156-0.195C61.557,188.363,61.475,188.252,61.137,186.65z"/>
		<path fill-rule="evenodd" clip-rule="evenodd" fill="none" d="M70.469,137.24c-3.588,3.323-7.52,5.567-12.66,4.266
			c0.113-0.779,0.449-1.417,1.139-1.922c1.459-1.07,3.067-1.874,4.811-2.228c1.688-0.343,3.42-0.718,5.178-0.226
			C69.42,137.265,69.958,137.208,70.469,137.24z"/>
		<path fill-rule="evenodd" clip-rule="evenodd" fill="none" d="M99.337,150.161c-0.374-0.052-0.759-0.105-1.336-0.186
			c1.094-1.256,2.219-2.211,3.666-2.694c0.846-0.283,1.751-0.549,2.645-0.24c1.377,0.476,2.672,1.133,3.145,2.647
			c0.243,0.779,0.32,1.623,0.379,2.444c0.044,0.628-0.376,1.06-1.022,1.068c-2.157,0.028-4.315,0.026-6.472,0.001
			c-0.649-0.008-0.832-0.251-0.828-0.906c0.001-0.232,0.065-0.468,0.116-0.698C99.774,150.944,99.777,150.944,99.337,150.161z
			 M104.328,149.553c-1.196-0.321-1.24-0.282-1.57,0.63c-0.296,0.815-0.21,1.608-0.028,2.566c0.438-0.028,0.83-0.053,1.238-0.079
			C104.099,151.531,104.214,150.532,104.328,149.553z M100.963,149.413c-0.798,0.933-0.537,1.915-0.464,2.988
			c0.351,0.056,0.677,0.107,1.247,0.198c-0.141-1.148,0.543-2.079,0.308-3.187C101.634,149.413,101.324,149.413,100.963,149.413z"/>
		<path fill-rule="evenodd" clip-rule="evenodd" fill="none" d="M25.934,109.722c-0.497,1.37-0.88,2.599-1.384,3.776
			c-0.708,1.656-1.807,3.012-3.261,3.98c-1.305-0.545-1.264-0.545-1.247-1.853c0.01-0.743-0.228-1.492-0.196-2.232
			c0.036-0.816,0.269-1.623,0.389-2.438c0.139-0.941,0.896-1.343,1.616-1.554c0.855-0.251,1.794-0.231,2.7-0.291
			C25.137,109.073,25.638,109.283,25.934,109.722z"/>
		<path fill-rule="evenodd" clip-rule="evenodd" fill="none" d="M64.729,181.928c0.396,0.411,0.705,0.731,1.059,1.097
			c1.195-0.007,1.188-1.342,1.938-1.838c1.399-0.415,1.352,1.192,2.129,1.584c1.124-0.221,1.104-1.047,1.103-1.839
			c1.015-1.369,1.226-1.436,2.81-0.876c0.729,1.005,1.287,2.06,0.598,3.348c-0.572,0.605-1.241,0.619-2.059,0.203
			c-0.184,0.271-0.359,0.532-0.486,0.721c-0.229,0.04-0.346,0.077-0.463,0.078c-0.8,0.008-1.6,0.027-2.398,0.007
			c-1.277-0.033-2.527,0.068-3.771,0.408c-0.523,0.144-1.109,0.067-1.668,0.074c-0.75,0.009-1.502,0.002-2.318,0.002
			c-0.082-0.382-0.189-0.877-0.322-1.496c0.279-0.184,0.594-0.391,0.975-0.64c0.34,0.409,0.641,0.769,0.979,1.174
			c0.271,0,0.584,0,1.037,0C64.112,183.365,64.383,182.734,64.729,181.928z"/>
		<path fill-rule="evenodd" clip-rule="evenodd" fill="none" d="M26.349,115.558c-0.063-2.029-0.076-3.939,1.49-5.452
			c0.251-0.243,0.411-0.577,0.637-0.849c1.214-1.456,2.113-1.473,3.412-0.077c-0.037,0.426-0.125,0.854-0.102,1.277
			c0.105,1.986-0.746,3.544-2.244,4.721C28.641,115.885,27.538,115.958,26.349,115.558z"/>
		<path fill-rule="evenodd" clip-rule="evenodd" fill="none" d="M56.893,120.636c-1.941-0.996-3.71-1.904-5.49-2.818
			c0-0.624,0-1.277,0-2.083c1.613-1.095,3.281-2.405,5.49-2.961C56.893,115.375,56.893,117.904,56.893,120.636z"/>
		<path fill-rule="evenodd" clip-rule="evenodd" fill="none" d="M15.645,153.891c-0.104-0.679-0.147-1.343-0.319-1.971
			c-0.164-0.602-0.462-1.166-0.707-1.762c-0.393,0-0.7,0-1.075,0c-0.138,0.344-0.277,0.689-0.489,1.22
			c-0.313-0.47-0.545-0.817-0.864-1.295c-0.262,0.067-0.71,0.053-0.863,0.258c-0.168,0.227-0.138,0.672-0.064,0.991
			c0.132,0.573,0.392,1.117,0.534,1.688c0.046,0.188-0.108,0.427-0.253,0.925c-0.604-1.212-0.431-2.534-1.77-2.92
			c-0.488-0.141-0.832-0.063-1.143,0.263c-0.291,1.035,1.306,1.196,0.967,2.315c-0.561,0-1.135,0-1.74,0
			c-0.451-0.771-0.45-1.64-0.169-2.326c0.444-1.085,1.042-2.161,1.802-3.046c0.889-1.035,3.359-1.086,4.623,0.01
			c0.359,0.311,0.744,0.591,1.118,0.884c1.312,1.024,1.567,2.432,1.389,3.966C16.568,153.553,16.226,153.84,15.645,153.891z"/>
		<path fill-rule="evenodd" clip-rule="evenodd" fill="none" d="M76.296,179.757c1.454-0.122,2.941-0.246,4.421-0.37
			c0.536,0.503,1.021,0.96,1.57,1.476c-0.399,1.206-0.778,2.35-1.16,3.507c-1.213,0-2.321,0-3.445,0
			C76.159,183.214,75.579,181.362,76.296,179.757z"/>
		<path fill-rule="evenodd" clip-rule="evenodd" d="M35.469,78.619c-0.031-0.432-0.047-0.865-0.094-1.295
			c-0.142-1.298,0.684-1.913,1.826-2.237c0.678-0.192,1.7-0.109,2.226,0.659c0.407,0.595,1.104,1.043,1.113,1.885
			c0,0.049,0.183,0.096,0.281,0.144l-0.031-0.032c-0.1,0.825-0.264,1.625-0.797,2.186c-1.542,0.637-2.75,0.193-3.84-0.81
			c-0.123-0.113-0.349-0.114-0.527-0.169C35.573,78.839,35.521,78.729,35.469,78.619z"/>
		<path fill-rule="evenodd" clip-rule="evenodd" fill="none" d="M102.556,113.917c2.078,0.468,3.458,1.478,4.339,3.144
			c0.469,0.886,0.293,1.79-0.098,2.624c-0.138,0.294-0.586,0.585-0.917,0.617c-0.933,0.092-1.721-0.125-2.348-1.013
			c-0.895-1.267-1.574-2.546-1.377-4.135C102.206,114.757,102.402,114.379,102.556,113.917z"/>
		<path fill-rule="evenodd" clip-rule="evenodd" fill="none" d="M97.062,148.727c-0.393-1.478-0.744-2.799-1.089-4.099
			c0.574-0.396,1.216-0.723,1.701-1.206c0.485-0.482,0.814-1.121,1.257-1.755c1.332,1.29,2.543,2.464,3.885,3.764
			C100.44,145.721,98.81,147.174,97.062,148.727z"/>
		<path fill-rule="evenodd" clip-rule="evenodd" fill="none" d="M123.07,108.567c0.629,1.093,1.24,2.014,1.697,3.006
			c0.256,0.554,0.323,1.222,0.355,1.845c0.054,1.062,0.015,2.127,0.015,3.199c-1.487,0.174-2.946-1.014-3.082-2.502
			c-0.113-1.256-0.282-2.509-0.474-3.756c-0.063-0.412-0.272-0.802-0.47-1.358C121.782,108.853,122.432,108.708,123.07,108.567z"/>
		<path fill-rule="evenodd" clip-rule="evenodd" fill="none" d="M120.663,115.123c-1.705,0.293-2.337,0.009-2.892-1.254
			c-0.234-0.533-0.479-1.126-0.469-1.688c0.017-0.864-0.358-1.492-0.808-2.154c-0.765-1.127-0.517-1.905,0.768-2.545
			c0.764,0.661,1.534,1.327,2.304,1.996c0.533,0.463,0.525,1.125,0.61,1.74C120.353,112.497,120.498,113.78,120.663,115.123z"/>
		<path fill-rule="evenodd" clip-rule="evenodd" fill="none" d="M129.697,117.071c-1.65,0.243-2.918-0.777-3.063-2.335
			c-0.041-0.435-0.049-0.88-0.004-1.313c0.129-1.232-0.166-2.332-0.902-3.33c-0.153-0.208-0.198-0.497-0.341-0.878
			c0.313,0.021,0.525,0.005,0.719,0.056c0.188,0.049,0.349,0.192,0.535,0.25c2.41,0.753,3.022,2.632,3.055,4.87
			C129.708,115.262,129.697,116.134,129.697,117.071z"/>
		<path fill-rule="evenodd" clip-rule="evenodd" fill="none" d="M33.917,150.682c-0.105,0.671-0.203,1.297-0.32,2.044
			c-5.13-0.047-10.212,0.229-15.281-0.321c-0.193-0.858-0.379-1.688-0.596-2.65c0.932,0.248,1.819,0.487,2.708,0.72
			c1.828,0.479,3.637,1.074,5.493,1.389c1.26,0.213,2.61,0.179,3.879-0.016C31.142,151.642,32.434,151.118,33.917,150.682z"/>
		<path fill-rule="evenodd" clip-rule="evenodd" fill="none" d="M49.932,117.41c-0.557,0.095-1.123,0.234-1.697,0.278
			c-1.245,0.097-2.538-0.264-3.911,0.716c0.114-1.659,0.207-3,0.303-4.4c2.015-0.376,3.591,0.33,4.89,1.752
			C49.885,116.16,50.055,116.7,49.932,117.41z"/>
		<path fill-rule="evenodd" clip-rule="evenodd" fill="none" d="M18.368,111.39c-0.011,1.165-0.089,2.233-0.011,3.291
			c0.08,1.077-0.272,1.924-1.004,2.665c-0.162,0.165-0.284,0.369-0.409,0.534c-1.088-0.025-1.138-0.081-1.203-1.012
			c-0.063-0.904-0.181-1.805-0.225-2.71c-0.017-0.344,0.077-0.7,0.163-1.04C16.071,111.572,16.823,111.108,18.368,111.39z"/>
		<path fill-rule="evenodd" clip-rule="evenodd" fill="none" d="M144.653,143.75c-0.502-0.036-1.007-0.119-1.508-0.096
			c-0.49,0.023-0.977,0.154-1.608,0.262c1.159-2.793,1.715-5.522,2.2-8.303C144.988,136.475,145.406,140.487,144.653,143.75z"/>
		<path fill-rule="evenodd" clip-rule="evenodd" fill="none" d="M115.869,153.366c-1.089-0.042-2.202-0.242-3.261-0.082
			c-1.079,0.165-2.065-0.141-3.167-0.124c-0.082-0.982-0.158-1.909-0.25-3.017c0.369,0.122,0.688,0.194,0.977,0.329
			c1.504,0.697,2.997,1.418,4.502,2.113c0.403,0.187,0.835,0.312,1.254,0.465C115.905,153.156,115.886,153.26,115.869,153.366z"/>
		<path fill-rule="evenodd" clip-rule="evenodd" fill="none" d="M40.345,71.281c-1.467,0.297-2.583-0.209-3.673-0.943
			c0.036-0.679-0.399-1.536,0.33-1.875c0.71-0.33,1.577-0.326,2.383,0.128c0.792,0.446,1.176,1.012,1.033,1.917
			C40.381,70.737,40.373,70.97,40.345,71.281z"/>
		<path fill-rule="evenodd" clip-rule="evenodd" fill="none" d="M35.625,78.949c0.178,0.055,0.404,0.056,0.527,0.169
			c1.09,1.003,2.298,1.446,3.84,0.81c0.533-0.561,0.697-1.36,0.797-2.186c0.093,0.059,0.258,0.105,0.268,0.175
			c0.182,1.354,0.345,2.709,0.511,4.059C39.278,82.587,36.164,81.069,35.625,78.949z"/>
		<path fill-rule="evenodd" clip-rule="evenodd" fill="none" d="M12.002,117.563c-0.236-1.286-0.157-2.511,0.519-3.658
			c0.335-0.57,0.474-0.631,1.342-0.596C14.311,115.98,14,116.931,12.002,117.563z"/>
		<path fill-rule="evenodd" clip-rule="evenodd" fill="none" d="M110.446,75.865c-0.398-0.909,0.272-1.646,0.184-2.415
			c1.058-0.735,1.477-0.771,2.011-0.198c0.709,0.76,0.64,1.296-0.356,2.613C111.684,75.865,111.067,75.865,110.446,75.865z"/>
		<path fill-rule="evenodd" clip-rule="evenodd" fill="none" d="M73.657,121.662c-0.18-1.244-0.024-2.316,0.595-3.465
			c0.417,0.391,0.78,0.73,1.128,1.057c0.107,0.813,0.209,1.582,0.316,2.408C74.928,121.662,74.286,121.662,73.657,121.662z"/>
		<path fill-rule="evenodd" clip-rule="evenodd" fill="none" d="M46.814,144.542c-0.385,0.443-0.711,0.819-0.959,1.105
			c-1.418,0-2.727,0-4.044,0C43.512,143.758,44.3,143.688,46.814,144.542z"/>
		<path fill-rule="evenodd" clip-rule="evenodd" fill="none" d="M131.305,115.975c-0.126-1.489-0.246-2.915-0.368-4.343
			c1.048-0.059,1.646,0.374,1.621,1.363c-0.019,0.736-0.154,1.479-0.329,2.197C132.145,115.537,131.962,115.95,131.305,115.975z"/>
		<path fill-rule="evenodd" clip-rule="evenodd" fill="none" d="M111.583,85.05c-1.001,0.957-2.156,0.742-3.473,0.631
			c0.203-0.936,0.388-1.787,0.625-2.876C109.464,84.062,110.207,84.945,111.583,85.05z"/>
		<path fill-rule="evenodd" clip-rule="evenodd" fill="none" d="M57.163,145.817c0.109-0.786,0.219-1.575,0.354-2.541
			c0.33-0.139,0.822-0.258,1.264,0.258C58.094,145.789,57.997,145.918,57.163,145.817z"/>
		<path fill-rule="evenodd" clip-rule="evenodd" fill="none" d="M96.766,153.114c0.621-0.868,0.352-1.893,1.148-2.589
			c0,0.833,0,1.667,0,2.589C97.592,153.114,97.275,153.114,96.766,153.114z"/>
		<path fill-rule="evenodd" clip-rule="evenodd" fill="none" d="M111.082,81.515c0.779,0.645,0.808,0.926,0.224,1.748
			c-0.074-0.008-0.155,0-0.223-0.028c-0.145-0.061-0.282-0.14-0.46-0.229C110.544,82.47,110.346,81.911,111.082,81.515z"/>
		<path fill-rule="evenodd" clip-rule="evenodd" fill="none" d="M66.987,179.631c-0.271,0.372-0.543,0.744-0.892,1.221
			c-0.353-0.122-0.72-0.249-1.142-0.396c0.507-0.815,1.257-0.758,1.852-1.042C66.866,179.487,66.926,179.559,66.987,179.631z"/>
		<path fill-rule="evenodd" clip-rule="evenodd" fill="none" d="M67.741,179.271c0.76,0,1.52,0,2.364,0
			c-0.13,0.313-0.229,0.55-0.383,0.918c-0.36-0.171-0.649-0.339-0.96-0.445c-0.32-0.109-0.66-0.159-0.992-0.234
			C67.76,179.429,67.75,179.35,67.741,179.271z"/>
		<path fill-rule="evenodd" clip-rule="evenodd" fill="none" d="M13.472,151.906c0.688,1.082,0.698,1.199,0.162,2.032
			C13.16,153.269,13.346,152.621,13.472,151.906z"/>
		<path fill-rule="evenodd" clip-rule="evenodd" d="M83.273,64.411c-0.868-1.293-1.746-2.602-2.711-4.04c0-0.211,0-0.597,0-1.004
			c1.67-0.486,3.288-0.961,4.908-1.426c0.872-0.25,1.743-0.5,2.623-0.717c2.53-0.624,5.094-1.039,7.697-1.22
			c1.734-0.121,3.465-0.305,5.195-0.475c0.509-0.05,1.012-0.205,1.52-0.221c1.024-0.032,1.33,0.237,1.305,1.233
			c-0.036,1.466-0.136,2.931-0.241,4.394c-0.04,0.542-0.373,0.853-0.942,0.885c-1.386,0.076-2.771,0.148-4.155,0.248
			c-0.668,0.048-1.33,0.165-1.998,0.232c-1.69,0.168-3.398,0.231-5.07,0.511c-2.328,0.391-4.63,0.94-6.941,1.426
			c-0.269,0.056-0.527,0.158-0.796,0.214C83.555,64.474,83.43,64.429,83.273,64.411z"/>
		<path fill-rule="evenodd" clip-rule="evenodd" d="M49.084,51.186c0.498,0.055,0.867,0.032,1.189,0.141
			c4.113,1.387,8.221,2.792,12.328,4.196c1.491,0.51,2.979,1.029,4.469,1.543c2.154,0.744,3.223,2.32,3.111,4.628
			c-0.411,0.661-1.053,0.812-1.818,0.865c-1.701,0.117-3.244-0.302-4.845-0.879c-3.786-1.364-7.651-2.506-11.478-3.76
			c-0.895-0.293-1.761-0.674-2.672-1.026c-0.189-1.487-0.402-2.888-0.531-4.296C48.799,52.162,48.987,51.705,49.084,51.186z"/>
		<path fill-rule="evenodd" clip-rule="evenodd" d="M53.194,65.132c-1.385-0.251-2.545-0.472-3.709-0.669
			c-0.545-0.093-0.882-0.371-0.898-0.934c-0.02-0.747-0.004-1.495-0.004-2.37c0.594-0.038,1.066-0.149,1.51-0.082
			c1.751,0.269,3.49,0.614,5.238,0.892c1.752,0.279,3.513,0.5,5.266,0.771c0.893,0.139,1.783,0.306,2.665,0.508
			c1.265,0.29,2.521,0.62,3.776,0.942c0.529,0.136,0.779,0.482,0.788,1.042c0.019,1.284-0.748,2.094-2.048,2.104
			c-0.355,0.003-0.711-0.048-1.066-0.079c-0.74-0.064-1.48-0.131-2.286-0.203c-0.169,1.155-0.968,1.67-1.724,2.214
			c-1.071,0.771-2.277,0.511-3.443,0.369c-2.076-0.252-2.861-1.888-3.629-3.517C53.463,65.771,53.316,65.411,53.194,65.132z"/>
		<path fill-rule="evenodd" clip-rule="evenodd" d="M87.407,68.951c-0.892,0.091-1.517,0.154-2.31,0.235
			c-0.756-0.845-1.651-1.75-1.763-3.285c0.798-0.186,1.511-0.374,2.232-0.513c0.58-0.111,1.17-0.206,1.759-0.232
			c2.264-0.102,4.529-0.218,6.794-0.24c1.321-0.013,2.645,0.125,3.964,0.228c1.145,0.089,2.285,0.223,3.665,0.361
			c0.117,0.126,0.384,0.416,0.652,0.705c-0.166,0.861-0.32,1.662-0.458,2.377c-0.618,0.342-1.11,0.305-1.683,0.252
			c-1.008-0.09-2.039,0.084-3.11,0.151c-0.381,1.489-1.608,2.116-2.599,2.929c-1.167,0.957-3.016,0.981-4.204,0.088
			c-0.747-0.561-1.376-1.284-2.034-1.959C87.981,69.708,87.703,69.314,87.407,68.951z"/>
		<path fill-rule="evenodd" clip-rule="evenodd" d="M64.94,82.875c0.137-0.386,0.254-0.715,0.374-1.054
			c1.082-0.35,2.063,0.096,3.05,0.277c1.16,0.215,2.291,0.578,3.441,0.85c1.33,0.314,2.668,0.302,4.003,0.004
			c0.039-0.008,0.079-0.027,0.116-0.022c1.688,0.191,3.286-0.46,4.948-0.522c0.668-0.025,1.331-0.159,1.998-0.229
			c1.089-0.113,2.12,0.039,3.079,0.723c0.376,0.844-0.149,1.555-0.74,1.885c-1.979,1.11-3.892,2.348-6.113,3.022
			c-1.972,0.599-3.969,0.544-5.91,0.337c-1.73-0.187-3.472-0.778-4.825-2.068C67.254,85.022,66.129,83.987,64.94,82.875z"/>
		<path fill-rule="evenodd" clip-rule="evenodd" d="M59.875,94.658c0.112-0.285,0.228-0.576,0.407-1.033
			c1.975-0.211,4.011-0.438,6.049-0.645c0.984-0.1,1.977-0.262,2.957-0.221c1.617,0.07,3.228,0.291,4.842,0.433
			c1.145,0.101,2.294,0.155,3.437,0.271c0.94,0.096,1.875,0.249,2.811,0.384c1.289,0.187,2.581,0.352,3.862,0.578
			c1.747,0.308,3.503,0.61,5.057,1.493c0.379,0.757-0.151,1.131-0.569,1.552c-0.386,0.391-0.785,0.528-1.373,0.385
			c-1.722-0.419-3.463-0.765-5.201-1.109c-0.773-0.153-1.558-0.271-2.342-0.344c-1.224-0.113-2.454-0.152-3.677-0.267
			c-1.061-0.099-2.113-0.261-3.172-0.387c-0.354-0.042-0.712-0.079-1.068-0.082c-1.239-0.01-2.48-0.056-3.717,0.011
			c-1.101,0.061-2.191,0.298-3.293,0.369c-1.191,0.078-2.394,0.129-3.581,0.047C60.592,96.044,60.108,95.5,59.875,94.658z"/>
		<path fill-rule="evenodd" clip-rule="evenodd" d="M125.176,131.4c-0.015-1.627,0.265-1.997,1.604-1.922
			c1.411,0.079,2.854,0.171,4.207,0.54c1.03,0.281,1.951,0.986,2.899,1.539c0.405,0.237,0.727,0.625,1.14,0.842
			c0.896,0.47,1.053,1.197,0.905,2.09c-0.628,0.509-1.291,0.407-1.924,0.165c-1.028-0.395-2.021-0.885-3.052-1.268
			c-1.213-0.451-2.454-0.827-3.68-1.244C126.577,131.904,125.881,131.65,125.176,131.4z"/>
		<path fill-rule="evenodd" clip-rule="evenodd" d="M121.551,142.01c0,0.5,0,0.855,0,1.277c-1.163,0.363-1.83-0.487-2.682-1.052
			c-1.607,0.501-2.807-0.265-3.846-1.461c-0.275-0.317-0.585-0.357-1.038-0.302c-0.604,0.074-1.263-0.048-1.856-0.227
			c-0.272-0.082-0.554-0.465-0.642-0.767c-0.181-0.622,0.311-1.114,0.87-0.823c1.063,0.552,2.075,0.173,3.113,0.066
			c1.309-0.134,1.761-1.044,1.982-2.167c0.03-0.152,0.037-0.311,0.052-0.433c0.479-0.471,0.995-0.506,1.722-0.283
			c-0.105,0.708-0.154,1.408-0.329,2.075c-0.105,0.404-0.052,0.736,0.002,1.131C119.121,140.667,119.882,141.771,121.551,142.01z
			 M116.534,140.321c0.373,0.166,0.66,0.293,0.972,0.431c0.277-0.563,0.197-0.89-0.352-1.104
			C116.963,139.854,116.788,140.045,116.534,140.321z"/>
		<path fill-rule="evenodd" clip-rule="evenodd" d="M114.633,127.589c-0.024,0.509-0.043,0.898-0.063,1.325
			c-0.606,0.169-1.112,0.07-1.665-0.086c-1.096-0.311-2.216-0.652-3.341-0.716c-1.169-0.065-2.356,0.179-3.534,0.299
			c-0.349,0.035-0.693,0.106-1.039,0.161c-0.186-0.225-0.354-0.392-0.479-0.586c-0.384-0.594-0.281-1.073,0.348-1.354
			c1.489-0.664,3.026-1.205,4.69-1.004c1.402,0.17,2.808,0.402,4.049,1.148C113.983,127.008,114.31,127.333,114.633,127.589z"/>
		<path fill-rule="evenodd" clip-rule="evenodd" d="M141.066,114.337c0.956,2.221,0.837,4.299,0.098,6.449c-0.372,0-0.748,0-1.163,0
			c-0.462-0.773,0.101-1.456,0.158-2.16c0.076-0.939,0.316-1.877-0.339-2.785c-1.099,0.017-2.199-0.026-3.119,0.733
			c-0.371,0.306-0.713,0.257-1.065,0.033c-0.232-0.996-0.189-1.222,0.556-1.552c0.897-0.398,1.812-0.776,2.838-0.726
			C139.719,114.365,140.411,114.337,141.066,114.337z"/>
		<path fill-rule="evenodd" clip-rule="evenodd" d="M10.65,133.842c-0.229-0.134-0.431-0.251-0.693-0.403
			c-0.032-1.289,0.118-2.499,1.184-3.427c0.39-0.339,0.704-0.77,1.112-1.081c0.365-0.279,0.798-0.484,1.226-0.662
			c0.322-0.135,0.699-0.133,1.025-0.262c2.321-0.914,4.185,0.097,6.011,1.363c0,0.389,0,0.742,0,1.138
			c-0.938,0.611-2.055,0.591-3.067,0.631c-2.488,0.098-4.578,1.034-6.479,2.54C10.908,133.726,10.83,133.751,10.65,133.842z"/>
		<path fill-rule="evenodd" clip-rule="evenodd" d="M40.164,126.559c0,0.611,0,1.042,0,1.468c-0.626,0.438-1.274,0.354-1.869,0.168
			c-2.206-0.689-4.469-0.645-6.733-0.6c-0.304,0.006-0.61,0.136-0.908,0.231c-0.451,0.145-0.886,0.36-1.347,0.445
			c-0.232,0.043-0.644-0.064-0.726-0.229c-0.115-0.229-0.117-0.689,0.04-0.853c1.111-1.157,2.125-2.489,3.963-2.541
			c0.467-0.014,0.929-0.173,1.397-0.216c1.489-0.134,2.922,0.148,4.25,0.796C38.933,125.571,39.533,126.116,40.164,126.559z"/>
		<path fill-rule="evenodd" clip-rule="evenodd" d="M22.07,140.645c-0.169-1.444-0.168-1.443,0.831-1.854
			c0.22-0.09,0.428-0.208,0.646-0.303c0.216-0.094,0.438-0.175,0.831-0.33c0.393-1.355,0.817-2.82,1.248-4.307
			c0.407,0,0.788,0,1.156,0c0.228,0.571,0.361,1.12,0.645,1.575c0.761,1.221,1.967,1.357,3.266,1.224
			c0.408-0.042,0.823-0.006,1.301-0.006c0,0.494,0,0.873,0,1.329c-0.589,0.183-1.147,0.355-1.706,0.528
			c-0.333,1.765-2.735,2.319-3.964,2.099c-0.722-0.131-1.444-0.259-2.424-0.434C23.508,140.269,22.837,140.444,22.07,140.645z
			 M28.608,138.203c-0.808-0.524-1.477-0.96-2.145-1.395c-0.271,0.74-0.521,1.424-0.792,2.162c1.062,0.141,2.026,0.207,2.938-0.336
			C28.608,138.445,28.608,138.291,28.608,138.203z"/>
		<path fill-rule="evenodd" clip-rule="evenodd" d="M5.255,116.021c1.53,0.108,2.915,0.704,4.117,1.694
			c0.464,0.383,0.26,0.923-0.073,1.493c-1.024-0.174-1.64-1.273-2.792-1.328c-0.356,1.365,1.101,2.244,1.077,3.458
			c-0.448,0.557-0.895,0.315-1.519,0.102c-0.389-1.044-0.846-2.203-1.251-3.38C4.505,117.156,4.554,117.046,5.255,116.021z"/>
		<path fill-rule="evenodd" clip-rule="evenodd" d="M39.643,110.707c0.659,1.574,0.919,3.082,0.622,4.633
			c-0.484,0.385-0.889,0.718-1.533,0.124c0-0.882,0-1.866,0-3.115c-0.782,0.526-1.359,0.91-1.929,1.303
			c-0.13,0.09-0.227,0.231-0.359,0.316c-0.422,0.273-0.978,0.235-1.185-0.088c-0.276-0.432-0.064-0.783,0.273-1.036
			c0.917-0.688,1.832-1.386,2.801-1.994C38.63,110.663,39.102,110.755,39.643,110.707z"/>
		<path fill-rule="evenodd" clip-rule="evenodd" d="M104.328,149.553c-0.113,0.979-0.229,1.978-0.36,3.117
			c-0.408,0.026-0.8,0.051-1.238,0.079c-0.182-0.958-0.268-1.751,0.028-2.566C103.087,149.271,103.131,149.232,104.328,149.553z"/>
		<path fill-rule="evenodd" clip-rule="evenodd" d="M100.963,149.413c0.36,0,0.671,0,1.091,0c0.235,1.107-0.448,2.038-0.308,3.187
			c-0.57-0.091-0.896-0.143-1.247-0.198C100.426,151.328,100.166,150.345,100.963,149.413z"/>
		<path fill-rule="evenodd" clip-rule="evenodd" fill="none" d="M116.534,140.321c0.254-0.275,0.43-0.467,0.62-0.673
			c0.549,0.214,0.629,0.541,0.352,1.104C117.194,140.614,116.907,140.487,116.534,140.321z"/>
		<path fill-rule="evenodd" clip-rule="evenodd" fill="none" d="M28.608,138.203c0,0.088,0,0.242,0,0.432
			c-0.911,0.543-1.876,0.477-2.938,0.336c0.271-0.738,0.521-1.422,0.792-2.162C27.131,137.243,27.8,137.678,28.608,138.203z"/>
	</g>
</g>
</svg>
