<?xml version="1.0" encoding="UTF-8" standalone="no"?>
<!DOCTYPE svg PUBLIC "-//W3C//DTD SVG 1.1//EN" "http://www.w3.org/Graphics/SVG/1.1/DTD/svg11.dtd">
<svg width="100%" height="100%" viewBox="0 0 200 200" version="1.1" xmlns="http://www.w3.org/2000/svg" xmlns:xlink="http://www.w3.org/1999/xlink" xml:space="preserve" xmlns:serif="http://www.serif.com/" style="fill-rule:evenodd;clip-rule:evenodd;stroke-linejoin:round;stroke-miterlimit:1.41421;">
    <g transform="matrix(1.24754,0,0,1.24754,-27.1519,-32.8521)">
        <path d="M101.327,30.153L113.252,46.481L130.518,35.96L135.288,55.608L155.266,52.496L152.154,72.474L171.802,77.243L161.281,94.509L177.608,106.435L161.281,118.361L171.802,135.627L152.154,140.396L155.266,160.374L135.288,157.262L130.518,176.91L113.252,166.389L101.327,182.717L89.401,166.389L72.135,176.91L67.365,157.262L47.387,160.374L50.5,140.396L30.852,135.627L41.372,118.361L25.045,106.435L41.372,94.509L30.852,77.243L50.5,72.474L47.387,52.496L67.365,55.608L72.135,35.96L89.401,46.481L101.327,30.153Z" style="fill:rgb(234,84,101);"/>
    </g>
</svg>
